<?xml version="1.0" encoding="utf-8"?>
<!-- Generator: Adobe Illustrator 21.0.2, SVG Export Plug-In . SVG Version: 6.00 Build 0)  -->
<svg version="1.1" id="Capa_1" xmlns="http://www.w3.org/2000/svg" xmlns:xlink="http://www.w3.org/1999/xlink" x="0px" y="0px"
	 viewBox="0 0 75 66" style="enable-background:new 0 0 75 66;" xml:space="preserve">
<style type="text/css">
	.st0{fill:#FFFFFF;}
</style>
<title>Group</title>
<desc>Created with Sketch.</desc>
<g id="Desktop-HD" transform="translate(-682.000000, -4371.000000)">
	<g id="Group-2-Copy" transform="translate(544.000000, 4275.000000)">
		<g id="Group" transform="translate(138.000000, 96.000000)">
			<path id="XMLID_27_" class="st0" d="M19.8,9.4c-2.8,0-5.7,0-8.5,0c0-2.9,0-5.8,0-9c2.8,0,5.7,0,8.5,0C19.8,3.5,19.8,6.5,19.8,9.4
				z"/>
			<path id="XMLID_26_" class="st0" d="M11,43.3c0-2.9,0-5.8,0-9c2.8,0,5.7,0,8.7,0c0,2.9,0,5.8,0,9C17,43.3,14.1,43.3,11,43.3z"/>
			<path id="XMLID_25_" class="st0" d="M0.2,23.1c2.8,0,5.7,0,8.5,0c0,2.9,0,5.8,0,9c-2.8,0-5.7,0-8.5,0C0.2,29.2,0.2,26.3,0.2,23.1
				z"/>
			<path id="XMLID_24_" class="st0" d="M11,32.1c0-2.9,0-5.8,0-9c2.8,0,5.7,0,8.5,0c0,2.9,0,5.8,0,9C17,32.1,14.1,32.1,11,32.1z"/>
			<path id="XMLID_23_" class="st0" d="M0.2,20.7c0-2.9,0-5.8,0-9c2.8,0,5.7,0,8.5,0c0,2.9,0,5.8,0,9C6.1,20.7,3.2,20.7,0.2,20.7z"
				/>
			<path id="XMLID_22_" class="st0" d="M19.8,11.8c0,2.9,0,5.8,0,9c-2.8,0-5.7,0-8.7,0c0-2.9,0-5.8,0-9
				C14.1,11.8,16.7,11.8,19.8,11.8z"/>
			<path id="XMLID_21_" class="st0" d="M33.3,45.7c2.8,0,5.7,0,8.5,0c0,2.9,0,5.8,0,9c-2.8,0-5.4,0-8.5,0
				C33.3,51.5,33.3,48.7,33.3,45.7z"/>
			<path id="XMLID_20_" class="st0" d="M22.2,9.4c0-2.9,0-5.8,0-8.7c2.8,0,5.7,0,8.7,0c0,2.9,0,5.8,0,8.7
				C27.9,9.4,25.3,9.4,22.2,9.4z"/>
			<path id="XMLID_19_" class="st0" d="M52.7,9.4c-2.8,0-5.7,0-8.5,0c0-2.9,0-5.8,0-9c2.8,0,5.7,0,8.5,0C52.7,3.5,52.7,6.5,52.7,9.4
				z"/>
			<path id="XMLID_18_" class="st0" d="M55.1,9.4c0-2.9,0-5.8,0-8.7c2.8,0,5.7,0,8.5,0c0,2.9,0,5.8,0,8.7
				C60.7,9.4,57.9,9.4,55.1,9.4z"/>
			<path id="XMLID_17_" class="st0" d="M30.7,20.9c-2.8,0-5.7,0-8.5,0c0-2.9,0-5.8,0-9c2.8,0,5.7,0,8.5,0
				C30.7,14.8,30.7,17.7,30.7,20.9z"/>
			<path id="XMLID_16_" class="st0" d="M41.6,32.1c-2.8,0-5.7,0-8.5,0c0-2.9,0-5.8,0-9c2.8,0,5.7,0,8.5,0
				C41.6,26,41.6,28.9,41.6,32.1z"/>
			<path id="XMLID_15_" class="st0" d="M52.7,32.1c-3,0-5.7,0-8.5,0c0-2.9,0-5.8,0-9c2.8,0,5.7,0,8.5,0
				C52.7,26.3,52.7,28.9,52.7,32.1z"/>
			<path id="XMLID_14_" class="st0" d="M55.1,32.1c0-3.1,0-5.8,0-9c2.8,0,5.7,0,8.5,0c0,2.9,0,5.8,0,9
				C60.7,32.1,57.9,32.1,55.1,32.1z"/>
			<path id="XMLID_13_" class="st0" d="M74.7,32.1c-2.8,0-5.7,0-8.5,0c0-2.9,0-5.8,0-9c2.8,0,5.7,0,8.5,0
				C74.7,26,74.7,28.9,74.7,32.1z"/>
			<path id="XMLID_12_" class="st0" d="M66.2,11.8c2.8,0,5.7,0,8.5,0c0,2.9,0,5.8,0,9c-2.8,0-5.7,0-8.5,0
				C66.2,17.7,66.2,14.8,66.2,11.8z"/>
			<path id="XMLID_11_" class="st0" d="M55.1,11.8c2.8,0,5.7,0,8.5,0c0,2.9,0,5.8,0,9c-2.8,0-5.7,0-8.5,0
				C55.1,17.7,55.1,14.8,55.1,11.8z"/>
			<path id="XMLID_10_" class="st0" d="M22.2,23.1c2.8,0,5.7,0,8.5,0c0,2.9,0,5.8,0,9c-2.8,0-5.7,0-8.5,0
				C22.2,29.2,22.2,26.3,22.2,23.1z"/>
			<path id="XMLID_9_" class="st0" d="M30.7,43.3c-2.8,0-5.7,0-8.5,0c0-2.9,0-5.8,0-9c2.8,0,5.7,0,8.5,0
				C30.7,37.2,30.7,40.4,30.7,43.3z"/>
			<path id="XMLID_8_" class="st0" d="M41.6,43.3c-2.8,0-5.7,0-8.5,0c0-2.9,0-5.8,0-9c2.8,0,5.7,0,8.5,0
				C41.6,37.5,41.6,40.4,41.6,43.3z"/>
			<path id="XMLID_7_" class="st0" d="M44.1,43.3c0-2.9,0-5.8,0-9c2.8,0,5.7,0,8.5,0c0,2.9,0,5.8,0,9C49.8,43.3,47,43.3,44.1,43.3z"
				/>
			<path id="XMLID_6_" class="st0" d="M55.1,43.3c0-3.1,0-5.8,0-9c2.8,0,5.7,0,8.5,0c0,2.9,0,5.8,0,9C60.7,43.3,57.9,43.3,55.1,43.3
				z"/>
			<path id="XMLID_5_" class="st0" d="M52.7,11.8c0,3.1,0,5.8,0,9c-2.8,0-5.7,0-8.5,0c0-2.9,0-5.8,0-9C47,11.8,49.6,11.8,52.7,11.8z
				"/>
			<path id="XMLID_4_" class="st0" d="M33,20.7c0-2.9,0-5.8,0-9c2.8,0,5.7,0,8.5,0c0,2.9,0,5.8,0,9C39,20.7,36.2,20.7,33,20.7z"/>
			<path id="XMLID_3_" class="st0" d="M30.9,45.7c0,2.9,0,5.8,0,9c-2.8,0-5.7,0-8.5,0c0-2.9,0-5.8,0-9
				C25.1,45.7,27.9,45.7,30.9,45.7z"/>
			<path id="XMLID_2_" class="st0" d="M52.7,54.8c-2.8,0-5.7,0-8.5,0c0-2.9,0-5.8,0-9c2.8,0,5.7,0,8.5,0
				C52.7,48.7,52.7,51.5,52.7,54.8z"/>
			<path id="XMLID_1_" class="st0" d="M33,66c0-2.9,0-5.8,0-9c2.8,0,5.7,0,8.5,0c0,2.9,0,5.8,0,9C39,66,36.2,66,33,66z"/>
		</g>
	</g>
</g>
</svg>
