<?xml version="1.0" encoding="UTF-8"?>
<svg width="69px" height="58px" viewBox="0 0 69 58" version="1.1" xmlns="http://www.w3.org/2000/svg" xmlns:xlink="http://www.w3.org/1999/xlink">
    <!-- Generator: Sketch 49.1 (51147) - http://www.bohemiancoding.com/sketch -->
    <title>Page 1</title>
    <desc>Created with Sketch.</desc>
    <defs></defs>
    <g id="NSW-website" stroke="none" stroke-width="1" fill="none" fill-rule="evenodd">
        <g id="Group-27-Copy-2" fill="#FEFEFE">
            <g id="Page-1">
                <polygon id="Fill-1" points="10 8 18 8 18 0 10 0"></polygon>
                <polygon id="Fill-2" points="10 38 18 38 18 30 10 30"></polygon>
                <polygon id="Fill-3" points="0 28 8 28 8 20 0 20"></polygon>
                <polygon id="Fill-4" points="10 28 18 28 18 20 10 20"></polygon>
                <polygon id="Fill-5" points="0 18 8 18 8 10 0 10"></polygon>
                <polygon id="Fill-6" points="10 18 18 18 18 10 10 10"></polygon>
                <polygon id="Fill-7" points="30 48 38 48 38 40 30 40"></polygon>
                <polygon id="Fill-8" points="20 8 28 8 28 0 20 0"></polygon>
                <polygon id="Fill-9" points="40 8 48 8 48 0 40 0"></polygon>
                <polygon id="Fill-10" points="50 8 58 8 58 0 50 0"></polygon>
                <polygon id="Fill-11" points="20 18 28 18 28 10 20 10"></polygon>
                <polygon id="Fill-12" points="30 28 38 28 38 20 30 20"></polygon>
                <polygon id="Fill-13" points="40 28 48 28 48 20 40 20"></polygon>
                <polygon id="Fill-14" points="50 28 58 28 58 20 50 20"></polygon>
                <polygon id="Fill-15" points="61 28 69 28 69 20 61 20"></polygon>
                <polygon id="Fill-16" points="61 18 69 18 69 10 61 10"></polygon>
                <polygon id="Fill-17" points="51 18 59 18 59 10 51 10"></polygon>
                <polygon id="Fill-18" points="20 28 28 28 28 20 20 20"></polygon>
                <polygon id="Fill-19" points="20 38 28 38 28 30 20 30"></polygon>
                <polygon id="Fill-20" points="30 38 38 38 38 30 30 30"></polygon>
                <polygon id="Fill-21" points="40 38 48 38 48 30 40 30"></polygon>
                <polygon id="Fill-22" points="50 38 58 38 58 30 50 30"></polygon>
                <polygon id="Fill-23" points="40 18 48 18 48 10 40 10"></polygon>
                <polygon id="Fill-24" points="30 18 38 18 38 10 30 10"></polygon>
                <polygon id="Fill-25" points="20 48 28 48 28 40 20 40"></polygon>
                <polygon id="Fill-26" points="40 48 48 48 48 40 40 40"></polygon>
                <polygon id="Fill-27" points="30 58 38 58 38 50 30 50"></polygon>
            </g>
        </g>
    </g>
</svg>