<?xml version="1.0" encoding="UTF-8"?>
<svg width="241px" height="407px" viewBox="0 0 241 407" version="1.1" xmlns="http://www.w3.org/2000/svg" xmlns:xlink="http://www.w3.org/1999/xlink">
    <!-- Generator: Sketch 49.1 (51147) - http://www.bohemiancoding.com/sketch -->
    <title>Page 1</title>
    <desc>Created with Sketch.</desc>
    <defs>
        <polygon id="path-1" points="0 0.00109090909 103.998894 0.00109090909 103.998894 24 0 24"></polygon>
        <polygon id="path-3" points="0 0 8.998875 0 8.998875 7 0 7"></polygon>
        <polygon id="path-5" points="0 0 8.998875 0 8.998875 7 0 7"></polygon>
        <polygon id="path-7" points="0 0 8.998875 0 8.998875 7 0 7"></polygon>
        <polygon id="path-9" points="0 0 8.998875 0 8.998875 7 0 7"></polygon>
        <polygon id="path-11" points="0 0 8.998875 0 8.998875 7 0 7"></polygon>
        <polygon id="path-13" points="0 0 8.998875 0 8.998875 7 0 7"></polygon>
        <polygon id="path-15" points="0 0 8.998875 0 8.998875 7 0 7"></polygon>
        <polygon id="path-17" points="0 0 8.998875 0 8.998875 7 0 7"></polygon>
        <polygon id="path-19" points="0 0 8.998875 0 8.998875 7 0 7"></polygon>
        <polygon id="path-21" points="0 0 88.9988875 0 88.9988875 7 0 7"></polygon>
        <polygon id="path-23" points="0 0 88.9988875 0 88.9988875 7 0 7"></polygon>
        <polygon id="path-25" points="0 0 88.9988875 0 88.9988875 7 0 7"></polygon>
        <polygon id="path-27" points="0 0 88.9988875 0 88.9988875 7 0 7"></polygon>
        <polygon id="path-29" points="0 0 88.9988875 0 88.9988875 7 0 7"></polygon>
        <polygon id="path-31" points="0 0 88.9988875 0 88.9988875 7 0 7"></polygon>
        <polygon id="path-33" points="0 0 88.9988875 0 88.9988875 7 0 7"></polygon>
        <polygon id="path-35" points="0 0 88.9988875 0 88.9988875 7 0 7"></polygon>
        <polygon id="path-37" points="0 0 88.9988875 0 88.9988875 7 0 7"></polygon>
        <path d="M146.510224,0.0749660194 L22.7276154,0.398456311 C21.9291538,0.400679612 21.1628526,0.721946602 20.6017115,1.2922233 C20.0372436,1.86138835 19.7222949,2.63620874 19.7256218,3.43882039 L19.7422564,9.84081553 L9.79475641,9.84081553 C8.13240385,9.84081553 6.785,11.1981408 6.785,12.8733981 C6.785,14.5486553 8.13240385,15.9059806 9.79475641,15.9059806 L19.758891,15.9059806 L19.7910513,28.541 L9.79475641,28.541 C8.13240385,28.541 6.785,29.8983252 6.785,31.5746942 C6.785,33.2488398 8.13240385,34.606165 9.79475641,34.606165 L19.804359,34.606165 L19.8387372,47.2445194 L9.79475641,47.2445194 C8.13240385,47.2445194 6.785,48.600733 6.785,50.2771019 C6.785,51.9501359 8.13240385,53.3096845 9.79475641,53.3096845 L19.8542628,53.3096845 L19.8875321,65.9447039 L9.79475641,65.9447039 C8.13240385,65.9447039 6.785,67.3009175 6.785,68.9783981 C6.785,70.651432 8.13240385,72.0098689 9.79475641,72.0098689 L19.9019487,72.0098689 L19.9363269,84.646 L9.79475641,84.646 C8.13240385,84.646 6.785,86.0033252 6.785,87.6774709 C6.785,89.3516165 8.13240385,90.711165 9.79475641,90.711165 L19.9518526,90.711165 L19.9840128,103.347296 L9.79475641,103.347296 C8.13240385,103.347296 6.785,104.704621 6.785,106.38099 C6.785,108.055136 8.13240385,109.412461 9.79475641,109.412461 L19.9995385,109.412461 L20.0228269,118.561345 C17.7671731,118.98266 15.7543846,120.265505 14.4003269,122.126408 C14.1907308,122.077495 13.9711538,122.049704 13.7460321,122.049704 L9.79475641,122.049704 C8.13240385,122.049704 6.785,123.405917 6.785,125.081175 C6.785,126.75532 8.13240385,128.114869 9.79475641,128.114869 L11.456,128.114869 L1.17137179,150.682485 C0.476044872,152.212117 0.0989935897,153.902937 0.0768141026,155.583752 L0.0768141026,225.008549 C0.112301282,226.211354 1.0715641,227.180714 2.26703846,227.215175 L2.40011538,227.215175 C3.61666026,227.180714 4.59144872,226.17467 4.59144872,224.94185 L4.59144872,155.736049 C4.59144872,154.655524 4.82987821,153.56166 5.27679487,152.578961 L17.5853013,125.565854 C18.0787949,124.487553 18.9715192,123.67716 20.0350256,123.258068 L20.0350256,123.328102 C20.5429359,123.126893 21.0885513,123.006835 21.6496923,123.006835 L26.0545385,123.006835 L26.0545385,122.941248 L44.7562821,122.941248 C44.8549808,125.380209 44.5588846,129.760112 41.7420897,133.18733 C38.9175321,136.618995 34.1323077,138.35984 27.5117308,138.35984 C26.98275,138.35984 26.4925833,138.563272 26.0977885,138.888985 L26.0977885,138.805612 C25.8216538,139.022383 25.5798974,139.285845 25.4224231,139.614893 L20.106,150.67915 L20.106,150.828112 L17.4455705,156.371913 C17.165,156.954417 17.1439295,157.630301 17.3890128,158.230592 C17.6374231,158.82866 18.1209359,159.292218 18.7286538,159.507879 C18.7585962,159.518995 19.285359,159.713534 20.1326154,160.111505 L20.1326154,160.183762 C21.5166154,160.838524 23.7556346,162.042442 26.162109,163.931136 L26.162109,163.848874 C31.2356667,167.815243 37.0400385,174.789738 37.0400385,185.964049 C37.0400385,197.022748 34.0801859,205.276752 31.3654167,210.541529 L31.2933333,210.541529 C29.7052821,213.615243 28.2170385,215.657345 27.4485192,216.616699 L27.5294744,216.616699 C27.1879103,217.044684 26.9672244,217.291471 26.9461538,217.315927 C26.0878077,218.225257 26.1244038,219.662621 27.026,220.527485 C27.9275962,221.390126 29.3570641,221.359 30.2187372,220.448558 C30.3662308,220.29515 31.5628141,218.997854 33.12425,216.601136 L56.8130513,216.539995 L53.1467821,220.598631 C52.3106154,221.526859 52.3771538,222.967558 53.2998205,223.811301 C53.7323205,224.20816 54.2768269,224.403811 54.8168974,224.403811 C55.4323782,224.403811 56.0434231,224.153689 56.4903397,223.659005 L62.9279359,216.526655 L147.456179,216.305437 C160.720622,216.268752 171.484327,205.367908 171.446622,192.008092 L171.013013,24.2411359 C170.99416,17.7679951 168.477897,11.6906019 163.922231,7.1250534 C159.433103,2.62731553 153.493436,0.129436893 147.170064,0.0749660194 L146.510224,0.0749660194 Z M25.7540064,6.45472816 L146.908346,6.14013107 L146.961577,6.14013107 C151.760109,6.14013107 156.272526,8.01770874 159.674859,11.4260291 C163.089391,14.8476893 164.977974,19.403233 164.992391,24.2578107 L165.426,192.023655 C165.453724,202.040738 157.382609,210.210257 147.439545,210.23916 L36.4367564,210.527078 C39.0772244,204.774286 41.5546731,196.578087 41.5546731,185.964049 C41.5546731,170.907854 32.4588654,162.409286 26.1476923,158.321748 L26.1221859,148.749325 L28.9389808,142.883146 C36.2493397,142.623019 41.7210192,140.341913 45.2187244,136.090961 C50.6704423,129.461078 49.0868269,120.617898 49.0169615,120.243272 C48.8129103,119.169417 47.8813718,118.392374 46.7979038,118.392374 L26.0445577,118.392374 L26.0212692,109.412461 L30.8685962,109.412461 C32.5298397,109.412461 33.8794615,108.055136 33.8794615,106.38099 C33.8794615,104.704621 32.5298397,103.347296 30.8685962,103.347296 L26.0046346,103.347296 L25.9724744,90.711165 L30.8685962,90.711165 C32.5298397,90.711165 33.8794615,89.3516165 33.8794615,87.6774709 C33.8794615,86.0033252 32.5298397,84.646 30.8685962,84.646 L25.9580577,84.646 L25.9225705,72.0098689 L30.8685962,72.0098689 C32.5298397,72.0098689 33.8794615,70.651432 33.8794615,68.9783981 C33.8794615,67.3009175 32.5298397,65.9447039 30.8685962,65.9447039 L25.9092628,65.9447039 L25.8759936,53.3096845 L30.8685962,53.3096845 C32.5298397,53.3096845 33.8794615,51.9501359 33.8794615,50.2771019 C33.8794615,48.600733 32.5298397,47.2445194 30.8685962,47.2445194 L25.859359,47.2445194 L25.8260897,34.606165 L30.8685962,34.606165 C32.5298397,34.606165 33.8794615,33.2488398 33.8794615,31.5746942 C33.8794615,29.8983252 32.5298397,28.541 30.8685962,28.541 L25.8116731,28.541 L25.7806218,15.9059806 L30.8685962,15.9059806 C32.5298397,15.9059806 33.8794615,14.5486553 33.8794615,12.8733981 C33.8794615,11.1981408 32.5298397,9.84081553 30.8685962,9.84081553 L25.7628782,9.84081553 L25.7540064,6.45472816 Z" id="path-39"></path>
        <polygon id="path-41" points="0 0 0.247805571 183 88 183 87.7533107 0"></polygon>
        <path d="M35.8674928,1.50057143 C35.5639565,1.80685714 35.3586232,2.17942857 35.2593043,2.57485714 L28.6986812,9.13485714 L21.6057536,1.65714286 C20.9596232,0.978285714 19.9775942,0.825142857 19.1227826,1.18628571 C18.7377826,1.34514286 18.4130435,1.61714286 18.172,1.95542857 L10.9931449,9.13485714 L3.89798551,1.65714286 C3.0242029,0.737142857 1.58798551,0.716571429 0.685188406,1.61485714 C-0.210913043,2.51428571 -0.231,3.98971429 0.643898551,4.91428571 L9.38284058,14.1245714 C10.0278551,14.8068571 11.011,14.9588571 11.8635797,14.5977143 C12.2485797,14.4377143 12.5733188,14.1645714 12.8143623,13.8285714 L19.9943333,6.64685714 L27.0883768,14.1245714 C27.7356232,14.8068571 28.7165362,14.9588571 29.5713478,14.5977143 C29.9563478,14.4377143 30.2788551,14.1645714 30.5210145,13.8285714 L37.6418406,6.70628571 L44.7916812,14.2434286 C45.4344638,14.9222857 46.4176087,15.0742857 47.2746522,14.7165714 C47.6596522,14.5542857 47.9832754,14.2822857 48.2243188,13.9462857 L55.6375217,6.52914286 L62.9547536,14.2434286 C63.3743478,14.6857143 63.9356667,14.904 64.5137246,14.904 C64.8228406,14.904 65.1386522,14.8411429 65.4366087,14.7165714 C65.8238406,14.5542857 66.1474638,14.2822857 66.3885072,13.9462857 L75.3684928,4.96 C76.2668261,4.06057143 76.2846812,2.584 75.4086667,1.66057143 C74.5337681,0.737142857 73.0964348,0.72 72.1969855,1.61828571 L64.563942,9.25371429 L57.2467101,1.53942857 C56.6050435,0.862857143 55.6241304,0.712 54.7637391,1.06857143 C54.3787391,1.22742857 54.0551159,1.50171429 53.8140725,1.83885714 L46.4019855,9.25371429 L39.3615072,1.832 C39.3425362,1.81142857 39.3246812,1.79085714 39.3068261,1.77257143 L39.0791739,1.53257143 C38.633913,1.06857143 38.0458116,0.836571429 37.4577101,0.836571429 C36.8841159,0.836571429 36.3105217,1.05714286 35.8674928,1.50057143 Z" id="path-43"></path>
        <path d="M36.5035797,0.801230769 C36.1989275,1.08984615 35.9947101,1.442 35.8942754,1.81353846 L29.3336522,7.99723077 L22.2407246,0.950923077 C21.5968261,0.313384615 20.617029,0.168 19.7566377,0.504 C19.3738696,0.656923077 19.0491304,0.911076923 18.808087,1.22984615 L11.6292319,7.99723077 L4.53295652,0.950923077 C3.65805797,0.0818461538 2.2196087,0.0624615385 1.32127536,0.911076923 C0.424057971,1.75861538 0.403971014,3.14892308 1.27998551,4.02015385 L10.0189275,12.698 C10.663942,13.3387692 11.645971,13.4809231 12.5007826,13.1449231 C12.8846667,12.9930769 13.2082899,12.7367692 13.4482174,12.4201538 L20.6293043,5.65061538 L27.7244638,12.698 C28.3694783,13.3387692 29.3503913,13.4809231 30.2085507,13.1449231 C30.5913188,12.9930769 30.9138261,12.7367692 31.1559855,12.4201538 L38.2768116,5.70661538 L45.4266522,12.81 C46.0694348,13.4507692 47.0525797,13.5918462 47.9085072,13.2547692 C48.2957391,13.1018462 48.6193623,12.8466154 48.8604058,12.5278462 L56.2724928,5.54184615 L63.5908406,12.81 C64.0093188,13.2256923 64.5706377,13.4324615 65.1498116,13.4324615 C65.4589275,13.4324615 65.7736232,13.3721538 66.0726957,13.2547692 C66.4576957,13.1018462 66.7824348,12.8466154 67.0223623,12.5278462 L76.0034638,4.06215385 C76.902913,3.21569231 76.9207681,1.82430769 76.0447536,0.954153846 C75.170971,0.0872307692 73.7336377,0.0678461538 72.8319565,0.914307692 L65.200029,8.10707692 L57.8816812,0.837846154 C57.2377826,0.199230769 56.2535217,0.0549230769 55.3987101,0.393076923 C55.0148261,0.544923077 54.688971,0.804461538 54.4479275,1.12430769 L47.0358406,8.10707692 L39.9975942,1.11461538 C39.9775072,1.09415385 39.9596522,1.07584615 39.9417971,1.05753846 L39.7141449,0.832461538 C39.2688841,0.395230769 38.6807826,0.174461538 38.0937971,0.174461538 C37.5202029,0.174461538 36.9466087,0.383384615 36.5035797,0.801230769 Z" id="path-45"></path>
        <path d="M36.1364348,0.801230769 C35.8317826,1.08984615 35.6264493,1.442 35.5260145,1.81353846 L28.9665072,7.99723077 L21.8735797,0.950923077 C21.2274493,0.313384615 20.2476522,0.168 19.3894928,0.504 C19.0056087,0.656923077 18.6808696,0.911076923 18.440942,1.22984615 L11.260971,7.99723077 L4.16581159,0.950923077 C3.28868116,0.0818461538 1.85134783,0.0624615385 0.953014493,0.911076923 C0.0569130435,1.75861538 0.036826087,3.14892308 0.91284058,4.02015385 L9.65066667,12.698 C10.2945652,13.3387692 11.2765942,13.4809231 12.1325217,13.1449231 C12.5164058,12.9930769 12.8411449,12.7367692 13.0810725,12.4201538 L20.2610435,5.65061538 L27.3573188,12.698 C28.0012174,13.3387692 28.9810145,13.4809231 29.8402899,13.1449231 C30.223058,12.9930769 30.5455652,12.7367692 30.7888406,12.4201538 L37.9096667,5.70661538 L45.0583913,12.81 C45.7022899,13.4507692 46.6832029,13.5918462 47.5413623,13.2547692 C47.9274783,13.1018462 48.2522174,12.8466154 48.4921449,12.5278462 L55.9053478,5.54184615 L63.2225797,12.81 C63.641058,13.2256923 64.2034928,13.4324615 64.7815507,13.4324615 C65.0906667,13.4324615 65.4053623,13.3721538 65.7044348,13.2547692 C66.0905507,13.1018462 66.4152899,12.8466154 66.6563333,12.5278462 L75.6363188,4.06215385 C76.5346522,3.21569231 76.5525072,1.82430769 75.6764928,0.954153846 C74.8027101,0.0872307692 73.3664928,0.0678461538 72.4636957,0.914307692 L64.8317681,8.10707692 L57.5145362,0.837846154 C56.8706377,0.199230769 55.8874928,0.0549230769 55.0315652,0.393076923 C54.6465652,0.544923077 54.3207101,0.804461538 54.0807826,1.12430769 L46.6698116,8.10707692 L39.6304493,1.11461538 C39.6103623,1.09415385 39.5913913,1.07584615 39.5735362,1.05753846 L39.347,0.832461538 C38.9017391,0.395230769 38.3147536,0.174461538 37.7255362,0.174461538 C37.151942,0.174461538 36.5783478,0.383384615 36.1364348,0.801230769 Z" id="path-47"></path>
    </defs>
    <g id="NSW-website" stroke="none" stroke-width="1" fill="none" fill-rule="evenodd">
        <g id="AGENDA" transform="translate(-227.000000, -232.000000)">
            <g id="Page-1" transform="translate(227.000000, 232.000000)">
                <path d="M69,227 L70.0665044,150.559861 L89.0387053,123.615385 L89.0387053,3.55583127 L221.516812,3 C221.516812,3 239.573912,7.99358809 240.564715,24.1171414 L241,191.885916 L232.092796,206.990074 L222.630074,212.548387 L129.116116,211.436725 L123.920525,224.281985 L69,227 Z" id="Fill-1" fill="#FFFFFF"></path>
                <g id="Group-5" transform="translate(113.000000, 28.000000)">
                    <mask id="mask-2" fill="white">
                        <use xlink:href="#path-1"></use>
                    </mask>
                    <g id="Clip-4"></g>
                    <polygon id="Fill-3" fill="#FD7016" mask="url(#mask-2)" points="-5.53191489 29.4545455 109.531915 29.4545455 109.531915 -5.45454545 -5.53191489 -5.45454545"></polygon>
                </g>
                <g id="Group-8" transform="translate(113.000000, 154.000000)">
                    <mask id="mask-4" fill="white">
                        <use xlink:href="#path-3"></use>
                    </mask>
                    <g id="Clip-7"></g>
                    <polygon id="Fill-6" fill="#FD6F00" mask="url(#mask-4)" points="-5.625 12.8333333 14.625 12.8333333 14.625 -5.83333333 -5.625 -5.83333333"></polygon>
                </g>
                <g id="Group-11" transform="translate(113.000000, 167.000000)">
                    <mask id="mask-6" fill="white">
                        <use xlink:href="#path-5"></use>
                    </mask>
                    <g id="Clip-10"></g>
                    <polygon id="Fill-9" fill="#FD6F00" mask="url(#mask-6)" points="-5.625 12.8333333 14.625 12.8333333 14.625 -5.83333333 -5.625 -5.83333333"></polygon>
                </g>
                <g id="Group-14" transform="translate(113.000000, 181.000000)">
                    <mask id="mask-8" fill="white">
                        <use xlink:href="#path-7"></use>
                    </mask>
                    <g id="Clip-13"></g>
                    <polygon id="Fill-12" fill="#FD6F00" mask="url(#mask-8)" points="-5.625 12.8333333 14.625 12.8333333 14.625 -5.83333333 -5.625 -5.83333333"></polygon>
                </g>
                <g id="Group-17" transform="translate(113.000000, 108.000000)">
                    <mask id="mask-10" fill="white">
                        <use xlink:href="#path-9"></use>
                    </mask>
                    <g id="Clip-16"></g>
                    <polygon id="Fill-15" fill="#FD6F00" mask="url(#mask-10)" points="-5.625 12.8333333 14.625 12.8333333 14.625 -5.83333333 -5.625 -5.83333333"></polygon>
                </g>
                <g id="Group-20" transform="translate(113.000000, 121.000000)">
                    <mask id="mask-12" fill="white">
                        <use xlink:href="#path-11"></use>
                    </mask>
                    <g id="Clip-19"></g>
                    <polygon id="Fill-18" fill="#FD6F00" mask="url(#mask-12)" points="-5.625 12.8333333 14.625 12.8333333 14.625 -5.83333333 -5.625 -5.83333333"></polygon>
                </g>
                <g id="Group-23" transform="translate(113.000000, 136.000000)">
                    <mask id="mask-14" fill="white">
                        <use xlink:href="#path-13"></use>
                    </mask>
                    <g id="Clip-22"></g>
                    <polygon id="Fill-21" fill="#FD6F00" mask="url(#mask-14)" points="-5.625 12.8333333 14.625 12.8333333 14.625 -5.83333333 -5.625 -5.83333333"></polygon>
                </g>
                <g id="Group-26" transform="translate(113.000000, 62.000000)">
                    <mask id="mask-16" fill="white">
                        <use xlink:href="#path-15"></use>
                    </mask>
                    <g id="Clip-25"></g>
                    <polygon id="Fill-24" fill="#FD6F00" mask="url(#mask-16)" points="-5.625 12.8333333 14.625 12.8333333 14.625 -5.83333333 -5.625 -5.83333333"></polygon>
                </g>
                <g id="Group-29" transform="translate(113.000000, 76.000000)">
                    <mask id="mask-18" fill="white">
                        <use xlink:href="#path-17"></use>
                    </mask>
                    <g id="Clip-28"></g>
                    <polygon id="Fill-27" fill="#FD6F00" mask="url(#mask-18)" points="-5.625 12.8333333 14.625 12.8333333 14.625 -5.83333333 -5.625 -5.83333333"></polygon>
                </g>
                <g id="Group-32" transform="translate(113.000000, 90.000000)">
                    <mask id="mask-20" fill="white">
                        <use xlink:href="#path-19"></use>
                    </mask>
                    <g id="Clip-31"></g>
                    <polygon id="Fill-30" fill="#FD6F00" mask="url(#mask-20)" points="-5.625 12.8333333 14.625 12.8333333 14.625 -5.83333333 -5.625 -5.83333333"></polygon>
                </g>
                <g id="Group-35" transform="translate(129.000000, 154.000000)">
                    <mask id="mask-22" fill="white">
                        <use xlink:href="#path-21"></use>
                    </mask>
                    <g id="Clip-34"></g>
                    <polygon id="Fill-33" fill="#414042" mask="url(#mask-22)" points="-5.5625 12.8333333 94.5625 12.8333333 94.5625 -5.83333333 -5.5625 -5.83333333"></polygon>
                </g>
                <g id="Group-38" transform="translate(129.000000, 167.000000)">
                    <mask id="mask-24" fill="white">
                        <use xlink:href="#path-23"></use>
                    </mask>
                    <g id="Clip-37"></g>
                    <polygon id="Fill-36" fill="#414042" mask="url(#mask-24)" points="-5.5625 12.8333333 94.5625 12.8333333 94.5625 -5.83333333 -5.5625 -5.83333333"></polygon>
                </g>
                <g id="Group-41" transform="translate(129.000000, 181.000000)">
                    <mask id="mask-26" fill="white">
                        <use xlink:href="#path-25"></use>
                    </mask>
                    <g id="Clip-40"></g>
                    <polygon id="Fill-39" fill="#414042" mask="url(#mask-26)" points="-5.5625 12.8333333 94.5625 12.8333333 94.5625 -5.83333333 -5.5625 -5.83333333"></polygon>
                </g>
                <g id="Group-44" transform="translate(129.000000, 108.000000)">
                    <mask id="mask-28" fill="white">
                        <use xlink:href="#path-27"></use>
                    </mask>
                    <g id="Clip-43"></g>
                    <polygon id="Fill-42" fill="#414042" mask="url(#mask-28)" points="-5.5625 12.8333333 94.5625 12.8333333 94.5625 -5.83333333 -5.5625 -5.83333333"></polygon>
                </g>
                <g id="Group-47" transform="translate(129.000000, 121.000000)">
                    <mask id="mask-30" fill="white">
                        <use xlink:href="#path-29"></use>
                    </mask>
                    <g id="Clip-46"></g>
                    <polygon id="Fill-45" fill="#414042" mask="url(#mask-30)" points="-5.5625 12.8333333 94.5625 12.8333333 94.5625 -5.83333333 -5.5625 -5.83333333"></polygon>
                </g>
                <g id="Group-50" transform="translate(129.000000, 136.000000)">
                    <mask id="mask-32" fill="white">
                        <use xlink:href="#path-31"></use>
                    </mask>
                    <g id="Clip-49"></g>
                    <polygon id="Fill-48" fill="#414042" mask="url(#mask-32)" points="-5.5625 12.8333333 94.5625 12.8333333 94.5625 -5.83333333 -5.5625 -5.83333333"></polygon>
                </g>
                <g id="Group-53" transform="translate(129.000000, 62.000000)">
                    <mask id="mask-34" fill="white">
                        <use xlink:href="#path-33"></use>
                    </mask>
                    <g id="Clip-52"></g>
                    <polygon id="Fill-51" fill="#414042" mask="url(#mask-34)" points="-5.5625 12.8333333 94.5625 12.8333333 94.5625 -5.83333333 -5.5625 -5.83333333"></polygon>
                </g>
                <g id="Group-56" transform="translate(129.000000, 76.000000)">
                    <mask id="mask-36" fill="white">
                        <use xlink:href="#path-35"></use>
                    </mask>
                    <g id="Clip-55"></g>
                    <polygon id="Fill-54" fill="#414042" mask="url(#mask-36)" points="-5.5625 12.8333333 94.5625 12.8333333 94.5625 -5.83333333 -5.5625 -5.83333333"></polygon>
                </g>
                <g id="Group-59" transform="translate(129.000000, 90.000000)">
                    <mask id="mask-38" fill="white">
                        <use xlink:href="#path-37"></use>
                    </mask>
                    <g id="Clip-58"></g>
                    <polygon id="Fill-57" fill="#414042" mask="url(#mask-38)" points="-5.5625 12.8333333 94.5625 12.8333333 94.5625 -5.83333333 -5.5625 -5.83333333"></polygon>
                </g>
                <g id="Group-62" transform="translate(69.000000, 0.000000)">
                    <mask id="mask-40" fill="white">
                        <use xlink:href="#path-39"></use>
                    </mask>
                    <g id="Clip-61"></g>
                    <polygon id="Fill-60" fill="#414042" mask="url(#mask-40)" points="-5.46916667 232.774539 176.991494 232.774539 176.991494 -5.48328641 -5.46916667 -5.48328641"></polygon>
                </g>
                <g id="Group-65" transform="translate(58.000000, 224.000000)">
                    <mask id="mask-42" fill="white">
                        <use xlink:href="#path-41"></use>
                    </mask>
                    <g id="Clip-64"></g>
                    <polygon id="Fill-63" fill="#00FFDC" mask="url(#mask-42)" points="-6 188 93 188 93 -4 -6 -4"></polygon>
                </g>
                <g id="Group-68" transform="translate(0.000000, 355.000000)">
                    <mask id="mask-44" fill="white">
                        <use xlink:href="#path-43"></use>
                    </mask>
                    <g id="Clip-67"></g>
                    <polygon id="Fill-66" fill="#414042" mask="url(#mask-44)" points="-5.57971014 20.6057143 81.6333913 20.6057143 81.6333913 -4.86628571 -5.57971014 -4.86628571"></polygon>
                </g>
                <g id="Group-71" transform="translate(52.000000, 374.000000)">
                    <mask id="mask-46" fill="white">
                        <use xlink:href="#path-45"></use>
                    </mask>
                    <g id="Clip-70"></g>
                    <polygon id="Fill-69" fill="#414042" mask="url(#mask-46)" points="-4.94362319 18.8052308 82.2694783 18.8052308 82.2694783 -5.19723077 -4.94362319 -5.19723077"></polygon>
                </g>
                <g id="Group-74" transform="translate(142.000000, 374.000000)">
                    <mask id="mask-48" fill="white">
                        <use xlink:href="#path-47"></use>
                    </mask>
                    <g id="Clip-73"></g>
                    <polygon id="Fill-72" fill="#414042" mask="url(#mask-48)" points="-5.31188406 18.8052308 81.9012174 18.8052308 81.9012174 -5.19723077 -5.31188406 -5.19723077"></polygon>
                </g>
            </g>
        </g>
    </g>
</svg>