<?xml version="1.0" encoding="UTF-8"?>
<svg width="488px" height="515px" viewBox="0 0 488 515" version="1.1" xmlns="http://www.w3.org/2000/svg" xmlns:xlink="http://www.w3.org/1999/xlink">
    <!-- Generator: Sketch 49.1 (51147) - http://www.bohemiancoding.com/sketch -->
    <title>Group 27</title>
    <desc>Created with Sketch.</desc>
    <defs>
        <path d="M80.1138947,0.5775 L0.0985263158,0.786409836 L0.0985263158,84.5845 L6.76357895,84.5845 C7.55936842,84.5845 8.24147368,85.149377 8.38989474,85.932 C8.44168421,86.2046557 9.60189474,92.648041 5.60652632,97.4782131 C4.20505263,99.176 2.352,100.42441 0.0985263158,101.255 L0.0985263158,153.927418 L80.5124211,153.71977 C89.028,153.696418 95.9147368,146.763262 95.8913684,138.230779 L95.8667368,128.483967 L95.7511579,83.7835738 L95.7404211,80.1790902 L95.7246316,74.0367623 L95.7138947,70.4348033 L95.5995789,25.7318852 L95.5749474,15.9844426 C95.5515789,7.46836885 88.6496842,0.578762295 80.1543158,0.5775 C80.1404211,0.5775 80.1277895,0.5775 80.1138947,0.5775 Z" id="path-1"></path>
        <polygon id="path-3" points="0.084 0.128224138 55.9751111 0.128224138 55.9751111 36.7639655 0.084 36.7639655"></polygon>
        <polygon id="path-5" points="0.084 0.515333333 55.9751111 0.515333333 55.9751111 5.424 0.084 5.424"></polygon>
        <polygon id="path-7" points="0.084 0.311875 55.9751111 0.311875 55.9751111 4.91375 0.084 4.91375"></polygon>
        <polygon id="path-9" points="0.084 0.464666667 55.9751111 0.464666667 55.9751111 5.37333333 0.084 5.37333333"></polygon>
        <path d="M107.58195,0.609924242 L16.83864,0.845719697 C16.25589,0.846977273 15.69582,1.07962879 15.28569,1.49337121 C14.87304,1.90711364 14.64309,2.46799242 14.64561,3.05150758 L14.86296,86.5834621 C12.78837,86.9695379 10.9809,88.3321212 10.08252,90.2895379 L1.08549,109.890742 C0.56259,111.034508 0.28539,112.301515 0.28539,113.558462 L0.28539,163.773462 C0.28539,164.683947 1.02312,165.423402 1.93536,165.423402 C2.8476,165.423402 3.58533,164.683947 3.58533,163.773462 L3.58533,113.558462 C3.58533,112.773735 3.75921,111.980205 4.08555,111.267788 L13.08132,91.6665833 C13.44168,90.8837424 14.09373,90.2964545 14.87178,89.9921212 L14.87178,90.0424242 C15.24285,89.8965455 15.64038,89.8097727 16.0524,89.8097727 L19.27107,89.8097727 L19.27107,89.7626136 L27.78237,89.7626136 L32.93829,89.7626136 C33.00948,91.5313939 32.79402,94.7105455 30.73455,97.1961439 C29.95398,98.138697 28.96803,98.903303 27.78237,99.4918485 C25.83189,100.460182 23.34339,100.949379 20.33577,100.949379 C19.94895,100.949379 19.59111,101.097144 19.30194,101.333568 L19.30194,101.273205 C19.10034,101.430402 18.92331,101.621553 18.80802,101.860492 L14.92407,109.888856 L14.92407,109.996379 L12.97863,114.019364 C12.77388,114.441909 12.75876,114.932364 12.93831,115.366856 C13.11786,115.801977 13.47255,116.138379 13.9167,116.294318 C13.93938,116.302492 14.32305,116.44397 14.94234,116.732583 L14.94234,116.785402 C15.95412,117.260765 17.59023,118.133523 19.34856,119.503652 L19.34856,119.444545 C23.05737,122.32125 27.2979,127.383621 27.2979,135.490583 C27.2979,143.515174 25.13574,149.505636 23.1525,153.324265 L23.09958,153.324265 C21.93912,155.554576 20.85048,157.036 20.28852,157.732697 L20.349,157.732697 C20.09826,158.042689 19.93761,158.222523 19.92249,158.2395 C19.29564,158.900356 19.32147,159.942886 19.98045,160.570417 C20.63943,161.196689 21.68397,161.173424 22.31397,160.513197 C22.42107,160.401902 23.29614,159.460606 24.43644,157.722008 L41.74884,157.676735 L39.06945,160.622606 C38.45835,161.295409 38.50749,162.340455 39.18159,162.952894 C39.49785,163.240879 39.89538,163.382985 40.29102,163.382985 C40.74021,163.382985 41.18625,163.201265 41.51322,162.842227 L46.21869,157.666674 L107.99208,157.505705 C117.68589,157.479924 125.5527,149.569773 125.52498,139.877008 L125.20809,18.1455606 C125.19486,13.4485152 123.35589,9.03882576 120.02571,5.72637121 C116.70876,2.42649242 112.30884,0.609924242 107.63109,0.609924242 L107.58195,0.609924242 Z M19.0512,5.23968939 L107.5914,5.01081061 L107.63109,5.01081061 C111.13767,5.01081061 114.43509,6.37276515 116.92296,8.84578788 C119.41776,11.3295 120.79809,14.6356667 120.80754,18.1575076 L121.12506,139.887697 C121.14585,147.156485 115.24716,153.084068 107.98011,153.105447 L26.85816,153.314205 C28.78785,149.140311 30.59784,143.191977 30.59784,135.490583 C30.59784,124.56728 23.95197,118.400129 19.33785,115.434136 L19.32021,108.488545 L21.37842,104.231652 C23.79636,104.146765 25.92324,103.745598 27.78237,103.062735 C30.02958,102.237136 31.87674,100.992765 33.27597,99.3025833 C37.26009,94.4936136 36.10341,88.0768333 36.05175,87.8039394 C35.90307,87.0255 35.22204,86.4614773 34.43013,86.4614773 L27.78237,86.4614773 L19.26288,86.4614773 L19.0512,5.23968939 Z" id="path-11"></path>
        <linearGradient x1="50%" y1="0%" x2="50%" y2="100%" id="linearGradient-13">
            <stop stop-color="#FFFFFF" stop-opacity="0.5" offset="0%"></stop>
            <stop stop-color="#000000" stop-opacity="0.5" offset="100%"></stop>
        </linearGradient>
        <polygon id="path-14" points="0.126813725 0.0875924596 64.875098 0.0875924596 64.875098 350.848761 0.126813725 350.848761"></polygon>
        <polygon id="path-16" points="0.346818182 0.492545455 27.5220909 0.492545455 27.5220909 13.6118182 0.346818182 13.6118182"></polygon>
        <path d="M28.7598226,9.45126506 L28.7598226,10.5240361 C27.1282177,9.16536145 25.0251613,8.3411747 22.7309758,8.3411747 C17.5545645,8.3411747 13.3414435,12.515241 13.3414435,17.6450602 L13.3414435,27.6118373 C12.0111855,26.6529217 10.3789435,26.083012 8.61227419,26.083012 L2.20244355,26.083012 C1.27419355,26.083012 0.523693548,26.8275 0.523693548,27.7471988 L0.523693548,59.4660542 C0.449790323,60.4913855 0.279685484,67.7123494 9.08054032,76.5886446 C16.7320726,84.304247 26.3108226,92.5657229 28.7598226,94.6568675 L28.7598226,102.804488 C28.7598226,103.722922 29.5122339,104.468675 30.4392097,104.468675 C31.3668226,104.468675 32.1179597,103.722922 32.1179597,102.804488 L32.1179597,93.8921386 C32.1179597,93.4050904 31.9013468,92.9414458 31.5280081,92.6251807 C31.415879,92.5309337 20.1749435,83.0284337 11.4753871,74.2539759 C3.44032258,66.1525301 3.86271774,59.8335542 3.87354839,59.6937651 C3.87418548,59.6659337 3.871,59.6393675 3.87354839,59.6102711 C3.87354839,59.5830723 3.88119355,59.555241 3.88119355,59.5267771 L3.88119355,29.410753 L8.61227419,29.410753 C11.2199113,29.410753 13.3414435,31.5132831 13.3414435,34.0990663 L13.3414435,46.8534036 L13.3414435,59.5267771 C13.3414435,60.4445783 14.0938548,61.1896988 15.0208306,61.1896988 C15.9497177,61.1896988 16.6995806,60.4445783 16.6995806,59.5267771 L16.6995806,46.8534036 L16.6995806,34.0990663 L16.6995806,17.6450602 C16.6995806,14.3495783 19.4059677,11.6682831 22.7309758,11.6682831 C26.0559839,11.6682831 28.7598226,14.3495783 28.7598226,17.6450602 L28.7598226,20.5825301 L28.7598226,27.7471988 C28.7598226,28.6656325 29.5122339,29.410753 30.4392097,29.410753 C31.3668226,29.410753 32.1179597,28.6656325 32.1179597,27.7471988 L32.1179597,20.5825301 L32.1179597,17.6450602 L32.1179597,9.45126506 C32.1179597,6.15704819 34.8243468,3.47575301 38.1493548,3.47575301 C41.4730887,3.47575301 44.1782016,6.15704819 44.1782016,9.45126506 L44.1782016,13.2831325 L44.1782016,21.9956024 L44.1782016,24.7344578 C44.1782016,25.6528916 44.9287016,26.398012 45.8575887,26.398012 C46.7852016,26.398012 47.5357016,25.6528916 47.5357016,24.7344578 L47.5357016,21.9956024 L47.5357016,13.2831325 C47.5357016,9.9876506 50.2408145,7.30635542 53.5658226,7.30635542 C56.8914677,7.30635542 59.5959435,9.9876506 59.5959435,13.2831325 L59.5959435,24.8691867 C59.5959435,25.788253 60.3470806,26.5333735 61.2753306,26.5333735 C62.2029435,26.5333735 62.9540806,25.788253 62.9540806,24.8691867 L62.9540806,18.6988554 C62.9540806,15.4046386 65.6591935,12.7239759 68.9829274,12.7239759 C72.3085726,12.7239759 75.0136855,15.4046386 75.0136855,18.6988554 L75.0136855,58.4710843 L75.0149597,73.1736145 C75.0264274,73.5 75.1602177,81.2421687 66.2446855,88.115241 C65.8363065,88.4308735 65.5967581,88.914759 65.5967581,89.4283735 L65.5967581,100.763946 C65.5967581,101.681747 66.3478952,102.4275 67.2755081,102.4275 C68.203121,102.4275 68.9542581,101.681747 68.9542581,100.763946 L68.9542581,90.2291566 C78.6406774,82.3718675 78.3858387,73.4304217 78.3711855,73.1128916 L78.3711855,58.4710843 L78.3711855,18.6988554 C78.3711855,13.5690361 74.1599758,9.39560241 68.9829274,9.39560241 C66.6186613,9.39560241 64.4601774,10.2741867 62.8088226,11.7093976 C62.0506774,7.32596386 58.2013387,3.97861446 53.5658226,3.97861446 C51.047379,3.97861446 48.7614758,4.97295181 47.0731694,6.57957831 C45.8467581,2.85144578 42.3127823,0.148644578 38.1493548,0.148644578 C32.9729435,0.148644578 28.7598226,4.32144578 28.7598226,9.45126506 Z" id="path-18"></path>
        <polygon id="path-20" points="0.325982759 0.492545455 36.9617241 0.492545455 36.9617241 13.6118182 0.325982759 13.6118182"></polygon>
        <polygon id="path-22" points="0.346818182 0.442666667 27.5220909 0.442666667 27.5220909 1.836 0.346818182 1.836"></polygon>
        <polygon id="path-24" points="0.346818182 0.018 27.5220909 0.018 27.5220909 1.40933333 0.346818182 1.40933333"></polygon>
        <polygon id="path-26" points="1.84434783 6.63981818 0.290347826 7.05090909 1.88330435 7.46772727 13.7352174 13.6118182 13.7352174 0.491909091"></polygon>
        <path d="M0.485090909,0.491909091 L0.485090909,13.6118182 L4.12363636,13.6118182 C5.68436364,13.6118182 7.07709091,12.9939091 7.98036364,12.0298182 L7.98036364,2.07327273 C7.07709091,1.11045455 5.68436364,0.491909091 4.12363636,0.491909091 L0.485090909,0.491909091 Z" id="path-28"></path>
        <polygon id="path-30" points="0.325982759 0.442666667 36.9617241 0.442666667 36.9617241 1.836 0.325982759 1.836"></polygon>
        <polygon id="path-32" points="0.325982759 0.018 36.9617241 0.018 36.9617241 1.40933333 0.325982759 1.40933333"></polygon>
        <path d="M394.298458,0.170756757 L394.298458,61.8645405 C394.298458,123.995335 344.003239,174.543762 282.180799,174.543762 L0,174.5 L0,233.879081 L282.180799,233.922843 C376.581239,233.922843 453.381063,156.737627 453.381063,61.8645405 L453.381063,0.170756757 L394.298458,0.170756757 Z" id="path-34"></path>
        <path d="M0.123428571,2.14135714 L0.123428571,15.7538571 C0.123428571,16.6988571 0.876,17.4670714 1.80628571,17.4670714 C2.73657143,17.4670714 3.48914286,16.6988571 3.48914286,15.7538571 L3.48914286,2.14135714 C3.48914286,1.19442857 2.73657143,0.428142857 1.80628571,0.428142857 C0.876,0.428142857 0.123428571,1.19442857 0.123428571,2.14135714 Z" id="path-36"></path>
        <path d="M1.96381481,0.056 C1.03637037,0.056 0.285851852,0.934 0.285851852,2.016 C0.285851852,3.09866667 1.03637037,3.978 1.96381481,3.978 L14.0766296,3.978 L15.3094444,3.972 C16.2362593,3.964 16.9811111,3.07866667 16.9748148,1.99666667 C16.9672593,0.912 16.2255556,0.074 15.2823704,0.0513333333 L1.96381481,0.056 Z" id="path-38"></path>
        <path d="M1.70692593,0.0513333333 C0.782,0.0513333333 0.028962963,0.93 0.028962963,2.01466667 C0.028962963,3.09866667 0.782,3.978 1.70692593,3.978 L15.039963,3.978 C15.968037,3.978 16.7179259,3.09866667 16.7179259,2.01466667 C16.7179259,0.93 15.968037,0.0513333333 15.039963,0.0513333333 L1.70692593,0.0513333333 Z" id="path-40"></path>
        <path d="M14.8391111,0.099375 C10.4965556,0.728125 6.06081481,1.215625 1.65277778,1.54375 C0.723444444,1.613125 0.0308518519,2.37125 0.105148148,3.2375 C0.176296296,4.06 0.914222222,4.683125 1.785,4.683125 C1.83096296,4.683125 1.87566667,4.68125 1.92225926,4.67875 C6.41277778,4.34375 10.9341481,3.84875 15.3591852,3.20875 C16.2803333,3.073125 16.9112222,2.270625 16.7676667,1.4125 C16.6373333,0.63375 15.9138889,0.081875 15.0928519,0.081875 C15.0097407,0.081875 14.9241111,0.0875 14.8391111,0.099375 Z" id="path-42"></path>
        <path d="M2.2725,0.0513333333 C1.32621429,0.0513333333 0.559285714,0.93 0.559285714,2.01466667 C0.559285714,3.09866667 1.32621429,3.978 2.2725,3.978 L15.8856429,3.978 C16.8325714,3.978 17.5988571,3.09866667 17.5988571,2.01466667 C17.5988571,0.93 16.8325714,0.0513333333 15.8856429,0.0513333333 L2.2725,0.0513333333 Z" id="path-44"></path>
        <path d="M1.96885185,0.0513333333 C1.04266667,0.0513333333 0.291518519,0.93 0.291518519,2.01466667 C0.291518519,3.09866667 1.04266667,3.978 1.96885185,3.978 L15.3018889,3.978 C16.229963,3.978 16.9798519,3.09866667 16.9798519,2.01466667 C16.9798519,0.93 16.229963,0.0513333333 15.3018889,0.0513333333 L1.96885185,0.0513333333 Z" id="path-46"></path>
        <path d="M2.20114286,0.0513333333 C1.25485714,0.0513333333 0.487285714,0.93 0.487285714,2.01466667 C0.487285714,3.09866667 1.25485714,3.978 2.20114286,3.978 L15.8136429,3.978 C16.7612143,3.978 17.5268571,3.09866667 17.5268571,2.01466667 C17.5268571,0.93 16.7612143,0.0513333333 15.8136429,0.0513333333 L2.20114286,0.0513333333 Z" id="path-48"></path>
        <path d="M2.20114286,0.0513333333 C1.25485714,0.0513333333 0.487285714,0.93 0.487285714,2.01466667 C0.487285714,3.09866667 1.25485714,3.978 2.20114286,3.978 L15.8136429,3.978 C16.7612143,3.978 17.5268571,3.09866667 17.5268571,2.01466667 C17.5268571,0.93 16.7612143,0.0513333333 15.8136429,0.0513333333 L2.20114286,0.0513333333 Z" id="path-50"></path>
        <path d="M2.20114286,0.0513333333 C1.25485714,0.0513333333 0.487285714,0.93 0.487285714,2.01466667 C0.487285714,3.09866667 1.25485714,3.978 2.20114286,3.978 L15.8136429,3.978 C16.7612143,3.978 17.5268571,3.09866667 17.5268571,2.01466667 C17.5268571,0.93 16.7612143,0.0513333333 15.8136429,0.0513333333 L2.20114286,0.0513333333 Z" id="path-52"></path>
        <path d="M2.20114286,0.0513333333 C1.25485714,0.0513333333 0.487285714,0.93 0.487285714,2.01466667 C0.487285714,3.09866667 1.25485714,3.978 2.20114286,3.978 L15.8136429,3.978 C16.7612143,3.978 17.5268571,3.09866667 17.5268571,2.01466667 C17.5268571,0.93 16.7612143,0.0513333333 15.8136429,0.0513333333 L2.20114286,0.0513333333 Z" id="path-54"></path>
        <path d="M1.20697201,0 C0.540556855,0 0,0.895076401 0,2 C0,3.10424448 0.540556855,4 1.20697201,4 L10.7934807,4 C11.4608013,4 12,3.10424448 12,2 C12,0.895076401 11.4608013,0 10.7934807,0 L1.20697201,0 Z" id="path-56"></path>
        <path d="M1.78248148,0.0513333333 C0.856296296,0.0513333333 0.105148148,0.93 0.105148148,2.01466667 C0.105148148,3.09866667 0.856296296,3.978 1.78248148,3.978 L15.1161481,3.978 C16.042963,3.978 16.7941111,3.09866667 16.7941111,2.01466667 C16.7941111,0.93 16.042963,0.0513333333 15.1161481,0.0513333333 L1.78248148,0.0513333333 Z" id="path-58"></path>
        <path d="M15.3025714,0.589538462 C10.9054286,1.97353846 6.4035,3.20676923 1.917,4.25661538 C0.968785714,4.47876923 0.378642857,5.43138462 0.601071429,6.38523077 C0.788785714,7.20369231 1.51521429,7.75630769 2.31621429,7.75630769 C2.44864286,7.75630769 2.58235714,7.74092308 2.71607143,7.71015385 C7.28807143,6.64123077 11.8761429,5.38523077 16.3562143,3.97415385 C17.2851429,3.68 17.8026429,2.68492308 17.5127143,1.75261538 C17.2761429,0.993846154 16.5786429,0.506461538 15.831,0.506461538 C15.6561429,0.506461538 15.4774286,0.534153846 15.3025714,0.589538462 Z" id="path-60"></path>
        <path d="M2.19535714,0.0513333333 C1.24971429,0.0513333333 0.482142857,0.93 0.482142857,2.01466667 C0.482142857,3.09866667 1.24971429,3.978 2.19535714,3.978 L15.8078571,3.978 C16.7560714,3.978 17.5217143,3.09866667 17.5217143,2.01466667 C17.5217143,0.93 16.7560714,0.0513333333 15.8078571,0.0513333333 L2.19535714,0.0513333333 Z" id="path-62"></path>
        <path d="M5.6904,1.05784615 C4.0578,5.09415385 2.2482,9.12123077 0.3132,13.024 C-0.096,13.8492308 0.2568,14.8443077 1.104,15.2455385 C1.344,15.3581538 1.5954,15.4104615 1.845,15.4104615 C2.4774,15.4104615 3.0852,15.0658462 3.3774,14.4713846 C5.3502,10.4953846 7.1934,6.39261538 8.8578,2.27938462 C9.204,1.42523077 8.775,0.459692308 7.9014,0.121230769 C7.6956,0.0424615385 7.4838,0.00492307692 7.2756,0.00492307692 C6.5964,0.00492307692 5.9556,0.403692308 5.6904,1.05784615 Z" id="path-64"></path>
        <path d="M1.613125,1.94464286 C1.290625,6.43435714 0.813125,10.9652143 0.188125,15.4067143 C0.055625,16.3472143 0.648125,17.226 1.511875,17.37 C1.593125,17.3835 1.673125,17.3905714 1.75375,17.3905714 C2.521875,17.3905714 3.195,16.7805 3.315,15.9287143 C3.950625,11.403 4.439375,6.78857143 4.76625,2.21142857 C4.834375,1.26321429 4.18375,0.433285714 3.313125,0.36 C3.25875,0.353571429 3.204375,0.351 3.151875,0.351 C2.339375,0.351 1.675625,1.05364286 1.613125,1.94464286 Z" id="path-66"></path>
        <path d="M4.17672727,1.496 C3.09818182,5.89018519 1.82763636,10.3013704 0.4,14.6067778 C0.0981818182,15.5178519 0.641454545,16.4855926 1.61163636,16.7682963 C1.79418182,16.8211852 1.97890909,16.8463704 2.15854545,16.8463704 C2.944,16.8463704 3.67127273,16.3716296 3.91854545,15.6318148 C5.37090909,11.2432963 6.66618182,6.749 7.76654545,2.27233333 C7.99418182,1.343 7.376,0.415555556 6.38545455,0.201481481 C6.248,0.171259259 6.10909091,0.157407407 5.97309091,0.157407407 C5.136,0.157407407 4.37527273,0.698259259 4.17672727,1.496 Z" id="path-68"></path>
        <path d="M0.125142857,2.2545 L0.123428571,15.8612143 C0.12,16.8055714 0.870285714,17.5776429 1.79885714,17.5802143 L1.80514286,17.5802143 C2.732,17.5802143 3.48342857,16.8165 3.48742857,15.8734286 L3.48914286,2.2545 C3.48914286,1.30885714 2.73714286,0.541285714 1.80742857,0.541285714 C0.877714286,0.541285714 0.125142857,1.30885714 0.125142857,2.2545 Z" id="path-70"></path>
        <path d="M7.44117647,1.35488 C5.24052941,5.25952 2.86776471,9.13024 0.390176471,12.864 C-0.133941176,13.65248 0.0627647059,14.7296 0.829529412,15.26912 C1.12005882,15.47264 1.45070588,15.56992 1.77617647,15.56992 C2.31388235,15.56992 2.84123529,15.3056 3.16864706,14.81472 C5.69282353,11.01248 8.10958824,7.06688 10.3516471,3.088 C10.8168824,2.2624 10.5418824,1.20384 9.73888235,0.72448 C9.47294118,0.56576 9.18241176,0.49088 8.89641176,0.49088 C8.316,0.49024 7.75176471,0.80064 7.44117647,1.35488 Z" id="path-72"></path>
        <path d="M11.06,0.48425 C7.85521739,3.5607 4.49278261,6.55525 1.06643478,9.386 C0.343304348,9.984 0.227652174,11.07145 0.80773913,11.817 C1.13947826,12.2421 1.62582609,12.4631 2.11765217,12.4631 C2.48652174,12.4631 2.85721739,12.34025 3.16765217,12.0848 C6.65730435,9.1988 10.0842609,6.149 13.3493043,3.016 C14.0267826,2.3647 14.0651304,1.26945 13.4333043,0.57135 C13.1015652,0.20605 12.6529565,0.0208 12.2031304,0.0208 C11.7934783,0.0208 11.3832174,0.1742 11.06,0.48425 Z" id="path-74"></path>
        <path d="M12.314375,0.643176471 C8.67,3.12594118 4.889375,5.50129412 1.07625,7.70388235 C0.27,8.17041176 -0.003125,9.196 0.4675,9.99576471 C0.780625,10.5308824 1.34625,10.8291765 1.93,10.8291765 C2.2175,10.8291765 2.51125,10.7554118 2.77875,10.6007647 C6.663125,8.35611765 10.514375,5.93482353 14.23,3.40482353 C14.998125,2.88070588 15.19375,1.837 14.665625,1.07411765 C14.3375,0.601764706 13.80875,0.348117647 13.270625,0.348117647 C12.940625,0.348117647 12.6075,0.443235294 12.314375,0.643176471 Z" id="path-76"></path>
        <path d="M9.77275,0.695130435 C6.9472,4.12026087 3.9546,7.48452174 0.87945,10.6941739 C0.22945,11.3734783 0.27235,12.4350435 0.97435,13.0638261 C1.3078,13.3626957 1.7303,13.5106087 2.1515,13.5106087 C2.6182,13.5106087 3.08165,13.3316522 3.42485,12.9743478 C6.55655,9.702 9.60505,6.27565217 12.48325,2.78721739 C13.0793,2.06347826 12.95775,1.0073913 12.2096,0.42973913 C11.89045,0.185043478 11.5089,0.0657391304 11.12995,0.0657391304 C10.6197,0.0657391304 10.11465,0.280608696 9.77275,0.695130435 Z" id="path-78"></path>
        <path d="M13.0726154,0.56875 C9.16492308,2.59125 5.13969231,4.480625 1.10584615,6.186875 C0.252923077,6.5475 -0.163692308,7.5725 0.174153846,8.480625 C0.435076923,9.173125 1.06030769,9.594375 1.72,9.594375 C1.92369231,9.594375 2.13230769,9.55375 2.33230769,9.46875 C6.44430769,7.731875 10.5458462,5.80375 14.5286154,3.74375 C15.352,3.318125 15.6966154,2.260625 15.2941538,1.38375 C15.0061538,0.755 14.4153846,0.390625 13.7993846,0.390625 C13.5556923,0.390625 13.3076923,0.448125 13.0726154,0.56875 Z" id="path-80"></path>
        <path d="M0.123428571,1.92111765 L0.123428571,8.90870588 C0.123428571,9.87217647 0.876,10.6557647 1.80628571,10.6557647 C2.73657143,10.6557647 3.48914286,9.87217647 3.48914286,8.90870588 L3.48914286,1.92111765 C3.48914286,0.956352941 2.73657143,0.174705882 1.80628571,0.174705882 C0.876,0.174705882 0.123428571,0.956352941 0.123428571,1.92111765 Z" id="path-82"></path>
    </defs>
    <g id="NSW-website" stroke="none" stroke-width="1" fill="none" fill-rule="evenodd">
        <g id="Group-27">
            <g id="Group-5" transform="translate(186.000000, 3.000000)" fill="#FEFEFE">
                <path d="M218.130605,143.245517 L218.130605,132.563525 L196.779895,112.456245 L191.128236,104.287663 L190.500274,96.747433 L190.500274,67.2148659 L198.663781,67.8432184 L202.431553,69.7282759 L203.059515,55.2761686 C203.059515,55.2761686 204.943402,48.9926437 211.223023,49.6209962 C211.223023,49.6209962 216.874681,50.2493487 217.502643,54.0194636 C217.502643,54.0194636 216.246719,41.4524138 225.66615,41.4524138 C225.66615,41.4524138 234.45762,41.4524138 233.829658,50.2493487 C233.829658,50.2493487 236.341506,44.5941762 241.993165,45.2225287 C241.993165,45.2225287 249.52871,46.4792337 248.900748,54.0194636 C248.900748,54.0194636 253.296482,49.6209962 257.692217,50.2493487 C257.692217,50.2493487 264.5998,51.5060536 264.5998,60.931341 L264.5998,110.571188 C264.5998,110.571188 262.715914,123.138238 255.180368,128.165057 L254.552406,143.87387 L218.130605,143.245517 Z" id="Fill-1"></path>
                <path d="M0.227761848,162.724444 L0.227761848,109.314483 L10.0660438,86.6937931 L15.926814,85.4370881 L15.2988519,1.23785441 L106.144243,0.190390805 C106.144243,0.190390805 120.796482,-0.647203065 121.424444,17.5750192 L121.215333,134.239341 C121.215333,134.239341 122.052406,152.042452 108.237241,152.670805 L42.9291836,152.880046 L35.3936386,163.981149 L0.227761848,162.724444 Z" id="Fill-3"></path>
            </g>
            <g id="Group-8" transform="translate(212.000000, 3.000000)">
                <mask id="mask-2" fill="white">
                    <use xlink:href="#path-1"></use>
                </mask>
                <g id="Clip-7"></g>
                <polygon id="Fill-6" fill="#86FBFF" mask="url(#mask-2)" points="-4.55178947 158.574557 100.541684 158.574557 100.541684 -4.0690082 -4.55178947 -4.0690082"></polygon>
            </g>
            <g id="Group-11" transform="translate(230.000000, 26.000000)">
                <mask id="mask-4" fill="white">
                    <use xlink:href="#path-3"></use>
                </mask>
                <g id="Clip-10"></g>
                <polygon id="Fill-9" fill="#00C1C8" mask="url(#mask-4)" points="-4.49742222 41.4610517 60.5565333 41.4610517 60.5565333 -4.56886207 -4.49742222 -4.56886207"></polygon>
            </g>
            <g id="Group-14" transform="translate(230.000000, 74.000000)">
                <mask id="mask-6" fill="white">
                    <use xlink:href="#path-5"></use>
                </mask>
                <g id="Clip-13"></g>
                <polygon id="Fill-12" fill="#2BB0B8" mask="url(#mask-6)" points="-4.49742222 10.3326667 60.5565333 10.3326667 60.5565333 -4.39266667 -4.49742222 -4.39266667"></polygon>
            </g>
            <g id="Group-17" transform="translate(230.000000, 83.000000)">
                <mask id="mask-8" fill="white">
                    <use xlink:href="#path-7"></use>
                </mask>
                <g id="Clip-16"></g>
                <polygon id="Fill-15" fill="#2BB0B8" mask="url(#mask-8)" points="-4.49742222 9.515 60.5565333 9.515 60.5565333 -4.29 -4.49742222 -4.29"></polygon>
            </g>
            <g id="Group-20" transform="translate(230.000000, 94.000000)">
                <mask id="mask-10" fill="white">
                    <use xlink:href="#path-9"></use>
                </mask>
                <g id="Clip-19"></g>
                <polygon id="Fill-18" fill="#2BB0B8" mask="url(#mask-10)" points="-4.49742222 10.282 60.5565333 10.282 60.5565333 -4.44333333 -4.49742222 -4.44333333"></polygon>
            </g>
            <g id="Group-23" transform="translate(184.000000, 0.000000)">
                <mask id="mask-12" fill="white">
                    <use xlink:href="#path-11"></use>
                </mask>
                <g id="Clip-22"></g>
                <polygon id="Fill-21" fill="#424142" mask="url(#mask-12)" points="-4.3533 170.053167 130.16367 170.053167 130.16367 -4.01921212 -4.3533 -4.01921212"></polygon>
            </g>
            <g id="Group-26" transform="translate(177.000000, 164.000000)">
                <mask id="mask-15" fill="white">
                    <use xlink:href="#path-14"></use>
                </mask>
                <g id="Clip-25">
                    <use fill="#D8D8D8" xlink:href="#path-14"></use>
                    <use fill="url(#linearGradient-13)" xlink:href="#path-14"></use>
                    <use fill="#FF7000" xlink:href="#path-14"></use>
                </g>
            </g>
            <g id="Group-29" transform="translate(451.000000, 74.000000)">
                <mask id="mask-17" fill="white">
                    <use xlink:href="#path-16"></use>
                </mask>
                <g id="Clip-28"></g>
                <polygon id="Fill-27" fill="#F4AB1E" mask="url(#mask-17)" points="-4.33809091 18.2967273 32.2082727 18.2967273 32.2082727 -4.193 -4.33809091 -4.193"></polygon>
            </g>
            <g id="Group-32" transform="translate(375.000000, 42.000000)">
                <mask id="mask-19" fill="white">
                    <use xlink:href="#path-18"></use>
                </mask>
                <g id="Clip-31"></g>
                <polygon id="Fill-30" fill="#424142" mask="url(#mask-19)" points="-4.18317742 109.125361 83.0653145 109.125361 83.0653145 -4.5086747 -4.18317742 -4.5086747"></polygon>
            </g>
            <g id="Group-35" transform="translate(351.000000, 74.000000)">
                <mask id="mask-21" fill="white">
                    <use xlink:href="#path-20"></use>
                </mask>
                <g id="Clip-34"></g>
                <polygon id="Fill-33" fill="#F4AB1E" mask="url(#mask-21)" points="-4.37110345 18.2967273 41.6588103 18.2967273 41.6588103 -4.193 -4.37110345 -4.193"></polygon>
            </g>
            <g id="Group-38" transform="translate(451.000000, 79.000000)">
                <mask id="mask-23" fill="white">
                    <use xlink:href="#path-22"></use>
                </mask>
                <g id="Clip-37"></g>
                <polygon id="Fill-36" fill="#424142" mask="url(#mask-23)" points="-4.33809091 6.744 32.2082727 6.744 32.2082727 -4.466 -4.33809091 -4.466"></polygon>
            </g>
            <g id="Group-41" transform="translate(451.000000, 83.000000)">
                <mask id="mask-25" fill="white">
                    <use xlink:href="#path-24"></use>
                </mask>
                <g id="Clip-40"></g>
                <polygon id="Fill-39" fill="#424142" mask="url(#mask-25)" points="-4.33809091 6.31733333 32.2082727 6.31733333 32.2082727 -4.89066667 -4.33809091 -4.89066667"></polygon>
            </g>
            <g id="Group-44" transform="translate(336.000000, 74.000000)">
                <mask id="mask-27" fill="white">
                    <use xlink:href="#path-26"></use>
                </mask>
                <g id="Clip-43"></g>
                <polygon id="Fill-42" fill="#424142" mask="url(#mask-27)" points="-4.19086957 18.2967273 18.2170435 18.2967273 18.2170435 -4.193 -4.19086957 -4.193"></polygon>
            </g>
            <g id="Group-47" transform="translate(480.000000, 74.000000)">
                <mask id="mask-29" fill="white">
                    <use xlink:href="#path-28"></use>
                </mask>
                <g id="Clip-46"></g>
                <polygon id="Fill-45" fill="#424142" mask="url(#mask-29)" points="-4.86981818 18.2967273 14.4072727 18.2967273 14.4072727 -4.193 -4.86981818 -4.193"></polygon>
            </g>
            <g id="Group-50" transform="translate(351.000000, 79.000000)">
                <mask id="mask-31" fill="white">
                    <use xlink:href="#path-30"></use>
                </mask>
                <g id="Clip-49"></g>
                <polygon id="Fill-48" fill="#424142" mask="url(#mask-31)" points="-4.37110345 6.744 41.6588103 6.744 41.6588103 -4.466 -4.37110345 -4.466"></polygon>
            </g>
            <g id="Group-53" transform="translate(351.000000, 83.000000)">
                <mask id="mask-33" fill="white">
                    <use xlink:href="#path-32"></use>
                </mask>
                <g id="Clip-52"></g>
                <polygon id="Fill-51" fill="#424142" mask="url(#mask-33)" points="-4.37110345 6.31733333 41.6588103 6.31733333 41.6588103 -4.89066667 -4.37110345 -4.89066667"></polygon>
            </g>
            <g id="Group-56" transform="translate(0.000000, 142.000000)">
                <mask id="mask-35" fill="white">
                    <use xlink:href="#path-34"></use>
                </mask>
                <g id="Clip-55"></g>
                <polygon id="Fill-54" fill="#FF7000" mask="url(#mask-35)" points="-38 238.578811 458.021827 238.578811 458.021827 -4.48647568 -38 -4.48647568"></polygon>
            </g>
            <g id="Group-62" transform="translate(463.000000, 163.000000)">
                <mask id="mask-37" fill="white">
                    <use xlink:href="#path-36"></use>
                </mask>
                <g id="Clip-61"></g>
                <polygon id="Fill-60" fill="#424142" mask="url(#mask-37)" points="-4.084 22.2004286 7.69657143 22.2004286 7.69657143 -4.30521429 -4.084 -4.30521429"></polygon>
            </g>
            <g id="Group-65" transform="translate(269.000000, 386.000000)">
                <mask id="mask-39" fill="white">
                    <use xlink:href="#path-38"></use>
                </mask>
                <g id="Clip-64"></g>
                <polygon id="Fill-63" fill="#424142" mask="url(#mask-39)" points="-4.35011111 8.886 21.6101481 8.886 21.6101481 -4.858 -4.35011111 -4.858"></polygon>
            </g>
            <g id="Group-68" transform="translate(216.000000, 386.000000)">
                <mask id="mask-41" fill="white">
                    <use xlink:href="#path-40"></use>
                </mask>
                <g id="Clip-67"></g>
                <polygon id="Fill-66" fill="#424142" mask="url(#mask-41)" points="-4.60637037 8.886 21.3538889 8.886 21.3538889 -4.858 -4.60637037 -4.858"></polygon>
            </g>
            <g id="Group-71" transform="translate(296.000000, 384.000000)">
                <mask id="mask-43" fill="white">
                    <use xlink:href="#path-42"></use>
                </mask>
                <g id="Clip-70"></g>
                <polygon id="Fill-69" fill="#424142" mask="url(#mask-43)" points="-4.53648148 9.285625 21.4237778 9.285625 21.4237778 -4.519375 -4.53648148 -4.519375"></polygon>
            </g>
            <g id="Group-74" transform="translate(188.000000, 386.000000)">
                <mask id="mask-45" fill="white">
                    <use xlink:href="#path-44"></use>
                </mask>
                <g id="Clip-73"></g>
                <polygon id="Fill-72" fill="#424142" mask="url(#mask-45)" points="-4.17407143 8.886 22.3315714 8.886 22.3315714 -4.858 -4.17407143 -4.858"></polygon>
            </g>
            <g id="Group-77" transform="translate(134.000000, 386.000000)">
                <mask id="mask-47" fill="white">
                    <use xlink:href="#path-46"></use>
                </mask>
                <g id="Clip-76"></g>
                <polygon id="Fill-75" fill="#424142" mask="url(#mask-47)" points="-4.34444444 8.886 21.6158148 8.886 21.6158148 -4.858 -4.34444444 -4.858"></polygon>
            </g>
            <g id="Group-80" transform="translate(107.000000, 386.000000)">
                <mask id="mask-49" fill="white">
                    <use xlink:href="#path-48"></use>
                </mask>
                <g id="Clip-79"></g>
                <polygon id="Fill-78" fill="#424142" mask="url(#mask-49)" points="-4.24542857 8.886 22.2602143 8.886 22.2602143 -4.858 -4.24542857 -4.858"></polygon>
            </g>
            <g id="Group-80-Copy" transform="translate(79.000000, 386.000000)">
                <mask id="mask-51" fill="white">
                    <use xlink:href="#path-50"></use>
                </mask>
                <g id="Clip-79"></g>
                <polygon id="Fill-78" fill="#424142" mask="url(#mask-51)" points="-4.24542857 8.886 22.2602143 8.886 22.2602143 -4.858 -4.24542857 -4.858"></polygon>
            </g>
            <g id="Group-80-Copy-2" transform="translate(51.000000, 386.000000)">
                <mask id="mask-53" fill="white">
                    <use xlink:href="#path-52"></use>
                </mask>
                <g id="Clip-79"></g>
                <polygon id="Fill-78" fill="#424142" mask="url(#mask-53)" points="-4.24542857 8.886 22.2602143 8.886 22.2602143 -4.858 -4.24542857 -4.858"></polygon>
            </g>
            <g id="Group-80-Copy-3" transform="translate(23.000000, 386.000000)">
                <mask id="mask-55" fill="white">
                    <use xlink:href="#path-54"></use>
                </mask>
                <g id="Clip-79"></g>
                <polygon id="Fill-78" fill="#424142" mask="url(#mask-55)" points="-4.24542857 8.886 22.2602143 8.886 22.2602143 -4.858 -4.24542857 -4.858"></polygon>
            </g>
            <g id="Group-80-Copy-4" transform="translate(0.000000, 386.000000)">
                <mask id="mask-57" fill="white">
                    <use xlink:href="#path-56"></use>
                </mask>
                <g id="Clip-79"></g>
                <polygon id="Fill-78" fill="#424142" mask="url(#mask-57)" points="-4 9 15 9 15 -5 -4 -5"></polygon>
            </g>
            <g id="Group-83" transform="translate(161.000000, 386.000000)">
                <mask id="mask-59" fill="white">
                    <use xlink:href="#path-58"></use>
                </mask>
                <g id="Clip-82"></g>
                <polygon id="Fill-81" fill="#424142" mask="url(#mask-59)" points="-4.53081481 8.886 21.4294444 8.886 21.4294444 -4.858 -4.53081481 -4.858"></polygon>
            </g>
            <g id="Group-86" transform="translate(322.000000, 376.000000)">
                <mask id="mask-61" fill="white">
                    <use xlink:href="#path-60"></use>
                </mask>
                <g id="Clip-85"></g>
                <polygon id="Fill-84" fill="#424142" mask="url(#mask-61)" points="-4.17921429 12.2867692 22.3264286 12.2867692 22.3264286 -4.02461538 -4.17921429 -4.02461538"></polygon>
            </g>
            <g id="Group-89" transform="translate(241.000000, 386.000000)">
                <mask id="mask-63" fill="white">
                    <use xlink:href="#path-62"></use>
                </mask>
                <g id="Clip-88"></g>
                <polygon id="Fill-87" fill="#424142" mask="url(#mask-63)" points="-4.25057143 8.886 22.2550714 8.886 22.2550714 -4.858 -4.25057143 -4.858"></polygon>
            </g>
            <g id="Group-92" transform="translate(445.000000, 269.000000)">
                <mask id="mask-65" fill="white">
                    <use xlink:href="#path-64"></use>
                </mask>
                <g id="Clip-91"></g>
                <polygon id="Fill-90" fill="#424142" mask="url(#mask-65)" points="-4.275 19.9409231 13.3956 19.9409231 13.3956 -4.52615385 -4.275 -4.52615385"></polygon>
            </g>
            <g id="Group-95" transform="translate(461.000000, 218.000000)">
                <mask id="mask-67" fill="white">
                    <use xlink:href="#path-66"></use>
                </mask>
                <g id="Clip-94"></g>
                <polygon id="Fill-93" fill="#424142" mask="url(#mask-67)" points="-4.4325 22.1232857 9.3725 22.1232857 9.3725 -4.38235714 -4.4325 -4.38235714"></polygon>
            </g>
            <g id="Group-98" transform="translate(455.000000, 245.000000)">
                <mask id="mask-69" fill="white">
                    <use xlink:href="#path-68"></use>
                </mask>
                <g id="Clip-97"></g>
                <polygon id="Fill-96" fill="#424142" mask="url(#mask-69)" points="-5.03781818 21.4817037 13.168 21.4817037 13.168 -4.47855556 -5.03781818 -4.47855556"></polygon>
            </g>
            <g id="Group-101" transform="translate(463.000000, 190.000000)">
                <mask id="mask-71" fill="white">
                    <use xlink:href="#path-70"></use>
                </mask>
                <g id="Clip-100"></g>
                <polygon id="Fill-99" fill="#424142" mask="url(#mask-71)" points="-4.084 22.3135714 7.69657143 22.3135714 7.69657143 -4.19207143 -4.084 -4.19207143"></polygon>
            </g>
            <g id="Group-104" transform="translate(432.000000, 294.000000)">
                <mask id="mask-73" fill="white">
                    <use xlink:href="#path-72"></use>
                </mask>
                <g id="Clip-103"></g>
                <polygon id="Fill-102" fill="#424142" mask="url(#mask-73)" points="-4.66723529 20.28224 15.3424118 20.28224 15.3424118 -4.22144 -4.66723529 -4.22144"></polygon>
            </g>
            <g id="Group-107" transform="translate(394.000000, 336.000000)">
                <mask id="mask-75" fill="white">
                    <use xlink:href="#path-74"></use>
                </mask>
                <g id="Clip-106"></g>
                <polygon id="Fill-105" fill="#424142" mask="url(#mask-75)" points="-4.04356522 17.24905 18.3649565 17.24905 18.3649565 -4.7658 -4.04356522 -4.7658"></polygon>
            </g>
            <g id="Group-110" transform="translate(373.000000, 353.000000)">
                <mask id="mask-77" fill="white">
                    <use xlink:href="#path-76"></use>
                </mask>
                <g id="Clip-109"></g>
                <polygon id="Fill-108" fill="#424142" mask="url(#mask-77)" points="-4.364375 15.5928235 19.564375 15.5928235 19.564375 -4.41682353 -4.364375 -4.41682353"></polygon>
            </g>
            <g id="Group-113" transform="translate(415.000000, 317.000000)">
                <mask id="mask-79" fill="white">
                    <use xlink:href="#path-78"></use>
                </mask>
                <g id="Clip-112"></g>
                <polygon id="Fill-111" fill="#424142" mask="url(#mask-79)" points="-4.36735 17.9924348 17.64685 17.9924348 17.64685 -4.41547826 -4.36735 -4.41547826"></polygon>
            </g>
            <g id="Group-116" transform="translate(349.000000, 366.000000)">
                <mask id="mask-81" fill="white">
                    <use xlink:href="#path-80"></use>
                </mask>
                <g id="Clip-115"></g>
                <polygon id="Fill-114" fill="#424142" mask="url(#mask-81)" points="-4.47384615 14.195625 19.9932308 14.195625 19.9932308 -4.210625 -4.47384615 -4.210625"></polygon>
            </g>
            <g id="Group-119" transform="translate(463.000000, 142.000000)">
                <mask id="mask-83" fill="white">
                    <use xlink:href="#path-82"></use>
                </mask>
                <g id="Clip-118"></g>
                <polygon id="Fill-117" fill="#424142" mask="url(#mask-83)" points="-4.084 15.4194118 7.69657143 15.4194118 7.69657143 -4.59023529 -4.084 -4.59023529"></polygon>
            </g>
        </g>
    </g>
</svg>