<?xml version="1.0" encoding="UTF-8"?>
<svg width="50px" height="9px" viewBox="0 0 50 9" version="1.1" xmlns="http://www.w3.org/2000/svg" xmlns:xlink="http://www.w3.org/1999/xlink">
    <!-- Generator: Sketch 48.2 (47327) - http://www.bohemiancoding.com/sketch -->
    <title>Fill 1</title>
    <desc>Created with Sketch.</desc>
    <defs></defs>
    <g id="Desktop-HD" stroke="none" stroke-width="1" fill="none" fill-rule="evenodd" transform="translate(-201.000000, -1356.000000)">
        <path d="M242.387523,1364.57809 C242.663361,1364.85966 243.032804,1364.99995 243.412206,1364.99995 C243.616346,1364.99995 243.822478,1364.95916 244.020643,1364.87956 C244.273577,1364.77609 244.486679,1364.60098 244.646008,1364.38607 L250.548144,1358.63926 C251.139652,1358.06418 251.151602,1357.11998 250.577022,1356.52898 C250.000451,1355.93798 249.054437,1355.92803 248.46492,1356.50212 L243.445068,1361.38531 L238.63533,1356.45137 C238.211117,1356.01658 237.565835,1355.92107 237.003205,1356.14891 C236.750271,1356.25139 236.536173,1356.4265 236.37784,1356.6434 L231.505367,1361.38531 L226.889811,1356.65136 C226.872882,1356.63245 226.854958,1356.61455 226.838029,1356.59664 L226.687662,1356.44341 C226.1091,1355.85839 225.167068,1355.85142 224.578548,1356.4275 C224.379387,1356.62251 224.244953,1356.86129 224.17923,1357.11401 L219.86839,1361.31069 L215.20404,1356.52699 C214.778831,1356.0922 214.134546,1355.99668 213.571916,1356.22453 C213.318981,1356.32701 213.106875,1356.50013 212.948542,1356.71603 L208.227431,1361.31069 L203.563081,1356.52699 C202.987505,1355.93599 202.041491,1355.92505 201.450978,1356.50013 C200.860466,1357.07521 200.848516,1358.01941 201.423096,1358.61041 L207.16889,1364.50148 C207.594099,1364.93727 208.238385,1365.03278 208.800019,1364.80494 C209.052953,1364.70246 209.26506,1364.52735 209.423393,1364.31244 L214.144504,1359.71778 L218.808854,1364.50148 C219.233067,1364.93727 219.878348,1365.03278 220.440978,1364.80494 C220.693913,1364.70246 220.906019,1364.52735 221.064352,1364.31244 L225.746627,1359.75559 L230.446826,1364.57809 C230.872035,1365.01288 231.517316,1365.1084 232.07895,1364.87956 C232.331885,1364.77609 232.545983,1364.60098 232.704316,1364.38607 L237.577785,1359.64316 L242.387523,1364.57809 Z" id="Fill-1" fill="#414042"></path>
    </g>
</svg>