<?xml version="1.0" encoding="UTF-8"?>
<svg width="1436px" height="348px" viewBox="0 0 1436 348" version="1.1" xmlns="http://www.w3.org/2000/svg" xmlns:xlink="http://www.w3.org/1999/xlink">
    <!-- Generator: Sketch 48.2 (47327) - http://www.bohemiancoding.com/sketch -->
    <title>Group 21</title>
    <desc>Created with Sketch.</desc>
    <defs></defs>
    <g id="NSW-landing-page" stroke="none" stroke-width="1" fill="none" fill-rule="evenodd">
        <g id="Group-21" transform="translate(-7.000000, -87.000000)">
            <g id="Page-1-Copy-11" transform="translate(256.500000, 250.000000) rotate(-105.000000) translate(-256.500000, -250.000000) translate(111.000000, 24.000000)">
                <path d="M16.0239986,283.546252 C16.0239986,267.791968 28.5808044,255.016957 44.065996,255.016957 C59.5531906,255.016957 72.1079935,267.791968 72.1079935,283.546252 C72.1079935,299.302573 59.5531906,312.075546 44.065996,312.075546 C28.5808044,312.075546 16.0239986,299.302573 16.0239986,283.546252" id="Fill-1" fill="#FF7116"></path>
                <path d="M230.058836,32.0226773 C230.058836,16.2663556 242.613639,3.49338298 258.100834,3.49338298 C273.586026,3.49338298 286.142831,16.2663556 286.142831,32.0226773 C286.142831,47.7769612 273.586026,60.5519716 258.100834,60.5519716 C242.613639,60.5519716 230.058836,47.7769612 230.058836,32.0226773" id="Fill-3" fill="#FF7116"></path>
                <path d="M162.529128,418.623727 C162.529128,402.869443 175.083931,390.094432 190.571126,390.094432 C206.056317,390.094432 218.613123,402.869443 218.613123,418.623727 C218.613123,434.380048 206.056317,447.153021 190.571126,447.153021 C175.083931,447.153021 162.529128,434.380048 162.529128,418.623727" id="Fill-5" fill="#FFB100"></path>
                <path d="M149.937847,137.406397 C168.270645,137.406397 183.131412,152.525406 183.131412,171.17678 C183.131412,189.826126 168.270645,204.945135 149.937847,204.945135 C131.607043,204.945135 116.746275,189.826126 116.746275,171.17678 C116.746275,152.525406 131.607043,137.406397 149.937847,137.406397 Z" id="Fill-7" fill="#86FBFF"></path>
                <path d="M4.5782853,59.9697411 C4.5782853,44.2154572 17.1350912,31.4404468 32.6202828,31.4404468 C48.1074774,31.4404468 60.6622803,44.2154572 60.6622803,59.9697411 C60.6622803,75.7260628 48.1074774,88.4990354 32.6202828,88.4990354 C17.1350912,88.4990354 4.5782853,75.7260628 4.5782853,59.9697411" id="Fill-9" fill="#FF7116"></path>
                <path d="M258.198185,60.1500726 C252.981135,60.1500726 248.124499,58.5868114 244.01657,55.9306867 C242.326007,54.8378232 240.754918,53.5746433 239.353085,52.1330367 C234.59402,47.2465783 231.646984,40.5251635 231.646984,33.1164004 C231.646984,18.209661 243.556594,6.0827283 258.198185,6.0827283 C272.837786,6.0827283 284.747395,18.209661 284.747395,33.1164004 C284.747395,48.0231399 272.837786,60.1500726 258.198185,60.1500726 M180.985843,170.991575 C180.985843,188.757197 166.790289,203.211787 149.343039,203.211787 C141.917703,203.211787 135.099696,200.575938 129.695469,196.202456 C128.132345,194.935221 126.692678,193.522001 125.390407,191.983071 C120.61143,186.336271 117.700236,179.010639 117.700236,170.991575 C117.700236,163.558481 120.211191,156.723522 124.380848,151.265287 C125.607452,149.659447 126.977426,148.179317 128.474839,146.835034 C134.050312,141.833003 141.344226,138.771363 149.343039,138.771363 C155.766781,138.771363 161.742494,140.744195 166.736525,144.105916 C168.405185,145.229193 169.960344,146.510621 171.386072,147.923842 C177.298065,153.781509 180.985843,161.950613 180.985843,170.991575 M69.6934184,283.522049 C69.6934184,289.420268 67.8077136,294.866337 64.6456237,299.314839 C63.4747742,300.967314 62.1247132,302.473803 60.625309,303.816058 C55.9498763,307.99692 49.8407504,310.555721 43.1442085,310.555721 C28.5026169,310.555721 16.5930073,298.428788 16.5930073,283.522049 C16.5930073,268.615309 28.5026169,256.488377 43.1442085,256.488377 C49.1995709,256.488377 54.7710619,258.586918 59.2413969,262.074349 C60.8284156,263.313198 62.2899861,264.70817 63.5663713,266.271431 C67.3895531,270.95716 69.6934184,276.97095 69.6934184,283.522049 M167.664443,402.899647 C168.837284,401.2492 170.185354,399.740683 171.686749,398.400455 C176.360191,394.217566 182.471308,391.658765 189.16785,391.658765 C203.80745,391.658765 215.71706,403.785698 215.71706,418.694465 C215.71706,433.601204 203.80745,445.728137 189.16785,445.728137 C174.52825,445.728137 162.61864,433.601204 162.61864,418.694465 C162.61864,412.796246 164.504345,407.348149 167.664443,402.899647 M53.7595117,75.296066 C52.5607849,76.9242097 51.1987764,78.4205608 49.6774686,79.7364577 C45.0458432,83.7429481 39.0621654,86.1719842 32.5229315,86.1719842 C17.8833312,86.1719842 5.97372158,74.0450516 5.97372158,59.1362845 C5.97372158,44.229545 17.8833312,32.1026124 32.5229315,32.1026124 C47.1645231,32.1026124 59.0741327,44.229545 59.0741327,59.1362845 C59.0741327,65.1987371 57.0809009,70.7806541 53.7595117,75.296066 M258.198185,0 C240.263082,0 225.673262,14.8560501 225.673262,33.1164004 C225.673262,42.4412229 229.490471,50.8597189 235.599596,56.8856751 L170.495988,139.345167 C164.46452,135.150113 157.182553,132.688635 149.343039,132.688635 C139.631759,132.688635 130.798616,136.488313 124.116013,142.662282 L58.1302847,79.4830107 C62.4472941,73.8625697 65.0478542,66.8086325 65.0478542,59.1362845 C65.0478542,40.8759342 50.4580349,26.0198841 32.5229315,26.0198841 C14.5898193,26.0198841 0,40.8759342 0,59.1362845 C0,77.3986625 14.5898193,92.2547125 32.5229315,92.2547125 C40.7746322,92.2547125 48.2955477,89.0856111 54.0362941,83.9092093 L120.008084,147.078343 C114.838824,153.637551 111.726515,161.946558 111.726515,170.991575 C111.726515,180.732051 115.34659,189.606751 121.248627,196.372773 L63.4050808,257.662343 C57.843546,253.132738 50.8045108,250.405648 43.1442085,250.405648 C25.2091051,250.405648 10.6192857,265.261698 10.6192857,283.522049 C10.6192857,301.782399 25.2091051,316.638449 43.1442085,316.638449 C51.5910508,316.638449 59.2712655,313.313224 65.0598017,307.917844 L163.231942,398.79786 C159.116048,404.343281 156.644918,411.220819 156.644918,418.694465 C156.644918,436.954815 171.234738,451.810865 189.16785,451.810865 C207.100962,451.810865 221.690781,436.954815 221.690781,418.694465 C221.690781,400.432087 207.100962,385.576037 189.16785,385.576037 C180.721008,385.576037 173.038802,388.901261 167.252257,394.296641 L69.0781251,303.418653 C73.1960105,297.873232 75.66714,290.995694 75.66714,283.522049 C75.66714,275.249538 72.6524018,267.692762 67.7081516,261.883757 L125.531785,200.612434 C132.021238,206.032145 140.314755,209.294515 149.343039,209.294515 C170.083801,209.294515 186.959564,192.110808 186.959564,170.991575 C186.959564,160.038609 182.395641,150.168369 175.131595,143.181341 L240.247152,60.7056284 C245.3965,64.1910317 251.565363,66.2328009 258.198185,66.2328009 C276.131297,66.2328009 290.721117,51.3767508 290.721117,33.1164004 C290.721117,14.8560501 276.131297,0 258.198185,0" id="Fill-11" fill="#414042"></path>
            </g>
            <g id="Page-1-Copy-12" transform="translate(1243.000000, 231.000000) rotate(18.000000) translate(-1243.000000, -231.000000) translate(1035.000000, 56.000000)">
                <path d="M178.878087,228.901742 C178.878087,208.205782 196.371014,191.428676 217.947655,191.428676 C239.52664,191.428676 257.019567,208.205782 257.019567,228.901742 C257.019567,249.597703 239.52664,266.374809 217.947655,266.374809 C196.371014,266.374809 178.878087,249.597703 178.878087,228.901742" id="Fill-1" fill="#FF7116"></path>
                <path d="M63.0780623,165.242678 C63.0780623,147.788356 77.8331508,133.638887 96.0292888,133.638887 C114.227781,133.638887 128.980515,147.788356 128.980515,165.242678 C128.980515,182.694743 114.227781,196.846469 96.0292888,196.846469 C77.8331508,196.846469 63.0780623,182.694743 63.0780623,165.242678" id="Fill-3" fill="#FFB100"></path>
                <path d="M7.53170893,313.329012 C7.53170893,295.87469 22.2844438,281.725222 40.4829355,281.725222 C58.6814272,281.725222 73.434162,295.87469 73.434162,313.329012 C73.434162,330.781077 58.6814272,344.932803 40.4829355,344.932803 C22.2844438,344.932803 7.53170893,330.781077 7.53170893,313.329012" id="Fill-5" fill="#00FFDD"></path>
                <path d="M258.902494,37.9245491 C258.902494,20.4724842 273.655229,6.32075818 291.853721,6.32075818 C310.052213,6.32075818 324.804947,20.4724842 324.804947,37.9245491 C324.804947,55.3788713 310.052213,69.5283399 291.853721,69.5283399 C273.655229,69.5283399 258.902494,55.3788713 258.902494,37.9245491" id="Fill-7" fill="#00FFDD"></path>
                <path d="M344.575683,169.757505 C344.575683,152.30544 359.328418,138.153714 377.52691,138.153714 C395.723048,138.153714 410.478137,152.30544 410.478137,169.757505 C410.478137,187.211828 395.723048,201.361296 377.52691,201.361296 C359.328418,201.361296 344.575683,187.211828 344.575683,169.757505" id="Fill-9" fill="#00FFDD"></path>
                <path d="M377.08869,201.016412 C359.937799,201.016412 345.987101,187.632921 345.987101,171.181587 C345.987101,161.702826 350.633446,153.257868 357.840879,147.789008 C359.667229,146.403892 361.663851,145.220165 363.788761,144.251255 C367.826323,142.407417 372.32572,141.344525 377.08869,141.344525 C394.237249,141.344525 408.187947,154.728016 408.187947,171.181587 C408.187947,187.632921 394.237249,201.016412 377.08869,201.016412 M309.252519,59.9381698 C307.426169,61.3232862 305.429547,62.5070125 303.30697,63.4759226 C299.269408,65.3197609 294.77001,66.3826531 290.00704,66.3826531 C287.553247,66.3826531 285.181092,66.080568 282.888242,65.5636667 C280.58373,65.0422901 278.38418,64.2747701 276.30592,63.2901962 C266.019584,58.4165557 258.907783,48.2776829 258.907783,36.5478283 C258.907783,20.0964946 272.858481,6.71300342 290.00704,6.71300342 C307.157931,6.71300342 321.108629,20.0964946 321.108629,36.5478283 C321.108629,46.0265891 316.459951,54.4693097 309.252519,59.9381698 M255.544315,228.112331 C255.544315,247.718777 238.915904,263.671111 218.478517,263.671111 C205.138935,263.671111 193.457762,256.852937 186.929087,246.680499 C185.709188,244.782957 184.67589,242.769056 183.838521,240.656697 C182.296737,236.749729 181.412719,232.533963 181.412719,228.112331 C181.412719,223.1917 182.464677,218.499311 184.356337,214.234316 C185.280008,212.15776 186.399609,210.186375 187.698813,208.335823 C194.355775,198.825735 205.668413,192.55579 218.478517,192.55579 C221.636725,192.55579 224.685306,192.976472 227.614929,193.694763 C229.900782,194.25418 232.102664,195.010512 234.201916,195.959283 C246.790433,201.649672 255.544315,213.905379 255.544315,228.112331 M38.0967642,342.734627 C20.9482054,342.734627 6.99750766,329.351136 6.99750766,312.899802 C6.99750766,296.448469 20.9482054,283.064977 38.0967642,283.064977 C49.0875162,283.064977 58.7440768,288.578591 64.2767729,296.855724 C65.5316593,298.733127 66.5602929,300.753741 67.3556762,302.881764 C68.5265925,306.021211 69.1983533,309.382188 69.1983533,312.899802 C69.1983533,329.351136 55.2476555,342.734627 38.0967642,342.734627 M126.018115,176.3506 C125.134097,178.445057 124.014496,180.420918 122.684969,182.249092 C117.056641,189.973521 107.733628,195.048552 97.1883839,195.048552 C80.0374926,195.048552 66.0867949,181.665061 66.0867949,165.213727 C66.0867949,148.762393 80.0374926,135.378902 97.1883839,135.378902 C114.336943,135.378902 128.28764,148.762393 128.28764,165.213727 C128.28764,169.152022 127.468932,172.904591 126.018115,176.3506 M377.08869,134.631521 C370.972869,134.631521 365.209255,136.054678 360.082414,138.522826 L312.951868,65.6554111 C322.13493,58.9759727 328.106137,48.432082 328.106137,36.5478283 C328.106137,16.395392 311.015891,0 290.00704,0 C269.000522,0 251.910276,16.395392 251.910276,36.5478283 C251.910276,51.1866511 260.948723,63.8070975 273.933765,69.6362221 L229.980087,187.35545 C226.306395,186.397728 222.462431,185.842787 218.478517,185.842787 C203.011692,185.842787 189.406205,193.542602 181.541006,205.142671 L132.217907,179.563891 C134.186539,175.155685 135.285148,170.304421 135.285148,165.213727 C135.285148,145.061291 118.194902,128.665899 97.1883839,128.665899 C76.1795334,128.665899 59.0892872,145.061291 59.0892872,165.213727 C59.0892872,185.366163 76.1795334,201.761555 97.1883839,201.761555 C110.392681,201.761555 122.038866,195.279032 128.877764,185.462383 L178.203195,211.041164 C175.78439,216.268356 174.415211,222.037063 174.415211,228.112331 C174.415211,233.59238 175.544142,238.815097 177.529102,243.623845 L70.5768623,293.89529 C63.8779149,283.393915 51.8445343,276.351974 38.0967642,276.351974 C17.0902462,276.351974 0,292.747366 0,312.899802 C0,333.052239 17.0902462,349.447631 38.0967642,349.447631 C59.1056147,349.447631 76.1958609,333.052239 76.1958609,312.899802 C76.1958609,308.323772 75.2745224,303.958082 73.6674282,299.916854 L180.626665,249.640933 C188.316926,262.037613 202.384249,270.384114 218.478517,270.384114 C242.773863,270.384114 262.541822,251.419879 262.541822,228.112331 C262.541822,210.994173 251.861293,196.252417 236.571739,189.613257 L280.523085,71.9029796 C283.560003,72.654836 286.727541,73.0956565 290.00704,73.0956565 C296.122862,73.0956565 301.886476,71.6724998 307.013316,69.2065899 L354.143863,142.071767 C344.9608,148.753443 338.989594,159.295096 338.989594,171.181587 C338.989594,191.334023 356.07984,207.729415 377.08869,207.729415 C398.095208,207.729415 415.185455,191.334023 415.185455,171.181587 C415.185455,151.026913 398.095208,134.631521 377.08869,134.631521" id="Fill-11" fill="#414042"></path>
            </g>
        </g>
    </g>
</svg>