<?xml version="1.0" encoding="UTF-8"?>
<svg width="139px" height="37px" viewBox="0 0 139 37" version="1.1" xmlns="http://www.w3.org/2000/svg" xmlns:xlink="http://www.w3.org/1999/xlink">
    <!-- Generator: Sketch 49.1 (51147) - http://www.bohemiancoding.com/sketch -->
    <title>Page 1 Copy 4</title>
    <desc>Created with Sketch.</desc>
    <defs>
        <polygon id="path-1" points="139 9.68327117e-15 139 37 69.5 37 0 37 0 0 139 0"></polygon>
    </defs>
    <g id="NSW-website" stroke="none" stroke-width="1" fill="none" fill-rule="evenodd">
        <g id="HOME" transform="translate(-315.000000, -1947.000000)">
            <g id="Group-6" transform="translate(167.000000, 1772.000000)">
                <g id="Page-1-Copy-4" transform="translate(148.000000, 175.000000)">
                    <mask id="mask-2" fill="white">
                        <use xlink:href="#path-1"></use>
                    </mask>
                    <g id="Clip-2"></g>
                    <path d="M101.110701,18.5 C101.110701,10.5521547 94.490191,4.08839779 86.3513182,4.08839779 C78.2138411,4.08839779 71.5919359,10.5521547 71.5919359,18.5 C71.5919359,28.7005525 63.0944057,37 52.6472862,37 C42.2015622,37 33.7026365,28.7005525 33.7026365,18.5 C33.7026365,10.5521547 27.0821269,4.08839779 18.9446497,4.08839779 C10.8071725,4.08839779 4.18666292,10.5521547 4.18666292,18.5 C4.18666292,19.6283978 3.25024598,20.5441989 2.09333146,20.5441989 C0.937812494,20.5441989 0,19.6283978 0,18.5 C0,8.29672192 8.49753017,0 18.9446497,0 C29.3903737,0 37.8892994,8.29672192 37.8892994,18.5 C37.8892994,26.4464825 44.509809,32.9116022 52.6472862,32.9116022 C60.7847634,32.9116022 67.405273,26.4464825 67.405273,18.5 C67.405273,8.29672192 75.9041987,0 86.3513182,0 C96.7984378,0 105.297364,8.29672192 105.297364,18.5 C105.297364,26.4464825 111.917873,32.9116022 120.05535,32.9116022 C128.192827,32.9116022 134.813337,26.4464825 134.813337,18.5 C134.813337,17.3702394 135.749754,16.4558011 136.906669,16.4558011 C138.062188,16.4558011 139,17.3702394 139,18.5 C139,28.7005525 130.501074,37 120.05535,37 C109.609626,37 101.110701,28.7005525 101.110701,18.5 Z" id="Fill-1" fill="#414042" mask="url(#mask-2)"></path>
                </g>
            </g>
        </g>
    </g>
</svg>