<?xml version="1.0" encoding="UTF-8"?>
<svg width="136px" height="223px" viewBox="0 0 136 223" version="1.1" xmlns="http://www.w3.org/2000/svg" xmlns:xlink="http://www.w3.org/1999/xlink">
    <!-- Generator: Sketch 49.1 (51147) - http://www.bohemiancoding.com/sketch -->
    <title>Group 22</title>
    <desc>Created with Sketch.</desc>
    <defs>
        <polygon id="path-1" points="79.4742539 14.4545455 0.0715929636 14.4545455 0.0715929636 0.475161768 79.4742539 0.475161768 79.4742539 14.4545455"></polygon>
        <polygon id="path-3" points="0.228499081 0.746 16.3109497 0.746 16.3109497 9.3598 0.228499081 9.3598 0.228499081 0.746"></polygon>
    </defs>
    <g id="NSW-website" stroke="none" stroke-width="1" fill="none" fill-rule="evenodd">
        <g id="HOME" transform="translate(-1007.000000, -1795.000000)">
            <g id="Group-6-Copy-2" transform="translate(1007.000000, 1772.000000)">
                <g id="Group-22" transform="translate(0.000000, 23.000000)">
                    <g id="Page-1-Copy">
                        <path d="M65.7257953,13.3244455 C66.1638419,13.7618091 66.7505395,13.9797182 67.3530512,13.9797182 C67.6772372,13.9797182 68.004586,13.9163545 68.3192837,13.7927182 C68.7209581,13.6319909 69.0593767,13.3599909 69.3124,13.0261727 L78.6853302,4.09962727 C79.6246791,3.20635455 79.6436558,1.73971818 78.7311907,0.821718182 C77.8155628,-0.0962818182 76.3132372,-0.111736364 75.3770512,0.779990909 L67.4052372,8.36508182 L59.7670977,0.701172727 C59.0934233,0.0258090909 58.0686791,-0.122554545 57.1751907,0.231354545 C56.7735163,0.390536364 56.4335163,0.662536364 56.1820744,0.999445455 L48.444307,8.36508182 L41.1145395,1.01180909 C41.0876558,0.982445455 41.0591907,0.954627273 41.032307,0.926809091 L40.7935163,0.688809091 C39.8747256,-0.219918182 38.3787256,-0.230736364 37.4441209,0.664081818 C37.1278419,0.966990909 36.9143535,1.3379 36.8099814,1.73044545 L29.9641209,8.24917273 L22.5568651,0.818627273 C21.8816093,0.143263636 20.8584465,-0.0051 19.9649581,0.348809091 C19.5632837,0.507990909 19.2264465,0.7769 18.9750047,1.11226364 L11.4776093,8.24917273 L4.07035349,0.818627273 C3.15630698,-0.0993727273 1.6539814,-0.116372727 0.716213953,0.7769 C-0.221553488,1.67017273 -0.240530233,3.13680909 0.671934884,4.05480909 L9.79658605,13.2054455 C10.4718419,13.8823545 11.4950047,14.0307182 12.3869116,13.6768091 C12.788586,13.5176273 13.1254233,13.2456273 13.3768651,12.9118091 L20.8742605,5.7749 L28.2815163,13.2054455 C28.9551907,13.8823545 29.9799349,14.0307182 30.8734233,13.6768091 C31.2750977,13.5176273 31.6119349,13.2456273 31.8633767,12.9118091 L39.2990977,5.83362727 L46.7632837,13.3244455 C47.4385395,13.9998091 48.4632837,14.1481727 49.3551907,13.7927182 C49.7568651,13.6319909 50.0968651,13.3599909 50.348307,13.0261727 L58.0876558,5.65899091 L65.7257953,13.3244455 Z" id="Fill-1" fill="#414042"></path>
                        <g id="Group-5" transform="translate(55.348837, 18.183755)">
                            <mask id="mask-2" fill="white">
                                <use xlink:href="#path-1"></use>
                            </mask>
                            <g id="Clip-4"></g>
                            <path d="M78.8015628,1.29685455 C77.8875163,0.378854545 76.3851907,0.3634 75.4474233,1.25512727 L67.4803535,8.84176364 L59.8390512,1.17630909 C59.1669581,0.500945455 58.1437953,0.354127273 57.2471442,0.706490909 C56.8454698,0.867218182 56.5054698,1.13767273 56.2540279,1.47303636 L48.5162605,8.84176364 L41.186493,1.4854 C41.1580279,1.45758182 41.1327256,1.42821818 41.1026791,1.4004 L40.8654698,1.16549091 C39.9482605,0.256763636 38.4490977,0.242854545 37.5176558,1.13767273 C37.198214,1.44367273 36.9878884,1.81458182 36.8819349,2.20558182 L30.0360744,8.72430909 L22.6288186,1.29376364 C21.9567256,0.619945455 20.9304,0.468490909 20.0369116,0.823945455 C19.6368186,0.983127273 19.2968186,1.25358182 19.0469581,1.5874 L11.5495628,8.72430909 L4.14230698,1.29376364 C3.22667907,0.375763636 1.72909767,0.360309091 0.788167442,1.25203636 C-0.1496,2.14376364 -0.17015814,3.61194545 0.745469767,4.52994545 L9.86695814,13.6805818 C10.5406326,14.3559455 11.5669581,14.5089455 12.4588651,14.1504 C12.8605395,13.9912182 13.1989581,13.7223091 13.4504,13.3869455 L20.946214,6.25158182 L28.3534698,13.6805818 C29.0271442,14.3559455 30.0518884,14.5089455 30.9453767,14.1504 C31.3454698,13.9912182 31.6838884,13.7223091 31.9353302,13.3869455 L39.3694698,6.30876364 L46.8352372,13.7980364 C47.2732837,14.2384909 47.8615628,14.4548545 48.462493,14.4548545 C48.7882605,14.4548545 49.1156093,14.3930364 49.4287256,14.2694 C49.8304,14.1086727 50.1688186,13.8366727 50.4202605,13.4997636 L58.1580279,6.13412727 L65.7993302,13.7980364 C66.4730047,14.4734 67.4961674,14.6233091 68.3912372,14.2694 C68.7929116,14.1086727 69.1329116,13.8366727 69.3827721,13.4997636 L78.7588651,4.57476364 C79.6950512,3.68149091 79.7156093,2.21330909 78.8015628,1.29685455" id="Fill-3" fill="#414042" mask="url(#mask-2)"></path>
                        </g>
                    </g>
                    <g id="Page-1-Copy-6" transform="translate(25.000000, 124.000000)">
                        <path d="M60,29.5009974 C60,43.0311012 48.8067904,54 35,54 C21.1932096,54 10,43.0311012 10,29.5009974 C10,15.9688988 21.1932096,5 35,5 C48.8067904,5 60,15.9688988 60,29.5009974" id="Fill-1" fill="#86FBFF"></path>
                        <path d="M10.8670708,10.6977307 C9.53492192,9.62678303 7.56706677,9.80986783 6.46774028,11.1013047 C3.94111143,14.0759405 2.13724421,17.4620249 1.1087767,21.1670312 C0.659328299,22.7892019 1.64325588,24.4546829 3.31147877,24.8936927 C3.58276744,24.9645642 3.85608066,25 4.12736933,25 C5.50405812,25 6.765348,24.1081999 7.13988833,22.7517974 C7.93553347,19.8893749 9.3284186,17.2730341 11.2841265,14.9736466 C12.383453,13.6822097 12.1951706,11.7667096 10.8670708,10.6977307" id="Fill-3" fill="#414042"></path>
                        <path d="M6.19417181,31.6499158 C5.91748166,29.9306177 4.31792984,28.7585546 2.61941586,29.0423817 C0.922921502,29.3159993 -0.234330003,30.9352432 0.040340511,32.6524993 C0.668447349,36.5913663 2.09834973,40.2729512 4.29167457,43.5971998 C4.88948687,44.5078969 5.87910858,45 6.88690701,45 C7.48068003,45 8.08051196,44.8284786 8.61167627,44.4711423 C10.0435983,43.5073552 10.4313684,41.5511942 9.47608053,40.1034717 C7.78362545,37.5326923 6.67888449,34.6882953 6.19417181,31.6499158" id="Fill-5" fill="#414042"></path>
                        <path d="M24.2794112,49.6158751 C21.2430982,49.2064765 18.389329,48.1549247 15.789093,46.4882358 C14.3246855,45.548905 12.3937771,46.0061014 11.4770012,47.506537 C10.5602253,49.0069726 11.0044154,50.9853863 12.4708511,51.9247172 C15.8337149,54.0797749 19.5312423,55.4430516 23.459992,55.975062 C23.5979141,55.9916873 23.7358361,56 23.8737581,56 C25.4192962,56 26.7660643,54.8279146 26.9729474,53.2111017 C27.1980848,51.4571299 25.9932953,49.8465515 24.2794112,49.6158751" id="Fill-7" fill="#414042"></path>
                        <path d="M35.9543228,8.9226907 C38.7812355,10.0706713 41.3852967,11.8315736 43.4838151,14.0177279 C44.1111008,14.6705795 44.961238,15 45.8155022,15 C46.5913556,15 47.3713359,14.7284776 47.9821141,14.177447 C49.2717641,13.019484 49.3460479,11.0689152 48.1471893,9.82310676 C45.4399561,7.0000728 42.0724222,4.72407655 38.4160066,3.240686 C36.7962063,2.58184498 34.9267297,3.32254201 34.247858,4.88978505 C33.5689862,6.46102106 34.332459,8.26584616 35.9543228,8.9226907" id="Fill-9" fill="#414042"></path>
                        <g id="Group-13" transform="translate(13.000000, 0.000000)">
                            <mask id="mask-4" fill="white">
                                <use xlink:href="#path-3"></use>
                            </mask>
                            <g id="Clip-12"></g>
                            <path d="M13.2278,0.7458 C13.1958,0.7458 13.1678,0.7458 13.1378,0.7478 C9.2218,0.8598 5.4578,1.7858 1.9578,3.4998 C0.4278,4.2498 -0.2062,6.0998 0.5438,7.6298 C1.0798,8.7218 2.1778,9.3598 3.3178,9.3598 C3.7738,9.3598 4.2358,9.2578 4.6738,9.0418 C7.3758,7.7178 10.2838,7.0038 13.3118,6.9178 C15.0158,6.8698 16.3558,5.4498 16.3098,3.7458 C16.2638,2.0718 14.8918,0.7458 13.2278,0.7458" id="Fill-11" fill="#414042" mask="url(#mask-4)"></path>
                        </g>
                        <path d="M53.6563915,19.1271484 C53.1393233,17.4961099 51.4650987,16.6190991 49.9042831,17.1594184 C48.349234,17.7057861 47.5111606,19.4678722 48.030151,21.0989107 C48.720216,23.2622041 49.0681318,25.5263033 49.0681318,27.8287087 C49.0681318,30.8891741 48.462643,33.8407691 47.2670429,36.5988169 C46.588511,38.1613075 47.247821,40.0080705 48.7375157,40.7197598 C49.1373306,40.9092747 49.5525229,41 49.9638708,41 C51.0921944,41 52.1705412,40.3205686 52.6664653,39.1733981 C54.2138256,35.6008391 55,31.7823138 55,27.8287087 C55,24.8549364 54.5482861,21.9275347 53.6563915,19.1271484" id="Fill-14" fill="#414042"></path>
                        <path d="M40.9134101,43.7561785 C38.6475096,45.7290333 36.0476869,47.1681499 33.1815214,48.0280616 C31.5596137,48.5143565 30.6413277,50.2183654 31.1322728,51.8314411 C31.5317869,53.1499724 32.7502053,54 34.0660177,54 C34.3621749,54 34.6603197,53.9565102 34.9544892,53.8675538 C38.6634106,52.7546107 42.0284717,50.8944339 44.954266,48.3443509 C46.2283382,47.2333846 46.3555466,45.3079731 45.2404851,44.0408389 C44.1274111,42.7737047 42.1874822,42.6452121 40.9134101,43.7561785" id="Fill-16" fill="#414042"></path>
                    </g>
                    <g id="Page-1-Copy-8" transform="translate(85.000000, 171.000000)">
                        <polygon id="Fill-1" fill="#00FFDD" points="11 39 51 39 51 0 11 0"></polygon>
                        <path d="M19.9205139,9.56432891 L10.6454303,9.56432891 C9.11100259,9.56432891 7.86326584,8.32019834 7.86326584,6.78216446 C7.86326584,5.24413057 9.11100259,4 10.6454303,4 L19.9205139,4 C21.4567447,4 22.7026783,5.24413057 22.7026783,6.78216446 C22.7026783,8.32019834 21.4567447,9.56432891 19.9205139,9.56432891 M38.4670749,9.56432891 L29.1937944,9.56432891 C27.6575636,9.56432891 26.4116299,8.32019834 26.4116299,6.78216446 C26.4116299,5.24413057 27.6575636,4 29.1937944,4 L38.4670749,4 C40.0033057,4 41.2492393,5.24413057 41.2492393,6.78216446 C41.2492393,8.32019834 40.0033057,9.56432891 38.4670749,9.56432891 M2.78216446,20.2476241 C1.24593366,20.2476241 0,19.0016904 0,17.4654596 L0,8.19037602 C0,6.65594831 1.24593366,5.40821156 2.78216446,5.40821156 C4.31839525,5.40821156 5.56432891,6.65594831 5.56432891,8.19037602 L5.56432891,17.4654596 C5.56432891,19.0016904 4.31839525,20.2476241 2.78216446,20.2476241 M45.2178355,21.3619323 C43.6834078,21.3619323 42.4356711,20.1178017 42.4356711,18.5797679 L42.4356711,9.30468427 C42.4356711,7.76845348 43.6834078,6.52251982 45.2178355,6.52251982 C46.7540663,6.52251982 48,7.76845348 48,9.30468427 L48,18.5797679 C48,20.1178017 46.7540663,21.3619323 45.2178355,21.3619323 M2.78216446,38.7959881 C1.24593366,38.7959881 0,37.5500545 0,36.0138237 L0,26.7387401 C0,25.2025093 1.24593366,23.9565756 2.78216446,23.9565756 C4.31839525,23.9565756 5.56432891,25.2025093 5.56432891,26.7387401 L5.56432891,36.0138237 C5.56432891,37.5500545 4.31839525,38.7959881 2.78216446,38.7959881 M45.2178355,39.9084933 C43.6834078,39.9084933 42.4356711,38.6643627 42.4356711,37.1263288 L42.4356711,27.8530483 C42.4356711,26.3168176 43.6834078,25.0708839 45.2178355,25.0708839 C46.7540663,25.0708839 48,26.3168176 48,27.8530483 L48,37.1263288 C48,38.6643627 46.7540663,39.9084933 45.2178355,39.9084933 M8.12291048,52 L2.78216446,52 C1.24593366,52 0,50.7558694 0,49.2178355 L0,45.2871042 C0,43.7490703 1.24593366,42.5049397 2.78216446,42.5049397 C4.31839525,42.5049397 5.56432891,43.7490703 5.56432891,45.2871042 L5.56432891,46.4356711 L8.12291048,46.4356711 C9.65914128,46.4356711 10.9050749,47.6834078 10.9050749,49.2178355 C10.9050749,50.7558694 9.65914128,52 8.12291048,52 M26.6694715,52 L17.3979941,52 C15.8599602,52 14.6158296,50.7558694 14.6158296,49.2178355 C14.6158296,47.6834078 15.8599602,46.4356711 17.3979941,46.4356711 L26.6694715,46.4356711 C28.2075054,46.4356711 29.4516359,47.6834078 29.4516359,49.2178355 C29.4516359,50.7558694 28.2075054,52 26.6694715,52 M45.2178355,52 L35.9445551,52 C34.4083243,52 33.1623906,50.7558694 33.1623906,49.2178355 C33.1623906,47.6834078 34.4083243,46.4356711 35.9445551,46.4356711 L42.4356711,46.4014124 C42.4356711,44.8633785 43.6834078,43.619248 45.2178355,43.619248 C46.7540663,43.619248 48,44.8633785 48,46.4014124 L48,49.2178355 C48,50.7558694 46.7540663,52 45.2178355,52" id="Fill-2" fill="#414042"></path>
                    </g>
                </g>
            </g>
        </g>
    </g>
</svg>