<?xml version="1.0" encoding="UTF-8"?>
<svg width="122px" height="197px" viewBox="0 0 122 197" version="1.1" xmlns="http://www.w3.org/2000/svg" xmlns:xlink="http://www.w3.org/1999/xlink">
    <!-- Generator: Sketch 49.1 (51147) - http://www.bohemiancoding.com/sketch -->
    <title>Group 15</title>
    <desc>Created with Sketch.</desc>
    <defs>
        <polygon id="path-1" points="63.1119075 11.4786096 0.0568532358 11.4786096 0.0568532358 0.377334345 63.1119075 0.377334345 63.1119075 11.4786096"></polygon>
        <polygon id="path-3" points="0.182799265 0.586142857 13.0487598 0.586142857 13.0487598 7.35412857 0.182799265 7.35412857 0.182799265 0.586142857"></polygon>
    </defs>
    <g id="NSW-website" stroke="none" stroke-width="1" fill="none" fill-rule="evenodd">
        <g id="Group-15">
            <g id="Page-1-Copy" transform="translate(14.000000, 0.000000)">
                <path d="M52.194014,10.5811773 C52.5418744,10.9284955 53.0077814,11.1015409 53.4862465,11.1015409 C53.7436884,11.1015409 54.0036419,11.0512227 54.2535488,10.9530409 C54.5725256,10.8254045 54.8412698,10.6094045 55.0422,10.3443136 L62.4854093,3.25558636 C63.2313628,2.54622273 63.2464326,1.38154091 62.5218279,0.652540909 C61.7947116,-0.0764590909 60.6016884,-0.0887318182 59.8582465,0.619404545 L53.5276884,6.64285909 L47.462107,0.556813636 C46.9271302,0.0204954545 46.1133628,-0.0973227273 45.4038279,0.183722727 C45.0848512,0.310131818 44.8148512,0.526131818 44.6151767,0.793677273 L38.4704791,6.64285909 L32.6497814,0.803495455 C32.6284326,0.780177273 32.6058279,0.758086364 32.5844791,0.735995455 L32.3948512,0.546995455 C31.6652233,-0.174640909 30.4772233,-0.183231818 29.7350372,0.527359091 C29.4838744,0.767904545 29.3143395,1.06245 29.2314558,1.37417727 L23.7950372,6.55081364 L17.9128047,0.650086364 C17.3765721,0.113768182 16.5640605,-0.00405 15.8545256,0.276995455 C15.5355488,0.403404545 15.2680605,0.61695 15.068386,0.883268182 L9.11457209,6.55081364 L3.23233953,0.650086364 C2.50647907,-0.0789136364 1.31345581,-0.0924136364 0.56875814,0.61695 C-0.175939535,1.32631364 -0.191009302,2.49099545 0.533595349,3.21999545 L7.77964186,10.4866773 C8.31587442,11.0242227 9.12838605,11.1420409 9.83666512,10.8609955 C10.1556419,10.7345864 10.4231302,10.5185864 10.6228047,10.2534955 L16.5766186,4.58595 L22.4588512,10.4866773 C22.9938279,11.0242227 23.8075953,11.1420409 24.5171302,10.8609955 C24.836107,10.7345864 25.1035953,10.5185864 25.3032698,10.2534955 L31.208107,4.63258636 L37.1355488,10.5811773 C37.6717814,11.1174955 38.4855488,11.2353136 39.1938279,10.9530409 C39.5128047,10.8254045 39.7828047,10.6094045 39.9824791,10.3443136 L46.1284326,4.49390455 L52.194014,10.5811773 Z" id="Fill-1" fill="#414042"></path>
                <g id="Group-5" transform="translate(43.953488, 14.440040)">
                    <mask id="mask-2" fill="white">
                        <use xlink:href="#path-1"></use>
                    </mask>
                    <g id="Clip-4"></g>
                    <path d="M62.5777116,1.02985508 C61.8518512,0.30085508 60.6588279,0.288582353 59.9141302,0.996718717 L53.5873395,7.02140053 L47.5192465,0.934127807 C46.9855256,0.397809626 46.173014,0.281218717 45.4609674,0.561036898 C45.1419907,0.688673262 44.8719907,0.903445989 44.6723163,1.16976417 L38.5276186,7.02140053 L32.7069209,1.17958235 C32.6843163,1.15749144 32.6642233,1.13417326 32.6403628,1.11208235 L32.4519907,0.925536898 C31.7236186,0.203900535 30.533107,0.19285508 29.7934326,0.903445989 C29.5397581,1.14644599 29.3727349,1.44099144 29.2885953,1.75149144 L23.8521767,6.92812781 L17.9699442,1.02740053 C17.4362233,0.492309626 16.6212,0.372036898 15.9116651,0.654309626 C15.5939442,0.780718717 15.3239442,0.995491444 15.1255256,1.26058235 L9.17171163,6.92812781 L3.28947907,1.02740053 C2.56236279,0.298400535 1.37310698,0.286127807 0.625897674,0.994264171 C-0.1188,1.70240053 -0.135125581,2.86830963 0.591990698,3.59730963 L7.83552558,10.8639914 C8.37050233,11.4003096 9.18552558,11.5218096 9.89380465,11.2370824 C10.2127814,11.1106733 10.4815256,10.8971278 10.6812,10.6308096 L16.6337581,4.96449144 L22.5159907,10.8639914 C23.0509674,11.4003096 23.8647349,11.5218096 24.5742698,11.2370824 C24.8919907,11.1106733 25.1607349,10.8971278 25.3604093,10.6308096 L31.2639907,5.00990053 L37.1926884,10.9572642 C37.5405488,11.3070369 38.0077116,11.4788551 38.4849209,11.4788551 C38.7436186,11.4788551 39.0035721,11.4297642 39.2522233,11.3315824 C39.5712,11.203946 39.8399442,10.987946 40.0396186,10.7204005 L46.1843163,4.87121872 L52.2524093,10.9572642 C52.787386,11.4935824 53.5998977,11.6126278 54.3106884,11.3315824 C54.6296651,11.203946 54.8996651,10.987946 55.0980837,10.7204005 L62.5438047,3.63290053 C63.2872465,2.9235369 63.3035721,1.75762781 62.5777116,1.02985508" id="Fill-3" fill="#414042" mask="url(#mask-2)"></path>
                </g>
            </g>
            <g id="Page-1-Copy-6" transform="translate(0.000000, 118.000000)">
                <path d="M48,23.1793551 C48,33.8101509 39.0454323,42.4285714 28,42.4285714 C16.9545677,42.4285714 8,33.8101509 8,23.1793551 C8,12.5469919 16.9545677,3.92857143 28,3.92857143 C39.0454323,3.92857143 48,12.5469919 48,23.1793551" id="Fill-1" fill="#86FBFF"></path>
                <path d="M8.69365663,8.4053598 C7.62793754,7.56390095 6.05365341,7.70775329 5.17419222,8.72245367 C3.15288915,11.0596675 1.70979537,13.7201624 0.887021359,16.6312388 C0.527462639,17.9058015 1.3146047,19.2143937 2.64918301,19.55933 C2.86621395,19.6150148 3.08486452,19.6428571 3.30189546,19.6428571 C4.4032465,19.6428571 5.4122784,18.942157 5.71191067,17.8764123 C6.34842678,15.627366 7.46273488,13.5716697 9.0273012,11.765008 C9.9067624,10.7503076 9.75613645,9.24527186 8.69365663,8.4053598" id="Fill-3" fill="#414042"></path>
                <path d="M4.95533745,24.867791 C4.73398533,23.5169139 3.45434388,22.5960072 2.09553268,22.8190142 C0.738337202,23.0339994 -0.187464003,24.3062625 0.0322724088,25.6555352 C0.534757879,28.7503593 1.67867979,31.6430331 3.43333966,34.2549427 C3.9115895,34.9704904 4.70328686,35.3571429 5.50952561,35.3571429 C5.98454403,35.3571429 6.46440957,35.222376 6.88934101,34.9416118 C8.03487863,34.1843505 8.34509474,32.6473669 7.58086443,31.5098706 C6.22690036,29.4899725 5.34310759,27.2550892 4.95533745,24.867791" id="Fill-5" fill="#414042"></path>
                <path d="M19.4235289,38.9839019 C16.9944785,38.6622315 14.7114632,37.8360122 12.6312744,36.526471 C11.4597484,35.7884253 9.91502166,36.1476511 9.18160096,37.3265648 C8.44818026,38.5054785 8.80353232,40.0599464 9.97668092,40.7979921 C12.6669719,42.4912517 15.6249939,43.5623977 18.7679936,43.9804059 C18.8783313,43.9934686 18.9886689,44 19.0990065,44 C20.335437,44 21.4128515,43.0790757 21.5783579,41.8087228 C21.7584678,40.4306021 20.7946362,39.1651476 19.4235289,38.9839019" id="Fill-7" fill="#414042"></path>
                <path d="M28.7634582,7.01068555 C31.0249884,7.91267028 33.1082373,9.29623642 34.7870521,11.0139291 C35.2888806,11.5268839 35.9689904,11.7857143 36.6524017,11.7857143 C37.2730845,11.7857143 37.8970687,11.5723753 38.3856913,11.1394226 C39.4174112,10.2295945 39.4768383,8.69700483 38.5177514,7.71815531 C36.3519649,5.5000572 33.6579377,3.71177443 30.7328053,2.54625329 C29.436965,2.02859249 27.9413838,2.61056872 27.3982864,3.84197396 C26.855189,5.07651655 27.4659672,6.49459341 28.7634582,7.01068555" id="Fill-9" fill="#414042"></path>
                <g id="Group-13" transform="translate(10.400000, 0.000000)">
                    <mask id="mask-4" fill="white">
                        <use xlink:href="#path-3"></use>
                    </mask>
                    <g id="Clip-12"></g>
                    <path d="M10.58224,0.585985714 C10.55664,0.585985714 10.53424,0.585985714 10.51024,0.587557143 C7.37744,0.675557143 4.36624,1.40312857 1.56624,2.74984286 C0.34224,3.33912857 -0.16496,4.7927 0.43504,5.99484286 C0.86384,6.85284286 1.74224,7.35412857 2.65424,7.35412857 C3.01904,7.35412857 3.38864,7.27398571 3.73904,7.10427143 C5.90064,6.06398571 8.22704,5.50298571 10.64944,5.43541429 C12.01264,5.3977 13.08464,4.28198571 13.04784,2.94312857 C13.01104,1.62784286 11.91344,0.585985714 10.58224,0.585985714" id="Fill-11" fill="#414042" mask="url(#mask-4)"></path>
                </g>
                <path d="M42.9251132,15.0284738 C42.5114586,13.7469435 41.1720789,13.0578636 39.9234264,13.4824002 C38.6793872,13.911689 38.0089285,15.2961853 38.4241208,16.5777155 C38.9761728,18.277446 39.2545055,20.0563811 39.2545055,21.865414 C39.2545055,24.2700653 38.7701144,26.5891757 37.8136343,28.7562133 C37.2708088,29.9838845 37.7982568,31.4349125 38.9900126,31.994097 C39.3098644,32.1430016 39.6420183,32.2142857 39.9710967,32.2142857 C40.8737555,32.2142857 41.7364329,31.6804468 42.1331723,30.7790985 C43.3710605,27.9720879 44,24.971818 44,21.865414 C44,19.5288786 43.6386289,17.2287773 42.9251132,15.0284738" id="Fill-14" fill="#414042"></path>
                <path d="M32.7307281,34.3798545 C30.9180077,35.9299548 28.8381495,37.0606892 26.5452172,37.7363341 C25.247691,38.1184229 24.5130622,39.4572871 24.9058182,40.7247037 C25.2254295,41.7606926 26.2001642,42.4285714 27.2528142,42.4285714 C27.4897399,42.4285714 27.7282557,42.3944009 27.9635914,42.3245066 C30.9307285,41.4500512 33.6227773,39.9884838 35.9634128,37.9848472 C36.9826705,37.111945 37.0844373,35.5991217 36.192388,34.6035163 C35.3019289,33.6079108 33.7499858,33.5069524 32.7307281,34.3798545" id="Fill-16" fill="#414042"></path>
            </g>
            <g id="Page-1-Copy-8" transform="translate(48.000000, 156.000000)">
                <polygon id="Fill-1" fill="#FF7116" points="8.62745098 30.75 40 30.75 40 0 8.62745098 0"></polygon>
                <path d="M15.6239325,7.54110549 L8.3493571,7.54110549 C7.14588439,7.54110549 6.16726733,6.56015638 6.16726733,5.34747582 C6.16726733,4.13479526 7.14588439,3.15384615 8.3493571,3.15384615 L15.6239325,3.15384615 C16.8288194,3.15384615 17.8060222,4.13479526 17.8060222,5.34747582 C17.8060222,6.56015638 16.8288194,7.54110549 15.6239325,7.54110549 M30.1702548,7.54110549 L22.8970936,7.54110549 C21.6922067,7.54110549 20.7150039,6.56015638 20.7150039,5.34747582 C20.7150039,4.13479526 21.6922067,3.15384615 22.8970936,3.15384615 L30.1702548,3.15384615 C31.3751417,3.15384615 32.3523446,4.13479526 32.3523446,5.34747582 C32.3523446,6.56015638 31.3751417,7.54110549 30.1702548,7.54110549 M2.18208977,15.9644728 C0.977202872,15.9644728 0,14.982102 0,13.7708431 L0,6.45779648 C0,5.24795925 0.977202872,4.26416681 2.18208977,4.26416681 C3.38697667,4.26416681 4.36417954,5.24795925 4.36417954,6.45779648 L4.36417954,13.7708431 C4.36417954,14.982102 3.38697667,15.9644728 2.18208977,15.9644728 M35.4649691,16.843062 C34.2614963,16.843062 33.2828793,15.8621129 33.2828793,14.6494323 L33.2828793,7.33638568 C33.2828793,6.12512678 34.2614963,5.14275601 35.4649691,5.14275601 C36.669856,5.14275601 37.6470588,6.12512678 37.6470588,7.33638568 L37.6470588,14.6494323 C37.6470588,15.8621129 36.669856,16.843062 35.4649691,16.843062 M2.18208977,30.5891445 C0.977202872,30.5891445 0,29.6067737 0,28.3955148 L0,21.0824681 C0,19.8712093 0.977202872,18.8888385 2.18208977,18.8888385 C3.38697667,18.8888385 4.36417954,19.8712093 4.36417954,21.0824681 L4.36417954,28.3955148 C4.36417954,29.6067737 3.38697667,30.5891445 2.18208977,30.5891445 M35.4649691,31.466312 C34.2614963,31.466312 33.2828793,30.4853629 33.2828793,29.2726824 L33.2828793,21.9610573 C33.2828793,20.7497985 34.2614963,19.7674277 35.4649691,19.7674277 C36.669856,19.7674277 37.6470588,20.7497985 37.6470588,21.9610573 L37.6470588,29.2726824 C37.6470588,30.4853629 36.669856,31.466312 35.4649691,31.466312 M6.37091018,41 L2.18208977,41 C0.977202872,41 0,40.0190509 0,38.8063703 L0,35.7071398 C0,34.4944593 0.977202872,33.5135102 2.18208977,33.5135102 C3.38697667,33.5135102 4.36417954,34.4944593 4.36417954,35.7071398 L4.36417954,36.6127407 L6.37091018,36.6127407 C7.57579708,36.6127407 8.55299995,37.5965331 8.55299995,38.8063703 C8.55299995,40.0190509 7.57579708,41 6.37091018,41 M20.9172325,41 L13.6454855,41 C12.4391845,41 11.4633958,40.0190509 11.4633958,38.8063703 C11.4633958,37.5965331 12.4391845,36.6127407 13.6454855,36.6127407 L20.9172325,36.6127407 C22.1235336,36.6127407 23.0993223,37.5965331 23.0993223,38.8063703 C23.0993223,40.0190509 22.1235336,41 20.9172325,41 M35.4649691,41 L28.1918079,41 C26.986921,41 26.0097181,40.0190509 26.0097181,38.8063703 C26.0097181,37.5965331 26.986921,36.6127407 28.1918079,36.6127407 L33.2828793,36.585729 C33.2828793,35.3730485 34.2614963,34.3920994 35.4649691,34.3920994 C36.669856,34.3920994 37.6470588,35.3730485 37.6470588,36.585729 L37.6470588,38.8063703 C37.6470588,40.0190509 36.669856,41 35.4649691,41" id="Fill-2" fill="#414042"></path>
            </g>
        </g>
    </g>
</svg>