<?xml version="1.0" encoding="UTF-8"?>
<svg width="22px" height="22px" viewBox="0 0 22 22" version="1.1" xmlns="http://www.w3.org/2000/svg" xmlns:xlink="http://www.w3.org/1999/xlink">
    <!-- Generator: Sketch 48.2 (47327) - http://www.bohemiancoding.com/sketch -->
    <title>if_menu-alt_134216 copy</title>
    <desc>Created with Sketch.</desc>
    <defs></defs>
    <g id="NSW-landing-page" stroke="none" stroke-width="1" fill="none" fill-rule="evenodd" opacity="0.9">
        <g id="Group-15" transform="translate(-281.000000, -28.000000)" fill="#FFFFFF" fill-rule="nonzero">
            <g id="if_menu-alt_134216-copy" transform="translate(291.798990, 38.798990) rotate(-315.000000) translate(-291.798990, -38.798990) translate(277.798990, 24.798990)">
                <path d="M2,16 L26,16 C27.104,16 28,15.104 28,14 C28,12.896 27.104,12 26,12 L2,12 C0.896,12 -2.27373675e-13,12.896 -2.27373675e-13,14 C-2.27373675e-13,15.104 0.896,16 2,16 Z M12,2 L12,26 C12,27.104 12.896,28 14,28 C15.104,28 16,27.104 16,26 L16,2 C16,0.896 15.104,0 14,0 C12.896,0 12,0.896 12,2 Z" id="Shape"></path>
            </g>
        </g>
    </g>
</svg>