<?xml version="1.0" encoding="utf-8"?>
<!-- Generator: Adobe Illustrator 20.1.0, SVG Export Plug-In . SVG Version: 6.00 Build 0)  -->
<svg version="1.1" id="Layer_1" xmlns="http://www.w3.org/2000/svg" xmlns:xlink="http://www.w3.org/1999/xlink" x="0px" y="0px"
	 viewBox="0 0 800 151.2" style="enable-background:new 0 0 800 151.2;" xml:space="preserve">
<style type="text/css">
	.st0{fill:#4D4D4D;}
	.st1{fill:#FFFFFF;}
</style>
<g>
	<rect class="st0" width="800" height="151.2"/>
	<g>
		<path class="st1" d="M98.9,100.8l-4.7-10.9H73l-4.7,10.9h-12l21.8-50.4h10.9l21.8,50.4H98.9z M83.7,65.4L77.3,80h12.6L83.7,65.4z"
			/>
		<path class="st1" d="M136.9,90.8c5.6,0,10.1-2.2,13.5-6.6l7.2,7.4c-5.7,6.5-12.5,9.6-20.2,9.6c-7.7,0-14.1-2.5-19.2-7.4
			c-5-4.9-7.6-11.1-7.6-18.5s2.6-13.7,7.6-18.7c5.2-5,11.4-7.5,18.8-7.5c8.2,0,15.2,3.2,20.8,9.5l-7,7.9c-3.6-4.4-8-6.6-13.3-6.6
			c-4.2,0-7.8,1.4-10.9,4.2c-3,2.7-4.5,6.5-4.5,11.2c0,4.7,1.4,8.5,4.2,11.3C129.4,89.4,132.8,90.8,136.9,90.8z"/>
		<path class="st1" d="M165,50.4h11.2v20.7l19.1-20.7h13.9l-20,22.3c1.7,2.4,4.9,6.9,9.6,13.5c4.7,6.6,8.1,11.5,10.5,14.7H196
			l-14.8-19.9l-5.1,5.7v14.3H165V50.4L165,50.4z"/>
		<path class="st1" d="M216.6,100.8V50.4h11.2v40.4h21.5v10.1L216.6,100.8L216.6,100.8z"/>
		<path class="st1" d="M293.6,50.4v10.1h-25.1v10.4h22.6v9.6h-22.6v10.5h25.9v10h-37.1V50.4H293.6z"/>
		<path class="st1" d="M339.3,50.4h11.2v50.4h-11.2l-24-31.6v31.6h-11.2V50.4h10.6l24.8,32.4L339.3,50.4L339.3,50.4z"/>
		<path class="st1" d="M410.8,42.8h10.2l-30.3,66.1h-10.1L410.8,42.8z"/>
		<path class="st1" d="M484.1,100.8l-4.7-10.9h-21.1l-4.7,10.9h-12l21.8-50.4h10.9l21.8,50.4H484.1z M468.8,65.4L462.5,80h12.6
			L468.8,65.4z"/>
		<path class="st1" d="M515.9,82.5l12.8-32.1h12.2l-20.3,50.4h-9.6l-20.3-50.4H503L515.9,82.5z"/>
		<path class="st1" d="M584.2,50.4v10.1h-25.1v10.4h22.6v9.6h-22.6v10.5H585v10h-37.1V50.4H584.2z"/>
		<path class="st1" d="M629.9,50.4h11.2v50.4h-11.2l-24-31.6v31.6h-11.2V50.4h10.6L630,82.9L629.9,50.4L629.9,50.4z"/>
		<path class="st1" d="M666.3,87.8c1.9,2.3,4.4,3.5,7.6,3.5s5.7-1.2,7.6-3.5c1.8-2.3,2.7-5.5,2.7-9.6V50.4h11.2v28.2
			c0,7.3-2,12.9-6.1,16.9c-4.1,3.9-9.2,5.9-15.5,5.9c-6.3,0-11.5-2-15.5-5.9c-4.1-3.9-6.1-9.6-6.1-16.8V50.4h11.2v27.8
			C663.5,82.3,664.4,85.4,666.3,87.8z"/>
		<path class="st1" d="M742.8,50.4v10.1h-25.1v10.4h22.6v9.6h-22.6v10.5h25.9v10h-37.1V50.4H742.8z"/>
	</g>
</g>
</svg>
