<?xml version="1.0" standalone="no"?>
<!DOCTYPE svg PUBLIC "-//W3C//DTD SVG 20010904//EN"
 "http://www.w3.org/TR/2001/REC-SVG-20010904/DTD/svg10.dtd">
<svg version="1.0" xmlns="http://www.w3.org/2000/svg"
 width="604.000000pt" height="604.000000pt" viewBox="0 0 604.000000 604.000000"
 preserveAspectRatio="xMidYMid meet">
<metadata>
Created by potrace 1.11, written by Peter Selinger 2001-2013
</metadata>
<g transform="translate(0.000000,604.000000) scale(0.100000,-0.100000)"
fill="#000000" stroke="none">
<path d="M2956 6015 c-14 -13 -27 -28 -27 -32 -1 -4 -2 -180 -3 -391 -2 -349
0 -386 16 -412 32 -54 135 -46 154 12 11 32 12 746 2 785 -16 60 -95 82 -142
38z"/>
<path d="M4555 5527 c-32 -9 -32 -9 -337 -435 -166 -230 -173 -249 -117 -296
58 -49 100 -35 167 57 30 40 62 83 72 97 10 14 71 97 135 185 64 88 121 167
128 175 35 45 66 98 71 121 10 60 -57 115 -119 96z"/>
<path d="M1408 5516 c-34 -17 -59 -72 -47 -104 10 -27 75 -121 122 -177 15
-18 27 -37 27 -43 0 -6 3 -12 8 -14 6 -3 69 -86 112 -148 85 -124 193 -260
208 -261 53 -5 76 1 98 25 41 44 28 100 -42 185 -7 9 -93 126 -191 261 -160
222 -204 277 -222 281 -28 6 -54 4 -73 -5z"/>
<path d="M2858 4955 c-2 -2 -25 -5 -53 -8 -102 -13 -165 -24 -235 -43 -30 -8
-64 -17 -75 -19 -11 -3 -29 -9 -40 -13 -11 -5 -57 -24 -103 -41 -266 -104
-540 -314 -714 -548 -24 -32 -45 -60 -48 -63 -3 -3 -11 -17 -19 -32 -8 -16
-18 -28 -23 -28 -4 0 -8 -9 -8 -20 0 -11 -3 -20 -7 -20 -5 0 -13 -10 -20 -23
-37 -72 -96 -193 -98 -202 -1 -5 -7 -21 -12 -35 -28 -68 -60 -178 -79 -275 -2
-11 -6 -31 -9 -45 -26 -124 -26 -441 0 -560 3 -14 7 -39 10 -57 21 -157 167
-505 255 -610 5 -7 10 -15 10 -19 0 -8 92 -125 140 -178 72 -79 173 -172 237
-217 41 -29 57 -60 68 -134 2 -11 6 -29 8 -40 5 -16 21 -90 42 -185 2 -8 12
-53 23 -100 11 -47 26 -114 33 -149 16 -73 40 -99 95 -99 19 0 38 -2 40 -5 4
-4 6 -263 3 -397 0 -12 0 -181 1 -330 0 -56 14 -70 70 -70 48 0 48 -1 78 -53
67 -117 163 -185 327 -233 116 -34 324 -35 440 -2 22 6 46 12 53 14 7 1 42 17
79 36 76 38 167 122 204 188 23 42 27 45 71 48 64 4 74 21 73 121 l-1 81 51 0
c28 0 56 5 63 12 31 31 -2 71 -56 68 -58 -4 -58 -5 -57 67 l0 68 49 2 c67 3
90 25 66 63 -6 9 -27 15 -57 16 -26 1 -51 2 -54 3 -3 1 -6 31 -5 68 l1 67 53
2 c59 2 57 1 66 29 10 34 -8 47 -65 49 l-54 2 -2 42 c-3 43 5 50 56 42 8 -1
29 1 47 4 33 7 49 31 60 91 2 17 9 44 14 60 5 17 25 104 45 195 19 91 40 185
46 210 6 25 12 53 14 63 9 43 18 55 68 92 111 84 234 208 317 320 25 33 48 62
53 63 4 2 7 9 7 15 0 6 6 18 14 26 83 94 225 458 251 645 2 12 7 46 11 76 10
67 11 356 1 425 -9 60 -27 165 -33 183 -2 7 -4 14 -4 17 -1 3 -6 19 -11 37 -6
18 -12 40 -14 48 -8 37 -78 209 -112 274 -34 66 -143 236 -167 262 -6 7 -27
31 -46 55 -54 67 -180 189 -246 239 -32 25 -61 47 -64 50 -5 5 -55 38 -125 82
-111 69 -353 166 -485 193 -76 16 -122 25 -166 30 -47 7 -341 15 -346 10z"/>
<path d="M5460 4175 c-36 -13 -186 -62 -335 -110 -148 -47 -279 -91 -291 -96
-57 -28 -64 -108 -14 -150 27 -23 36 -25 74 -18 23 4 53 12 67 18 13 5 152 51
309 101 157 50 297 96 312 101 94 37 81 167 -17 174 -24 2 -67 -6 -105 -20z"/>
<path d="M422 4162 c-50 -46 -42 -110 16 -141 18 -9 320 -112 342 -116 3 0 84
-26 180 -57 224 -73 226 -73 265 -33 33 32 34 93 3 122 -13 11 -61 33 -108 48
-47 14 -92 29 -100 32 -8 4 -17 7 -20 8 -11 2 -86 27 -100 32 -8 3 -19 7 -25
8 -5 2 -75 24 -154 50 -79 26 -149 48 -155 49 -6 1 -16 5 -22 8 -6 4 -29 10
-50 14 -35 5 -44 2 -72 -24z"/>
<path d="M4835 2760 c-33 -13 -47 -37 -49 -80 0 -28 6 -46 20 -60 17 -17 129
-63 184 -75 8 -2 16 -4 18 -5 1 -2 7 -4 12 -5 6 -1 11 -3 13 -5 1 -1 9 -3 17
-5 8 -2 114 -35 235 -75 121 -39 231 -75 245 -79 40 -13 96 14 109 51 6 17 11
39 11 48 0 28 -38 68 -73 79 -71 20 -263 82 -282 90 -11 5 -49 18 -85 29 -36
11 -122 38 -192 61 -130 42 -149 45 -183 31z"/>
<path d="M815 2654 c-381 -126 -387 -128 -407 -162 -17 -30 -17 -55 2 -94 26
-55 62 -52 309 29 113 37 208 68 211 68 57 12 278 93 298 110 34 30 37 94 6
126 -42 42 -77 36 -419 -77z"/>
</g>
</svg>
