<?xml version="1.0" encoding="UTF-8"?>
<svg width="418px" height="549px" viewBox="0 0 418 549" version="1.1" xmlns="http://www.w3.org/2000/svg" xmlns:xlink="http://www.w3.org/1999/xlink">
    <!-- Generator: Sketch 48.2 (47327) - http://www.bohemiancoding.com/sketch -->
    <title>Page 1</title>
    <desc>Created with Sketch.</desc>
    <defs>
        <path d="M85.1210132,0.615 L0.104684211,0.83747541 L0.104684211,90.077 L7.18630263,90.077 C8.03182895,90.077 8.75656579,90.6785574 8.91426316,91.512 C8.96928947,91.8023607 10.2020132,98.6641475 5.95693421,103.807967 C4.46786842,105.616 2.499,106.945475 0.104684211,107.83 L0.104684211,163.922705 L85.5444474,163.701574 C94.59225,163.676705 101.909408,156.293344 101.884579,147.206803 L101.858408,136.827082 L101.735605,89.2240656 L101.724197,85.3855246 L101.707421,78.8443443 L101.696013,75.0084918 L101.574553,27.4027869 L101.548382,17.0223934 C101.523553,7.95332787 94.1902895,0.616344262 85.1639605,0.615 C85.1491974,0.615 85.1357763,0.615 85.1210132,0.615 Z" id="path-1"></path>
        <polygon id="path-3" points="0.09 0.135155172 59.9733333 0.135155172 59.9733333 38.7512069 0.09 38.7512069"></polygon>
        <polygon id="path-5" points="0.09 0.515333333 59.9733333 0.515333333 59.9733333 5.424 0.09 5.424"></polygon>
        <polygon id="path-7" points="0.09 0.311875 59.9733333 0.311875 59.9733333 4.91375 0.09 4.91375"></polygon>
        <polygon id="path-9" points="0.09 0.464666667 59.9733333 0.464666667 59.9733333 5.37333333 0.09 5.37333333"></polygon>
        <path d="M114.41255,0.650340909 L17.90776,0.901761364 C17.28801,0.903102273 16.69238,1.15117045 16.25621,1.59232955 C15.81736,2.03348864 15.57281,2.63153409 15.57549,3.25371591 L15.80664,92.3209205 C13.60033,92.7325795 11.6781,94.1854545 10.72268,96.2725795 L1.15441,117.172659 C0.59831,118.392216 0.30351,119.743182 0.30351,121.08342 L0.30351,174.62592 C0.30351,175.596739 1.08808,176.385193 2.05824,176.385193 C3.0284,176.385193 3.81297,175.596739 3.81297,174.62592 L3.81297,121.08342 C3.81297,120.246693 3.99789,119.40058 4.34495,118.640955 L13.91188,97.740875 C14.29512,96.9061591 14.98857,96.2799545 15.81602,95.9554545 L15.81602,96.0090909 C16.21065,95.8535455 16.63342,95.7610227 17.0716,95.7610227 L20.49463,95.7610227 L20.49463,95.7107386 L29.54633,95.7107386 L35.02961,95.7107386 C35.10532,97.5967273 34.87618,100.986545 32.68595,103.636852 C31.85582,104.641864 30.80727,105.457136 29.54633,106.084682 C27.47201,107.117182 24.82551,107.638795 21.62693,107.638795 C21.21555,107.638795 20.83499,107.796352 20.52746,108.048443 L20.52746,107.98408 C20.31306,108.151693 20.12479,108.355511 20.00218,108.610284 L15.87163,117.170648 L15.87163,117.285295 L13.80267,121.574864 C13.58492,122.025409 13.56884,122.548364 13.75979,123.011648 C13.95074,123.475602 14.32795,123.834295 14.8003,124.000568 C14.82442,124.009284 15.23245,124.160136 15.89106,124.467875 L15.89106,124.524193 C16.96708,125.031057 18.70707,125.961648 20.57704,127.422568 L20.57704,127.359545 C24.52133,130.426875 29.0311,135.824705 29.0311,144.468875 C29.0311,153.025216 26.73166,159.412636 24.6225,163.484307 L24.56622,163.484307 C23.33208,165.862409 22.17432,167.442 21.57668,168.184864 L21.641,168.184864 C21.37434,168.515398 21.20349,168.707148 21.18741,168.72525 C20.52076,169.429898 20.54823,170.541511 21.24905,171.210625 C21.94987,171.878398 23.06073,171.853591 23.73073,171.149614 C23.84463,171.030943 24.77526,170.027273 25.98796,168.173466 L44.39956,168.125193 L41.55005,171.266273 C40.90015,171.983659 40.95241,173.097955 41.66931,173.750977 C42.00565,174.058045 42.42842,174.209568 42.84918,174.209568 C43.32689,174.209568 43.80125,174.015807 44.14898,173.632977 L49.15321,168.114466 L114.84872,167.94283 C125.15801,167.915341 133.5243,159.481023 133.49482,149.145966 L133.15781,19.3479773 C133.14374,14.3396818 131.18801,9.63778409 127.64639,6.10582955 C124.11884,2.58728409 119.43956,0.650340909 114.46481,0.650340909 L114.41255,0.650340909 Z M20.2608,5.58689773 L114.4226,5.34285227 L114.46481,5.34285227 C118.19403,5.34285227 121.70081,6.79505682 124.34664,9.43195455 C126.99984,12.08025 128.46781,15.6055 128.47786,19.3607159 L128.81554,149.157364 C128.83765,156.907818 122.56444,163.228193 114.83599,163.250989 L28.56344,163.47358 C30.61565,159.023102 32.54056,152.680602 32.54056,144.468875 C32.54056,132.821739 25.47273,126.24592 20.56565,123.083386 L20.54689,115.677545 L22.73578,111.138568 C25.30724,111.048057 27.56916,110.620307 29.54633,109.892193 C31.93622,109.011886 33.90066,107.685057 35.38873,105.882875 C39.62581,100.755239 38.39569,93.91325 38.34075,93.6222727 C38.18263,92.79225 37.45836,92.1908523 36.61617,92.1908523 L29.54633,92.1908523 L20.48592,92.1908523 L20.2608,5.58689773 Z" id="path-11"></path>
        <polygon id="path-13" points="0.134617647 0.0933321364 68.8674118 0.0933321364 68.8674118 373.838851 0.134617647 373.838851"></polygon>
        <polygon id="path-15" points="0.371590909 0.527727273 29.4879545 0.527727273 29.4879545 14.5840909 0.371590909 14.5840909"></polygon>
        <path d="M30.5800645,10.0813494 L30.5800645,11.2256386 C28.8451935,9.77638554 26.6090323,8.89725301 24.1696452,8.89725301 C18.6656129,8.89725301 14.1858387,13.3495904 14.1858387,18.8213976 L14.1858387,29.4526265 C12.7713871,28.4297831 11.0358387,27.8218795 9.15735484,27.8218795 L2.34183871,27.8218795 C1.35483871,27.8218795 0.55683871,28.616 0.55683871,29.597012 L0.55683871,63.4304578 C0.478258065,64.5241446 0.297387097,72.226506 9.65525806,81.6945542 C17.7910645,89.9245301 27.9760645,98.7367711 30.5800645,100.967325 L30.5800645,109.65812 C30.5800645,110.637783 31.3800968,111.433253 32.3657419,111.433253 C33.3520645,111.433253 34.1507419,110.637783 34.1507419,109.65812 L34.1507419,100.151614 C34.1507419,99.6320964 33.9204194,99.1375422 33.5234516,98.8001928 C33.4042258,98.6996627 21.4518387,88.5636627 12.2016774,79.204241 C3.65806452,70.5626988 4.10719355,63.8224578 4.11870968,63.6733494 C4.1193871,63.6436627 4.116,63.6153253 4.11870968,63.5842892 C4.11870968,63.5552771 4.12683871,63.5255904 4.12683871,63.4952289 L4.12683871,31.3714699 L9.15735484,31.3714699 C11.9300323,31.3714699 14.1858387,33.6141687 14.1858387,36.3723373 L14.1858387,49.9769639 L14.1858387,63.4952289 C14.1858387,64.4742169 14.985871,65.269012 15.9715161,65.269012 C16.9591935,65.269012 17.7565161,64.4742169 17.7565161,63.4952289 L17.7565161,49.9769639 L17.7565161,36.3723373 L17.7565161,18.8213976 C17.7565161,15.3062169 20.6341935,12.4461687 24.1696452,12.4461687 C27.7050968,12.4461687 30.5800645,15.3062169 30.5800645,18.8213976 L30.5800645,21.9546988 L30.5800645,29.597012 C30.5800645,30.5766747 31.3800968,31.3714699 32.3657419,31.3714699 C33.3520645,31.3714699 34.1507419,30.5766747 34.1507419,29.597012 L34.1507419,21.9546988 L34.1507419,18.8213976 L34.1507419,10.0813494 C34.1507419,6.56751807 37.0284194,3.70746988 40.563871,3.70746988 C44.0979677,3.70746988 46.9742903,6.56751807 46.9742903,10.0813494 L46.9742903,14.1686747 L46.9742903,23.4619759 L46.9742903,26.3834217 C46.9742903,27.3630843 47.7722903,28.1578795 48.7599677,28.1578795 C49.7462903,28.1578795 50.5442903,27.3630843 50.5442903,26.3834217 L50.5442903,23.4619759 L50.5442903,14.1686747 C50.5442903,10.653494 53.4206129,7.79344578 56.9560645,7.79344578 C60.4921935,7.79344578 63.3678387,10.653494 63.3678387,14.1686747 L63.3678387,26.5271325 C63.3678387,27.5074699 64.1665161,28.3022651 65.1535161,28.3022651 C66.1398387,28.3022651 66.9385161,27.5074699 66.9385161,26.5271325 L66.9385161,19.9454458 C66.9385161,16.4316145 69.8148387,13.572241 73.3489355,13.572241 C76.8850645,13.572241 79.7613871,16.4316145 79.7613871,19.9454458 L79.7613871,62.3691566 L79.7627419,78.0518554 C79.7749355,78.4 79.9171935,86.6583133 70.4373871,93.9895904 C70.0031613,94.3262651 69.7484516,94.8424096 69.7484516,95.3902651 L69.7484516,107.481542 C69.7484516,108.46053 70.547129,109.256 71.5334516,109.256 C72.5197742,109.256 73.3184516,108.46053 73.3184516,107.481542 L73.3184516,96.2444337 C83.6179355,87.8633253 83.3469677,78.3257831 83.3313871,77.9870843 L83.3313871,62.3691566 L83.3313871,19.9454458 C83.3313871,14.4736386 78.8536452,10.0219759 73.3489355,10.0219759 C70.8350323,10.0219759 68.5399355,10.9591325 66.7840645,12.4900241 C65.9779355,7.81436145 61.8849677,4.24385542 56.9560645,4.24385542 C54.2782258,4.24385542 51.8476452,5.30448193 50.0524839,7.01821687 C48.7484516,3.04154217 44.9908065,0.158554217 40.563871,0.158554217 C35.0598387,0.158554217 30.5800645,4.60954217 30.5800645,10.0813494 Z" id="path-17"></path>
        <polygon id="path-19" points="0.343603448 0.527727273 38.9596552 0.527727273 38.9596552 14.5840909 0.343603448 14.5840909"></polygon>
        <polygon id="path-21" points="0.371590909 0.442666667 29.4879545 0.442666667 29.4879545 1.836 0.371590909 1.836"></polygon>
        <polygon id="path-23" points="0.371590909 0.018 29.4879545 0.018 29.4879545 1.40933333 0.371590909 1.40933333"></polygon>
        <polygon id="path-25" points="1.97608696 7.11409091 0.311086957 7.55454545 2.01782609 8.00113636 14.7163043 14.5840909 14.7163043 0.527045455"></polygon>
        <path d="M0.485090909,0.527045455 L0.485090909,14.5840909 L4.12363636,14.5840909 C5.68436364,14.5840909 7.07709091,13.9220455 7.98036364,12.8890909 L7.98036364,2.22136364 C7.07709091,1.18977273 5.68436364,0.527045455 4.12363636,0.527045455 L0.485090909,0.527045455 Z" id="path-27"></path>
        <polygon id="path-29" points="0.343603448 0.442666667 38.9596552 0.442666667 38.9596552 1.836 0.343603448 1.836"></polygon>
        <polygon id="path-31" points="0.343603448 0.018 38.9596552 0.018 38.9596552 1.40933333 0.343603448 1.40933333"></polygon>
        <path d="M318.29612,0.181702703 L318.29612,65.8302162 C318.29612,131.943754 264.629155,185.732465 198.662194,185.732465 L0.0598556338,185.732465 L0.0598556338,248.917897 L198.662194,248.917897 C299.391155,248.917897 381.33957,166.784911 381.33957,65.8302162 L381.33957,0.181702703 L318.29612,0.181702703 Z" id="path-33"></path>
        <path d="M0.0445,3.764 C0.4815,3.43866667 0.78,2.77733333 0.78,2.01466667 C0.78,1.25133333 0.4815,0.59 0.0445,0.265333333 L0.0445,3.764 Z" id="path-35"></path>
        <path d="M0.123428571,2.26032143 L0.123428571,16.6290714 C0.123428571,17.6265714 0.876,18.4374643 1.80628571,18.4374643 C2.73657143,18.4374643 3.48914286,17.6265714 3.48914286,16.6290714 L3.48914286,2.26032143 C3.48914286,1.26078571 2.73657143,0.451928571 1.80628571,0.451928571 C0.876,0.451928571 0.123428571,1.26078571 0.123428571,2.26032143 Z" id="path-37"></path>
        <path d="M2.07933333,0.056 C1.09733333,0.056 0.302666667,0.934 0.302666667,2.016 C0.302666667,3.09866667 1.09733333,3.978 2.07933333,3.978 L14.9046667,3.978 L16.21,3.972 C17.1913333,3.964 17.98,3.07866667 17.9733333,1.99666667 C17.9653333,0.912 17.18,0.074 16.1813333,0.0513333333 L2.07933333,0.056 Z" id="path-39"></path>
        <path d="M1.80733333,0.0513333333 C0.828,0.0513333333 0.0306666667,0.93 0.0306666667,2.01466667 C0.0306666667,3.09866667 0.828,3.978 1.80733333,3.978 L15.9246667,3.978 C16.9073333,3.978 17.7013333,3.09866667 17.7013333,2.01466667 C17.7013333,0.93 16.9073333,0.0513333333 15.9246667,0.0513333333 L1.80733333,0.0513333333 Z" id="path-41"></path>
        <path d="M15.712,0.099375 C11.114,0.728125 6.41733333,1.215625 1.75,1.54375 C0.766,1.613125 0.0326666667,2.37125 0.111333333,3.2375 C0.186666667,4.06 0.968,4.683125 1.89,4.683125 C1.93866667,4.683125 1.986,4.68125 2.03533333,4.67875 C6.79,4.34375 11.5773333,3.84875 16.2626667,3.20875 C17.238,3.073125 17.906,2.270625 17.754,1.4125 C17.616,0.63375 16.85,0.081875 15.9806667,0.081875 C15.8926667,0.081875 15.802,0.0875 15.712,0.099375 Z" id="path-43"></path>
        <path d="M2.39875,0.0513333333 C1.39989286,0.0513333333 0.590357143,0.93 0.590357143,2.01466667 C0.590357143,3.09866667 1.39989286,3.978 2.39875,3.978 L16.7681786,3.978 C17.7677143,3.978 18.5765714,3.09866667 18.5765714,2.01466667 C18.5765714,0.93 17.7677143,0.0513333333 16.7681786,0.0513333333 L2.39875,0.0513333333 Z" id="path-45"></path>
        <path d="M2.08466667,0.0513333333 C1.104,0.0513333333 0.308666667,0.93 0.308666667,2.01466667 C0.308666667,3.09866667 1.104,3.978 2.08466667,3.978 L16.202,3.978 C17.1846667,3.978 17.9786667,3.09866667 17.9786667,2.01466667 C17.9786667,0.93 17.1846667,0.0513333333 16.202,0.0513333333 L2.08466667,0.0513333333 Z" id="path-47"></path>
        <path d="M2.32342857,0.0513333333 C1.32457143,0.0513333333 0.514357143,0.93 0.514357143,2.01466667 C0.514357143,3.09866667 1.32457143,3.978 2.32342857,3.978 L16.6921786,3.978 C17.6923929,3.978 18.5005714,3.09866667 18.5005714,2.01466667 C18.5005714,0.93 17.6923929,0.0513333333 16.6921786,0.0513333333 L2.32342857,0.0513333333 Z" id="path-49"></path>
        <path d="M1.88733333,0.0513333333 C0.906666667,0.0513333333 0.111333333,0.93 0.111333333,2.01466667 C0.111333333,3.09866667 0.906666667,3.978 1.88733333,3.978 L16.0053333,3.978 C16.9866667,3.978 17.782,3.09866667 17.782,2.01466667 C17.782,0.93 16.9866667,0.0513333333 16.0053333,0.0513333333 L1.88733333,0.0513333333 Z" id="path-51"></path>
        <path d="M16.1527143,0.663230769 C11.5112857,2.22023077 6.75925,3.60761538 2.0235,4.78869231 C1.02260714,5.03861538 0.399678571,6.11030769 0.634464286,7.18338462 C0.832607143,8.10415385 1.59939286,8.72584615 2.44489286,8.72584615 C2.58467857,8.72584615 2.72582143,8.70853846 2.86696429,8.67392308 C7.69296429,7.47138462 12.5359286,6.05838462 17.2648929,4.47092308 C18.2454286,4.14 18.7916786,3.02053846 18.4856429,1.97169231 C18.2359286,1.11807692 17.4996786,0.569769231 16.7105,0.569769231 C16.5259286,0.569769231 16.3372857,0.600923077 16.1527143,0.663230769 Z" id="path-53"></path>
        <path d="M2.31732143,0.0513333333 C1.31914286,0.0513333333 0.508928571,0.93 0.508928571,2.01466667 C0.508928571,3.09866667 1.31914286,3.978 2.31732143,3.978 L16.6860714,3.978 C17.6869643,3.978 18.4951429,3.09866667 18.4951429,2.01466667 C18.4951429,0.93 17.6869643,0.0513333333 16.6860714,0.0513333333 L2.31732143,0.0513333333 Z" id="path-55"></path>
        <path d="M6.32266667,1.12396154 C4.50866667,5.41253846 2.498,9.69130769 0.348,13.838 C-0.106666667,14.7148077 0.285333333,15.7720769 1.22666667,16.1983846 C1.49333333,16.3180385 1.77266667,16.3736154 2.05,16.3736154 C2.75266667,16.3736154 3.428,16.0074615 3.75266667,15.3758462 C5.94466667,11.1513462 7.99266667,6.79215385 9.842,2.42184615 C10.2266667,1.51430769 9.75,0.488423077 8.77933333,0.128807692 C8.55066667,0.0451153846 8.31533333,0.00523076923 8.084,0.00523076923 C7.32933333,0.00523076923 6.61733333,0.428923077 6.32266667,1.12396154 Z" id="path-57"></path>
        <path d="M1.613125,2.05267857 C1.290625,6.79182143 0.813125,11.5743929 0.188125,16.2626429 C0.055625,17.2553929 0.648125,18.183 1.511875,18.335 C1.593125,18.34925 1.673125,18.3567143 1.75375,18.3567143 C2.521875,18.3567143 3.195,17.71275 3.315,16.8136429 C3.950625,12.0365 4.439375,7.16571429 4.76625,2.33428571 C4.834375,1.33339286 4.18375,0.457357143 3.313125,0.38 C3.25875,0.373214286 3.204375,0.3705 3.151875,0.3705 C2.339375,0.3705 1.675625,1.11217857 1.613125,2.05267857 Z" id="path-59"></path>
        <path d="M4.17672727,1.584 C3.09818182,6.23666667 1.82763636,10.9073333 0.4,15.466 C0.0981818182,16.4306667 0.641454545,17.4553333 1.61163636,17.7546667 C1.79418182,17.8106667 1.97890909,17.8373333 2.15854545,17.8373333 C2.944,17.8373333 3.67127273,17.3346667 3.91854545,16.5513333 C5.37090909,11.9046667 6.66618182,7.146 7.76654545,2.406 C7.99418182,1.422 7.376,0.44 6.38545455,0.213333333 C6.248,0.181333333 6.10909091,0.166666667 5.97309091,0.166666667 C5.136,0.166666667 4.37527273,0.739333333 4.17672727,1.584 Z" id="path-61"></path>
        <path d="M0.125142857,2.37975 L0.123428571,16.7423929 C0.12,17.7392143 0.870285714,18.5541786 1.79885714,18.5568929 L1.80514286,18.5568929 C2.732,18.5568929 3.48342857,17.75075 3.48742857,16.7552857 L3.48914286,2.37975 C3.48914286,1.38157143 2.73714286,0.571357143 1.80742857,0.571357143 C0.877714286,0.571357143 0.125142857,1.38157143 0.125142857,2.37975 Z" id="path-63"></path>
        <path d="M8.11764706,1.43956 C5.71694118,5.58824 3.12847059,9.70088 0.425647059,13.668 C-0.146117647,14.50576 0.0684705882,15.6502 0.904941176,16.22344 C1.22188235,16.43968 1.58258824,16.54304 1.93764706,16.54304 C2.52423529,16.54304 3.09952941,16.2622 3.45670588,15.74064 C6.21035294,11.70076 8.84682353,7.50856 11.2927059,3.281 C11.8002353,2.4038 11.5002353,1.27908 10.6242353,0.76976 C10.3341176,0.60112 10.0171765,0.52156 9.70517647,0.52156 C9.072,0.52088 8.45647059,0.85068 8.11764706,1.43956 Z" id="path-65"></path>
        <path d="M11.85,0.5215 C8.41630435,3.8346 4.81369565,7.0595 1.1426087,10.108 C0.367826087,10.752 0.243913043,11.9231 0.865434783,12.726 C1.22086957,13.1838 1.74195652,13.4218 2.26891304,13.4218 C2.66413043,13.4218 3.06130435,13.2895 3.39391304,13.0144 C7.13282609,9.9064 10.8045652,6.622 14.3028261,3.248 C15.0286957,2.5466 15.0697826,1.3671 14.3928261,0.6153 C14.0373913,0.2219 13.5567391,0.0224 13.0747826,0.0224 C12.6358696,0.0224 12.1963043,0.1876 11.85,0.5215 Z" id="path-67"></path>
        <path d="M13.1353333,0.701647059 C9.248,3.41011765 5.21533333,6.00141176 1.148,8.40423529 C0.288,8.91317647 -0.00333333333,10.032 0.498666667,10.9044706 C0.832666667,11.4882353 1.436,11.8136471 2.05866667,11.8136471 C2.36533333,11.8136471 2.67866667,11.7331765 2.964,11.5644706 C7.10733333,9.11576471 11.2153333,6.47435294 15.1786667,3.71435294 C15.998,3.14258824 16.2066667,2.004 15.6433333,1.17176471 C15.2933333,0.656470588 14.7293333,0.379764706 14.1553333,0.379764706 C13.8033333,0.379764706 13.448,0.483529412 13.1353333,0.701647059 Z" id="path-69"></path>
        <path d="M10.5245,0.744782609 C7.4816,4.41456522 4.2588,8.01913043 0.9471,11.4580435 C0.2471,12.1858696 0.2933,13.3232609 1.0493,13.9969565 C1.4084,14.3171739 1.8634,14.4756522 2.317,14.4756522 C2.8196,14.4756522 3.3187,14.283913 3.6883,13.901087 C7.0609,10.395 10.3439,6.72391304 13.4435,2.98630435 C14.0854,2.21086957 13.9545,1.07934783 13.1488,0.460434783 C12.8051,0.19826087 12.3942,0.0704347826 11.9861,0.0704347826 C11.4366,0.0704347826 10.8927,0.300652174 10.5245,0.744782609 Z" id="path-71"></path>
        <path d="M13.8896538,0.625625 C9.73773077,2.850375 5.46092308,4.9286875 1.17496154,6.8055625 C0.268730769,7.20225 -0.173923077,8.32975 0.185038462,9.3286875 C0.462269231,10.0904375 1.12657692,10.5538125 1.8275,10.5538125 C2.04392308,10.5538125 2.26557692,10.509125 2.47807692,10.415625 C6.84707692,8.5050625 11.2049615,6.384125 15.4366538,4.118125 C16.3115,3.6499375 16.6776538,2.4866875 16.2500385,1.522125 C15.9440385,0.8305 15.3163462,0.4296875 14.6618462,0.4296875 C14.4029231,0.4296875 14.1394231,0.4929375 13.8896538,0.625625 Z" id="path-73"></path>
        <path d="M0.123428571,2.09576471 L0.123428571,9.71858824 C0.123428571,10.7696471 0.876,11.6244706 1.80628571,11.6244706 C2.73657143,11.6244706 3.48914286,10.7696471 3.48914286,9.71858824 L3.48914286,2.09576471 C3.48914286,1.04329412 2.73657143,0.190588235 1.80628571,0.190588235 C0.876,0.190588235 0.123428571,1.04329412 0.123428571,2.09576471 Z" id="path-75"></path>
    </defs>
    <g id="Desktop-HD" stroke="none" stroke-width="1" fill="none" fill-rule="evenodd" transform="translate(-1.000000, -2227.000000)">
        <g id="Page-1" transform="translate(1.000000, 2227.000000)">
            <g id="Group-5" transform="translate(96.000000, 3.000000)" fill="#FEFEFE">
                <path d="M232.947024,152.853448 L232.947024,141.454981 L210.146076,119.999042 L204.110531,111.282567 L203.439915,103.23659 L203.439915,71.7231801 L212.157924,72.3936782 L216.181621,74.4051724 L216.852237,58.9837165 C216.852237,58.9837165 218.864086,52.2787356 225.570247,52.9492337 C225.570247,52.9492337 231.605792,53.6197318 232.276408,57.6427203 C232.276408,57.6427203 230.935176,44.2327586 240.994417,44.2327586 C240.994417,44.2327586 250.383043,44.2327586 249.712427,53.6197318 C249.712427,53.6197318 252.394891,47.585249 258.430436,48.2557471 C258.430436,48.2557471 266.47783,49.5967433 265.807214,57.6427203 C265.807214,57.6427203 270.501526,52.9492337 275.195839,53.6197318 C275.195839,53.6197318 282.572616,54.960728 282.572616,65.0181992 L282.572616,117.987548 C282.572616,117.987548 280.560768,131.39751 272.513375,136.761494 L271.842759,153.523946 L232.947024,152.853448 Z" id="Fill-1"></path>
                <path d="M0.243232464,173.638889 L0.243232464,116.646552 L10.7497751,92.5086207 L17.0086353,91.1676245 L16.3380192,1.32088123 L113.354041,0.20316092 C113.354041,0.20316092 129.001526,-0.690613027 129.672142,18.7538314 L129.448827,143.243199 C129.448827,143.243199 130.342759,162.240421 115.589204,162.91092 L45.8451282,163.134195 L37.7977348,174.979885 L0.243232464,173.638889 Z" id="Fill-3"></path>
            </g>
            <g id="Group-8" transform="translate(124.000000, 3.000000)">
                <mask id="mask-2" fill="white">
                    <use xlink:href="#path-1"></use>
                </mask>
                <g id="Clip-7"></g>
                <polygon id="Fill-6" fill="#86FBFF" mask="url(#mask-2)" points="-4.83627632 168.871607 106.825539 168.871607 106.825539 -4.33322951 -4.83627632 -4.33322951"></polygon>
            </g>
            <g id="Group-11" transform="translate(143.000000, 28.000000)">
                <mask id="mask-4" fill="white">
                    <use xlink:href="#path-3"></use>
                </mask>
                <g id="Clip-10"></g>
                <polygon id="Fill-9" fill="#00C1C8" mask="url(#mask-4)" points="-4.81866667 43.7021897 64.882 43.7021897 64.882 -4.81582759 -4.81866667 -4.81582759"></polygon>
            </g>
            <g id="Group-14" transform="translate(143.000000, 79.000000)">
                <mask id="mask-6" fill="white">
                    <use xlink:href="#path-5"></use>
                </mask>
                <g id="Clip-13"></g>
                <polygon id="Fill-12" fill="#2BB0B8" mask="url(#mask-6)" points="-4.81866667 10.3326667 64.882 10.3326667 64.882 -4.39266667 -4.81866667 -4.39266667"></polygon>
            </g>
            <g id="Group-17" transform="translate(143.000000, 89.000000)">
                <mask id="mask-8" fill="white">
                    <use xlink:href="#path-7"></use>
                </mask>
                <g id="Clip-16"></g>
                <polygon id="Fill-15" fill="#2BB0B8" mask="url(#mask-8)" points="-4.81866667 9.515 64.882 9.515 64.882 -4.29 -4.81866667 -4.29"></polygon>
            </g>
            <g id="Group-20" transform="translate(143.000000, 100.000000)">
                <mask id="mask-10" fill="white">
                    <use xlink:href="#path-9"></use>
                </mask>
                <g id="Clip-19"></g>
                <polygon id="Fill-18" fill="#2BB0B8" mask="url(#mask-10)" points="-4.81866667 10.282 64.882 10.282 64.882 -4.44333333 -4.81866667 -4.44333333"></polygon>
            </g>
            <g id="Group-23" transform="translate(94.000000, 0.000000)">
                <mask id="mask-12" fill="white">
                    <use xlink:href="#path-11"></use>
                </mask>
                <g id="Clip-22"></g>
                <polygon id="Fill-21" fill="#424142" mask="url(#mask-12)" points="-4.6297 181.32175 138.42803 181.32175 138.42803 -4.28554545 -4.6297 -4.28554545"></polygon>
            </g>
            <g id="Group-26" transform="translate(86.000000, 175.000000)">
                <mask id="mask-14" fill="white">
                    <use xlink:href="#path-13"></use>
                </mask>
                <g id="Clip-25"></g>
                <polygon id="Fill-24" fill="#FF7000" mask="url(#mask-14)" points="-4.84555882 378.782097 73.8489412 378.782097 73.8489412 -4.85125673 -4.84555882 -4.85125673"></polygon>
            </g>
            <g id="Group-29" transform="translate(379.000000, 79.000000)">
                <mask id="mask-16" fill="white">
                    <use xlink:href="#path-15"></use>
                </mask>
                <g id="Clip-28"></g>
                <polygon id="Fill-27" fill="#F4AB1E" mask="url(#mask-16)" points="-4.64795455 19.6036364 34.5088636 19.6036364 34.5088636 -4.4925 -4.64795455 -4.4925"></polygon>
            </g>
            <g id="Group-32" transform="translate(298.000000, 45.000000)">
                <mask id="mask-18" fill="white">
                    <use xlink:href="#path-17"></use>
                </mask>
                <g id="Clip-31"></g>
                <polygon id="Fill-30" fill="#424142" mask="url(#mask-18)" points="-4.44793548 116.400386 88.3226129 116.400386 88.3226129 -4.80925301 -4.44793548 -4.80925301"></polygon>
            </g>
            <g id="Group-35" transform="translate(272.000000, 79.000000)">
                <mask id="mask-20" fill="white">
                    <use xlink:href="#path-19"></use>
                </mask>
                <g id="Clip-34"></g>
                <polygon id="Fill-33" fill="#F4AB1E" mask="url(#mask-20)" points="-4.60737931 19.6036364 43.9106379 19.6036364 43.9106379 -4.4925 -4.60737931 -4.4925"></polygon>
            </g>
            <g id="Group-38" transform="translate(379.000000, 84.000000)">
                <mask id="mask-22" fill="white">
                    <use xlink:href="#path-21"></use>
                </mask>
                <g id="Clip-37"></g>
                <polygon id="Fill-36" fill="#424142" mask="url(#mask-22)" points="-4.64795455 6.744 34.5088636 6.744 34.5088636 -4.466 -4.64795455 -4.466"></polygon>
            </g>
            <g id="Group-41" transform="translate(379.000000, 89.000000)">
                <mask id="mask-24" fill="white">
                    <use xlink:href="#path-23"></use>
                </mask>
                <g id="Clip-40"></g>
                <polygon id="Fill-39" fill="#424142" mask="url(#mask-24)" points="-4.64795455 6.31733333 34.5088636 6.31733333 34.5088636 -4.89066667 -4.64795455 -4.89066667"></polygon>
            </g>
            <g id="Group-44" transform="translate(256.000000, 79.000000)">
                <mask id="mask-26" fill="white">
                    <use xlink:href="#path-25"></use>
                </mask>
                <g id="Clip-43"></g>
                <polygon id="Fill-42" fill="#424142" mask="url(#mask-26)" points="-4.49021739 19.6036364 19.5182609 19.6036364 19.5182609 -4.4925 -4.49021739 -4.4925"></polygon>
            </g>
            <g id="Group-47" transform="translate(410.000000, 79.000000)">
                <mask id="mask-28" fill="white">
                    <use xlink:href="#path-27"></use>
                </mask>
                <g id="Clip-46"></g>
                <polygon id="Fill-45" fill="#424142" mask="url(#mask-28)" points="-4.86981818 19.6036364 14.4072727 19.6036364 14.4072727 -4.4925 -4.86981818 -4.4925"></polygon>
            </g>
            <g id="Group-50" transform="translate(272.000000, 84.000000)">
                <mask id="mask-30" fill="white">
                    <use xlink:href="#path-29"></use>
                </mask>
                <g id="Clip-49"></g>
                <polygon id="Fill-48" fill="#424142" mask="url(#mask-30)" points="-4.60737931 6.744 43.9106379 6.744 43.9106379 -4.466 -4.60737931 -4.466"></polygon>
            </g>
            <g id="Group-53" transform="translate(272.000000, 89.000000)">
                <mask id="mask-32" fill="white">
                    <use xlink:href="#path-31"></use>
                </mask>
                <g id="Clip-52"></g>
                <polygon id="Fill-51" fill="#424142" mask="url(#mask-32)" points="-4.60737931 6.31733333 43.9106379 6.31733333 43.9106379 -4.89066667 -4.60737931 -4.89066667"></polygon>
            </g>
            <g id="Group-56" transform="translate(0.000000, 151.000000)">
                <mask id="mask-34" fill="white">
                    <use xlink:href="#path-33"></use>
                </mask>
                <g id="Clip-55"></g>
                <polygon id="Fill-54" fill="#FF7000" mask="url(#mask-34)" points="-9.84389789 253.872324 386.291447 253.872324 386.291447 -4.77407027 -9.84389789 -4.77407027"></polygon>
            </g>
            <g id="Group-59" transform="translate(0.000000, 411.000000)">
                <mask id="mask-36" fill="white">
                    <use xlink:href="#path-35"></use>
                </mask>
                <g id="Clip-58"></g>
                <polygon id="Fill-57" fill="#424142" mask="url(#mask-36)" points="-11 8.886 4.4615 8.886 4.4615 -4.858 -11 -4.858"></polygon>
            </g>
            <g id="Group-62" transform="translate(391.000000, 174.000000)">
                <mask id="mask-38" fill="white">
                    <use xlink:href="#path-37"></use>
                </mask>
                <g id="Clip-61"></g>
                <polygon id="Fill-60" fill="#424142" mask="url(#mask-38)" points="-4.084 23.4337857 7.69657143 23.4337857 7.69657143 -4.54439286 -4.084 -4.54439286"></polygon>
            </g>
            <g id="Group-65" transform="translate(184.000000, 411.000000)">
                <mask id="mask-40" fill="white">
                    <use xlink:href="#path-39"></use>
                </mask>
                <g id="Clip-64"></g>
                <polygon id="Fill-63" fill="#424142" mask="url(#mask-40)" points="-4.606 8.886 22.8813333 8.886 22.8813333 -4.858 -4.606 -4.858"></polygon>
            </g>
            <g id="Group-68" transform="translate(128.000000, 411.000000)">
                <mask id="mask-42" fill="white">
                    <use xlink:href="#path-41"></use>
                </mask>
                <g id="Clip-67"></g>
                <polygon id="Fill-66" fill="#424142" mask="url(#mask-42)" points="-4.87733333 8.886 22.61 8.886 22.61 -4.858 -4.87733333 -4.858"></polygon>
            </g>
            <g id="Group-71" transform="translate(213.000000, 409.000000)">
                <mask id="mask-44" fill="white">
                    <use xlink:href="#path-43"></use>
                </mask>
                <g id="Clip-70"></g>
                <polygon id="Fill-69" fill="#424142" mask="url(#mask-44)" points="-4.80333333 9.285625 22.684 9.285625 22.684 -4.519375 -4.80333333 -4.519375"></polygon>
            </g>
            <g id="Group-74" transform="translate(98.000000, 411.000000)">
                <mask id="mask-46" fill="white">
                    <use xlink:href="#path-45"></use>
                </mask>
                <g id="Clip-73"></g>
                <polygon id="Fill-72" fill="#424142" mask="url(#mask-46)" points="-4.40596429 8.886 23.5722143 8.886 23.5722143 -4.858 -4.40596429 -4.858"></polygon>
            </g>
            <g id="Group-77" transform="translate(41.000000, 411.000000)">
                <mask id="mask-48" fill="white">
                    <use xlink:href="#path-47"></use>
                </mask>
                <g id="Clip-76"></g>
                <polygon id="Fill-75" fill="#424142" mask="url(#mask-48)" points="-4.6 8.886 22.8873333 8.886 22.8873333 -4.858 -4.6 -4.858"></polygon>
            </g>
            <g id="Group-80" transform="translate(12.000000, 411.000000)">
                <mask id="mask-50" fill="white">
                    <use xlink:href="#path-49"></use>
                </mask>
                <g id="Clip-79"></g>
                <polygon id="Fill-78" fill="#424142" mask="url(#mask-50)" points="-4.48128571 8.886 23.4968929 8.886 23.4968929 -4.858 -4.48128571 -4.858"></polygon>
            </g>
            <g id="Group-83" transform="translate(69.000000, 411.000000)">
                <mask id="mask-52" fill="white">
                    <use xlink:href="#path-51"></use>
                </mask>
                <g id="Clip-82"></g>
                <polygon id="Fill-81" fill="#424142" mask="url(#mask-52)" points="-4.79733333 8.886 22.69 8.886 22.69 -4.858 -4.79733333 -4.858"></polygon>
            </g>
            <g id="Group-86" transform="translate(241.000000, 401.000000)">
                <mask id="mask-54" fill="white">
                    <use xlink:href="#path-53"></use>
                </mask>
                <g id="Clip-85"></g>
                <polygon id="Fill-84" fill="#424142" mask="url(#mask-54)" points="-4.41139286 13.8226154 23.5667857 13.8226154 23.5667857 -4.52769231 -4.41139286 -4.52769231"></polygon>
            </g>
            <g id="Group-89" transform="translate(155.000000, 411.000000)">
                <mask id="mask-56" fill="white">
                    <use xlink:href="#path-55"></use>
                </mask>
                <g id="Clip-88"></g>
                <polygon id="Fill-87" fill="#424142" mask="url(#mask-56)" points="-4.48671429 8.886 23.4914643 8.886 23.4914643 -4.858 -4.48671429 -4.858"></polygon>
            </g>
            <g id="Group-92" transform="translate(372.000000, 287.000000)">
                <mask id="mask-58" fill="white">
                    <use xlink:href="#path-57"></use>
                </mask>
                <g id="Clip-91"></g>
                <polygon id="Fill-90" fill="#424142" mask="url(#mask-58)" points="-4.75 21.1872308 14.884 21.1872308 14.884 -4.80903846 -4.75 -4.80903846"></polygon>
            </g>
            <g id="Group-95" transform="translate(389.000000, 232.000000)">
                <mask id="mask-60" fill="white">
                    <use xlink:href="#path-59"></use>
                </mask>
                <g id="Clip-94"></g>
                <polygon id="Fill-93" fill="#424142" mask="url(#mask-60)" points="-4.4325 23.3523571 9.3725 23.3523571 9.3725 -4.62582143 -4.4325 -4.62582143"></polygon>
            </g>
            <g id="Group-98" transform="translate(383.000000, 261.000000)">
                <mask id="mask-62" fill="white">
                    <use xlink:href="#path-61"></use>
                </mask>
                <g id="Clip-97"></g>
                <polygon id="Fill-96" fill="#424142" mask="url(#mask-62)" points="-5.03781818 22.7453333 13.168 22.7453333 13.168 -4.742 -5.03781818 -4.742"></polygon>
            </g>
            <g id="Group-101" transform="translate(391.000000, 203.000000)">
                <mask id="mask-64" fill="white">
                    <use xlink:href="#path-63"></use>
                </mask>
                <g id="Clip-100"></g>
                <polygon id="Fill-99" fill="#424142" mask="url(#mask-64)" points="-4.084 23.5532143 7.69657143 23.5532143 7.69657143 -4.42496429 -4.084 -4.42496429"></polygon>
            </g>
            <g id="Group-104" transform="translate(358.000000, 313.000000)">
                <mask id="mask-66" fill="white">
                    <use xlink:href="#path-65"></use>
                </mask>
                <g id="Clip-103"></g>
                <polygon id="Fill-102" fill="#424142" mask="url(#mask-66)" points="-5.09152941 21.54988 16.7371765 21.54988 16.7371765 -4.48528 -5.09152941 -4.48528"></polygon>
            </g>
            <g id="Group-107" transform="translate(318.000000, 358.000000)">
                <mask id="mask-68" fill="white">
                    <use xlink:href="#path-67"></use>
                </mask>
                <g id="Clip-106"></g>
                <polygon id="Fill-105" fill="#424142" mask="url(#mask-68)" points="-4.3323913 18.5759 19.6767391 18.5759 19.6767391 -5.1324 -4.3323913 -5.1324"></polygon>
            </g>
            <g id="Group-110" transform="translate(295.000000, 376.000000)">
                <mask id="mask-70" fill="white">
                    <use xlink:href="#path-69"></use>
                </mask>
                <g id="Clip-109"></g>
                <polygon id="Fill-108" fill="#424142" mask="url(#mask-70)" points="-4.65533333 17.0103529 20.8686667 17.0103529 20.8686667 -4.81835294 -4.65533333 -4.81835294"></polygon>
            </g>
            <g id="Group-113" transform="translate(340.000000, 338.000000)">
                <mask id="mask-72" fill="white">
                    <use xlink:href="#path-71"></use>
                </mask>
                <g id="Clip-112"></g>
                <polygon id="Fill-111" fill="#424142" mask="url(#mask-72)" points="-4.7033 19.2776087 19.0043 19.2776087 19.0043 -4.73086957 -4.7033 -4.73086957"></polygon>
            </g>
            <g id="Group-116" transform="translate(270.000000, 390.000000)">
                <mask id="mask-74" fill="white">
                    <use xlink:href="#path-73"></use>
                </mask>
                <g id="Clip-115"></g>
                <polygon id="Fill-114" fill="#424142" mask="url(#mask-74)" points="-4.75346154 15.6151875 21.2428077 15.6151875 21.2428077 -4.6316875 -4.75346154 -4.6316875"></polygon>
            </g>
            <g id="Group-119" transform="translate(391.000000, 151.000000)">
                <mask id="mask-76" fill="white">
                    <use xlink:href="#path-75"></use>
                </mask>
                <g id="Clip-118"></g>
                <polygon id="Fill-117" fill="#424142" mask="url(#mask-76)" points="-4.084 16.8211765 7.69657143 16.8211765 7.69657143 -5.00752941 -4.084 -5.00752941"></polygon>
            </g>
        </g>
    </g>
</svg>