<?xml version="1.0" encoding="UTF-8"?>
<svg width="524px" height="408px" viewBox="0 0 524 408" version="1.1" xmlns="http://www.w3.org/2000/svg" xmlns:xlink="http://www.w3.org/1999/xlink">
    <!-- Generator: Sketch 48.2 (47327) - http://www.bohemiancoding.com/sketch -->
    <title>Page 1 Copy 10</title>
    <desc>Created with Sketch.</desc>
    <defs>
        <polygon id="path-1" points="0 514 524 514 524 0 0 0"></polygon>
    </defs>
    <g id="Desktop-HD" stroke="none" stroke-width="1" fill="none" fill-rule="evenodd" transform="translate(-478.000000, -3479.000000)">
        <g id="Page-1-Copy-10" transform="translate(740.000000, 3735.000000) scale(-1, 1) rotate(-180.000000) translate(-740.000000, -3735.000000) translate(478.000000, 3478.000000)">
            <path d="M495.055304,262.081948 C496.130073,262.081948 497,262.959591 497,264.040974 C497,265.123662 496.130073,266 495.055304,266 L373.019155,266 C363.315122,266 355.419657,258.046354 355.419657,248.270813 C355.419657,238.493967 363.315122,230.541627 373.019155,230.541627 C373.099536,230.541627 373.173434,230.554687 373.251222,230.563829 C373.327713,230.554687 373.404205,230.541627 373.483289,230.541627 L451.251678,230.541627 C458.811359,230.541627 464.961784,224.344574 464.961784,216.729187 C464.961784,209.113799 458.811359,202.918052 451.251678,202.918052 L276.944696,202.918052 C275.871224,202.918052 275,202.040409 275,200.959026 C275,199.876338 275.871224,199 276.944696,199 L451.251678,199 C460.95571,199 468.851175,206.953646 468.851175,216.729187 C468.851175,226.506033 460.95571,234.459679 451.251678,234.459679 L373.483289,234.459679 C373.404205,234.459679 373.327713,234.445313 373.251222,234.436171 C373.173434,234.445313 373.099536,234.459679 373.019155,234.459679 C365.459474,234.459679 359.309049,240.655426 359.309049,248.270813 C359.309049,255.886201 365.459474,262.081948 373.019155,262.081948 L495.055304,262.081948 Z" id="Fill-1" fill="#414042"></path>
            <path d="M202.054586,199.081948 L50.1501783,199.081948 C42.5864088,199.081948 36.4337129,192.886201 36.4337129,185.270813 C36.4337129,177.655426 42.5864088,171.459679 50.1501783,171.459679 C50.2422613,171.459679 50.3317503,171.444007 50.4212393,171.430947 C50.5094314,171.444007 50.5989205,171.459679 50.6923004,171.459679 L124.025329,171.459679 C133.734241,171.459679 141.632622,163.506033 141.632622,153.729187 C141.632622,143.953646 133.734241,136 124.025329,136 L1.94541397,136 C0.870248517,136 0,136.877644 0,137.959026 C0,139.040409 0.870248517,139.918052 1.94541397,139.918052 L124.025329,139.918052 C131.589098,139.918052 137.741794,146.113799 137.741794,153.729187 C137.741794,161.344574 131.589098,167.541627 124.025329,167.541627 L50.6923004,167.541627 C50.5989205,167.541627 50.5094314,167.555993 50.4212393,167.569053 C50.3317503,167.555993 50.2422613,167.541627 50.1501783,167.541627 C40.4412657,167.541627 32.5428849,175.493967 32.5428849,185.270813 C32.5428849,195.046354 40.4412657,203 50.1501783,203 L202.054586,203 C203.128455,203 204,202.122356 204,201.040974 C204,199.958285 203.128455,199.081948 202.054586,199.081948" id="Fill-3" fill="#414042"></path>
            <path d="M506.5,230.132597 C498.983057,230.132597 492.867403,224.016943 492.867403,216.5 C492.867403,208.983057 498.983057,202.867403 506.5,202.867403 C514.016943,202.867403 520.132597,208.983057 520.132597,216.5 C520.132597,224.016943 514.016943,230.132597 506.5,230.132597 M506.5,199 C496.850829,199 489,206.84954 489,216.5 C489,226.149171 496.850829,234 506.5,234 C516.149171,234 524,226.149171 524,216.5 C524,206.84954 516.149171,199 506.5,199" id="Fill-5" fill="#414042"></path>
            <path d="M218.461257,463.312078 C218.461257,467.10706 215.337549,470.193783 211.498697,470.193783 C207.659845,470.193783 204.53744,467.10706 204.53744,463.312078 L204.53744,460.001288 C199.478023,462.523979 196,467.692984 196,473.675844 C196,482.138899 202.939113,489 211.5,489 C220.060887,489 227,482.138899 227,473.675844 C227,467.691696 223.521977,462.522691 218.461257,460 L218.461257,463.312078 Z" id="Fill-7" fill="#FFB100"></path>
            <path d="M271.116417,371.790525 L271.116417,379.874081 L271.116417,382.806338 L271.116417,426.539012 C271.116417,430.40574 267.989795,433.552743 264.146521,433.552743 C260.304541,433.552743 257.17792,430.40574 257.17792,426.539012 L257.17792,421.471009 C257.17792,420.393375 256.309917,419.518774 255.237526,419.518774 C254.165135,419.518774 253.297132,420.393375 253.297132,421.471009 L253.297132,435.067677 C253.297132,438.934405 250.17051,442.080107 246.327237,442.080107 C242.483963,442.080107 239.357341,438.934405 239.357341,435.067677 L239.357341,424.844472 L239.357341,421.471009 C239.357341,420.393375 238.489339,419.518774 237.416947,419.518774 C236.344556,419.518774 235.476554,420.393375 235.476554,421.471009 L235.476554,424.844472 L235.476554,435.067677 L235.476554,439.40164 C235.476554,443.268367 232.349932,446.415371 228.507952,446.415371 C224.664678,446.415371 221.536763,443.268367 221.536763,439.40164 L221.536763,426.343789 L221.536763,421.391618 C221.536763,420.313985 220.66876,419.439383 219.596369,419.439383 C218.525272,419.439383 217.655975,420.313985 217.655975,421.391618 L217.655975,426.343789 L217.655975,439.40164 L217.655975,464.0831 C217.655975,467.949828 214.530647,471.095529 210.687374,471.095529 C206.8441,471.095529 203.716185,467.949828 203.716185,464.0831 L203.716185,410.931542 L203.716185,395.442507 L203.716185,385.918201 C203.716185,384.839266 202.849475,383.965966 201.775791,383.965966 C200.704693,383.965966 199.835397,384.839266 199.835397,385.918201 L199.835397,395.442507 L199.835397,410.931542 C199.835397,413.964014 197.382739,416.432941 194.36866,416.432941 L188.899336,416.432941 L188.899336,387.731177 C188.899336,387.696037 188.891575,387.662198 188.890281,387.628359 C188.888987,387.598425 188.892868,387.567189 188.891575,387.537255 C188.883813,387.461769 188.332741,380.015943 197.677679,370.448689 C207.72892,360.159107 220.725678,349.006638 220.855038,348.896011 C221.287099,348.523785 221.536763,347.981063 221.536763,347.409709 L221.536763,338.904471 L260.2321,338.904471 L260.2321,352.646906 C260.2321,353.249496 260.50893,353.816945 260.981092,354.18787 C271.285878,362.250602 271.130646,371.335004 271.116417,371.790525 Z M274.995911,371.871218 C275.015315,371.4196 275.310255,360.925685 264.112888,351.705928 L264.112888,336.952235 C264.112888,335.8733 263.244885,335 262.172494,335 L219.596369,335 C218.525272,335 217.655975,335.8733 217.655975,336.952235 L217.655975,346.511681 C214.825587,348.966291 203.753699,358.658489 194.909383,367.712956 C184.733957,378.130084 184.933171,386.60669 185.018548,387.802759 L185.018548,418.385176 C185.018548,419.46281 185.886551,420.337411 186.958942,420.337411 L194.36866,420.337411 C196.411248,420.337411 198.297311,419.667144 199.835397,418.543958 L199.835397,464.0831 C199.835397,470.102492 204.704492,475 210.687374,475 C216.670255,475 221.536763,470.102492 221.536763,464.0831 L221.536763,447.757207 C223.42412,449.354135 225.854787,450.319841 228.507952,450.319841 C230.30605,450.319841 232.001955,449.87343 233.494764,449.091234 L226.513227,456.115377 C225.75518,456.876749 225.75518,458.113165 226.513227,458.875838 C226.890957,459.257174 227.387698,459.448494 227.884439,459.448494 C228.381179,459.448494 228.87792,459.257174 229.256944,458.875838 L238.782985,449.290362 C239.541032,448.528991 239.541032,447.292575 238.782985,446.529902 C238.325052,446.069174 237.701539,445.922106 237.106484,446.018416 C237.819256,445.081343 238.394906,444.033644 238.779104,442.893538 C240.733728,444.802824 243.393361,445.984577 246.327237,445.984577 C252.310118,445.984577 257.17792,441.08707 257.17792,435.067677 L257.17792,434.894579 C259.065276,436.491508 261.49465,437.457214 264.146521,437.457214 C270.129403,437.457214 274.997205,432.558404 274.997205,426.539012 L274.997205,379.874081 L274.997205,379.868875 L274.995911,371.871218 Z" id="Fill-9" fill="#414042"></path>
            <path d="M189,474 C189,472.894667 188.148479,472 187.099284,472 L173.900716,472 C172.851521,472 172,472.894667 172,474 C172,475.104 172.851521,476 173.900716,476 L187.099284,476 C188.148479,476 189,475.104 189,474" id="Fill-11" fill="#414042"></path>
            <path d="M248.099284,472 L234.900716,472 C233.851521,472 233,472.894667 233,474 C233,475.104 233.851521,476 234.900716,476 L248.099284,476 C249.148479,476 250,475.104 250,474 C250,472.894667 249.148479,472 248.099284,472" id="Fill-13" fill="#414042"></path>
            <path d="M211,496 C209.894667,496 209,496.850317 209,497.900857 L209,511.099143 C209,512.149683 209.894667,513 211,513 C212.104,513 213,512.149683 213,511.099143 L213,497.900857 C213,496.850317 212.104,496 211,496" id="Fill-15" fill="#414042"></path>
            <path d="M229.211743,489.551204 C228.476698,488.816265 227.286328,488.816265 226.551283,489.551204 C225.816239,490.286142 225.816239,491.47634 226.551283,492.211278 L235.788257,501.448169 C236.15578,501.815638 236.638701,502 237.119114,502 C237.600782,502 238.081195,501.815638 238.448717,501.448169 C239.183761,500.714486 239.183761,499.523033 238.448717,498.788095 L229.211743,489.551204 Z" id="Fill-17" fill="#414042"></path>
            <path d="M186.212451,446.551204 C185.476205,445.816265 184.285921,445.816265 183.552184,446.551204 C182.815939,447.286142 182.815939,448.477594 183.552184,449.211278 L192.78849,458.448169 C193.155985,458.815638 193.638872,459 194.120505,459 C194.600883,459 195.081261,458.815638 195.448757,458.448169 C196.183748,457.713231 196.183748,456.521779 195.448757,455.788095 L186.212451,446.551204 Z" id="Fill-19" fill="#414042"></path>
            <path d="M192.78849,489.551204 L183.552184,498.788095 C182.815939,499.523033 182.815939,500.714486 183.552184,501.448169 C183.918425,501.815638 184.401312,502 184.880436,502 C185.363323,502 185.843701,501.815638 186.212451,501.448169 L195.448757,492.211278 C196.183748,491.477594 196.183748,490.286142 195.448757,489.551204 C194.71502,488.816265 193.523481,488.816265 192.78849,489.551204" id="Fill-21" fill="#414042"></path>
            <mask id="mask-2" fill="white">
                <use xlink:href="#path-1"></use>
            </mask>
            <g id="Clip-24"></g>
            <polygon id="Fill-23" fill="#FF7116" mask="url(#mask-2)" points="202 339 277 339 277 105 202 105"></polygon>
        </g>
    </g>
</svg>