<?xml version="1.0" encoding="UTF-8"?>
<svg width="354px" height="525px" viewBox="0 0 354 525" version="1.1" xmlns="http://www.w3.org/2000/svg" xmlns:xlink="http://www.w3.org/1999/xlink">
    <!-- Generator: Sketch 48.2 (47327) - http://www.bohemiancoding.com/sketch -->
    <title>Page 1</title>
    <desc>Created with Sketch.</desc>
    <defs>
        <path d="M0,2.403 L0,2.491 C0.964,1.023 2.635,0.042 4.543,0.042 C7.528,0.042 9.956,2.429 9.956,5.367 L9.956,10 L10,10 L10,5.368 C10,2.408 7.553,0 4.544,0 C2.648,0 0.979,0.957 0,2.403 Z" id="path-1"></path>
        <path d="M0,0.01 L0.004,3.329 C1.319,2.478 2.876,1.98 4.548,1.98 C6.623,1.98 8.524,2.741 10,4 L10,0 L0,0.01 Z" id="path-3"></path>
        <path d="M1.271,0.001 C1.111,0.512 0.999,1.046 0.999,1.608 L0.999,15 L1.043,15 L1.043,1.606 C1.043,1.045 1.154,0.512 1.316,0.001 L1.271,0.001 Z" id="path-5"></path>
        <path d="M0,0.013 C0.105,0.539 0.161,1.079 0.161,1.634 L0.161,15 L14,14.987 L13.982,0.001 L0,0.013 Z" id="path-7"></path>
        <path d="M0,0.001 L0,13 L0.04,13 L0.04,0.043 L4,0.043 C6.183,0.043 7.958,1.909 7.958,4.202 L7.958,12.992 L8,12.992 L8,4.202 C8,1.885 6.205,0.001 4,0.001 L0,0.001 Z" id="path-9"></path>
        <path d="M0,0.001 C0.138,0.087 0.274,0.177 0.405,0.274 L0.405,0.001 L0,0.001 Z" id="path-11"></path>
        <path d="M0,0.096 L0.013,15 L90.943,14.906 L90.943,0.386 C90.943,0.25 90.967,0.124 91,0.001 L0,0.096 Z" id="path-13"></path>
        <path d="M0,0.341 L0.159,0.341 C0.745,0.163 1.358,0.043 2.008,0.043 C2.654,0.043 3.262,0.16 3.843,0.337 L4,0.337 C3.374,0.131 2.71,0 2.008,0 C1.3,0 0.63,0.133 0,0.341 Z" id="path-15"></path>
        <path d="M0,0.015 L0.012,10.789 C1.242,10.115 2.657,9.727 4.166,9.727 C6.923,9.727 9.37,11.015 10.922,13 L14.001,12.997 L13.986,0.001 L0,0.015 Z" id="path-17"></path>
        <path d="M0.999,0.029 L1.014,13 L10.837,12.991 C10.991,8.588 14.641,5.05 19.116,5.05 C21.142,5.05 23.001,5.779 24.442,6.981 L24.442,6.745 C24.442,3.954 25.854,1.489 27.999,0.001 L0.999,0.029 Z" id="path-19"></path>
        <path d="M0.999,5.511 L0.999,12 L1.044,12 L1.044,5.511 C1.044,2.495 3.492,0.043 6.501,0.043 C9.508,0.043 11.956,2.495 11.956,5.511 L11.956,11.991 L11.999,11.991 L11.999,5.511 C11.999,2.472 9.534,0 6.501,0 C3.468,0 0.999,2.472 0.999,5.511 Z" id="path-21"></path>
        <path d="M0,5 L0.044,5 C0.206,2.244 2.579,0.043 5.5,0.043 C8.417,0.043 10.786,2.238 10.956,4.989 L11,4.989 C10.831,2.214 8.443,0 5.501,0 C2.556,0 0.162,2.22 0,5 Z" id="path-23"></path>
        <path d="M0,0.003 C0.793,0.536 1.473,1.216 2,2 L1.998,0.001 L0,0.003 Z" id="path-25"></path>
        <path d="M0.095,0.002 C0.042,0.3 0,0.603 0,0.916 L0,10.778 L0,13 L0.044,13 L0.044,10.777 L0.044,0.915 C0.044,0.603 0.083,0.3 0.137,0.001 L0.095,0.002 Z" id="path-27"></path>
        <path d="M0.001,1 L0.064,1 C0.985,0.404 2.181,0.032 3.505,0.032 C4.824,0.032 6.015,0.402 6.935,0.996 L7,0.996 C6.068,0.385 4.851,0.001 3.505,0.001 C2.153,0.001 0.933,0.386 0.001,1 Z" id="path-29"></path>
        <path d="M0,0.012 L0.01,10.556 C1.432,9.387 3.249,8.683 5.226,8.683 C8.345,8.683 11.065,10.431 12.461,13 L12.999,12.999 L12.987,0 L0,0.012 Z" id="path-31"></path>
        <path d="M0,0.023 L0.011,12.56 C0.976,12.183 2.024,11.97 3.127,11.97 C4.605,11.97 5.994,12.345 7.205,13 L22,12.986 L21.988,0 L0,0.023 Z" id="path-33"></path>
        <path d="M0,0.017 L0.012,13.001 L3.849,12.995 C4.382,8.964 7.833,5.842 12.006,5.842 C12.342,5.842 12.673,5.87 13,5.909 L12.994,0.001 L0,0.017 Z" id="path-35"></path>
        <path d="M0.999,4.001 L1.043,4.001 C1.53,1.743 3.58,0.041 6.032,0.041 C6.363,0.041 6.688,0.077 7,0.137 L7,0.097 C6.686,0.038 6.364,0 6.032,0 C3.558,0 1.491,1.72 0.999,4.001 Z" id="path-37"></path>
        <path d="M0,0.044 C0.985,0.704 1.711,1.757 1.962,3.001 L1.999,2.999 C1.746,1.734 1.006,0.667 0,0 L0,0.044 Z" id="path-39"></path>
        <path d="M0,0.014 L0.005,6.359 C2.84,7.386 4.951,9.924 5.362,13.001 L13,12.991 L12.988,0.001 L0,0.014 Z" id="path-41"></path>
        <path d="M1.938,0.001 C0.769,0.968 0,2.484 0,4.202 L0,11.923 L0,13 L0.04,13 L0.04,11.923 L0.04,4.202 C0.04,2.48 0.817,0.958 2,0.001 L1.938,0.001 Z" id="path-43"></path>
        <path d="M0.999,0.001 C2.184,0.959 2.961,2.483 2.961,4.212 L2.961,13 L3,13 L3,10.656 L3,4.212 C3,2.488 2.231,0.968 1.059,0.001 L0.999,0.001 Z" id="path-45"></path>
        <path d="M0,5.549 L0,8 L0.042,8 L0.042,5.549 C0.042,2.514 2.352,0.046 5.192,0.046 C7.397,0.046 9.267,1.541 10,3.627 L10,3.481 C9.231,1.443 7.37,0 5.192,0 C2.329,0 0,2.489 0,5.549 Z" id="path-47"></path>
        <path d="M0,0.012 C0.78,1.146 1.236,2.466 1.236,3.88 L1.236,4 C2.749,2.895 4.698,2.224 6.826,2.224 C8.764,2.224 10.552,2.786 12,3.723 L11.995,0.001 L0,0.012 Z" id="path-49"></path>
        <path d="M0,0.001 C0.055,0.302 0.094,0.608 0.094,0.923 L0.094,4.2 L0.094,11.921 L0.094,13 L0.136,13 L0.136,11.921 L0.136,4.2 L0.136,0.924 C0.136,0.608 0.096,0.302 0.042,0.001 L0,0.001 Z" id="path-51"></path>
        <path d="M320.625,0.021 L304.31,0.034 C303.474,-0.005 302.752,0.036 302.283,0.036 L284.708,0.051 C283.87,0.013 283.147,0.053 282.682,0.054 L220.088,0.11 L209.943,0.119 L201.744,0.126 L191.598,0.135 L182.139,0.143 L171.996,0.152 L156.994,0.166 L146.851,0.174 L138.65,0.181 L128.504,0.192 L119.046,0.199 L108.899,0.208 L46.31,0.265 C46.148,0.266 45.956,0.261 45.741,0.256 C45.33,0.248 44.832,0.239 44.284,0.267 L27.967,0.28 C27.498,0.28 26.774,0.241 25.94,0.281 L8.364,0.296 C8.205,0.297 8.017,0.293 7.807,0.289 C6.121,0.251 2.933,0.215 0.976,2.642 C-1.224,5.371 0.982,8.744 0.982,8.744 L25.393,57.549 C27.988,61.571 33.17,60.968 33.17,60.968 L35.235,60.966 L51.285,60.952 C52.172,61.016 52.773,60.952 52.773,60.952 L54.838,60.95 L69.632,60.935 C70.519,61 71.12,60.933 71.12,60.933 L73.183,60.932 L108.955,60.9 L128.557,60.884 L146.903,60.869 L182.195,60.837 L201.796,60.818 L220.143,60.804 L255.916,60.77 L257.978,60.769 C257.978,60.769 258.579,60.833 259.467,60.768 L275.52,60.752 L277.581,60.751 C277.581,60.751 278.183,60.816 279.07,60.748 L293.864,60.737 L295.928,60.736 C295.928,60.736 301.11,61.331 303.698,57.304 L328.025,8.456 C328.025,8.456 330.224,5.077 328.017,2.351 C326.308,0.239 323.669,0.001 321.901,0 C321.388,0 320.948,0.021 320.625,0.021 Z" id="path-53"></path>
        <path d="M5.515,0 C2.474,0 0,2.463 0,5.491 L0,49.51 C0,52.536 2.474,54.999 5.515,54.999 L79.484,54.999 C82.525,54.999 84.999,52.536 84.999,49.51 L84.999,5.491 C84.999,2.463 82.525,0 79.484,0 L5.515,0 Z M2.989,49.51 L2.989,5.491 C2.989,4.104 4.121,2.976 5.515,2.976 L79.484,2.976 C80.876,2.976 82.012,4.104 82.012,5.491 L82.012,49.51 C82.012,50.897 80.876,52.026 79.484,52.026 L5.515,52.026 C4.121,52.026 2.989,50.897 2.989,49.51 Z" id="path-55"></path>
        <path d="M336.03,0.002 L17.943,0.282 C12.032,0.287 6.923,0.292 3.522,5.079 C1.333,8.158 0.493,12.251 0.172,14.603 C0.048,15.151 0.012,15.687 0.011,16.208 C0.009,16.241 0,16.273 0,16.308 C0,16.355 0.009,16.4 0.012,16.447 C0.072,18.784 1.123,20.716 1.426,21.214 L30.731,79.567 C30.763,79.631 30.799,79.695 30.838,79.755 C33.758,84.264 38.771,84.8 40.992,84.8 C41.448,84.8 41.789,84.777 41.97,84.762 L75.131,84.733 L75.135,87.394 L50.421,87.394 C41.607,87.394 34.434,94.551 34.434,103.346 L34.434,270.621 C34.434,279.417 41.607,286.573 50.421,286.573 L71.855,286.573 L71.855,293.001 L107.786,293.001 L107.786,287.505 C108.056,287.274 108.42,286.958 108.863,286.573 L240.609,286.573 L240.609,282.58 L113.387,282.58 C116.925,279.406 121.436,275.244 125.378,271.242 C133.269,263.228 133.095,256.72 133.031,255.824 L133.031,232.369 C133.031,231.542 132.358,230.872 131.529,230.872 L125.799,230.872 C124.218,230.872 122.761,231.385 121.568,232.247 L121.568,217.805 L228.147,217.697 L228.147,219.425 C228.082,220.319 227.907,226.831 235.796,234.844 C242.637,241.788 251.201,249.223 253.39,251.105 L253.39,256.602 L256.39,256.602 L256.39,250.417 C256.39,249.979 256.2,249.561 255.862,249.277 C255.763,249.192 245.711,240.635 237.939,232.743 C230.752,225.446 231.132,219.759 231.141,219.635 C231.143,219.609 231.139,219.585 231.141,219.56 C231.142,219.534 231.15,219.51 231.15,219.485 L231.15,217.692 L231.192,217.692 L231.192,214.699 L231.15,214.699 L231.15,210.525 L231.15,197.468 L235.377,197.468 C237.71,197.468 239.607,199.361 239.607,201.687 L239.607,210.517 L239.607,213.57 L239.607,214.69 L239.563,214.69 L239.563,217.684 L239.607,217.684 L239.607,220.875 C239.607,221.703 240.279,222.373 241.107,222.373 C241.937,222.373 242.609,221.703 242.609,220.875 L242.609,217.681 L242.65,217.681 L242.65,214.686 L242.609,214.686 L242.609,213.57 L242.609,210.514 L242.609,201.687 L242.609,195.572 L242.609,192.137 L242.609,178.934 L242.609,175.881 L242.609,162.684 L242.609,160.914 C242.609,160.535 242.649,160.166 242.725,159.809 C243.239,157.371 245.407,155.534 248,155.534 C248.347,155.534 248.684,155.573 249.013,155.638 C249.679,155.763 250.297,156.018 250.85,156.366 C252.066,157.129 252.963,158.352 253.27,159.799 C253.346,160.159 253.39,160.53 253.39,160.914 L253.39,162.672 L253.39,175.87 L253.39,178.923 L253.39,179.849 L253.39,189.866 L253.39,192.125 L253.39,193.663 C253.39,194.49 254.062,195.162 254.891,195.162 C255.72,195.162 256.39,194.49 256.39,193.663 L256.39,192.123 L256.39,189.866 L256.39,179.849 C256.39,179.53 256.432,179.223 256.486,178.92 C256.698,177.712 257.314,176.654 258.19,175.867 C259.145,175.008 260.397,174.468 261.783,174.468 C263.164,174.468 264.412,175.005 265.368,175.861 C266.244,176.646 266.863,177.704 267.078,178.909 C267.132,179.215 267.173,179.526 267.173,179.849 L267.173,183.173 L267.173,191.015 L267.173,192.11 L267.173,193.603 C267.173,194.429 267.845,195.101 268.673,195.101 C269.501,195.101 270.175,194.429 270.175,193.603 L270.175,192.109 L270.175,191.015 L270.175,183.173 C270.175,181.426 271.026,179.887 272.323,178.904 C273.229,178.217 274.343,177.793 275.566,177.793 C276.783,177.793 277.896,178.214 278.799,178.897 C280.101,179.88 280.954,181.422 280.954,183.173 L280.954,189.714 L280.954,192.095 L280.954,193.603 C280.954,194.429 281.627,195.101 282.456,195.101 C283.284,195.101 283.957,194.429 283.957,193.603 L283.957,192.093 L283.957,189.714 C283.957,186.748 286.376,184.335 289.348,184.335 C291.609,184.335 293.541,185.736 294.341,187.71 C294.592,188.331 294.738,189.006 294.738,189.714 L294.738,214.631 L294.696,214.631 L294.696,217.626 L294.738,217.626 L294.738,223.263 L294.738,225.512 C294.738,225.513 294.739,225.514 294.739,225.514 L294.74,231.769 C294.747,232.061 294.869,239.031 286.901,245.218 C286.534,245.501 286.32,245.937 286.32,246.399 L286.32,256.602 L289.321,256.602 L289.321,247.121 C297.982,240.048 297.752,232 297.739,231.713 L297.739,225.512 L297.739,223.263 L297.739,217.624 L297.947,217.624 C300.473,217.624 302.53,215.571 302.53,213.043 L302.427,115.719 C302.418,113.228 300.41,111.198 297.929,111.153 C297.899,111.151 297.865,111.146 297.834,111.15 L63.632,111.392 C61.107,111.399 59.052,113.454 59.054,115.975 L59.155,213.298 C59.156,214.517 59.633,215.666 60.501,216.529 C61.293,217.319 62.329,217.764 63.435,217.837 L63.435,258.697 C63.435,258.867 63.47,259.026 63.522,259.179 C63.47,259.331 63.435,259.493 63.435,259.662 L63.435,268.05 C63.423,268.381 63.236,275.751 70.784,282.58 L50.421,282.58 C43.813,282.58 38.436,277.215 38.436,270.621 L38.436,103.346 C38.436,96.752 43.813,91.387 50.421,91.387 L75.138,91.387 L75.146,97.591 L286.323,97.369 L286.317,91.387 L311.204,91.387 C317.812,91.387 323.187,96.752 323.187,103.346 L323.187,270.621 C323.187,277.215 317.812,282.58 311.204,282.58 L298.559,282.58 L298.559,286.573 L311.204,286.573 C320.019,286.573 327.191,279.417 327.191,270.621 L327.191,103.346 C327.191,94.551 320.019,87.394 311.204,87.394 L286.314,87.394 L286.31,84.547 L312.037,84.524 C313.089,84.617 319.649,84.94 323.161,79.498 C323.201,79.435 323.235,79.373 323.268,79.306 L352.469,20.904 C352.744,20.449 353.663,18.794 353.861,16.721 C353.945,16.504 353.995,16.275 354,16.04 L354,15.959 C353.999,15.934 353.998,15.908 353.996,15.882 C353.981,15.609 353.572,9.132 350.459,4.773 C347.175,0.169 342.348,0 336.685,0 C336.467,0 336.25,0 336.03,0.002 Z M6.786,7.389 C8.894,4.422 12.063,4.281 17.946,4.274 L336.034,3.995 L336.305,3.995 C342.016,3.995 345.118,4.173 347.2,7.089 C347.506,7.521 347.781,7.987 348.028,8.473 C347.98,8.457 347.932,8.447 347.884,8.431 C347.724,8.378 347.564,8.333 347.403,8.289 C347.308,8.263 347.211,8.235 347.116,8.212 C346.948,8.172 346.783,8.138 346.618,8.105 C346.533,8.087 346.447,8.066 346.362,8.053 C346.129,8.01 345.898,7.975 345.672,7.947 C345.553,7.931 345.435,7.92 345.317,7.909 C345.206,7.897 345.09,7.883 344.978,7.876 C344.848,7.864 344.723,7.857 344.596,7.849 C344.505,7.843 344.411,7.839 344.323,7.834 C344.193,7.829 344.064,7.825 343.939,7.82 C343.862,7.819 343.785,7.817 343.711,7.817 C343.584,7.814 343.457,7.812 343.338,7.813 C343.277,7.813 343.221,7.814 343.165,7.814 C342.87,7.817 342.598,7.823 342.355,7.829 C342.156,7.833 341.978,7.839 341.826,7.839 L12.046,8.128 C11.855,8.146 11.709,8.125 11.507,8.12 C11.189,8.112 10.818,8.105 10.413,8.106 L10.372,8.106 C10.19,8.107 10.004,8.112 9.808,8.12 C9.77,8.12 9.735,8.122 9.698,8.123 C9.517,8.129 9.336,8.139 9.148,8.152 C9.099,8.156 9.053,8.159 9.005,8.162 C8.815,8.177 8.622,8.196 8.426,8.219 C8.381,8.225 8.337,8.228 8.291,8.233 C7.807,8.293 7.306,8.378 6.796,8.502 C6.758,8.511 6.721,8.523 6.684,8.533 C6.474,8.585 6.264,8.643 6.052,8.71 C6.029,8.716 6.005,8.721 5.982,8.729 C6.222,8.259 6.488,7.807 6.786,7.389 Z M12.049,12.122 L341.832,11.832 C342.012,11.832 342.221,11.827 342.453,11.82 C342.914,11.81 343.454,11.799 344.03,11.819 C345.76,11.881 347.828,12.246 349.158,13.881 C349.169,13.895 349.177,13.911 349.187,13.925 C349.287,14.05 349.375,14.18 349.45,14.31 C349.486,14.372 349.515,14.437 349.547,14.503 C349.589,14.589 349.631,14.678 349.665,14.768 C349.691,14.835 349.714,14.907 349.735,14.976 C349.771,15.086 349.797,15.197 349.818,15.31 C349.827,15.353 349.838,15.396 349.845,15.442 C349.874,15.635 349.888,15.828 349.887,16.018 C349.886,17.483 349.087,18.77 349.043,18.841 C348.999,18.905 348.962,18.972 348.927,19.04 L319.74,77.421 C317.339,81.018 312.551,80.566 312.359,80.543 C312.282,80.533 312.176,80.545 312.127,80.53 L41.869,80.769 C41.799,80.769 41.719,80.773 41.648,80.781 C41.446,80.801 36.661,81.265 34.256,77.673 L4.963,19.343 C4.933,19.283 4.892,19.213 4.856,19.155 C4.804,19.074 3.984,17.76 3.996,16.273 C3.996,16.248 4,16.224 3.999,16.199 C4.003,15.985 4.032,15.765 4.079,15.545 C4.128,15.31 4.206,15.089 4.302,14.876 C4.317,14.842 4.337,14.807 4.354,14.773 C4.456,14.569 4.574,14.371 4.724,14.186 C6.492,12.004 9.577,12.072 11.421,12.111 C11.598,12.116 11.784,12.125 11.926,12.125 C11.972,12.125 12.014,12.125 12.049,12.122 Z M62.621,214.409 C62.323,214.111 62.156,213.714 62.156,213.292 L62.057,115.971 C62.055,115.101 62.766,114.39 63.637,114.388 L297.763,114.145 C297.787,114.146 297.814,114.147 297.839,114.147 L297.844,114.147 C298.713,114.147 299.421,114.857 299.426,115.728 L299.528,213.047 C299.528,213.469 299.364,213.866 299.064,214.166 C298.765,214.464 298.37,214.628 297.946,214.628 L297.943,214.628 L297.739,214.628 L297.739,189.714 C297.739,186.962 296.397,184.524 294.338,182.997 C292.94,181.962 291.218,181.34 289.348,181.34 C287.297,181.34 285.417,182.083 283.957,183.305 L283.957,183.173 C283.957,181.606 283.517,180.148 282.766,178.894 C282.003,177.621 280.92,176.564 279.618,175.845 C278.417,175.18 277.035,174.798 275.566,174.798 C274.47,174.798 273.429,175.015 272.468,175.397 C271.438,175.807 270.509,176.412 269.727,177.169 C269.571,176.715 269.387,176.273 269.159,175.857 C267.735,173.248 264.964,171.473 261.783,171.473 C259.765,171.473 257.914,172.188 256.465,173.375 C256.439,173.395 256.416,173.418 256.39,173.438 L256.39,160.914 C256.39,160.533 256.357,160.162 256.306,159.795 C255.887,156.669 253.736,154.09 250.846,153.046 C250.26,152.835 249.649,152.683 249.012,152.606 C248.679,152.565 248.342,152.54 248,152.54 C243.747,152.54 240.232,155.714 239.69,159.811 C239.641,160.173 239.607,160.54 239.607,160.914 L239.607,178.937 L239.607,192.141 L239.607,195.574 L239.607,195.849 C239.475,195.753 239.34,195.662 239.202,195.575 C238.089,194.88 236.782,194.471 235.377,194.471 L229.648,194.471 C228.953,194.471 228.374,194.948 228.204,195.585 C228.171,195.708 228.147,195.835 228.147,195.97 L228.147,210.528 L228.147,214.702 L121.568,214.816 L121.568,210.639 L121.568,197.313 C121.568,196.761 121.512,196.219 121.409,195.696 C121.157,194.423 120.614,193.258 119.856,192.262 C118.321,190.249 115.902,188.938 113.178,188.938 C111.686,188.938 110.286,189.333 109.071,190.017 C108.614,190.273 108.185,190.569 107.786,190.903 L107.786,185.954 C107.786,184.275 107.284,182.716 106.431,181.404 C105.835,180.49 105.069,179.698 104.174,179.077 C102.816,178.134 101.171,177.577 99.395,177.577 C97.613,177.577 95.962,178.141 94.601,179.087 C92.429,180.603 91.002,183.112 91.002,185.954 L91.002,186.192 C89.543,184.969 87.662,184.227 85.611,184.227 C81.083,184.227 77.39,187.828 77.235,192.308 C77.23,192.405 77.218,192.501 77.218,192.601 L77.218,195.745 L77.218,199.631 C75.76,198.406 73.879,197.667 71.83,197.667 C70.176,197.667 68.637,198.153 67.337,198.979 C64.995,200.467 63.435,203.073 63.435,206.04 L63.435,214.842 C63.128,214.783 62.848,214.634 62.621,214.409 Z M94.003,210.667 L94.003,195.726 L94.003,192.601 L94.003,192.291 L94.003,185.954 C94.003,182.987 96.423,180.572 99.395,180.572 C102.367,180.572 104.784,182.987 104.784,185.954 L104.784,192.281 L104.784,195.714 L104.784,197.313 L104.784,210.656 L104.784,214.834 L104.742,214.834 L104.742,217.824 L104.784,217.824 L104.784,230.051 C104.784,230.878 105.456,231.548 106.284,231.548 C107.114,231.548 107.786,230.878 107.786,230.051 L107.786,217.819 L107.829,217.819 L107.829,214.831 L107.786,214.831 L107.786,210.653 L107.786,197.313 C107.786,196.75 107.896,196.219 108.058,195.71 C108.563,194.112 109.781,192.841 111.352,192.273 C111.925,192.065 112.534,191.934 113.178,191.934 C113.815,191.934 114.42,192.064 114.988,192.27 C117.067,193.015 118.567,194.984 118.567,197.313 L118.567,214.82 L118.524,214.82 L118.524,217.809 L118.567,217.809 L118.567,238.087 L118.567,249.969 L118.567,257.275 C118.567,258.101 119.24,258.772 120.068,258.772 C120.897,258.772 121.568,258.101 121.568,257.275 L121.568,249.969 L121.568,238.087 C121.568,235.761 123.466,233.867 125.799,233.867 L130.028,233.867 L130.028,255.883 C130.028,255.909 130.035,255.935 130.037,255.961 C130.037,255.991 130.033,256.019 130.037,256.048 C130.043,256.104 130.452,261.817 123.237,269.141 C118.332,274.121 112.519,279.366 108.874,282.58 L108.81,282.58 C106.7,284.437 105.322,285.611 105.283,285.643 C105.003,285.882 104.827,286.213 104.769,286.573 L104.811,286.573 C104.798,286.652 104.784,286.732 104.784,286.815 L104.784,291.503 L74.856,291.503 L74.856,286.573 L74.9,286.573 L74.9,282.797 C74.9,282.723 74.884,282.651 74.875,282.58 L74.832,282.58 C74.775,282.201 74.583,281.855 74.278,281.616 C66.307,275.43 66.428,268.461 66.438,268.112 L66.438,259.662 C66.438,259.493 66.403,259.331 66.351,259.179 C66.403,259.026 66.438,258.867 66.438,258.697 L66.438,217.863 L66.481,217.863 L66.481,214.87 L66.438,214.87 L66.438,206.04 C66.438,204.942 66.771,203.922 67.34,203.07 C68.307,201.621 69.955,200.662 71.83,200.662 C74.801,200.662 77.218,203.074 77.218,206.04 L77.218,210.684 L77.218,214.859 L77.175,214.859 L77.175,217.852 L77.218,217.852 L77.218,228.93 C77.218,229.757 77.891,230.428 78.719,230.428 C79.548,230.428 80.22,229.757 80.22,228.93 L80.22,217.849 L80.263,217.849 L80.263,214.857 L80.22,214.857 L80.22,210.682 L80.22,206.04 L80.22,195.741 L80.22,192.601 C80.22,192.499 80.246,192.404 80.252,192.304 C80.409,189.478 82.742,187.222 85.611,187.222 C88.478,187.222 90.807,189.472 90.971,192.293 C90.977,192.397 91.002,192.497 91.002,192.601 L91.002,195.728 L91.002,210.671 L91.002,214.847 L90.959,214.848 L90.959,217.838 L91.002,217.838 L91.002,230.051 C91.002,230.878 91.675,231.548 92.503,231.548 C93.331,231.548 94.003,230.878 94.003,230.051 L94.003,217.834 L94.046,217.834 L94.046,214.845 L94.003,214.845 L94.003,210.667 Z" id="path-57"></path>
        <path d="M24.58,0.425 C24.38,0.621 24.246,0.86 24.179,1.113 L19.868,5.31 L15.204,0.526 C14.779,0.092 14.134,-0.006 13.573,0.223 C13.321,0.326 13.104,0.5 12.948,0.717 L8.228,5.31 L3.563,0.526 C2.988,-0.064 2.044,-0.076 1.451,0.5 C0.86,1.074 0.847,2.02 1.423,2.61 L7.168,8.503 C7.594,8.937 8.24,9.036 8.8,8.804 C9.052,8.701 9.266,8.528 9.423,8.31 L14.145,3.718 L18.807,8.503 C19.233,8.937 19.879,9.036 20.44,8.804 C20.692,8.701 20.907,8.528 21.064,8.31 L25.746,3.756 L30.447,8.578 C30.872,9.012 31.516,9.109 32.078,8.881 C32.333,8.777 32.545,8.602 32.704,8.386 L37.577,3.641 L42.388,8.578 C42.662,8.86 43.033,9.001 43.413,9.001 C43.615,9.001 43.823,8.959 44.02,8.881 C44.273,8.777 44.487,8.602 44.645,8.386 L50.548,2.638 C51.138,2.062 51.152,1.119 50.577,0.527 C50.001,-0.064 49.054,-0.074 48.464,0.501 L43.446,5.386 L38.635,0.45 C38.213,0.017 37.568,-0.08 37.003,0.148 C36.751,0.25 36.535,0.425 36.379,0.642 L31.505,5.386 L26.878,0.638 C26.864,0.624 26.852,0.612 26.841,0.599 L26.69,0.446 C26.398,0.149 26.011,0 25.626,0 C25.249,0 24.871,0.142 24.58,0.425 Z" id="path-59"></path>
        <path d="M23.579,0.426 C23.378,0.622 23.246,0.86 23.178,1.113 L18.868,5.31 L14.204,0.527 C13.781,0.094 13.135,-0.004 12.57,0.224 C12.318,0.327 12.107,0.501 11.947,0.715 L7.227,5.31 L2.562,0.527 C1.988,-0.064 1.041,-0.076 0.45,0.501 C-0.139,1.076 -0.151,2.02 0.424,2.611 L6.168,8.502 C6.592,8.937 7.238,9.035 7.801,8.804 C8.053,8.7 8.265,8.528 8.425,8.314 L13.145,3.718 L17.81,8.502 C18.233,8.937 18.879,9.035 19.44,8.804 C19.694,8.7 19.905,8.528 20.064,8.314 L24.746,3.756 L29.447,8.577 C29.87,9.012 30.514,9.109 31.08,8.88 C31.332,8.776 31.546,8.602 31.704,8.386 L35.207,4.976 L36.577,3.642 L41.387,8.577 C41.664,8.86 42.033,9 42.412,9 C42.617,9 42.822,8.959 43.019,8.88 C43.273,8.776 43.486,8.602 43.645,8.386 L49.549,2.639 C50.141,2.063 50.151,1.12 49.576,0.528 C49.001,-0.06 48.057,-0.073 47.464,0.502 L42.445,5.385 L37.636,0.451 C37.212,0.017 36.564,-0.081 36.004,0.15 C35.749,0.252 35.535,0.427 35.377,0.645 L35.207,0.809 L30.505,5.385 L25.877,0.637 C25.864,0.624 25.853,0.611 25.841,0.6 L25.692,0.447 C25.399,0.15 25.012,0 24.625,0 C24.248,0 23.871,0.142 23.579,0.426 Z" id="path-61"></path>
        <path d="M23.581,0.426 C23.38,0.622 23.247,0.86 23.179,1.113 L18.867,5.31 L14.205,0.527 C13.781,0.094 13.134,-0.004 12.57,0.224 C12.319,0.327 12.106,0.501 11.948,0.715 L7.228,5.31 L2.563,0.527 C1.986,-0.064 1.041,-0.076 0.451,0.501 C-0.14,1.076 -0.151,2.02 0.425,2.611 L6.167,8.502 C6.592,8.937 7.237,9.035 7.802,8.804 C8.053,8.7 8.266,8.528 8.423,8.314 L13.143,3.718 L17.808,8.502 C18.233,8.937 18.878,9.035 19.441,8.804 C19.692,8.7 19.905,8.528 20.064,8.314 L24.746,3.756 L29.446,8.577 C29.87,9.012 30.515,9.109 31.077,8.88 C31.332,8.776 31.546,8.602 31.704,8.386 L33.701,6.445 L36.576,3.642 L41.388,8.577 C41.663,8.86 42.032,9 42.414,9 C42.616,9 42.824,8.959 43.021,8.88 C43.273,8.776 43.487,8.602 43.643,8.386 L49.548,2.639 C50.139,2.063 50.153,1.12 49.577,0.528 C49.001,-0.06 48.056,-0.073 47.465,0.502 L42.446,5.385 L37.635,0.451 C37.212,0.017 36.566,-0.081 36.002,0.15 C35.75,0.252 35.536,0.427 35.375,0.645 L33.701,2.278 L30.505,5.385 L25.876,0.637 C25.864,0.624 25.852,0.611 25.841,0.6 L25.691,0.447 C25.4,0.15 25.013,0 24.625,0 C24.248,0 23.871,0.142 23.581,0.426 Z" id="path-63"></path>
    </defs>
    <g id="Desktop-HD" stroke="none" stroke-width="1" fill="none" fill-rule="evenodd" transform="translate(-1063.000000, -225.000000)">
        <g id="Page-1" transform="translate(1063.000000, 225.000000)">
            <polygon id="Fill-1" fill="#FFAF01" points="66.9996 118.0142 67.0086 127.0002 81.9996 126.9832 81.9876 118.0002"></polygon>
            <polygon id="Fill-2" fill="#FFAF01" points="66.9998 130.0146 67.0138 144.0006 81.9998 143.9886 81.9868 130.0006"></polygon>
            <polygon id="Fill-3" fill="#FFAF01" points="66.9998 147.0293 67.0138 160.0003 96.9998 159.9713 96.9848 147.0003"></polygon>
            <polygon id="Fill-4" fill="#FFAF01" points="66.9998 163.0332 67.0128 176.0012 100.0008 175.9702 99.9858 163.0012"></polygon>
            <polygon id="Fill-5" fill="#FDD313" points="79.9999 196.001 79.9999 206.341 79.9999 211 80.0429 211 80.0429 196.001"></polygon>
            <g id="Group-8" transform="translate(67.000000, 201.000000)">
                <mask id="mask-2" fill="white">
                    <use xlink:href="#path-1"></use>
                </mask>
                <g id="Clip-7"></g>
                <polygon id="Fill-6" fill="#FDD313" mask="url(#mask-2)" points="-5 15 15 15 15 -5 -5 -5"></polygon>
            </g>
            <g id="Group-11" transform="translate(67.000000, 196.000000)">
                <mask id="mask-4" fill="white">
                    <use xlink:href="#path-3"></use>
                </mask>
                <g id="Clip-10"></g>
                <polygon id="Fill-9" fill="#FDD313" mask="url(#mask-4)" points="-5 9 15 9 15 -5 -5 -5"></polygon>
            </g>
            <polygon id="Fill-12" fill="#FDD313" points="93.999 211 94.043 211 94.043 196.002 93.999 196.002"></polygon>
            <polygon id="Fill-13" fill="#FDD313" points="90.999 211 91.041 211 91.041 196.002 90.999 196.002"></polygon>
            <polygon id="Fill-14" fill="#FDD313" points="104.9993 196.0024 104.9993 197.6044 104.9993 211.0004 105.0433 211.0004 105.0433 197.6044 105.0433 196.0024"></polygon>
            <g id="Group-17" transform="translate(107.000000, 196.000000)">
                <mask id="mask-6" fill="white">
                    <use xlink:href="#path-5"></use>
                </mask>
                <g id="Clip-16"></g>
                <polygon id="Fill-15" fill="#FDD313" mask="url(#mask-6)" points="-4 20 6.316 20 6.316 -5 -4 -5"></polygon>
            </g>
            <g id="Group-20" transform="translate(121.000000, 196.000000)">
                <mask id="mask-8" fill="white">
                    <use xlink:href="#path-7"></use>
                </mask>
                <g id="Clip-19"></g>
                <polygon id="Fill-18" fill="#FFAF01" mask="url(#mask-8)" points="-5 20 19 20 19 -5 -5 -5"></polygon>
            </g>
            <g id="Group-23" transform="translate(231.000000, 198.000000)">
                <mask id="mask-10" fill="white">
                    <use xlink:href="#path-9"></use>
                </mask>
                <g id="Clip-22"></g>
                <polygon id="Fill-21" fill="#FDD313" mask="url(#mask-10)" points="-5 18 13 18 13 -5 -5 -5"></polygon>
            </g>
            <polygon id="Fill-24" fill="#FDD313" points="241.9996 196.0024 241.9996 202.1404 241.9996 211.0004 242.0426 211.0004 242.0426 202.1404 242.0426 196.0024"></polygon>
            <g id="Group-27" transform="translate(239.000000, 196.000000)">
                <mask id="mask-12" fill="white">
                    <use xlink:href="#path-11"></use>
                </mask>
                <g id="Clip-26"></g>
                <polygon id="Fill-25" fill="#FDD313" mask="url(#mask-12)" points="-5 5.274 5.405 5.274 5.405 -5 -5 -5"></polygon>
            </g>
            <g id="Group-30" transform="translate(138.000000, 196.000000)">
                <mask id="mask-14" fill="white">
                    <use xlink:href="#path-13"></use>
                </mask>
                <g id="Clip-29"></g>
                <polygon id="Fill-28" fill="#FFAF01" mask="url(#mask-14)" points="-5 20 96 20 96 -5 -5 -5"></polygon>
            </g>
            <g id="Group-33" transform="translate(111.000000, 192.000000)">
                <mask id="mask-16" fill="white">
                    <use xlink:href="#path-15"></use>
                </mask>
                <g id="Clip-32"></g>
                <polygon id="Fill-31" fill="#FFAF01" mask="url(#mask-16)" points="-5 5.34 9 5.34 9 -5 -5 -5"></polygon>
            </g>
            <g id="Group-36" transform="translate(109.000000, 179.000000)">
                <mask id="mask-18" fill="white">
                    <use xlink:href="#path-17"></use>
                </mask>
                <g id="Clip-35"></g>
                <polygon id="Fill-34" fill="#FFAF01" mask="url(#mask-18)" points="-5 18 19 18 19 -5 -5 -5"></polygon>
            </g>
            <g id="Group-39" transform="translate(66.000000, 179.000000)">
                <mask id="mask-20" fill="white">
                    <use xlink:href="#path-19"></use>
                </mask>
                <g id="Clip-38"></g>
                <polygon id="Fill-37" fill="#FFAF01" mask="url(#mask-20)" points="-4 18 33 18 33 -5 -4 -5"></polygon>
            </g>
            <g id="Group-42" transform="translate(93.000000, 181.000000)">
                <mask id="mask-22" fill="white">
                    <use xlink:href="#path-21"></use>
                </mask>
                <g id="Clip-41"></g>
                <polygon id="Fill-40" fill="#FFAF01" mask="url(#mask-22)" points="-4 17 17 17 17 -5 -4 -5"></polygon>
            </g>
            <g id="Group-45" transform="translate(80.000000, 188.000000)">
                <mask id="mask-24" fill="white">
                    <use xlink:href="#path-23"></use>
                </mask>
                <g id="Clip-44"></g>
                <polygon id="Fill-43" fill="#FFAF01" mask="url(#mask-24)" points="-5 10 16 10 16 -5 -5 -5"></polygon>
            </g>
            <g id="Group-48" transform="translate(104.000000, 179.000000)">
                <mask id="mask-26" fill="white">
                    <use xlink:href="#path-25"></use>
                </mask>
                <g id="Clip-47"></g>
                <polygon id="Fill-46" fill="#FFAF01" mask="url(#mask-26)" points="-5 7 7 7 7 -5 -5 -5"></polygon>
            </g>
            <polygon id="Fill-49" fill="#FFAF01" points="123.9995 179.0151 124.0125 191.9991 137.9995 191.9871 137.9855 179.0011"></polygon>
            <polygon id="Fill-50" fill="#FFAF01" points="138.9987 179.0151 139.0147 191.9991 153.0007 191.9861 152.9857 179.0011"></polygon>
            <polygon id="Fill-51" fill="#FFAF01" points="154.9998 179.0142 155.0108 191.9992 168.9998 191.9882 168.9848 179.0012"></polygon>
            <polygon id="Fill-52" fill="#FFAF01" points="169.9989 179.0151 170.0119 191.9991 184.0009 191.9821 183.9879 179.0011"></polygon>
            <polygon id="Fill-53" fill="#FFAF01" points="185.0002 179.0161 185.0132 191.9991 198.9992 191.9881 198.9862 179.0011"></polygon>
            <polygon id="Fill-54" fill="#FFAF01" points="199.9994 179.0142 200.0154 191.9992 213.9994 191.9882 213.9844 179.0012"></polygon>
            <polygon id="Fill-55" fill="#FFAF01" points="216.0005 179.0161 216.0165 191.9991 229.9995 191.9881 229.9865 179.0011"></polygon>
            <polygon id="Fill-56" fill="#FFAF01" points="230.9996 179.0088 231.0156 191.9988 239.9996 191.9928 239.9996 179.0018"></polygon>
            <polygon id="Fill-57" fill="#FFAF01" points="241.9999 179.0024 241.9999 191.9994 242.0429 191.9994 242.0429 179.0014"></polygon>
            <polygon id="Fill-58" fill="#FFAF01" points="252.9991 179.0015 252.9991 179.9115 252.9991 189.7725 252.9991 191.9995 253.0431 191.9995 253.0431 189.7755 253.0431 179.9125 253.0431 179.0015"></polygon>
            <g id="Group-61" transform="translate(256.000000, 179.000000)">
                <mask id="mask-28" fill="white">
                    <use xlink:href="#path-27"></use>
                </mask>
                <g id="Clip-60"></g>
                <polygon id="Fill-59" fill="#FFAF01" mask="url(#mask-28)" points="-5 18 5.137 18 5.137 -5 -5 -5"></polygon>
            </g>
            <polygon id="Fill-62" fill="#FFAF01" points="83.9995 118.0161 84.0065 127.0011 98.9995 126.9851 98.9895 118.0001"></polygon>
            <polygon id="Fill-63" fill="#FFAF01" points="99.9999 118.0151 100.0119 127.0011 114.9999 126.9851 114.9899 118.0001"></polygon>
            <polygon id="Fill-64" fill="#FFAF01" points="115.9993 118.0151 116.0093 127.0011 130.9993 126.9841 130.9893 118.0001"></polygon>
            <polygon id="Fill-65" fill="#FFAF01" points="149.0005 118.0151 149.0115 127.0011 164.0005 126.9821 163.9915 118.0001"></polygon>
            <polygon id="Fill-66" fill="#FFAF01" points="164.9988 118.0171 165.0068 127.0011 179.9988 126.9851 179.9888 118.0001"></polygon>
            <polygon id="Fill-67" fill="#FFAF01" points="180.9991 118.0151 181.0141 127.0011 195.9991 126.9831 195.9861 118.0001"></polygon>
            <polygon id="Fill-68" fill="#FFAF01" points="198 118.0171 198.007 127.0011 213 126.9871 212.989 118.0001"></polygon>
            <polygon id="Fill-69" fill="#FFAF01" points="213.9993 118.0151 214.0123 127.0011 229.0003 126.9851 228.9923 118.0001"></polygon>
            <polygon id="Fill-70" fill="#FFAF01" points="229.9998 118.0171 230.0098 127.0011 244.9998 126.9831 244.9908 118.0001"></polygon>
            <polygon id="Fill-71" fill="#FFAF01" points="247.0006 118.0161 247.0116 127.0011 261.9996 126.9871 261.9846 118.0001"></polygon>
            <polygon id="Fill-72" fill="#FFAF01" points="262.9999 118.0151 263.0099 127.0011 278.0009 126.9841 277.9889 118.0001"></polygon>
            <polygon id="Fill-73" fill="#FFAF01" points="279.9987 118.0151 280.0107 127.0011 294.9997 126.9821 294.9907 118.0001"></polygon>
            <polygon id="Fill-74" fill="#FFAF01" points="133.0001 118.0161 133.0111 127.0011 148.0001 126.9871 147.9891 118.0001"></polygon>
            <polygon id="Fill-75" fill="#FFAF01" points="83.9993 130.0137 84.0163 143.9997 98.9993 143.9867 98.9873 130.0007"></polygon>
            <polygon id="Fill-76" fill="#FFAF01" points="100 130.0146 100.016 143.9996 115 143.9866 114.988 130.0006"></polygon>
            <polygon id="Fill-77" fill="#FFAF01" points="115.9998 130.0166 116.0138 143.9996 130.9998 143.9846 130.9858 130.0006"></polygon>
            <polygon id="Fill-78" fill="#FFAF01" points="132.0005 130.0166 132.0145 143.9996 146.9995 143.9886 146.9845 130.0006"></polygon>
            <polygon id="Fill-79" fill="#FFAF01" points="149.001 130.0146 149.014 143.9996 164 143.9846 163.985 130.0006"></polygon>
            <polygon id="Fill-80" fill="#FFAF01" points="164.9985 130.0137 165.0145 143.9997 179.9985 143.9867 179.9855 130.0007"></polygon>
            <polygon id="Fill-81" fill="#FFAF01" points="181.9991 130.0137 182.0181 143.9997 196.9991 143.9847 196.9871 130.0007"></polygon>
            <polygon id="Fill-82" fill="#FFAF01" points="197.9999 130.0166 198.0149 143.9996 212.9999 143.9876 212.9829 130.0006"></polygon>
            <polygon id="Fill-83" fill="#FFAF01" points="215.0004 130.0127 215.0134 143.9997 230.0004 143.9867 229.9844 130.0007"></polygon>
            <polygon id="Fill-84" fill="#FFAF01" points="231.0001 130.0166 231.0171 143.9996 245.9991 143.9866 245.9871 130.0006"></polygon>
            <polygon id="Fill-85" fill="#FFAF01" points="246.9998 130.0166 247.0158 143.9996 261.9998 143.9846 261.9848 130.0006"></polygon>
            <polygon id="Fill-86" fill="#FFAF01" points="263.9993 130.0317 264.0133 143.9997 294.0003 143.9697 293.9853 130.0007"></polygon>
            <polygon id="Fill-87" fill="#FFAF01" points="101.0005 147.0156 101.0145 160.0016 113.9995 159.9876 113.9855 147.0006"></polygon>
            <polygon id="Fill-88" fill="#FFAF01" points="102.9996 163.0132 103.0126 176.0012 115.9996 175.9852 115.9876 163.0012"></polygon>
            <polygon id="Fill-89" fill="#FFAF01" points="118.9988 163.0146 119.0138 176.0006 131.9998 175.9896 131.9858 163.0006"></polygon>
            <polygon id="Fill-90" fill="#FFAF01" points="133.9984 163.0132 134.0124 176.0012 146.9994 175.9862 146.9844 163.0012"></polygon>
            <polygon id="Fill-91" fill="#FFAF01" points="149.0004 163.0122 149.0124 176.0012 161.9994 175.9872 161.9864 163.0012"></polygon>
            <polygon id="Fill-92" fill="#FFAF01" points="164.0001 163.0122 164.0141 176.0012 176.9991 175.9872 176.9861 163.0012"></polygon>
            <polygon id="Fill-93" fill="#FFAF01" points="179.9982 163.0146 180.0132 176.0006 192.9992 175.9886 192.9852 163.0006"></polygon>
            <polygon id="Fill-94" fill="#FFAF01" points="195 163.0122 195.01 176.0012 207.999 175.9862 207.985 163.0012"></polygon>
            <polygon id="Fill-95" fill="#FFAF01" points="209.9998 163.0122 210.0128 176.0012 222.9988 175.9882 222.9858 163.0012"></polygon>
            <polygon id="Fill-96" fill="#FFAF01" points="225.9999 163.0122 226.0129 176.0012 238.9999 175.9872 238.9849 163.0012"></polygon>
            <polygon id="Fill-97" fill="#FDD313" points="252.999 176.001 253.043 176.001 253.043 163.001 252.999 163.001"></polygon>
            <polygon id="Fill-98" fill="#FDD313" points="242 176.001 242.042 176.001 242.042 163.001 242 163.001"></polygon>
            <g id="Group-101" transform="translate(258.000000, 175.000000)">
                <mask id="mask-30" fill="white">
                    <use xlink:href="#path-29"></use>
                </mask>
                <g id="Clip-100"></g>
                <polygon id="Fill-99" fill="#FDD313" mask="url(#mask-30)" points="-5 6 12 6 12 -5 -5 -5"></polygon>
            </g>
            <g id="Group-104" transform="translate(256.000000, 163.000000)">
                <mask id="mask-32" fill="white">
                    <use xlink:href="#path-31"></use>
                </mask>
                <g id="Clip-103"></g>
                <polygon id="Fill-102" fill="#FFAF01" mask="url(#mask-32)" points="-5 18 18 18 18 -5 -5 -5"></polygon>
            </g>
            <g id="Group-107" transform="translate(272.000000, 163.000000)">
                <mask id="mask-34" fill="white">
                    <use xlink:href="#path-33"></use>
                </mask>
                <g id="Clip-106"></g>
                <polygon id="Fill-105" fill="#FFAF01" mask="url(#mask-34)" points="-5 18 27 18 27 -5 -5 -5"></polygon>
            </g>
            <polygon id="Fill-108" fill="#FFAF01" points="115.9993 147.0122 116.0113 160.0012 128.9993 159.9862 128.9863 147.0002"></polygon>
            <polygon id="Fill-109" fill="#FFAF01" points="129.9991 147.0146 130.0121 160.0016 143.0001 159.9886 142.9831 147.0006"></polygon>
            <polygon id="Fill-110" fill="#FFAF01" points="144.999 147.0146 145.014 160.0016 158 159.9866 157.988 147.0006"></polygon>
            <polygon id="Fill-111" fill="#FFAF01" points="159.9989 147.0156 160.0119 160.0016 172.9999 159.9856 172.9859 147.0006"></polygon>
            <polygon id="Fill-112" fill="#FFAF01" points="174.9999 147.0122 175.0099 160.0012 187.9999 159.9882 187.9839 147.0002"></polygon>
            <polygon id="Fill-113" fill="#FFAF01" points="189.9998 147.0156 190.0128 160.0016 202.9998 159.9876 202.9838 147.0006"></polygon>
            <polygon id="Fill-114" fill="#FFAF01" points="204.9996 147.0186 205.0146 160.0016 217.9996 159.9906 217.9876 147.0006"></polygon>
            <polygon id="Fill-115" fill="#FFAF01" points="221.0005 147.0146 221.0135 160.0016 233.9995 159.9886 233.9835 147.0006"></polygon>
            <g id="Group-118" transform="translate(236.000000, 147.000000)">
                <mask id="mask-36" fill="white">
                    <use xlink:href="#path-35"></use>
                </mask>
                <g id="Clip-117"></g>
                <polygon id="Fill-116" fill="#FFAF01" mask="url(#mask-36)" points="-5 18 18 18 18 -5 -5 -5"></polygon>
            </g>
            <g id="Group-121" transform="translate(242.000000, 156.000000)">
                <mask id="mask-38" fill="white">
                    <use xlink:href="#path-37"></use>
                </mask>
                <g id="Clip-120"></g>
                <polygon id="Fill-119" fill="#FDD313" mask="url(#mask-38)" points="-4 9 12 9 12 -5 -4 -5"></polygon>
            </g>
            <g id="Group-124" transform="translate(251.000000, 157.000000)">
                <mask id="mask-40" fill="white">
                    <use xlink:href="#path-39"></use>
                </mask>
                <g id="Clip-123"></g>
                <polygon id="Fill-122" fill="#FDD313" mask="url(#mask-40)" points="-5 8 7 8 7 -5 -5 -5"></polygon>
            </g>
            <g id="Group-127" transform="translate(251.000000, 147.000000)">
                <mask id="mask-42" fill="white">
                    <use xlink:href="#path-41"></use>
                </mask>
                <g id="Clip-126"></g>
                <polygon id="Fill-125" fill="#FFAF01" mask="url(#mask-42)" points="-5 18 18 18 18 -5 -5 -5"></polygon>
            </g>
            <polygon id="Fill-128" fill="#FFAF01" points="265.999 147.0112 266.013 160.0012 278.999 159.9862 278.986 147.0002"></polygon>
            <polygon id="Fill-129" fill="#FFAF01" points="281 147.0112 281.016 160.0012 294 159.9842 293.989 147.0002"></polygon>
            <g id="Group-132" transform="translate(270.000000, 179.000000)">
                <mask id="mask-44" fill="white">
                    <use xlink:href="#path-43"></use>
                </mask>
                <g id="Clip-131"></g>
                <polygon id="Fill-130" fill="#FDD313" mask="url(#mask-44)" points="-5 18 7 18 7 -5 -5 -5"></polygon>
            </g>
            <g id="Group-135" transform="translate(278.000000, 179.000000)">
                <mask id="mask-46" fill="white">
                    <use xlink:href="#path-45"></use>
                </mask>
                <g id="Clip-134"></g>
                <polygon id="Fill-133" fill="#FDD313" mask="url(#mask-46)" points="-4 18 8 18 8 -5 -4 -5"></polygon>
            </g>
            <g id="Group-138" transform="translate(284.000000, 185.000000)">
                <mask id="mask-48" fill="white">
                    <use xlink:href="#path-47"></use>
                </mask>
                <g id="Clip-137"></g>
                <polygon id="Fill-136" fill="#FDD313" mask="url(#mask-48)" points="-5 13 15 13 15 -5 -5 -5"></polygon>
            </g>
            <g id="Group-141" transform="translate(283.000000, 179.000000)">
                <mask id="mask-50" fill="white">
                    <use xlink:href="#path-49"></use>
                </mask>
                <g id="Clip-140"></g>
                <polygon id="Fill-139" fill="#FFAF01" mask="url(#mask-50)" points="-5 9 17 9 17 -5 -5 -5"></polygon>
            </g>
            <g id="Group-144" transform="translate(267.000000, 179.000000)">
                <mask id="mask-52" fill="white">
                    <use xlink:href="#path-51"></use>
                </mask>
                <g id="Clip-143"></g>
                <polygon id="Fill-142" fill="#FDD313" mask="url(#mask-52)" points="-5 18 5.137 18 5.137 -5 -5 -5"></polygon>
            </g>
            <g id="Group-147" transform="translate(12.000000, 16.000000)">
                <mask id="mask-54" fill="white">
                    <use xlink:href="#path-53"></use>
                </mask>
                <g id="Clip-146"></g>
                <polygon id="Fill-145" fill="#FD7016" mask="url(#mask-54)" points="-5 66 334 66 334 -5 -5 -5"></polygon>
            </g>
            <g id="Group-150" transform="translate(138.000000, 223.000000)">
                <mask id="mask-56" fill="white">
                    <use xlink:href="#path-55"></use>
                </mask>
                <g id="Clip-149"></g>
                <polygon id="Fill-148" fill="#414042" mask="url(#mask-56)" points="-5 60 90 60 90 -5 -5 -5"></polygon>
            </g>
            <g id="Group-153">
                <mask id="mask-58" fill="white">
                    <use xlink:href="#path-57"></use>
                </mask>
                <g id="Clip-152"></g>
                <polygon id="Fill-151" fill="#414042" mask="url(#mask-58)" points="-5 298 359 298 359 -5 -5 -5"></polygon>
            </g>
            <polygon id="Fill-154" fill="#FD7016" points="237.824 524.23 303 524.23 303 252 237.824 252"></polygon>
            <polygon id="Fill-155" fill="#FD7016" points="61.824 524.23 127 524.23 127 289.23 61.824 289.23"></polygon>
            <g id="Group-158" transform="translate(169.000000, 336.000000)">
                <mask id="mask-60" fill="white">
                    <use xlink:href="#path-59"></use>
                </mask>
                <g id="Clip-157"></g>
                <polygon id="Fill-156" fill="#414042" mask="url(#mask-60)" points="-4 14 56 14 56 -5 -4 -5"></polygon>
            </g>
            <g id="Group-161" transform="translate(205.000000, 348.000000)">
                <mask id="mask-62" fill="white">
                    <use xlink:href="#path-61"></use>
                </mask>
                <g id="Clip-160"></g>
                <polygon id="Fill-159" fill="#414042" mask="url(#mask-62)" points="-5 14 55 14 55 -5 -5 -5"></polygon>
            </g>
            <g id="Group-164" transform="translate(265.000000, 348.000000)">
                <mask id="mask-64" fill="white">
                    <use xlink:href="#path-63"></use>
                </mask>
                <g id="Clip-163"></g>
                <polygon id="Fill-162" fill="#414042" mask="url(#mask-64)" points="-5 14 55 14 55 -5 -5 -5"></polygon>
            </g>
        </g>
    </g>
</svg>