<?xml version="1.0" encoding="UTF-8"?>
<svg width="1304px" height="351px" viewBox="0 0 1304 351" version="1.1" xmlns="http://www.w3.org/2000/svg" xmlns:xlink="http://www.w3.org/1999/xlink">
    <!-- Generator: Sketch 48.2 (47327) - http://www.bohemiancoding.com/sketch -->
    <title>Group 24</title>
    <desc>Created with Sketch.</desc>
    <defs></defs>
    <g id="Desktop-HD" stroke="none" stroke-width="1" fill="none" fill-rule="evenodd" transform="translate(0.000000, -2909.000000)">
        <g id="Group-21" transform="translate(-84.000000, 2820.000000)">
            <g id="Group-22">
                <g id="Group-24">
                    <g id="Page-1-Copy-11" transform="translate(258.500000, 253.500000) rotate(-105.000000) translate(-258.500000, -253.500000) translate(112.000000, 26.000000)">
                        <path d="M16.1341291,285.428196 C16.1341291,269.569348 28.7772361,256.709548 44.3688551,256.709548 C59.9624909,256.709548 72.6035811,269.569348 72.6035811,285.428196 C72.6035811,301.289095 59.9624909,314.146844 44.3688551,314.146844 C28.7772361,314.146844 16.1341291,301.289095 16.1341291,285.428196" id="Fill-1" fill="#FF7116"></path>
                        <path d="M163.646167,421.402203 C163.646167,405.543355 176.287257,392.683555 191.880893,392.683555 C207.472512,392.683555 220.115619,405.543355 220.115619,421.402203 C220.115619,437.263102 207.472512,450.120851 191.880893,450.120851 C176.287257,450.120851 163.646167,437.263102 163.646167,421.402203" id="Fill-5" fill="#FFB100"></path>
                        <path d="M150.968348,138.318386 C169.427144,138.318386 184.390047,153.537743 184.390047,172.312909 C184.390047,191.086034 169.427144,206.30539 150.968348,206.30539 C132.511558,206.30539 117.548655,191.086034 117.548655,172.312909 C117.548655,153.537743 132.511558,138.318386 150.968348,138.318386 Z" id="Fill-7" fill="#86FBFF"></path>
                        <path d="M4.60975118,60.3677704 C4.60975118,44.5089227 17.2528581,31.6491223 32.8444772,31.6491223 C48.438113,31.6491223 61.0792031,44.5089227 61.0792031,60.3677704 C61.0792031,76.2286694 48.438113,89.0864184 32.8444772,89.0864184 C17.2528581,89.0864184 4.60975118,76.2286694 4.60975118,60.3677704" id="Fill-9" fill="#FF7116"></path>
                        <path d="M259.972743,60.5492987 C254.719837,60.5492987 249.829822,58.9756619 245.69366,56.3019081 C243.991478,55.2017911 242.409591,53.9302272 240.998123,52.4790524 C236.20635,47.5601618 233.23906,40.7941358 233.23906,33.3361996 C233.23906,18.3305215 245.230522,6.12310039 259.972743,6.12310039 C274.712959,6.12310039 286.704422,18.3305215 286.704422,33.3361996 C286.704422,48.3418776 274.712959,60.5492987 259.972743,60.5492987 M182.229732,172.126475 C182.229732,190.01001 167.936614,204.560538 150.369452,204.560538 C142.893083,204.560538 136.028216,201.907194 130.586847,197.504685 C129.01298,196.229039 127.563418,194.806439 126.252197,193.257295 C121.440374,187.573016 118.509173,180.198762 118.509173,172.126475 C118.509173,164.644046 121.037384,157.763723 125.235699,152.269261 C126.470734,150.652762 127.850123,149.162808 129.357827,147.809602 C134.97162,142.774373 142.315664,139.692412 150.369452,139.692412 C156.837343,139.692412 162.854126,141.678338 167.882481,145.062371 C169.562609,146.193104 171.128456,147.483037 172.563983,148.905637 C178.516609,154.802183 182.229732,163.025507 182.229732,172.126475 M70.172411,285.403832 C70.172411,291.341199 68.273746,296.823415 65.0899235,301.301442 C63.911027,302.964884 62.5516871,304.481372 61.0419778,305.832536 C56.3344115,310.041147 50.1832985,312.616931 43.4407322,312.616931 C28.6985112,312.616931 16.7070486,300.40951 16.7070486,285.403832 C16.7070486,270.398154 28.6985112,258.190733 43.4407322,258.190733 C49.5377123,258.190733 55.1474953,260.303203 59.6485542,263.81378 C61.2464803,265.060852 62.718096,266.465083 64.0032536,268.03872 C67.8527115,272.755548 70.172411,278.809253 70.172411,285.403832 M168.816776,405.57376 C169.997678,403.912358 171.355013,402.393829 172.866727,401.044706 C177.572288,396.834054 183.725406,394.25827 190.467973,394.25827 C205.208189,394.25827 217.199651,406.465691 217.199651,421.47341 C217.199651,436.479088 205.208189,448.686509 190.467973,448.686509 C175.727756,448.686509 163.736294,436.479088 163.736294,421.47341 C163.736294,415.536044 165.634959,410.051787 168.816776,405.57376 M54.1289929,75.7958187 C52.9220274,77.4347686 51.550658,78.9410513 50.0188945,80.265682 C45.3554366,84.2987641 39.3306339,86.7439222 32.7464568,86.7439222 C18.0062407,86.7439222 6.01477808,74.536501 6.01477808,59.528782 C6.01477808,44.523104 18.0062407,32.3156828 32.7464568,32.3156828 C47.4886779,32.3156828 59.4801405,44.523104 59.4801405,59.528782 C59.4801405,65.631472 57.4732095,71.2504372 54.1289929,75.7958187 M259.972743,0 C241.914374,0 227.224281,14.9546522 227.224281,33.3361996 C227.224281,42.7229125 231.067725,51.1972834 237.218838,57.2632348 L171.667781,140.270025 C165.59486,136.047127 158.262846,133.569312 150.369452,133.569312 C140.591428,133.569312 131.697576,137.394209 124.969044,143.609156 L58.5298055,80.0105528 C62.8764851,74.352808 65.4949185,67.2520526 65.4949185,59.528782 C65.4949185,41.1472346 50.8048255,26.1925824 32.7464568,26.1925824 C14.690093,26.1925824 0,41.1472346 0,59.528782 C0,77.9123704 14.690093,92.8670226 32.7464568,92.8670226 C41.0548703,92.8670226 48.6274759,89.6768873 54.4076776,84.4661288 L120.832882,148.054526 C115.628094,154.65727 112.494394,163.021425 112.494394,172.126475 C112.494394,181.9316 116.13935,190.865203 122.081951,197.676132 L63.8408546,259.372491 C58.2410962,254.812823 51.1536827,252.067633 43.4407322,252.067633 C25.3823635,252.067633 10.6922705,267.022285 10.6922705,285.403832 C10.6922705,303.78538 25.3823635,318.740032 43.4407322,318.740032 C51.9456284,318.740032 59.6786281,315.392737 65.5069481,309.961547 L164.353811,401.444749 C160.209629,407.026975 157.721516,413.950161 157.721516,421.47341 C157.721516,439.854958 172.411609,454.80961 190.467973,454.80961 C208.524336,454.80961 223.214429,439.854958 223.214429,421.47341 C223.214429,403.089822 208.524336,388.13517 190.467973,388.13517 C181.963076,388.13517 174.228072,391.482464 168.401757,396.913655 L69.5528888,305.432494 C73.6990758,299.850267 76.187189,292.927082 76.187189,285.403832 C76.187189,277.076416 73.151731,269.469484 68.1734997,263.621923 L126.394547,201.943933 C132.928601,207.399615 141.279117,210.683638 150.369452,210.683638 C171.252762,210.683638 188.24451,193.38588 188.24451,172.126475 C188.24451,161.100812 183.649219,151.165061 176.335249,144.13166 L241.898335,61.1085419 C247.083074,64.6170784 253.294335,66.6723991 259.972743,66.6723991 C278.029107,66.6723991 292.7192,51.7177469 292.7192,33.3361996 C292.7192,14.9546522 278.029107,0 259.972743,0" id="Fill-11" fill="#414042"></path>
                    </g>
                    <g id="Page-1-Copy-12" transform="translate(1186.500000, 233.000000) rotate(18.000000) translate(-1186.500000, -233.000000) translate(977.000000, 57.000000)">
                        <path d="M180.168073,230.209752 C180.168073,209.395529 197.787151,192.522554 219.519393,192.522554 C241.253996,192.522554 258.873074,209.395529 258.873074,230.209752 C258.873074,251.023976 241.253996,267.896951 219.519393,267.896951 C197.787151,267.896951 180.168073,251.023976 180.168073,230.209752" id="Fill-1" fill="#FF7116"></path>
                        <path d="M63.5329521,166.186922 C63.5329521,148.632861 78.3944475,134.402538 96.7218077,134.402538 C115.051539,134.402538 129.910663,148.632861 129.910663,166.186922 C129.910663,183.738713 115.051539,197.971306 96.7218077,197.971306 C78.3944475,197.971306 63.5329521,183.738713 63.5329521,166.186922" id="Fill-3" fill="#FFB100"></path>
                        <path d="M7.58602414,315.119464 C7.58602414,297.565403 22.4451489,283.33508 40.7748797,283.33508 C59.1046105,283.33508 73.9637353,297.565403 73.9637353,315.119464 C73.9637353,332.671255 59.1046105,346.903848 40.7748797,346.903848 C22.4451489,346.903848 7.58602414,332.671255 7.58602414,315.119464" id="Fill-5" fill="#00FFDD"></path>
                        <path d="M260.76958,38.1412608 C260.76958,20.5894699 275.628704,6.35687679 293.958435,6.35687679 C312.288166,6.35687679 327.147291,20.5894699 327.147291,38.1412608 C327.147291,55.695322 312.288166,69.9256447 293.958435,69.9256447 C275.628704,69.9256447 260.76958,55.695322 260.76958,38.1412608" id="Fill-7" fill="#00FFDD"></path>
                        <path d="M347.060604,170.727548 C347.060604,153.175757 361.919729,138.943164 380.24946,138.943164 C398.57682,138.943164 413.438315,153.175757 413.438315,170.727548 C413.438315,188.281609 398.57682,202.511932 380.24946,202.511932 C361.919729,202.511932 347.060604,188.281609 347.060604,170.727548" id="Fill-9" fill="#00FFDD"></path>
                        <path d="M379.80808,202.165077 C362.533504,202.165077 348.482201,188.705109 348.482201,172.159768 C348.482201,162.626842 353.162053,154.133627 360.421463,148.633517 C362.260983,147.240485 364.272004,146.049995 366.412237,145.075548 C370.478916,143.221173 375.010761,142.152208 379.80808,142.152208 C397.080306,142.152208 411.13161,155.612176 411.13161,172.159768 C411.13161,188.705109 397.080306,202.165077 379.80808,202.165077 M311.482705,60.2806737 C309.643185,61.673705 307.632164,62.8641954 305.494279,63.8386422 C301.427601,65.6930167 296.895756,66.7619826 292.098437,66.7619826 C289.626949,66.7619826 287.237687,66.4581712 284.928302,65.9383162 C282.60717,65.4139603 280.391758,64.6420545 278.298511,63.6518545 C267.937994,58.7503646 260.774907,48.5535554 260.774907,36.756673 C260.774907,20.2113317 274.826211,6.75136344 292.098437,6.75136344 C309.373013,6.75136344 323.424316,20.2113317 323.424316,36.756673 C323.424316,46.2895982 318.742115,54.7805629 311.482705,60.2806737 M257.387182,229.41583 C257.387182,249.134313 240.638855,265.177803 220.054083,265.177803 C206.618302,265.177803 194.85289,258.320668 188.277133,248.090102 C187.048437,246.181716 186.007687,244.156307 185.16428,242.031878 C183.611377,238.102585 182.720983,233.862729 182.720983,229.41583 C182.720983,224.467081 183.780528,219.747878 185.68583,215.458512 C186.616162,213.37009 187.743837,211.38744 189.05241,209.526314 C195.757379,199.961882 207.151598,193.656109 220.054083,193.656109 C223.235067,193.656109 226.305633,194.079194 229.256383,194.80159 C231.55872,195.364204 233.776481,196.124857 235.890873,197.07905 C248.570171,202.801956 257.387182,215.127695 257.387182,229.41583 M38.3715005,344.693111 C21.0992742,344.693111 7.04797046,331.233142 7.04797046,314.687801 C7.04797046,298.14246 21.0992742,284.682492 38.3715005,284.682492 C49.4415128,284.682492 59.167712,290.227611 64.7403073,298.552043 C66.0042433,300.440174 67.040295,302.472334 67.8414143,304.612516 C69.0207747,307.769904 69.6973799,311.150087 69.6973799,314.687801 C69.6973799,331.233142 55.6460761,344.693111 38.3715005,344.693111 M126.9269,177.358317 C126.036506,179.464743 124.908831,181.451894 123.569717,183.290515 C117.900799,191.059084 108.510553,196.163115 97.8892617,196.163115 C80.6146861,196.163115 66.5633823,182.703147 66.5633823,166.157806 C66.5633823,149.612464 80.6146861,136.152496 97.8892617,136.152496 C115.161488,136.152496 129.212792,149.612464 129.212792,166.157806 C129.212792,170.118605 128.388179,173.892618 126.9269,177.358317 M379.80808,135.400844 C373.648154,135.400844 367.842975,136.832133 362.679162,139.314385 L315.208732,66.0305849 C324.458019,59.3129782 330.472287,48.7088367 330.472287,36.756673 C330.472287,16.48908 313.258794,0 292.098437,0 C270.94043,0 253.726936,16.48908 253.726936,36.756673 C253.726936,51.4791462 262.830565,64.1717095 275.909249,70.0341434 L231.638597,188.426053 C227.938413,187.462858 224.066727,186.904745 220.054083,186.904745 C204.475719,186.904745 190.772115,194.648559 182.850196,206.314915 L133.171402,180.58997 C135.154231,176.156575 136.260762,171.277589 136.260762,166.157806 C136.260762,145.890213 119.047269,129.401133 97.8892617,129.401133 C76.728905,129.401133 59.5154119,145.890213 59.5154119,166.157806 C59.5154119,186.425399 76.728905,202.914479 97.8892617,202.914479 C111.188782,202.914479 122.918954,196.394912 129.807171,186.522168 L179.488314,212.247113 C177.052066,217.504175 175.673013,223.305847 175.673013,229.41583 C175.673013,234.927194 176.810086,240.179754 178.80936,245.015981 L71.08583,295.574691 C64.338573,285.013308 52.2184131,277.931128 38.3715005,277.931128 C17.2134932,277.931128 0,294.420208 0,314.687801 C0,334.955394 17.2134932,351.444474 38.3715005,351.444474 C59.5318571,351.444474 76.7453503,334.955394 76.7453503,314.687801 C76.7453503,310.085622 75.8173675,305.694985 74.1986837,301.630664 L181.929261,251.067453 C189.674981,263.534971 203.843751,271.929166 220.054083,271.929166 C244.524636,271.929166 264.435153,252.856564 264.435153,229.41583 C264.435153,212.199854 253.677601,197.37386 238.277785,190.696761 L282.546088,72.3138538 C285.604907,73.0700065 288.795288,73.513346 292.098437,73.513346 C298.258363,73.513346 304.063541,72.082057 309.227354,69.6020561 L356.697785,142.883605 C347.448498,149.603462 341.43423,160.205353 341.43423,172.159768 C341.43423,192.427361 358.647723,208.916441 379.80808,208.916441 C400.966087,208.916441 418.17958,192.427361 418.17958,172.159768 C418.17958,151.889924 400.966087,135.400844 379.80808,135.400844" id="Fill-11" fill="#414042"></path>
                    </g>
                </g>
            </g>
        </g>
    </g>
</svg>