<?xml version="1.0" encoding="UTF-8"?>
<svg width="464px" height="98px" viewBox="0 0 464 98" version="1.1" xmlns="http://www.w3.org/2000/svg" xmlns:xlink="http://www.w3.org/1999/xlink">
    <!-- Generator: Sketch 48.2 (47327) - http://www.bohemiancoding.com/sketch -->
    <title>NSW color Copy 2</title>
    <desc>Created with Sketch.</desc>
    <defs></defs>
    <g id="Desktop-HD" stroke="none" stroke-width="1" fill="none" fill-rule="evenodd" transform="translate(-198.000000, -901.000000)">
        <g id="NSW-color-Copy-2" transform="translate(198.000000, 901.000000)" fill="#2A3842">
            <g id="NSW-grey" transform="translate(93.000000, 3.000000)">
                <path d="M73.7335634,65.276686 L73.7335634,62.3543023 L67.2873745,62.3543023 C64.2467097,62.3543023 62.7263772,63.4740698 62.7263772,65.8365698 C62.7263772,68.1378488 64.3685,69.6296512 67.1655841,69.6296512 C70.3884228,69.6296512 73.06474,67.8265116 73.7335634,65.276686 Z M84.3753786,54.7676163 L84.3753786,76.6564535 L73.7335634,76.6564535 L73.7335634,72.8633721 C71.6053028,75.6617442 68.2606738,77.1535465 63.8214669,77.1535465 C56.7673497,77.1535465 52.5707,72.8011047 52.5707,66.6455233 C52.5707,60.2403488 57.0099069,56.5712791 65.1591138,56.4467442 L73.7335634,56.4467442 L73.7335634,56.074186 C73.7335634,52.9032558 71.6053028,51.0368023 67.47006,51.0368023 C64.7328476,51.0368023 61.1451497,51.9697674 57.6178352,53.7106395 L54.6380655,46.2490116 C59.8075028,43.8859884 64.5511855,42.5804651 69.96318,42.5804651 C79.0242793,42.5804651 84.3144834,47.0574419 84.3753786,54.7676163 Z" id="Fill-3"></path>
                <path d="M131.121123,75.2558547 C128.749793,76.6859128 125.465548,77.494343 122.243221,77.494343 C115.857415,77.5566105 111.236034,73.7007384 111.236034,66.7367267 L111.236034,52.3100407 L111.236034,44.9724244 L111.236034,35.7317267 L121.99964,35.7317267 L121.99964,44.9724244 L130.513194,44.9724244 L130.513194,52.9191105 L121.99964,52.9191105 L121.99964,64.9958547 C121.99964,67.4834128 123.093706,68.6021337 124.97941,68.5398663 C126.073988,68.5398663 127.473041,68.1045174 129.053757,67.4206221 L131.121123,75.2558547 Z" id="Fill-5"></path>
                <path d="M108.647734,42.9744244 L108.647734,53.1098895 C102.627299,52.4882616 98.6138469,55.2243663 98.0668138,59.8876221 L98.0668138,77.0504128 L87.2423131,77.0504128 L87.2423131,43.4097733 L98.0668138,43.4097733 L98.0668138,49.0054709 C100.316865,45.1506453 104.025841,42.9744244 108.647734,42.9744244" id="Fill-7"></path>
                <path d="M166.109033,44.1124012 L166.109033,77.7530407 L155.284532,77.7530407 L155.284532,72.2808314 C153.034481,76.1979244 149.446783,78.1883895 144.764507,78.2501337 C137.648983,78.2501337 133.027602,73.2132733 133.027602,65.378564 L133.027602,44.1124012 L143.852103,44.1124012 L143.852103,62.2071105 C143.852103,66.0007151 145.919468,68.3014709 149.142307,68.3014709 C152.973586,68.2386802 155.284532,65.1300174 155.284532,60.7147849 L155.284532,44.1124012 L166.109033,44.1124012 Z" id="Fill-9"></path>
                <path d="M31.8613777,44.9724244 L31.8613777,35.7317267 L42.6249832,35.7317267 L42.6249832,44.9724244 L51.1385377,44.9724244 L51.1385377,52.9866105 L42.6249832,52.9866105 L42.6249832,64.9958547 C42.6249832,67.4834128 43.7190494,68.6021337 45.6047528,68.5398663 C46.6998425,68.5398663 48.0978728,68.1045174 49.6791004,67.4206221 L51.7464659,75.2558547 C49.3751363,76.6859128 46.0908908,77.494343 42.8685639,77.494343 C36.4832701,77.5566105 31.8613777,73.7007384 31.8613777,66.7367267 L31.8613777,52.9866105" id="Fill-11"></path>
                <path d="M194.07271,60.9685116 C194.07271,55.9939186 191.21473,52.5739186 186.957697,52.5739186 C182.822966,52.5739186 179.963964,55.9939186 179.963964,60.9685116 C179.963964,65.9431047 182.822966,69.3013605 186.957697,69.3013605 C191.21473,69.3013605 194.07271,65.9431047 194.07271,60.9685116 M204.958106,61.2175814 C204.958106,71.4775814 198.998566,78.255314 189.877084,78.255314 C185.680946,78.255314 182.27491,76.576186 179.963964,73.5297907 L179.963964,89.9458953 L169.139463,89.9458953 L169.139463,44.241593 L179.963964,44.241593 L179.963964,48.5945581 C182.27491,45.5471163 185.559155,43.8679884 189.633503,43.8679884 C198.816393,43.8679884 204.958106,50.7707791 204.958106,61.2175814" id="Fill-13"></path>
                <path d="M0.409584,72.0279419 L4.77766124,64.793407 C8.59205297,67.3730581 12.7753978,68.6937558 16.2203247,68.6937558 C18.2508461,68.6937558 19.1734847,68.0648023 19.1734847,66.869686 L19.1734847,66.7435814 C19.1734847,65.4223605 17.3282074,64.8567209 13.8213619,63.8499767 C7.23854262,62.0886977 2.00923366,59.8240465 2.00923366,52.9667791 L2.00923366,52.8406744 C2.00923366,45.6066628 7.66941434,41.5807326 15.359093,41.5807326 C20.2194488,41.5807326 25.2645371,43.0270116 29.0784171,45.5438721 L25.0798047,53.0923605 C21.6343661,51.142186 17.881893,49.9470698 15.2362792,49.9470698 C13.4518971,49.9470698 12.5292585,50.6393372 12.5292585,51.5827674 L12.5292585,51.7083488 C12.5292585,53.0295698 14.4364543,53.6590465 17.9432999,54.7280581 C24.5261192,56.6154419 29.7554281,58.9428837 29.7554281,65.5484651 L29.7554281,65.6740465 C29.7554281,73.1602674 24.2799799,77.0606163 16.1589178,77.0606163 C10.5606557,77.0606163 5.02380055,75.4249186 0.409584,72.0279419" id="Fill-15"></path>
                <path d="M274.075559,57.0139535 C274.075559,53.1109884 271.613143,50.4659302 267.919006,50.4659302 C264.347683,50.4659302 262.008592,53.1109884 261.270174,57.0139535 L274.075559,57.0139535 Z M284.664667,62.9947674 L261.515802,62.9947674 C262.562278,66.8344186 265.332752,68.9745349 269.088807,68.9745349 C271.920689,68.9745349 274.691163,67.7783721 276.907441,65.5121512 L282.633634,71.3673837 C279.246532,75.2708721 274.25978,77.4109884 268.103738,77.4109884 C257.206573,77.4109884 250.495311,70.5490116 250.495311,60.1618605 C250.495311,49.5852907 257.452201,42.5972093 267.857599,42.5972093 C279.493183,42.5972093 285.403596,50.5925581 284.664667,62.9947674 Z" id="Fill-17"></path>
                <path d="M309.905255,57.0093488 C309.905255,53.1058605 307.442327,50.4613256 303.748702,50.4613256 C300.176868,50.4613256 297.837777,53.1058605 297.099359,57.0093488 L309.905255,57.0093488 Z M320.494363,62.9896395 L297.344986,62.9896395 C298.391462,66.829814 301.161937,68.9699302 304.918503,68.9699302 C307.749873,68.9699302 310.520348,67.7737674 312.737137,65.5070233 L318.462818,71.3627791 C315.075716,75.2657442 310.088964,77.4058605 303.932923,77.4058605 C293.035757,77.4058605 286.324495,70.544407 286.324495,60.1572558 C286.324495,49.580686 293.281897,42.5926047 303.686783,42.5926047 C315.322879,42.5926047 321.233292,50.5879535 320.494363,62.9896395 Z" id="Fill-19"></path>
                <polygon id="Fill-21" points="354.812016 44.4169884 341.570642 44.4169884 333.447022 53.8392558 333.447022 32.9147791 322.488449 32.9147791 322.488449 77.4213488 333.447022 77.4213488 333.447022 68.1675698 333.447022 65.2619302 341.960576 76.9598372 354.201529 76.9598372 341.960576 59.6678023"></polygon>
                <polygon id="Fill-23" points="203.351445 44.065936 214.742425 44.065936 218.787604 59.905936 222.592273 44.065936 232.925007 44.065936 236.791594 60.0320407 240.950888 44.065936 252.15867 44.065936 242.267043 77.0802384 232.177378 77.0802384 227.727936 59.4030872 223.15517 77.0802384 213.127423 77.0802384"></polygon>
                <polygon id="Fill-25" points="18.3999113 24.306907 6.88970028 8.46743023 6.88970028 24.306907 3.24878303 24.306907 3.24878303 2.21923256 6.82829338 2.21923256 18.3999113 18.0906279 18.3999113 2.21923256 21.9794217 2.21923256 21.9794217 24.306907"></polygon>
                <path d="M36.5156622,18.4064651 L36.5156622,16.8602442 L32.0718498,16.8602442 C29.7578332,16.8602442 28.6780953,17.4912907 28.6780953,19.1003023 C28.6780953,20.6151279 29.8811588,21.5936163 31.8564139,21.5936163 C34.3863781,21.5936163 36.3309298,20.2362907 36.5156622,18.4064651 Z M36.5468774,22.2555349 C35.3740057,23.7384419 33.4918843,24.4647209 31.1154374,24.4647209 C27.5671422,24.4647209 25.345236,22.2241395 25.345236,19.2583256 C25.345236,16.1972791 27.5978457,14.2413488 31.5478443,14.2094302 L36.5156622,14.2094302 L36.5156622,13.7050116 C36.5156622,11.5910581 35.1887615,10.3284419 32.5968788,10.3284419 C31.023327,10.3284419 29.387345,10.8961744 27.7518746,12.0321628 L26.3016484,9.50797674 C28.5849615,8.11977907 30.251647,7.39402326 33.3685588,7.39402326 C37.5959119,7.39402326 39.971847,9.60268605 40.0025505,13.2942558 L40.0337657,24.3066977 L36.5468774,24.3066977 L36.5468774,22.2555349 Z" id="Fill-27"></path>
                <path d="M54.6618607,9.06655814 L53.3656634,11.7487674 C51.9154372,10.833593 50.0947228,10.2653372 48.6444966,10.2653372 C47.2556772,10.2653372 46.2373462,10.7388837 46.2373462,11.9376628 C46.2373462,15.0301047 54.9704303,13.3577791 54.9397269,19.4474302 C54.9397269,22.8867907 51.9461407,24.4330116 48.6444966,24.4330116 C46.2373462,24.4330116 43.6761669,23.6130698 42.0406966,22.0982442 L43.3061903,19.5107442 C44.7257131,20.8047558 47.0090262,21.5933023 48.7985255,21.5933023 C50.3106703,21.5933023 51.4835421,21.0569651 51.4835421,19.7948721 C51.4835421,16.3555116 42.84308,18.2800465 42.8737834,12.2217907 C42.8737834,8.81434884 45.7747476,7.36231395 48.9223628,7.36231395 C50.9897283,7.36231395 53.1804193,7.99336047 54.6618607,9.06655814" id="Fill-29"></path>
                <path d="M73.6406343,13.8627209 L73.6406343,24.306907 L70.0918274,24.306907 L70.0918274,14.8726047 C70.0918274,12.3478953 68.6108978,10.8016744 66.1423406,10.8016744 C63.210673,10.833593 61.4518771,13.0736512 61.4518771,16.0399884 L61.4518771,24.306907 L57.9030702,24.306907 L57.9030702,0.894348837 L61.4518771,0.894348837 L61.4518771,10.8016744 C62.6242371,8.43551163 64.7223061,7.39423256 67.5306481,7.39423256 C71.3573212,7.39423256 73.6406343,9.85510465 73.6406343,13.8627209" id="Fill-31"></path>
                <polygon id="Fill-33" points="80.8942217 24.306907 74.5370727 7.52033721 78.2399086 7.52033721 82.8070465 20.7414419 87.3127775 7.52033721 90.8615844 7.52033721 84.5663541 24.306907"></polygon>
                <path d="M92.5601503,24.3068023 L96.0777421,24.3068023 L96.0777421,7.52023256 L92.5601503,7.52023256 L92.5601503,24.3068023 Z M96.3863117,2.72406977 C96.3863117,3.98616279 95.4913062,4.90133721 94.3189462,4.90133721 C93.1460745,4.90133721 92.251069,3.98616279 92.251069,2.72406977 C92.251069,1.43005814 93.1460745,0.514883721 94.3189462,0.514883721 C95.4913062,0.514883721 96.3863117,1.43005814 96.3863117,2.72406977 Z" id="Fill-35"></path>
                <polygon id="Fill-37" points="100.706799 24.3068023 104.255606 24.3068023 104.255606 0.894244186 100.706799 0.894244186"></polygon>
                <polygon id="Fill-38" points="109.039714 24.3068023 112.588521 24.3068023 112.588521 0.894244186 109.039714 0.894244186"></polygon>
                <path d="M128.573504,14.6511628 C128.450179,11.9375581 126.691383,10.2971512 124.006366,10.2971512 C121.414483,10.2971512 119.593769,11.9694767 119.192577,14.6511628 L128.573504,14.6511628 Z M131.659201,17.3019767 L119.254496,17.3019767 C119.809717,19.8894767 121.753757,21.4984884 124.346151,21.4984884 C126.13565,21.4984884 127.771632,20.8046512 128.974696,19.5425581 L130.857329,21.5937209 C129.252562,23.3916279 126.90733,24.432907 124.068285,24.432907 C119.007845,24.432907 115.674986,20.9935465 115.674986,15.9451744 C115.674986,10.8648837 119.099955,7.42552326 123.975663,7.39412791 C129.746376,7.39412791 132.091608,11.2437209 131.659201,17.3019767 Z" id="Fill-39"></path>
                <polygon id="Fill-1" points="363.476632 45 363.476632 46.3536628 361.634937 46.3536628 361.634937 51.2853488 360.031193 51.2853488 360.031193 46.3536628 358.206897 46.3536628 358.206897 45"></polygon>
                <polygon id="Fill-2" points="365.590564 45 367.221429 48.6669767 368.852294 45 370.605461 45 370.605461 51.2853488 369.185426 51.2853488 369.176727 47.3038953 367.747481 50.6574419 366.694865 50.6574419 365.265619 47.3038953 365.265619 51.2853488 363.835862 51.2853488 363.835862 45"></polygon>
            </g>
            <g id="globe">
                <path d="M17.141203,24.4338628 C22.6038697,16.5020199 31.6231424,11.7672346 41.2678091,11.7672346 C42.3506576,11.7672346 43.2279606,12.6410251 43.2279606,13.7190251 C43.2279606,14.7975382 42.3506576,15.6713288 41.2678091,15.6713288 C32.9161727,15.6713288 25.1054455,19.7729623 20.3737788,26.642711 C19.9941121,27.1942817 19.3800515,27.490334 18.7556879,27.490334 C18.3739606,27.490334 17.9881121,27.3800199 17.6486273,27.1475906 C16.7558697,26.5385539 16.529203,25.322533 17.141203,24.4338628 Z M46.1493848,19.8237581 C47.2518091,19.8237581 48.1461121,20.7139675 48.1461121,21.8124911 C48.1461121,22.9099885 47.2518091,23.7996848 46.1493848,23.7996848 C45.0469606,23.7996848 44.1536879,22.9099885 44.1536879,21.8124911 C44.1536879,20.7139675 45.0469606,19.8237581 46.1493848,19.8237581 Z M56.7965364,17.0818105 C58.6902333,17.0818105 60.2253848,18.6103026 60.2253848,20.4969309 C60.2253848,22.3835592 58.6902333,23.9125644 56.7965364,23.9125644 C54.9023242,23.9125644 53.3671727,22.3835592 53.3671727,20.4969309 C53.3671727,18.6103026 54.9023242,17.0818105 56.7965364,17.0818105 Z M62.4307485,26.3841141 L64.3909,26.3841141 L64.3909,24.4318105 L66.3505364,24.4318105 L66.3505364,26.3841141 L68.311203,26.3841141 L68.311203,28.3359047 L66.3505364,28.3359047 L66.3505364,30.2887215 L64.3909,30.2887215 L64.3909,28.3359047 L62.4307485,28.3359047 L62.4307485,26.3841141 Z M15.5014758,44.6013393 L21.3216576,44.6013393 L21.3216576,51.5772974 L23.4172939,51.5772974 L23.4172939,35.9773393 L24.9411121,35.9773393 L24.9411121,31.1235173 L24.9411121,29.4513602 L24.9411121,25.9813393 L26.9646273,25.9813393 L26.9646273,28.424156 L34.7485667,28.424156 L34.7485667,25.9813393 L36.7715667,25.9813393 L36.7715667,29.4513602 L36.7715667,31.1235173 L36.7715667,35.9773393 L38.2959,35.9773393 L38.2959,51.5772974 L41.022597,51.5772974 L41.022597,42.2672974 L43.0847485,38.8444806 L49.3850515,38.8444806 L51.447203,42.2672974 L51.447203,51.5772974 L54.0585061,51.5772974 L54.0585061,44.4032869 L57.4950818,44.4032869 L57.4950818,42.0071613 L59.6705667,42.0071613 L59.6705667,37.6715592 L61.6193848,37.6715592 L61.6193848,42.0071613 L61.6193848,43.1482712 L61.6193848,51.5772974 L63.7145061,51.5772974 L63.7145061,44.6013393 L69.3966273,44.6013393 L69.3966273,52.9554545 L75.7154758,52.9554545 C76.9199,49.6450042 77.5772333,46.0025853 77.5772333,42.069245 C77.5772333,22.751444 61.8542939,7.09145445 42.4588394,7.09145445 C23.0633848,7.09145445 7.3208697,22.751444 7.3208697,42.069245 C7.3208697,46.0020723 7.9689303,49.6450042 9.16665758,52.9554545 L15.5014758,52.9554545 L15.5014758,44.6013393 Z" id="Fill-55"></path>
                <path d="M42.4492576,68.5875832 C32.6557121,68.5875832 23.7425606,65.3664105 17.0759848,60.094934 L67.8220152,60.094934 C61.1554394,65.3664105 52.242803,68.5875832 42.4492576,68.5875832 Z M35.0619848,33.5394995 L33.3315909,36.5369654 L28.3815,36.5369654 L26.6511061,33.5394995 L35.0619848,33.5394995 Z M42.7748333,52.2559602 L43.8056515,52.2559602 L43.8056515,44.2635728 L42.7748333,44.2635728 L42.7748333,52.2559602 Z M45.3021667,56.2524105 L47.1685606,56.2524105 L47.1685606,44.2635728 L45.3021667,44.2635728 L45.3021667,56.2524105 Z M48.6635303,52.2559602 L49.6943485,52.2559602 L49.6943485,44.2635728 L48.6635303,44.2635728 L48.6635303,52.2559602 Z" id="Fill-56"></path>
                <polygon id="Fill-57" points="56.4801818 54.1975916 59.0456364 54.1975916 59.0456364 47.3863351 56.4801818 47.3863351"></polygon>
                <path d="M33.9570879,31.0529162 C33.3332394,30.6665602 32.1798152,30.405911 30.8563909,30.405911 C29.5334818,30.405911 28.3800576,30.6665602 27.7562091,31.0529162 L27.7562091,31.7112094 L33.9570879,31.7112094 L33.9570879,31.0529162 Z" id="Fill-58"></path>
                <polygon id="Fill-59" points="33.2283545 54.7116555 33.2283545 44.6782 34.2318697 44.6782 34.2318697 41.7710377 35.2353848 41.7710377 35.2353848 39.0593623 26.4778091 39.0593623 26.4778091 41.7710377 27.4813242 41.7710377 27.4813242 44.6782 28.4848394 44.6782 28.4848394 54.7116555"></polygon>
                <path d="M67.2155273,71.0052073 L66.7158303,71.3653958 C56.5853758,74.8415738 42.9709515,74.5111445 42.7592242,74.5219194 C42.5464667,74.5111445 28.6744667,75.1714901 18.5172242,71.6070607 L17.6790727,71.0026419 C12.8052242,67.4843906 9.08170909,63.025134 6.64040606,57.8988618 C4.4268,53.2497623 3.26667879,48.0516576 3.26667879,42.5020869 C3.26667879,20.9836471 20.8436485,3.47705026 42.4485879,3.47705026 C64.0540424,3.47705026 81.6310121,20.9836471 81.6310121,42.5020869 C81.6310121,48.0521707 80.4714061,53.2502754 78.2578,57.8993749 C75.8154667,63.0271864 72.0914364,67.486956 67.2155273,71.0052073 Z M25.394497,85.8642649 L22.5462242,94.056244 C19.4022545,93.4944115 17.0346182,92.9146209 15.6638,92.5457099 L18.3657697,84.7744639 L21.7595879,75.0124325 C24.0545879,75.6014586 26.4495273,76.0001288 28.7311333,76.2684743 L25.394497,85.8642649 Z M42.4485879,0.223039791 C19.0421636,0.223039791 0.000103030303,19.1893749 0.000103030303,42.5020869 C0.000103030303,50.6745686 2.30592121,58.1528408 6.64040606,64.4032911 C8.83701212,67.5705895 11.5534061,70.4233644 14.7576485,72.8892702 L12.7058,78.2885058 L8.84370909,88.4492073 C8.44086061,89.5118147 8.49443636,90.7083382 8.99310303,91.7355424 C9.49331515,92.7581288 10.404103,93.5395634 11.4946788,93.8823068 C12.0330121,94.0506 24.8875879,97.9998461 42.5057697,97.9998461 C60.9193455,97.9998461 70.8535273,94.8628199 73.4591636,93.9012911 L73.5101636,93.8817937 C74.6028,93.5380241 75.5151333,92.7514586 76.0143152,91.7206628 C76.5104061,90.6924325 76.5593455,89.4918042 76.1487697,88.4261183 L72.2300121,78.2885058 L70.142103,72.8872178 C73.3458303,70.4223382 76.0611939,67.5700764 78.2578,64.4032911 C82.5922848,58.1533539 84.898103,50.6750817 84.898103,42.5020869 C84.898103,19.1893749 65.8555273,0.223039791 42.4485879,0.223039791 Z" id="Fill-60"></path>
            </g>
        </g>
    </g>
</svg>