<?xml version="1.0" encoding="UTF-8"?>
<svg width="424px" height="67px" viewBox="0 0 424 67" version="1.1" xmlns="http://www.w3.org/2000/svg" xmlns:xlink="http://www.w3.org/1999/xlink">
    <!-- Generator: Sketch 48.2 (47327) - http://www.bohemiancoding.com/sketch -->
    <title>NSW color Copy</title>
    <desc>Created with Sketch.</desc>
    <defs></defs>
    <g id="Desktop-HD" stroke="none" stroke-width="1" fill="none" fill-rule="evenodd" transform="translate(-80.000000, -55.000000)">
        <g id="NSW-color-Copy" transform="translate(80.000000, 55.000000)">
            <g id="NSW-grey" transform="translate(58.000000, 8.000000)" fill="#2A3842">
                <path d="M45.9095772,40.6166047 L45.9095772,38.7982326 L41.8959124,38.7982326 C40.0026683,38.7982326 39.0560462,39.4949767 39.0560462,40.9649767 C39.0560462,42.3968837 40.0785,43.3251163 41.8200807,43.3251163 C43.8267538,43.3251163 45.49314,42.2031628 45.9095772,40.6166047 Z M52.5356131,34.0776279 L52.5356131,47.6973488 L45.9095772,47.6973488 L45.9095772,45.3372093 C44.5844338,47.0784186 42.501929,48.0066512 39.7378945,48.0066512 C35.3457083,48.0066512 32.7327,45.2984651 32.7327,41.4683256 C32.7327,37.4828837 35.4967345,35.199907 40.570769,35.1224186 L45.9095772,35.1224186 L45.9095772,34.8906047 C45.9095772,32.9175814 44.5844338,31.7562326 42.00966,31.7562326 C40.3053579,31.7562326 38.0715083,32.3367442 35.8752559,33.4199535 L34.0199276,28.7771628 C37.2386338,27.3068372 40.1922476,26.4945116 43.56198,26.4945116 C49.2037966,26.4945116 52.4976972,29.280186 52.5356131,34.0776279 Z" id="Fill-3"></path>
                <path d="M81.6414538,46.8258651 C80.1649655,47.7156791 78.1200579,48.2187023 76.1137034,48.2187023 C72.1376359,48.2574465 69.2601724,45.8582372 69.2601724,41.5250744 L69.2601724,32.5484698 L69.2601724,27.9828419 L69.2601724,22.2330744 L75.96204,22.2330744 L75.96204,27.9828419 L81.2629324,27.9828419 L81.2629324,32.9274465 L75.96204,32.9274465 L75.96204,40.4418651 C75.96204,41.9896791 76.643251,42.6857721 77.8173683,42.6470279 C78.4988979,42.6470279 79.3700069,42.3761442 80.3542262,41.9506093 L81.6414538,46.8258651 Z" id="Fill-5"></path>
                <path d="M67.648589,26.7396419 L67.648589,33.0461535 C63.9000166,32.6593628 61.4010745,34.3618279 61.060469,37.2634093 L61.060469,47.9424791 L54.3206855,47.9424791 L54.3206855,27.0105256 L61.060469,27.0105256 L61.060469,30.492293 C62.4614441,28.0937349 64.7708069,26.7396419 67.648589,26.7396419" id="Fill-7"></path>
                <path d="M103.426379,27.4477163 L103.426379,48.3796698 L96.6865953,48.3796698 L96.6865953,44.9747395 C95.2856201,47.4120419 93.0517705,48.6505535 90.1363912,48.6889721 C85.7059705,48.6889721 82.828507,45.5549256 82.828507,40.6799953 L82.828507,27.4477163 L89.5682905,27.4477163 L89.5682905,38.7066465 C89.5682905,41.0671116 90.8555181,42.498693 92.8621912,42.498693 C95.2477043,42.4596233 96.6865953,40.5253442 96.6865953,37.7780884 L96.6865953,27.4477163 L103.426379,27.4477163 Z" id="Fill-9"></path>
                <path d="M19.8382163,27.9828419 L19.8382163,22.2330744 L26.5400839,22.2330744 L26.5400839,27.9828419 L31.8409763,27.9828419 L31.8409763,32.9694465 L26.5400839,32.9694465 L26.5400839,40.4418651 C26.5400839,41.9896791 27.2212949,42.6857721 28.3954121,42.6470279 C29.0772604,42.6470279 29.9477321,42.3761442 30.9322701,41.9506093 L32.2194977,46.8258651 C30.7430094,47.7156791 28.6981018,48.2187023 26.6917473,48.2187023 C22.7159983,48.2574465 19.8382163,45.8582372 19.8382163,41.5250744 L19.8382163,32.9694465" id="Fill-11"></path>
                <path d="M120.837725,37.9359628 C120.837725,34.8406605 119.058228,32.7126605 116.407623,32.7126605 C113.833168,32.7126605 112.053034,34.8406605 112.053034,37.9359628 C112.053034,41.0312651 113.833168,43.1208465 116.407623,43.1208465 C119.058228,43.1208465 120.837725,41.0312651 120.837725,37.9359628 M127.615424,38.0909395 C127.615424,44.4749395 123.904768,48.6921953 118.225354,48.6921953 C115.612664,48.6921953 113.491925,47.6474047 112.053034,45.7518698 L112.053034,55.9663349 L105.31325,55.9663349 L105.31325,27.5281023 L112.053034,27.5281023 L112.053034,30.236614 C113.491925,28.3404279 115.536833,27.2956372 118.07369,27.2956372 C123.791339,27.2956372 127.615424,31.590707 127.615424,38.0909395" id="Fill-13"></path>
                <path d="M0.255024,44.817386 L2.97477021,40.3158977 C5.34976883,41.921014 7.95449297,42.7427814 10.0994474,42.7427814 C11.3637343,42.7427814 11.9382074,42.3514326 11.9382074,41.6078047 L11.9382074,41.5293395 C11.9382074,40.7072465 10.7892612,40.355293 8.60575366,39.7288744 C4.5070171,38.6329674 1.25103228,37.2238512 1.25103228,32.957107 L1.25103228,32.8786419 C1.25103228,28.3774791 4.77529572,25.8724558 9.56320883,25.8724558 C12.5894681,25.8724558 15.7307495,26.7723628 18.1054295,28.3384093 L15.6157274,33.0352465 C13.4704543,31.8218047 11.1340088,31.0781767 9.48673986,31.0781767 C8.37570952,31.0781767 7.80123641,31.5089209 7.80123641,32.0959442 L7.80123641,32.1740837 C7.80123641,32.9961767 8.98873572,33.3878512 11.1722433,34.053014 C15.2709799,35.227386 18.5269647,36.6755721 18.5269647,40.7857116 L18.5269647,40.8638512 C18.5269647,45.5219442 15.1177233,47.9488279 10.061213,47.9488279 C6.57550262,47.9488279 3.12802676,46.9310605 0.255024,44.817386" id="Fill-15"></path>
                <path d="M170.65082,35.4753488 C170.65082,33.0468372 169.117617,31.4010233 166.817494,31.4010233 C164.593841,31.4010233 163.137425,33.0468372 162.677656,35.4753488 L170.65082,35.4753488 Z M177.244038,39.1967442 L162.830594,39.1967442 C163.482173,41.5858605 165.207185,42.9174884 167.545861,42.9174884 C169.309108,42.9174884 171.034121,42.1732093 172.414067,40.7631163 L175.979432,44.4063721 C173.870482,46.8352093 170.765523,48.1668372 166.932516,48.1668372 C160.147489,48.1668372 155.968778,43.8971628 155.968778,37.4340465 C155.968778,30.8530698 160.300427,26.5049302 166.77926,26.5049302 C174.024057,26.5049302 177.704126,31.479814 177.244038,39.1967442 Z" id="Fill-17"></path>
                <path d="M192.959876,35.4724837 C192.959876,33.0436465 191.426354,31.3981581 189.12655,31.3981581 C186.902578,31.3981581 185.446163,33.0436465 184.986393,35.4724837 L192.959876,35.4724837 Z M199.553094,39.1935535 L185.139331,39.1935535 C185.79091,41.5829953 187.515923,42.9146233 189.854917,42.9146233 C191.617846,42.9146233 193.342858,42.1703442 194.723123,40.7599256 L198.28817,44.403507 C196.179219,46.8320186 193.074261,48.1636465 189.241254,48.1636465 C182.456226,48.1636465 178.277516,43.8942977 178.277516,37.4311814 C178.277516,30.8502047 182.609483,26.5020651 189.087997,26.5020651 C196.333113,26.5020651 200.013182,31.4769488 199.553094,39.1935535 Z" id="Fill-19"></path>
                <polygon id="Fill-21" points="220.920689 27.6372372 212.67606 27.6372372 207.617957 33.4999814 207.617957 20.480307 200.794695 20.480307 200.794695 48.1732837 207.617957 48.1732837 207.617957 42.4153767 207.617957 40.6074233 212.918849 47.8861209 220.540575 47.8861209 212.918849 37.1266326"></polygon>
                <polygon id="Fill-23" points="126.615051 27.4188047 133.707547 27.4188047 136.226244 37.2748047 138.595189 27.4188047 145.028778 27.4188047 147.436276 37.3532698 150.026025 27.4188047 157.004455 27.4188047 150.845517 47.9610372 144.563273 47.9610372 141.792866 36.9619209 138.945672 47.9610372 132.701981 47.9610372"></polygon>
                <polygon id="Fill-25" points="11.4565486 15.1242977 4.28981338 5.26862326 4.28981338 15.1242977 2.02282717 15.1242977 2.02282717 1.38085581 4.2515789 1.38085581 11.4565486 11.2563907 11.4565486 1.38085581 13.6853003 1.38085581 13.6853003 15.1242977"></polygon>
                <path d="M22.736167,11.4529116 L22.736167,10.4908186 L19.969265,10.4908186 C18.5284622,10.4908186 17.8561726,10.8834698 17.8561726,11.8846326 C17.8561726,12.8271907 18.6052498,13.4360279 19.8351257,13.4360279 C21.4103863,13.4360279 22.621145,12.5914698 22.736167,11.4529116 Z M22.7556029,13.8478884 C22.0253243,14.770586 20.8534374,15.222493 19.3737629,15.222493 C17.164447,15.222493 15.780996,13.8283535 15.780996,11.9829581 C15.780996,10.078307 17.1835643,8.86128372 19.6429974,8.84142326 L22.736167,8.84142326 L22.736167,8.52756279 C22.736167,7.21221395 21.9099836,6.42658605 20.2961698,6.42658605 C19.3164112,6.42658605 18.2977808,6.77984186 17.2794691,7.48667907 L16.3764981,5.91607442 C17.7981836,5.05230698 18.8359312,4.60072558 20.7766498,4.60072558 C23.4087753,4.60072558 24.8881312,5.97500465 24.9072484,8.2719814 L24.9266843,15.1241674 L22.7556029,15.1241674 L22.7556029,13.8478884 Z" id="Fill-27"></path>
                <path d="M34.0347434,5.64141395 L33.2276772,7.31034419 C32.3247062,6.74090233 31.1910538,6.38732093 30.2880828,6.38732093 C29.4233462,6.38732093 28.789291,6.68197209 28.789291,7.42787907 C28.789291,9.35206512 34.2268717,8.31150698 34.2077545,12.1006233 C34.2077545,14.2406698 32.3438234,15.2027628 30.2880828,15.2027628 C28.789291,15.2027628 27.1945945,14.6925767 26.1762828,13.7500186 L26.9642317,12.1400186 C27.8480855,12.9451814 29.269771,13.4358326 30.3839876,13.4358326 C31.3255117,13.4358326 32.0557903,13.1021116 32.0557903,12.3168093 C32.0557903,10.1767628 26.67588,11.3742512 26.6949972,7.60466977 C26.6949972,5.48448372 28.5012579,4.58099535 30.4610938,4.58099535 C31.7483214,4.58099535 33.1123366,4.97364651 34.0347434,5.64141395" id="Fill-29"></path>
                <path d="M45.8517157,8.62569302 L45.8517157,15.1242977 L43.6420812,15.1242977 L43.6420812,9.25406512 C43.6420812,7.68313488 42.719993,6.72104186 41.1829668,6.72104186 C39.3575888,6.74090233 38.2624895,8.13471628 38.2624895,9.98043721 L38.2624895,15.1242977 L36.052855,15.1242977 L36.052855,0.556483721 L38.2624895,0.556483721 L38.2624895,6.72104186 C38.9924495,5.24876279 40.2987943,4.60085581 42.0473847,4.60085581 C44.4300302,4.60085581 45.8517157,6.13206512 45.8517157,8.62569302" id="Fill-31"></path>
                <polygon id="Fill-33" points="50.3681003 15.1242977 46.4098754 4.67932093 48.7154148 4.67932093 51.5591044 12.905786 54.3645596 4.67932093 56.5741941 4.67932093 52.6545223 15.1242977"></polygon>
                <path d="M57.6317917,15.1242326 L59.8219903,15.1242326 L59.8219903,4.67925581 L57.6317917,4.67925581 L57.6317917,15.1242326 Z M60.0141186,1.69497674 C60.0141186,2.48027907 59.456851,3.04972093 58.726891,3.04972093 C57.9966124,3.04972093 57.4393448,2.48027907 57.4393448,1.69497674 C57.4393448,0.889813953 57.9966124,0.320372093 58.726891,0.320372093 C59.456851,0.320372093 60.0141186,0.889813953 60.0141186,1.69497674 Z" id="Fill-35"></path>
                <polygon id="Fill-37" points="62.7042331 15.1242326 64.9138676 15.1242326 64.9138676 0.556418605 62.7042331 0.556418605"></polygon>
                <polygon id="Fill-38" points="67.8926524 15.1242326 70.1022869 15.1242326 70.1022869 0.556418605 67.8926524 0.556418605"></polygon>
                <path d="M80.0552007,9.11627907 C79.9784131,7.42781395 78.8833138,6.40711628 77.211511,6.40711628 C75.5976972,6.40711628 74.4640448,7.44767442 74.2142462,9.11627907 L80.0552007,9.11627907 Z M81.9764834,10.7656744 L74.2527993,10.7656744 C74.5985028,12.3756744 75.8089428,13.3768372 77.4230752,13.3768372 C78.5372917,13.3768372 79.5559221,12.9451163 80.3049993,12.159814 L81.4772048,13.436093 C80.4780103,14.5547907 79.0177717,15.2026977 77.2500641,15.2026977 C74.0992241,15.2026977 72.0240476,13.0626512 72.0240476,9.92144186 C72.0240476,6.76037209 74.1565759,4.62032558 77.1923938,4.6007907 C80.7854793,4.6007907 82.2457179,6.99609302 81.9764834,10.7656744 Z" id="Fill-39"></path>
                <polygon id="Fill-1" points="226.315639 28 226.315639 28.8422791 225.168923 28.8422791 225.168923 31.9108837 224.170366 31.9108837 224.170366 28.8422791 223.034483 28.8422791 223.034483 28"></polygon>
                <polygon id="Fill-2" points="227.631861 28 228.647305 30.2816744 229.662749 28 230.754343 28 230.754343 31.9108837 229.870171 31.9108837 229.864754 29.4335349 228.974847 31.520186 228.319444 31.520186 227.429537 29.4335349 227.429537 31.9108837 226.53931 31.9108837 226.53931 28"></polygon>
            </g>
            <polygon id="Fill-40" fill="#2A3842" points="304 64 304.5 64 304.5 12 304 12"></polygon>
            <g id="techstars-color" transform="translate(321.000000, 0.000000)">
                <polygon id="Fill-41" fill="#6D91A3" points="37.7705133 38.8317435 42.1076398 24.6568739 33.0550843 17.5697628 9.62735278 40.9469367 34.8019515 40.9469367 37.7508034 38.8964778"></polygon>
                <polygon id="Fill-42" fill="#6D91A3" points="66.8088201 17.5702483 57.757854 24.6570357 62.1080145 38.8927556 65.0622707 40.9470986 90.2362336 40.9470986"></polygon>
                <polygon id="Fill-43" fill="#0DB04B" points="62.5873142 9.51765749 53.0321568 9.49402947 49.931984 0.156754106 46.8299037 9.49402947 37.2772895 9.51765749 44.9155025 15.4981357 42.1100241 24.6661309 49.931984 19.2106478 57.7510827 24.6661309 54.9500549 15.4981357"></polygon>
                <polygon id="Fill-44" fill="#0DB04B" points="49.964696 30.4475836 49.9319522 30.4252502 34.8020787 40.9468396 65.0621435 40.9468396"></polygon>
                <path d="M0.249170988,52.4973807 L0.249170988,51.0088155 L2.71672037,51.0088155 L2.71672037,47.7831053 L4.54465247,46.9765159 L4.54465247,51.0088155 L7.65181914,51.0088155 L7.65181914,52.4973807 L4.54465247,52.4973807 L4.54465247,62.547057 C4.54465247,64.625028 4.7576463,65.1221874 6.21999198,65.1221874 C6.82909074,65.1221874 7.2557142,65.091115 7.65181914,65.02897 L7.65181914,66.6418251 C7.10343951,66.7042937 6.49434074,66.7350425 5.91512469,66.7350425 C3.44789321,66.7350425 2.71672037,65.6183758 2.71672037,63.6951198 L2.71672037,52.4973807 L0.249170988,52.4973807 Z" id="Fill-45" fill="#6D91A3"></path>
                <path d="M18.4673278,57.7402763 C18.4673278,54.2663101 17.919584,52.1870444 14.9945747,52.1870444 C12.0705191,52.1870444 11.5218216,54.2663101 11.5218216,57.7402763 L18.4673278,57.7402763 Z M11.5218216,59.2288415 L11.5218216,60.4377546 C11.5218216,62.6092667 12.1004019,65.4938271 14.9945747,65.4938271 C17.2799667,65.4938271 18.4069265,64.0052618 18.3760901,61.8962184 L20.2952599,61.8962184 C20.082266,65.6805855 18.0721765,66.9833633 14.9945747,66.9833633 C12.34455,66.9833633 9.69388951,65.8974454 9.69388951,61.1520976 L9.69388951,57.3052618 C9.69388951,52.7767739 11.552658,50.6984792 14.9945747,50.6984792 C20.2952599,50.6984792 20.2952599,54.5754164 20.2952599,59.2288415 L11.5218216,59.2288415 Z" id="Fill-46" fill="#6D91A3"></path>
                <path d="M30.4724546,55.5065222 C30.5636923,53.55187 29.8627201,52.1869473 27.7613929,52.1869473 C26.6337972,52.1869473 25.6896306,52.8391454 25.2935256,53.9872082 C25.0490596,54.6999329 24.8669022,56.8403725 24.8669022,58.9183435 C24.8669022,61.7404353 24.8669022,65.49373 27.6997201,65.49373 C30.1071861,65.49373 30.4114176,63.9430198 30.5026552,62.0508362 L32.3302694,62.0508362 C32.4825441,66.2692469 29.5584886,66.9832662 28.1266614,66.9832662 C22.9172139,66.9832662 22.9172139,62.794957 22.9172139,58.9183435 C22.9172139,57.3676333 22.977933,54.9171164 23.374038,53.7389522 C24.1659299,51.5052952 25.9026244,50.6987058 28.0045873,50.6987058 C30.654612,50.6987058 32.4523435,52.2183435 32.3003867,55.5065222 L30.4724546,55.5065222 Z" id="Fill-47" fill="#6D91A3"></path>
                <path d="M35.4694806,66.6728652 L35.4694806,44.2780343 L37.2974127,44.2780343 L37.2974127,52.9323628 L37.3584497,52.9323628 C38.2418972,51.629585 39.430212,50.6983821 41.075033,50.6983821 C44.8831719,50.6983821 45.278959,53.5832662 45.278959,55.6301647 L45.278959,66.6728652 L43.4513448,66.6728652 L43.4513448,55.7233821 C43.4513448,53.8936671 42.7503725,52.1869473 40.618209,52.1869473 C38.9730701,52.1869473 37.2974127,53.3350101 37.2974127,56.8403725 L37.2974127,66.6728652 L35.4694806,66.6728652 Z" id="Fill-48" fill="#6D91A3"></path>
                <path d="M53.0794605,66.9832662 C49.7589821,66.9832662 48.4489111,65.339015 48.4787938,62.0197638 L50.3375623,62.0197638 C50.3375623,64.1598797 50.8252228,65.587271 53.171016,65.587271 C54.9379111,65.587271 55.791158,64.5638217 55.791158,62.8260295 C55.791158,58.732556 48.8748988,59.7874014 48.8748988,54.6067155 C48.8748988,51.7221551 50.8252228,50.6983821 53.5054481,50.6983821 C56.5528494,50.6983821 57.5272167,52.8391454 57.5272167,55.2275174 L55.7298031,55.2275174 C55.6382475,53.2414691 55.1200685,52.1869473 53.0486241,52.1869473 C51.7385531,52.1869473 50.7028309,53.0560053 50.7028309,54.4520005 C50.7028309,58.3596865 57.6187722,57.3054884 57.6187722,62.5470246 C57.6187722,65.49373 55.9431148,66.9832662 53.0794605,66.9832662" id="Fill-49" fill="#6D91A3"></path>
                <path d="M59.4787806,52.4973807 L59.4787806,51.0088155 L61.9456941,51.0088155 L61.9456941,47.7831053 L63.7736262,46.9765159 L63.7736262,51.0088155 L66.8807929,51.0088155 L66.8807929,52.4973807 L63.7736262,52.4973807 L63.7736262,62.547057 C63.7736262,64.625028 63.9866201,65.1221874 65.4496015,65.1221874 C66.0580645,65.1221874 66.4853238,65.091115 66.8807929,65.02897 L66.8807929,66.6418251 C66.3324133,66.7042937 65.7229966,66.7350425 65.1447343,66.7350425 C62.676867,66.7350425 61.9456941,65.6183758 61.9456941,63.6951198 L61.9456941,52.4973807 L59.4787806,52.4973807 Z" id="Fill-50" fill="#6D91A3"></path>
                <path d="M77.1480491,58.6702169 C74.5279071,58.763758 70.5684472,58.453357 70.5684472,62.2675019 C70.5684472,64.0363667 71.451259,65.4938594 73.3402281,65.4938594 C75.442509,65.4938594 77.1480491,63.5706034 77.1480491,61.5233812 L77.1480491,58.6702169 Z M77.270441,64.749415 L77.2090861,64.749415 C76.2347188,66.2379802 74.7421725,66.9833957 72.8528855,66.9833957 C70.1106694,66.9833957 68.6181231,65.0912121 68.6181231,62.361043 C68.6181231,56.8712507 74.0408824,57.4299077 77.1480491,57.1816517 L77.1480491,55.8791976 C77.1480491,53.583072 76.4782312,52.1870768 74.0408824,52.1870768 C72.3658608,52.1870768 71.0252713,53.0247386 71.0252713,54.8858498 L69.0746293,54.8858498 C69.2278577,51.8779705 71.512296,50.6985116 74.1937929,50.6985116 C75.7473762,50.6985116 78.9759812,50.8545213 78.9759812,54.8544536 L78.9759812,62.7339126 C78.9759812,63.8496082 78.9759812,64.842956 79.1594102,66.6729947 L77.270441,66.6729947 L77.270441,64.749415 Z" id="Fill-51" fill="#6D91A3"></path>
                <path d="M84.4914404,53.1181826 L84.5524775,53.1181826 C85.3141688,51.6296174 86.9291071,50.6984145 88.7875577,50.6984145 L88.7875577,52.5909217 C86.1979343,52.3740618 84.4914404,53.9558444 84.4914404,56.5921488 L84.4914404,66.6728976 L82.6635083,66.6728976 L82.6635083,51.0088155 L84.4914404,51.0088155 L84.4914404,53.1181826 Z" id="Fill-52" fill="#6D91A3"></path>
                <path d="M94.9421574,66.9832662 C91.6219969,66.9832662 90.3119259,65.339015 90.3421265,62.0197638 L92.2008951,62.0197638 C92.2008951,64.1598797 92.6882377,65.587271 95.033713,65.587271 C96.800608,65.587271 97.6538549,64.5638217 97.6538549,62.8260295 C97.6538549,58.732556 90.7375957,59.7874014 90.7375957,54.6067155 C90.7375957,51.7221551 92.6882377,50.6983821 95.3681451,50.6983821 C98.4155463,50.6983821 99.3899136,52.8391454 99.3899136,55.2275174 L97.5928179,55.2275174 C97.5009444,53.2414691 96.9830833,52.1869473 94.911321,52.1869473 C93.60125,52.1869473 92.5655278,53.0560053 92.5655278,54.4520005 C92.5655278,58.3596865 99.481787,57.3054884 99.481787,62.5470246 C99.481787,65.49373 97.8058117,66.9832662 94.9421574,66.9832662" id="Fill-53" fill="#6D91A3"></path>
                <path d="M100.859317,50.6233227 L101.204875,50.6233227 C101.311372,50.6204097 101.396888,50.5945159 101.462057,50.5449942 C101.527227,50.4951488 101.559335,50.4300908 101.559335,50.3491729 C101.559335,50.2400957 101.530406,50.1627382 101.473184,50.1171005 C101.415326,50.0711391 101.312644,50.0481585 101.165138,50.0481585 L100.859317,50.0481585 L100.859317,50.6233227 Z M100.859317,50.9123614 L100.859317,51.6749314 L100.54682,51.6749314 L100.54682,49.7597671 L101.158462,49.7597671 C101.384172,49.7597671 101.559971,49.8086415 101.684906,49.9073614 C101.809523,50.0057575 101.871832,50.1488203 101.871832,50.3368734 C101.871832,50.5223372 101.777415,50.663458 101.588582,50.7612068 C101.768196,50.8362986 101.859434,50.9897188 101.860706,51.2214676 L101.860706,51.3587043 C101.860706,51.4884966 101.873104,51.581714 101.898854,51.6390039 L101.898854,51.6749314 L101.577456,51.6749314 C101.556474,51.6208783 101.545983,51.5237768 101.545983,51.3852454 C101.545983,51.2460667 101.544076,51.1635304 101.539943,51.1379604 C101.515783,50.9936029 101.419459,50.9181874 101.249381,50.9123614 L100.859317,50.9123614 Z M99.866829,50.7421101 C99.866829,51.0004 99.9256407,51.2399169 100.0439,51.4600135 C100.162159,51.6801101 100.323017,51.8526271 100.525838,51.9772406 C100.728977,52.1018541 100.948329,52.1643227 101.184848,52.1643227 C101.422638,52.1643227 101.643579,52.1008831 101.847354,51.9740039 C102.051446,51.846801 102.211351,51.6742841 102.327385,51.4567768 C102.443101,51.2386222 102.501277,51.0004 102.501277,50.7421101 C102.501277,50.4847913 102.443101,50.2478638 102.327385,50.0306802 C102.211351,49.8138203 102.051446,49.6425981 101.847354,49.5166899 C101.643579,49.3911053 101.422638,49.3286367 101.184848,49.3286367 C100.948329,49.3286367 100.728659,49.390458 100.524885,49.5144242 C100.32111,49.6383903 100.16057,49.8099362 100.042946,50.0297092 C99.9253228,50.2491585 99.866829,50.4864097 99.866829,50.7421101 Z M99.6118722,50.7430812 C99.6118722,50.4394773 99.6808568,50.1575594 99.8194617,49.8973275 C99.957113,49.6370957 100.14849,49.4318879 100.392956,49.2823517 C100.637422,49.1331391 100.901598,49.0580473 101.184848,49.0580473 C101.468733,49.0580473 101.732273,49.1331391 101.976104,49.2823517 C102.219616,49.4318879 102.410675,49.6370957 102.548962,49.8973275 C102.686931,50.1575594 102.756233,50.4394773 102.756233,50.7430812 C102.756233,51.0392406 102.689792,51.3172744 102.556591,51.5755643 C102.423709,51.8341778 102.235193,52.0422986 101.990727,52.1992792 C101.745943,52.3565836 101.477317,52.4352357 101.184848,52.4352357 C100.893968,52.4352357 100.626613,52.3572309 100.381829,52.2018686 C100.137363,52.0461826 99.9478938,51.8387092 99.8137395,51.5800957 C99.6789494,51.3214821 99.6118722,51.0421536 99.6118722,50.7430812 Z" id="Fill-54" fill="#6D91A3"></path>
            </g>
            <g id="globe" transform="translate(0.000000, 6.000000)" fill="#EA6825">
                <path d="M10.6880442,15.208833 C14.0941776,10.2716654 19.7179594,7.32450314 25.7316927,7.32450314 C26.4068806,7.32450314 26.9539048,7.86839319 26.9539048,8.53939319 C26.9539048,9.21071257 26.4068806,9.75460262 25.7316927,9.75460262 C20.5242018,9.75460262 15.6539836,12.3076602 12.7036503,16.5837283 C12.466917,16.9270529 12.0840321,17.1113304 11.694723,17.1113304 C11.4567048,17.1113304 11.216117,17.0426654 11.0044382,16.8979901 C10.4477776,16.5188958 10.3064442,15.7619848 10.6880442,15.208833 Z M28.7754988,12.339278 C29.4628927,12.339278 30.020517,12.893388 30.020517,13.5771628 C30.020517,14.260299 29.4628927,14.8140895 28.7754988,14.8140895 C28.0881048,14.8140895 27.531123,14.260299 27.531123,13.5771628 C27.531123,12.893388 28.0881048,12.339278 28.7754988,12.339278 Z M35.4143109,10.6325555 C36.5950867,10.6325555 37.5522988,11.5839639 37.5522988,12.7582937 C37.5522988,13.9326236 36.5950867,14.8843513 35.4143109,14.8843513 C34.2332139,14.8843513 33.2760018,13.9326236 33.2760018,12.7582937 C33.2760018,11.5839639 34.2332139,10.6325555 35.4143109,10.6325555 Z M38.9274079,16.4227649 L40.14962,16.4227649 L40.14962,15.2075555 L41.3715109,15.2075555 L41.3715109,16.4227649 L42.5940442,16.4227649 L42.5940442,17.637655 L41.3715109,17.637655 L41.3715109,18.8531838 L40.14962,18.8531838 L40.14962,17.637655 L38.9274079,17.637655 L38.9274079,16.4227649 Z M9.66562606,27.7620581 L13.2946806,27.7620581 L13.2946806,32.1042361 L14.6013715,32.1042361 L14.6013715,22.3940581 L15.551517,22.3940581 L15.551517,19.3728016 L15.551517,18.3319691 L15.551517,16.1720581 L16.8132382,16.1720581 L16.8132382,17.6925869 L21.6667533,17.6925869 L21.6667533,16.1720581 L22.9281533,16.1720581 L22.9281533,18.3319691 L22.9281533,19.3728016 L22.9281533,22.3940581 L23.87862,22.3940581 L23.87862,32.1042361 L25.5787958,32.1042361 L25.5787958,26.3092361 L26.8646079,24.1787073 L30.7930321,24.1787073 L32.0788442,26.3092361 L32.0788442,32.1042361 L33.7070685,32.1042361 L33.7070685,27.6387806 L35.8498745,27.6387806 L35.8498745,26.1473147 L37.2063533,26.1473147 L37.2063533,23.4486236 L38.4214988,23.4486236 L38.4214988,26.1473147 L38.4214988,26.8575974 L38.4214988,32.1042361 L39.7278685,32.1042361 L39.7278685,27.7620581 L43.2708382,27.7620581 L43.2708382,32.9620686 L47.2108261,32.9620686 C47.96182,30.9014822 48.3716867,28.6342623 48.3716867,26.1859586 C48.3716867,14.1616131 38.5679715,4.41406859 26.4743352,4.41406859 C14.3806988,4.41406859 4.56477758,14.1616131 4.56477758,26.1859586 C4.56477758,28.6339429 4.96886242,30.9014822 5.71568061,32.9620686 L9.66562606,32.9620686 L9.66562606,27.7620581 Z" id="Fill-55"></path>
                <path d="M26.4683606,42.6922712 C20.361797,42.6922712 14.8041848,40.6872555 10.6473788,37.4060304 L42.2890212,37.4060304 C38.1322152,40.6872555 32.5749242,42.6922712 26.4683606,42.6922712 Z M21.8621788,20.8766272 L20.7832273,22.7423969 L17.6967,22.7423969 L16.6177485,20.8766272 L21.8621788,20.8766272 Z M26.6713667,32.5266691 L27.3141121,32.5266691 L27.3141121,27.5518157 L26.6713667,27.5518157 L26.6713667,32.5266691 Z M28.2472333,35.0142555 L29.4109848,35.0142555 L29.4109848,27.5518157 L28.2472333,27.5518157 L28.2472333,35.0142555 Z M30.3431424,32.5266691 L30.9858879,32.5266691 L30.9858879,27.5518157 L30.3431424,27.5518157 L30.3431424,32.5266691 Z" id="Fill-56"></path>
                <polygon id="Fill-57" points="35.2170545 33.7352356 36.8166909 33.7352356 36.8166909 29.4955759 35.2170545 29.4955759"></polygon>
                <path d="M21.173243,19.328856 C20.7842552,19.0883691 20.0650612,18.9261283 19.2398673,18.9261283 C18.4149945,18.9261283 17.6958006,19.0883691 17.3068127,19.328856 L17.3068127,19.7386099 L21.173243,19.7386099 L21.173243,19.328856 Z" id="Fill-58"></path>
                <polygon id="Fill-59" points="20.7188564 34.0552141 20.7188564 27.8099 21.3445776 27.8099 21.3445776 26.0003398 21.9702988 26.0003398 21.9702988 24.3124602 16.5096927 24.3124602 16.5096927 26.0003398 17.1354139 26.0003398 17.1354139 27.8099 17.7611352 27.8099 17.7611352 34.0552141"></polygon>
                <path d="M41.9108582,44.1971188 L41.5992824,44.4213178 C35.2826461,46.5850613 26.7936521,46.3793859 26.6616339,46.3860927 C26.5289733,46.3793859 17.8793733,46.7904173 11.5460339,44.5717419 L11.0234218,44.195522 C7.98443394,42.0055901 5.66271273,39.2299304 4.14048848,36.0390874 C2.76024,33.1452602 2.0368703,29.9097052 2.0368703,26.4553806 C2.0368703,13.0612497 12.9966279,2.16428639 26.467943,2.16428639 C39.9395794,2.16428639 50.899337,13.0612497 50.899337,26.4553806 C50.899337,29.9100246 50.1762885,33.1455796 48.79604,36.0394068 C47.2731733,39.2312079 44.9511309,42.0071869 41.9108582,44.1971188 Z M15.8342158,53.4461241 L14.0582339,58.5452131 C12.0978764,58.195501 10.6215855,57.834611 9.76684,57.6049827 L11.4515976,52.7677785 L13.567743,46.691412 C14.998743,47.0580508 16.4920582,47.3062026 17.9147067,47.473234 L15.8342158,53.4461241 Z M26.467943,0.13883089 C11.8733491,0.13883089 6.42424242e-05,11.9444068 6.42424242e-05,26.4553806 C6.42424242e-05,31.5423335 1.4378097,36.1971764 4.14048848,40.0877628 C5.51013697,42.0592445 7.20388848,43.8349513 9.20182788,45.3698518 L7.92244,48.7306005 L5.51431273,55.0551188 C5.26312485,55.7165377 5.29653091,56.4613126 5.60746424,57.1006948 C5.91936121,57.7372026 6.48726424,58.2236058 7.1672703,58.4369461 C7.50293697,58.5417 15.518143,60.9999042 26.5035976,60.9999042 C37.9850036,60.9999042 44.1792582,59.0472654 45.8039491,58.4487628 L45.8357491,58.4366267 C46.51704,58.2226476 47.0859067,57.7330508 47.3971612,57.091433 C47.7064885,56.451412 47.7370036,55.7040822 47.4809976,55.0407471 L45.037537,48.7306005 L43.7356642,45.3685743 C45.7332824,43.8343126 47.4263915,42.0589251 48.79604,40.0877628 C51.4987188,36.1974958 52.9364642,31.5426529 52.9364642,26.4553806 C52.9364642,11.9444068 41.0628582,0.13883089 26.467943,0.13883089 Z" id="Fill-60"></path>
            </g>
        </g>
    </g>
</svg>