<?xml version="1.0" encoding="utf-8"?>
<!-- Generator: Adobe Illustrator 21.0.2, SVG Export Plug-In . SVG Version: 6.00 Build 0)  -->
<svg version="1.1" id="Capa_1" xmlns="http://www.w3.org/2000/svg" xmlns:xlink="http://www.w3.org/1999/xlink" x="0px" y="0px"
	 viewBox="0 0 288.8 60.9" style="enable-background:new 0 0 288.8 60.9;" xml:space="preserve">
<style type="text/css">
	.st0{fill:#2A3842;}
	.st1{fill:#EA6825;}
</style>
<title>NSW color Copy</title>
<desc>Created with Sketch.</desc>
<g id="NSW-color-Copy" transform="translate(80.000000, 55.000000)">
	<g id="NSW-grey" transform="translate(58.000000, 8.000000)">
		<path id="Fill-3" class="st0" d="M-34.1-20.5v-1.8h-4c-1.9,0-2.8,0.7-2.8,2.2c0,1.4,1,2.4,2.8,2.4C-36.2-17.8-34.5-18.9-34.1-20.5
			z M-27.5-27.1v13.6h-6.6v-2.4c-1.3,1.7-3.4,2.7-6.2,2.7c-4.4,0-7-2.7-7-6.5c0-4,2.8-6.3,7.8-6.3h5.3v-0.2c0-2-1.3-3.1-3.9-3.1
			c-1.7,0-3.9,0.6-6.1,1.7l-1.9-4.6c3.2-1.5,6.2-2.3,9.5-2.3C-30.8-34.6-27.5-31.9-27.5-27.1z"/>
		<path id="Fill-5" class="st0" d="M1.6-14.3c-1.5,0.9-3.5,1.4-5.5,1.4c-4,0-6.9-2.4-6.9-6.7v-9v-4.6v-5.7H-4v5.7h5.3v4.9H-4v7.5
			c0,1.5,0.7,2.2,1.9,2.2c0.7,0,1.6-0.3,2.5-0.7L1.6-14.3z"/>
		<path id="Fill-7" class="st0" d="M-12.4-34.4v6.3c-3.7-0.4-6.2,1.3-6.6,4.2v10.7h-6.7v-20.9h6.7v3.5C-17.5-33-15.2-34.4-12.4-34.4
			"/>
		<path id="Fill-9" class="st0" d="M23.4-33.7v20.9h-6.7v-3.4c-1.4,2.4-3.6,3.7-6.6,3.7c-4.4,0-7.3-3.1-7.3-8v-13.2h6.7v11.3
			c0,2.4,1.3,3.8,3.3,3.8c2.4,0,3.8-2,3.8-4.7v-10.3H23.4z"/>
		<path id="Fill-11" class="st0" d="M-60.2-33.2v-5.7h6.7v5.7h5.3v5h-5.3v7.5c0,1.5,0.7,2.2,1.9,2.2c0.7,0,1.6-0.3,2.5-0.7l1.3,4.9
			c-1.5,0.9-3.5,1.4-5.5,1.4c-4,0-6.9-2.4-6.9-6.7v-8.6"/>
		<path id="Fill-13" class="st0" d="M40.8-23.2c0-3.1-1.8-5.2-4.4-5.2c-2.6,0-4.4,2.1-4.4,5.2s1.8,5.2,4.4,5.2
			C39.1-18,40.8-20.1,40.8-23.2 M47.6-23c0,6.4-3.7,10.6-9.4,10.6c-2.6,0-4.7-1-6.2-2.9v10.2h-6.7v-28.4h6.7v2.7
			c1.4-1.9,3.5-2.9,6-2.9C43.8-33.8,47.6-29.5,47.6-23"/>
		<path id="Fill-15" class="st0" d="M-79.7-16.3l2.7-4.5c2.4,1.6,5,2.4,7.1,2.4c1.3,0,1.8-0.4,1.8-1.1v-0.1c0-0.8-1.1-1.2-3.3-1.8
			c-4.1-1.1-7.4-2.5-7.4-6.8v-0.1c0-4.5,3.5-7,8.3-7c3,0,6.2,0.9,8.5,2.5l-2.5,4.7c-2.1-1.2-4.5-2-6.1-2c-1.1,0-1.7,0.4-1.7,1v0.1
			c0,0.8,1.2,1.2,3.4,1.9c4.1,1.2,7.4,2.6,7.4,6.7v0.1c0,4.7-3.4,7.1-8.5,7.1C-73.4-13.2-76.9-14.2-79.7-16.3"/>
		<path id="Fill-17" class="st0" d="M90.7-25.7c0-2.4-1.5-4.1-3.8-4.1c-2.2,0-3.7,1.6-4.1,4.1H90.7z M97.2-21.9H82.8
			c0.7,2.4,2.4,3.7,4.7,3.7c1.8,0,3.5-0.7,4.9-2.2l3.6,3.6c-2.1,2.4-5.2,3.8-9,3.8c-6.8,0-11-4.3-11-10.7c0-6.6,4.3-10.9,10.8-10.9
			C94-34.6,97.7-29.7,97.2-21.9z"/>
		<path id="Fill-19" class="st0" d="M113-25.7c0-2.4-1.5-4.1-3.8-4.1c-2.2,0-3.7,1.6-4.1,4.1H113z M119.6-21.9h-14.4
			c0.7,2.4,2.4,3.7,4.7,3.7c1.8,0,3.5-0.7,4.9-2.2l3.6,3.6c-2.1,2.4-5.2,3.8-9,3.8c-6.8,0-11-4.3-11-10.7c0-6.6,4.3-10.9,10.8-10.9
			C116.3-34.6,120-29.7,119.6-21.9z"/>
		<polygon id="Fill-21" class="st0" points="140.9,-33.5 132.7,-33.5 127.6,-27.6 127.6,-40.7 120.8,-40.7 120.8,-13 127.6,-13 
			127.6,-18.7 127.6,-20.5 132.9,-13.3 140.5,-13.3 132.9,-24 		"/>
		<polygon id="Fill-23" class="st0" points="46.6,-33.7 53.7,-33.7 56.2,-23.9 58.6,-33.7 65,-33.7 67.4,-23.8 70,-33.7 77,-33.7 
			70.8,-13.2 64.6,-13.2 61.8,-24.2 58.9,-13.2 52.7,-13.2 		"/>
		<polygon id="Fill-25" class="st0" points="-68.5,-46 -75.7,-55.9 -75.7,-46 -78,-46 -78,-59.8 -75.7,-59.8 -68.5,-49.9 
			-68.5,-59.8 -66.3,-59.8 -66.3,-46 		"/>
		<path id="Fill-27" class="st0" d="M-57.3-49.7v-1H-60c-1.4,0-2.1,0.4-2.1,1.4c0,0.9,0.7,1.6,2,1.6C-58.6-47.7-57.4-48.5-57.3-49.7
			z M-57.2-47.3c-0.7,0.9-1.9,1.4-3.4,1.4c-2.2,0-3.6-1.4-3.6-3.2c0-1.9,1.4-3.1,3.9-3.1h3.1v-0.3c0-1.3-0.8-2.1-2.4-2.1
			c-1,0-2,0.4-3,1.1l-0.9-1.6c1.4-0.9,2.5-1.3,4.4-1.3c2.6,0,4.1,1.4,4.1,3.7l0,6.9h-2.2V-47.3z"/>
		<path id="Fill-29" class="st0" d="M-46-55.5l-0.8,1.7c-0.9-0.6-2-0.9-2.9-0.9c-0.9,0-1.5,0.3-1.5,1c0,1.9,5.4,0.9,5.4,4.7
			c0,2.1-1.9,3.1-3.9,3.1c-1.5,0-3.1-0.5-4.1-1.5L-53-49c0.9,0.8,2.3,1.3,3.4,1.3c0.9,0,1.7-0.3,1.7-1.1c0-2.1-5.4-0.9-5.4-4.7
			c0-2.1,1.8-3,3.8-3C-48.3-56.6-46.9-56.2-46-55.5"/>
		<path id="Fill-31" class="st0" d="M-34.1-52.5v6.5h-2.2v-5.9c0-1.6-0.9-2.5-2.5-2.5c-1.8,0-2.9,1.4-2.9,3.3v5.1h-2.2v-14.6h2.2
			v6.2c0.7-1.5,2-2.1,3.8-2.1C-35.6-56.5-34.1-55-34.1-52.5"/>
		<polygon id="Fill-33" class="st0" points="-29.6,-46 -33.6,-56.5 -31.3,-56.5 -28.4,-48.2 -25.6,-56.5 -23.4,-56.5 -27.3,-46 		
			"/>
		<path id="Fill-35" class="st0" d="M-22.4-46h2.2v-10.4h-2.2V-46z M-20-59.4c0,0.8-0.6,1.4-1.3,1.4c-0.7,0-1.3-0.6-1.3-1.4
			c0-0.8,0.6-1.4,1.3-1.4C-20.5-60.8-20-60.2-20-59.4z"/>
		<polygon id="Fill-37" class="st0" points="-17.3,-46 -15.1,-46 -15.1,-60.6 -17.3,-60.6 		"/>
		<polygon id="Fill-38" class="st0" points="-12.1,-46 -9.9,-46 -9.9,-60.6 -12.1,-60.6 		"/>
		<path id="Fill-39" class="st0" d="M0.1-52c-0.1-1.7-1.2-2.7-2.8-2.7c-1.6,0-2.7,1-3,2.7H0.1z M2-50.4h-7.7
			c0.3,1.6,1.6,2.6,3.2,2.6c1.1,0,2.1-0.4,2.9-1.2l1.2,1.3c-1,1.1-2.5,1.8-4.2,1.8c-3.2,0-5.2-2.1-5.2-5.3c0-3.2,2.1-5.3,5.2-5.3
			C0.8-56.5,2.2-54.1,2-50.4z"/>
		<polygon id="Fill-1" class="st0" points="146.3,-33.1 146.3,-32.3 145.2,-32.3 145.2,-29.2 144.2,-29.2 144.2,-32.3 143,-32.3 
			143,-33.1 		"/>
		<polygon id="Fill-2" class="st0" points="147.6,-33.1 148.6,-30.9 149.7,-33.1 150.8,-33.1 150.8,-29.2 149.9,-29.2 149.9,-31.7 
			149,-29.6 148.3,-29.6 147.4,-31.7 147.4,-29.2 146.5,-29.2 146.5,-33.1 		"/>
	</g>
	<g id="globe" transform="translate(0.000000, 6.000000)">
		<path id="Fill-55" class="st1" d="M-69.3-45.9c3.4-4.9,9-7.9,15-7.9c0.7,0,1.2,0.5,1.2,1.2c0,0.7-0.5,1.2-1.2,1.2
			c-5.2,0-10.1,2.6-13,6.8c-0.2,0.3-0.6,0.5-1,0.5c-0.2,0-0.5-0.1-0.7-0.2C-69.6-44.6-69.7-45.4-69.3-45.9z M-51.2-48.8
			c0.7,0,1.2,0.6,1.2,1.2c0,0.7-0.6,1.2-1.2,1.2c-0.7,0-1.2-0.6-1.2-1.2C-52.5-48.2-51.9-48.8-51.2-48.8z M-44.6-50.5
			c1.2,0,2.1,1,2.1,2.1c0,1.2-1,2.1-2.1,2.1c-1.2,0-2.1-1-2.1-2.1C-46.7-49.6-45.8-50.5-44.6-50.5z M-41.1-44.7h1.2v-1.2h1.2v1.2
			h1.2v1.2h-1.2v1.2h-1.2v-1.2h-1.2V-44.7z M-70.3-33.4h3.6v4.3h1.3v-9.7h1v-3v-1V-45h1.3v1.5h4.9V-45h1.3v2.2v1v3h1v9.7h1.7v-5.8
			l1.3-2.1h3.9l1.3,2.1v5.8h1.6v-4.5h2.1V-35h1.4v-2.7h1.2v2.7v0.7v5.2h1.3v-4.3h3.5v5.2h3.9c0.8-2.1,1.2-4.3,1.2-6.8
			c0-12-9.8-21.8-21.9-21.8S-75.4-47-75.4-35c0,2.4,0.4,4.7,1.2,6.8h3.9V-33.4z"/>
		<path id="Fill-56" class="st1" d="M-53.5-18.4c-6.1,0-11.7-2-15.8-5.3h31.6C-41.9-20.5-47.4-18.4-53.5-18.4z M-58.1-40.3l-1.1,1.9
			h-3.1l-1.1-1.9H-58.1z M-53.3-28.6h0.6v-5h-0.6V-28.6z M-51.8-26.1h1.2v-7.5h-1.2V-26.1z M-49.7-28.6h0.6v-5h-0.6V-28.6z"/>
		<polygon id="Fill-57" class="st1" points="-44.8,-27.4 -43.2,-27.4 -43.2,-31.6 -44.8,-31.6 		"/>
		<path id="Fill-58" class="st1" d="M-58.8-41.8c-0.4-0.2-1.1-0.4-1.9-0.4c-0.8,0-1.5,0.2-1.9,0.4v0.4h3.9V-41.8z"/>
		<polygon id="Fill-59" class="st1" points="-59.3,-27.1 -59.3,-33.3 -58.7,-33.3 -58.7,-35.1 -58,-35.1 -58,-36.8 -63.5,-36.8 
			-63.5,-35.1 -62.9,-35.1 -62.9,-33.3 -62.2,-33.3 -62.2,-27.1 		"/>
		<path id="Fill-60" class="st1" d="M-38.1-16.9l-0.3,0.2c-6.3,2.2-14.8,2-14.9,2c-0.1,0-8.8,0.4-15.1-1.8l-0.5-0.4
			c-3-2.2-5.4-5-6.9-8.2c-1.4-2.9-2.1-6.1-2.1-9.6C-78-48.1-67-59-53.5-59c13.5,0,24.4,10.9,24.4,24.3c0,3.5-0.7,6.7-2.1,9.6
			C-32.7-21.9-35-19.1-38.1-16.9z M-64.2-7.7l-1.8,5.1c-2-0.3-3.4-0.7-4.3-0.9l1.7-4.8l2.1-6.1c1.4,0.4,2.9,0.6,4.3,0.8L-64.2-7.7z
			 M-53.5-61C-68.1-61-80-49.2-80-34.7c0,5.1,1.4,9.7,4.1,13.6c1.4,2,3.1,3.7,5.1,5.3l-1.3,3.4l-2.4,6.3c-0.3,0.7-0.2,1.4,0.1,2
			c0.3,0.6,0.9,1.1,1.6,1.3c0.3,0.1,8.4,2.6,19.3,2.6c11.5,0,17.7-2,19.3-2.6l0,0c0.7-0.2,1.3-0.7,1.6-1.3c0.3-0.6,0.3-1.4,0.1-2.1
			l-2.4-6.3l-1.3-3.4c2-1.5,3.7-3.3,5.1-5.3c2.7-3.9,4.1-8.5,4.1-13.6C-27.1-49.2-38.9-61-53.5-61z"/>
	</g>
</g>
</svg>
