<?xml version="1.0" encoding="UTF-8"?>
<svg width="425px" height="557px" viewBox="0 0 425 557" version="1.1" xmlns="http://www.w3.org/2000/svg" xmlns:xlink="http://www.w3.org/1999/xlink">
    <!-- Generator: Sketch 48.2 (47327) - http://www.bohemiancoding.com/sketch -->
    <title>Page 1</title>
    <desc>Created with Sketch.</desc>
    <defs>
        <path d="M51.6634615,14.9863185 L51.6634615,161.321437 C51.6634615,167.545074 46.6096154,172.607926 40.3975385,172.607926 C34.1861538,172.607926 29.1309231,167.545074 29.1309231,161.321437 L29.1309231,105.108544 C29.1309231,104.937474 29.0963077,104.774715 29.0471538,104.619574 C29.0963077,104.465819 29.1309231,104.302367 29.1309231,104.131296 C29.1309231,96.1415481 22.6446923,89.6429519 14.6686154,89.6429519 C6.696,89.6429519 0.207692308,96.1415481 0.207692308,104.131296 L0.207692308,184.847422 C0.207692308,185.73117 0.923538462,186.448004 1.80484615,186.448004 C2.68753846,186.448004 3.40407692,185.73117 3.40407692,184.847422 L3.40407692,104.131296 C3.40407692,97.9083519 8.45792308,92.8448074 14.6686154,92.8448074 C20.8806923,92.8448074 25.9345385,97.9083519 25.9345385,104.131296 C25.9345385,104.302367 25.9698462,104.465819 26.0203846,104.619574 C25.9698462,104.774715 25.9345385,104.937474 25.9345385,105.108544 L25.9345385,161.321437 C25.9345385,169.3098 32.4228462,175.809089 40.3975385,175.809089 C48.3715385,175.809089 54.8591538,169.3098 54.8591538,161.321437 L54.8591538,14.9863185 C54.8591538,8.76268148 59.9123077,3.69913704 66.1243846,3.69913704 C72.3364615,3.69913704 77.3903077,8.76268148 77.3903077,14.9863185 L77.3903077,66.9778593 C77.3903077,67.8609148 78.1054615,68.5784407 78.9881538,68.5784407 C79.8708462,68.5784407 80.5853077,67.8609148 80.5853077,66.9778593 L80.5853077,14.9863185 C80.5853077,6.99795556 74.0983846,0.497281481 66.1243846,0.497281481 C58.1503846,0.497281481 51.6634615,6.99795556 51.6634615,14.9863185 Z" id="path-1"></path>
        <path d="M0.18,2.20593496 L0.18,84.1884065 C0.18,85.0868618 0.7644,85.8147154 1.4856,85.8147154 C2.2068,85.8147154 2.7918,85.0868618 2.7918,84.1884065 L2.7918,2.20593496 C2.7918,1.30747967 2.2068,0.579626016 1.4856,0.579626016 C0.7644,0.579626016 0.18,1.30747967 0.18,2.20593496 Z" id="path-3"></path>
        <path d="M6.14722222,4.41618644 C2.96736111,7.22850847 1.09861111,11.0679153 0.886111111,15.2235085 L0.438194444,23.944 C0.223611111,28.0995932 1.69166667,32.1023051 4.56805556,35.2113559 C7.44513889,38.3224915 11.36875,40.1494237 15.61875,40.3592881 L22.5527778,40.6977119 L24.4402778,3.95198305 L24.6020833,0.766491525 L24.6048611,0.717152542 L17.6701389,0.377338983 C17.3993056,0.363440678 17.1298611,0.357186441 16.8611111,0.357186441 C12.9152778,0.357186441 9.125,1.78176271 6.14722222,4.41618644 Z" id="path-5"></path>
        <path d="M0.446608696,133.903102 C0.411826087,134.598367 0.332521739,135.281837 0.225391304,135.954204 L32.9453913,127.833755 L36.0827826,127.055918 L118.832,106.519918 L121.970087,105.742776 L133.434435,102.89649 L141.08313,100.999429 L141.12,100.247959 L143.568,51.6355918 L143.584696,51.272 L135.629217,48.2834694 L7.18469565,0.00902040816 L0.446608696,133.903102 Z" id="path-7"></path>
        <path d="M12.5648421,4.45885714 C9.49068421,7.28987755 7.68231579,11.1540816 7.47568421,15.3381633 L5.13226316,62.9083265 L4.97421053,66.1154286 L2.99068421,106.367959 L2.83194737,109.575755 L0.689684211,153.003469 C0.262052632,161.679714 6.84826316,169.09449 15.3721579,169.530245 C21.4725789,169.832776 26.9483158,166.45498 29.7173158,161.319592 C30.3344737,160.172612 30.8277895,158.947918 31.1514211,157.64551 C31.3963684,156.660898 31.5537368,155.636735 31.6064211,154.582735 L38.2323158,20.1418776 L38.3896842,16.9160408 C38.3917368,16.869551 38.3876316,16.8195918 38.3896842,16.7710204 C38.558,12.6382857 37.1451053,8.66653061 34.3959474,5.57253061 C31.6139474,2.4417551 27.8186316,0.600897959 23.7085789,0.392040816 C23.4478947,0.37955102 23.1872105,0.372612245 22.9278947,0.372612245 C19.1113684,0.372612245 15.4433158,1.80546939 12.5648421,4.45885714 Z" id="path-9"></path>
        <path d="M2.66192308,0.693055556 L0.289384615,48.7111111 L0.279,48.9354167 L9.10592308,49.3854167 C9.72346154,49.4166667 10.3340769,49.4020833 10.9426154,49.3604167 C12.7820769,49.2347222 14.5682308,48.7798611 16.236,48.0215278 C17.7306923,47.3423611 19.1333077,46.4298611 20.3856923,45.2784722 C21.1015385,44.6201389 21.7419231,43.9020833 22.3193077,43.1416667 C24.2453077,40.6 25.3758462,37.54375 25.5357692,34.2916667 L26.3824615,17.1569444 C26.5250769,14.2673611 25.8846923,11.5236111 24.6676154,9.11875 C23.7011538,7.20833333 22.3643077,5.52430556 20.7491538,4.15416667 C18.2298462,2.01736111 15.0459231,0.647916667 11.5220769,0.467361111 L11.0616923,0.445138889 L2.69515385,0.0194444444 L2.66192308,0.693055556 Z" id="path-11"></path>
        <path d="M48.2996518,0.656139276 C43.6715506,0.698448468 39.2833839,2.42896379 35.8043333,5.57579666 C32.0381935,8.98688858 29.824,13.6422869 29.5729702,18.6860975 L27.3504554,63.0323733 L20.5241101,62.6904318 C15.4993542,62.4240919 10.6361726,64.1747214 6.86795238,67.5851198 C3.1018125,70.9948245 0.887619048,75.6509164 0.634508929,80.6954206 L0.195553571,89.4818607 C0.181684524,89.7599916 0.173363095,90.0381226 0.171282738,90.3148663 L0.171282738,90.5742702 C0.202488095,95.2234262 1.92571726,99.6541003 5.08439286,103.150504 C8.49201786,106.921571 13.1443899,109.136908 18.1837083,109.389376 L25.0086667,109.733398 L25.0072798,109.78195 L24.8457054,112.991206 L22.666878,156.452457 C22.4144613,161.496267 24.1508661,166.351421 27.5571042,170.121794 C30.9640357,173.891474 35.6157143,176.106811 40.6557262,176.360666 C40.9767946,176.376618 41.2964762,176.384248 41.6154643,176.384248 C49.6997321,176.384248 56.7181637,171.242641 59.4018244,163.941184 L93.5439524,155.434262 L97.627,173.030724 C99.5104167,181.154089 106.376982,186.840167 114.241426,187.621153 L114.241426,204.186936 L114.241426,218.327916 C114.228943,218.634485 113.983461,227.268334 123.245905,234.856245 L123.245905,245.029872 C123.245905,245.916284 123.965708,246.636234 124.85194,246.636234 C125.740253,246.636234 126.457283,245.916284 126.457283,245.029872 L126.457283,234.084276 C126.457283,233.588357 126.229137,233.119487 125.83803,232.815694 C117.312033,226.178006 117.442402,218.700376 117.452804,218.386178 L117.452804,204.186936 L117.452804,187.665543 L117.452804,184.430624 L117.452804,165.779206 C117.452804,162.597 120.038688,160.007816 123.21886,160.007816 C126.397646,160.007816 128.984917,162.597 128.984917,165.779206 L128.984917,171.737173 C128.984917,172.624279 129.704027,173.344228 130.590259,173.344228 C131.477185,173.344228 132.194908,172.624279 132.194908,171.737173 L132.194908,165.779206 L132.194908,160.547432 C132.194908,157.365226 134.781485,154.776042 137.960271,154.776042 C141.13975,154.776042 143.727021,157.365226 143.727021,160.547432 L143.727021,168.962799 L143.727021,171.606777 C143.727021,172.493883 144.446131,173.213139 145.332363,173.213139 C146.218595,173.213139 146.937012,172.493883 146.937012,171.606777 L146.937012,168.962799 L146.937012,160.547432 L146.937012,156.848499 C146.937012,153.666292 149.523589,151.077109 152.703762,151.077109 C155.882548,151.077109 158.469818,153.666292 158.469818,156.848499 L158.469818,164.761705 L158.469818,167.597114 L158.469818,174.516401 C158.469818,174.706446 158.509345,174.886086 158.569676,175.056017 C158.79158,175.676089 159.378241,176.122763 160.074467,176.122763 C160.962086,176.122763 161.67981,175.402813 161.67981,174.516401 L161.67981,174.332599 L161.67981,167.597114 L161.67981,164.761705 C161.67981,161.579499 164.26708,158.990315 167.445866,158.990315 C170.626039,158.990315 173.211923,161.579499 173.211923,164.761705 L173.211923,171.533256 L173.211923,174.897877 L173.211923,180.651928 L173.211923,192.968758 L173.211923,205.206518 C173.211923,206.093624 173.930339,206.813574 174.817265,206.813574 C175.704884,206.813574 176.422607,206.093624 176.422607,205.206518 L176.422607,192.968758 L176.422607,180.651928 C176.422607,178.154992 178.452342,176.122763 180.94669,176.122763 L185.47008,176.122763 L185.47008,205.206518 C185.47008,205.234955 185.476321,205.259925 185.479095,205.288362 C185.480482,205.315412 185.475628,205.340382 185.479095,205.368125 C185.489497,205.503376 185.891699,211.604916 178.20894,219.429343 C169.889592,227.902972 159.14108,237.078518 159.034289,237.170072 C158.675774,237.475947 158.469818,237.923315 158.469818,238.394265 L158.469818,247.001064 C158.469818,247.887476 159.187542,248.606733 160.074467,248.606733 C160.962086,248.606733 161.67981,247.887476 161.67981,247.001064 L161.67981,239.132248 C164.022985,237.113891 173.182104,229.1341 180.498027,221.682827 C188.915152,213.111401 188.75219,206.138708 188.680765,205.14895 L188.680765,174.516401 C188.680765,173.629295 187.961655,172.909345 187.075423,172.909345 L180.94669,172.909345 C179.25536,172.909345 177.696479,173.460752 176.422607,174.385312 L176.422607,173.633457 C179.489054,172.085357 182.099208,169.734075 183.970143,166.729429 C186.654497,162.414585 187.506057,157.329852 186.365327,152.409501 L181.957051,133.405738 L200.042982,128.898769 L203.034536,128.15385 L203.293887,128.167028 L212.169384,128.613008 C212.491839,128.628961 212.813601,128.636591 213.133976,128.636591 C217.823795,128.636591 222.299336,126.910237 225.825542,123.717627 C226.396946,123.202981 226.916342,122.648799 227.414241,122.079359 C228.477304,120.859329 229.372551,119.526242 230.084726,118.101602 C231.240018,115.791936 231.926536,113.256852 232.058292,110.607326 L232.909851,93.6281616 C232.923027,93.3722256 232.930655,93.1162897 232.932042,92.8617409 L232.932042,92.5510111 C232.916092,90.6387744 232.601958,88.7903482 232.054131,87.0417994 C231.600613,85.5887214 230.99731,84.2008412 230.223417,82.9163064 C227.075143,77.6796769 221.465113,74.0494095 214.92031,73.7199526 L206.046893,73.2739721 L204.463741,73.1949025 L202.866027,72.5928635 L67.4063452,21.4757298 L67.4500327,20.588624 C67.7024494,15.5441198 65.9653512,10.6896602 62.5591131,6.91928691 C59.152875,3.14960724 54.500503,0.932883008 49.4611845,0.681108635 C49.1865774,0.666543175 48.9126637,0.658913649 48.6394435,0.656139276 L48.2996518,0.656139276 Z M40.8166071,173.150716 C32.1415179,172.714446 25.4372202,165.296465 25.8727083,156.61337 L28.0522292,113.152813 L28.2131101,109.943557 L30.23175,69.6624318 L30.3933244,66.4531755 L32.7788006,18.8477047 C32.9896101,14.6611755 34.8279524,10.7936992 37.9588899,7.95967688 C41.0891339,5.12426741 45.1333482,3.68228691 49.300997,3.8903649 C53.4839018,4.10052368 57.3464315,5.94201393 60.1784911,9.07497493 C62.9765714,12.1725627 64.4140982,16.1468524 64.2448958,20.2820557 C64.242122,20.3313008 64.2469762,20.3784652 64.2435089,20.4270167 L64.0812411,23.6543064 L57.3374167,158.19407 C57.2867946,159.247638 57.1252202,160.272075 56.8769643,161.258365 C56.546881,162.561627 56.0434345,163.786513 55.4158601,164.935103 C52.7148631,169.861696 47.4834583,173.169443 41.5863393,173.169443 C41.3311488,173.169443 41.0745714,173.163201 40.8166071,173.150716 Z M60.5453274,158.354983 L67.235756,24.8452061 L194.794935,72.9805822 L202.696824,75.9623398 L202.678795,76.3230084 L200.248938,124.796164 L200.210798,125.545245 L192.616107,127.438061 L181.230313,130.274858 L178.114631,131.051682 L95.9342827,151.527251 L92.8199881,152.304075 L60.3248095,160.40039 C60.4302143,159.728992 60.5099613,159.048577 60.5453274,158.354983 Z M18.3445893,106.18012 C14.1609911,105.969961 10.2977679,104.128471 7.46709524,100.994123 C4.63503571,97.8625487 3.19196131,93.8299972 3.40138393,89.643468 L3.84103274,80.8570279 C4.05114881,76.6684178 5.89087798,72.8030223 9.02181548,69.969 C12.1520595,67.1342841 16.1955804,65.6888357 20.3639226,65.899688 L27.188881,66.2423231 L27.187494,66.2922618 L27.0259196,69.5015181 L25.1702411,106.522755 L18.3445893,106.18012 Z M212.330958,125.402365 L203.456155,124.957772 L203.466557,124.733047 L205.852033,77.1532396 L205.884625,76.4846156 L214.297589,76.9063203 L214.760122,76.9305961 C218.303664,77.108156 221.505333,78.4641309 224.039208,80.5823649 C225.663274,81.9390334 227.005104,83.6098997 227.976631,85.5013287 C229.201268,87.8852089 229.848259,90.6040947 229.703327,93.4672479 L228.851074,110.446412 C228.6895,113.668847 227.554318,116.697075 225.617506,119.214819 C225.037086,119.968755 224.392869,120.681075 223.671679,121.33444 C222.413063,122.474014 221.00258,123.37846 219.501256,124.051245 C217.822408,124.8031 216.02706,125.253936 214.177622,125.376702 C213.786515,125.403058 213.393327,125.419705 212.998753,125.419705 C212.776848,125.419705 212.554943,125.414156 212.330958,125.402365 Z M107.777756,182.102925 C104.196074,179.867474 101.701033,176.389103 100.753777,172.306613 L96.6610208,154.658131 L178.841369,134.182563 L183.237857,153.136387 C184.18442,157.220265 183.477792,161.444248 181.244875,165.030819 C179.993887,167.038772 178.342777,168.690911 176.422607,169.935217 L176.422607,164.761705 C176.422607,159.807368 172.395729,155.776897 167.445866,155.776897 C165.251089,155.776897 163.240077,156.571061 161.67981,157.884727 L161.67981,156.848499 C161.67981,151.894162 157.653625,147.862997 152.703762,147.862997 C148.721265,147.862997 145.341378,150.475763 144.169443,154.074125 C142.555086,152.522557 140.369324,151.562624 137.960271,151.562624 C133.530497,151.562624 129.847571,154.79685 129.124301,159.028462 C127.543229,157.641969 125.479515,156.794398 123.21886,156.794398 C118.268997,156.794398 114.241426,160.824869 114.241426,165.779206 L114.241426,184.377217 C111.980077,184.103248 109.77906,183.350006 107.777756,182.102925 Z" id="path-13"></path>
        <path d="M0.166190476,0.58302454 L0.166190476,60.0626196 C0.166190476,151.533 74.582131,225.948699 166.051292,225.948699 L348.883667,225.948699 L348.883667,168.699294 L166.051292,168.699294 C106.149319,168.699294 57.4153472,119.965098 57.4153472,60.0626196 L57.4153472,0.58302454 L0.166190476,0.58302454 Z" id="path-15"></path>
    </defs>
    <g id="Desktop-HD" stroke="none" stroke-width="1" fill="none" fill-rule="evenodd" transform="translate(-1015.000000, -2220.000000)">
        <g id="Page-1" transform="translate(1015.000000, 2220.000000)">
            <path d="M187.996497,204.182403 L187.99788,204.145744 L187.988889,203.961063 C187.988197,203.956221 187.987506,203.951379 187.987506,203.946537 L187.987506,172.976874 L181.400726,172.976874 C179.012638,172.976874 176.917096,174.255806 175.762127,176.165558 L175.762127,163.722081 C175.762127,159.404561 172.251576,155.891475 167.936696,155.891475 C164.971815,155.891475 162.38593,157.550836 161.058753,159.989729 L161.058753,155.831298 C161.058753,151.513086 157.548893,148 153.234705,148 C148.933657,148 145.431404,151.489569 145.40789,155.787721 C144.080713,153.348136 141.49552,151.688775 138.529947,151.688775 C134.215067,151.688775 130.705207,155.201861 130.705207,159.520073 L130.705207,161.004437 C129.378031,158.565543 126.792837,156.906182 123.827265,156.906182 C119.512385,156.906182 116.001833,160.419268 116.001833,164.73748 L116.002525,217.137038 C115.975552,218.02655 116.003216,225.987193 124.982234,233.083226 L124.982234,243.565075 L121.400447,247 L161.058753,247 L161.058753,237.368929 C162.455781,236.172307 172.314511,227.674913 180.1517,219.694211 C187.939094,211.762618 188.03246,205.194344 187.996497,204.182403" id="Fill-1" fill="#FEFEFE"></path>
            <g id="Group-5" transform="translate(320.000000, 226.000000)">
                <mask id="mask-2" fill="white">
                    <use xlink:href="#path-1"></use>
                </mask>
                <g id="Clip-4"></g>
                <polygon id="Fill-3" fill="#424142" mask="url(#mask-2)" points="-4.81569231 191.474148 85.6100769 191.474148 85.6100769 -4.52886296 -4.81569231 -4.52886296"></polygon>
            </g>
            <g id="Group-8" transform="translate(320.000000, 471.000000)">
                <mask id="mask-4" fill="white">
                    <use xlink:href="#path-3"></use>
                </mask>
                <g id="Clip-7"></g>
                <polygon id="Fill-6" fill="#424142" mask="url(#mask-4)" points="-4.1736 90.8880163 7.1466 90.8880163 7.1466 -4.49437398 -4.1736 -4.49437398"></polygon>
            </g>
            <g id="Group-11" transform="translate(4.000000, 65.000000)">
                <mask id="mask-6" fill="white">
                    <use xlink:href="#path-5"></use>
                </mask>
                <g id="Clip-10"></g>
                <polygon id="Fill-9" fill="#FF7116" mask="url(#mask-6)" points="-4.62222222 45.7407119 29.64375 45.7407119 29.64375 -4.68442373 -4.62222222 -4.68442373"></polygon>
            </g>
            <g id="Group-14" transform="translate(61.000000, 24.000000)">
                <mask id="mask-8" fill="white">
                    <use xlink:href="#path-7"></use>
                </mask>
                <g id="Clip-13"></g>
                <polygon id="Fill-12" fill="#FEFEFE" mask="url(#mask-8)" points="-4.82295652 140.98898 148.633739 140.98898 148.633739 -5.02714286 -4.82295652 -5.02714286"></polygon>
            </g>
            <g id="Group-17" transform="translate(26.000000, 2.000000)">
                <mask id="mask-10" fill="white">
                    <use xlink:href="#path-9"></use>
                </mask>
                <g id="Clip-16"></g>
                <polygon id="Fill-15" fill="#00FFDD" mask="url(#mask-10)" points="-4.29478947 174.583061 43.368 174.583061 43.368 -4.66355102 -4.29478947 -4.66355102"></polygon>
            </g>
            <g id="Group-20" transform="translate(204.000000, 76.000000)">
                <mask id="mask-12" fill="white">
                    <use xlink:href="#path-11"></use>
                </mask>
                <g id="Clip-19"></g>
                <polygon id="Fill-18" fill="#00FFDD" mask="url(#mask-12)" points="-4.74438462 54.4416667 31.4259231 54.4416667 31.4259231 -5.02013889 -4.74438462 -5.02013889"></polygon>
            </g>
            <g id="Group-23">
                <mask id="mask-14" fill="white">
                    <use xlink:href="#path-13"></use>
                </mask>
                <g id="Clip-22"></g>
                <polygon id="Fill-21" fill="#424142" mask="url(#mask-14)" points="-4.86110119 253.640139 237.964426 253.640139 237.964426 -4.37726741 -4.86110119 -4.37726741"></polygon>
            </g>
            <g id="Group-26" transform="translate(115.000000, 243.000000)">
                <mask id="mask-16" fill="white">
                    <use xlink:href="#path-15"></use>
                </mask>
                <g id="Clip-25"></g>
                <polygon id="Fill-24" fill="#00C1C8" mask="url(#mask-16)" points="-4.85830159 230.979626 355.918371 230.979626 355.918371 -4.44720859 -4.85830159 -4.44720859"></polygon>
            </g>
        </g>
    </g>
</svg>