<?xml version="1.0" encoding="UTF-8"?>
<svg width="109px" height="712px" viewBox="0 0 109 712" version="1.1" xmlns="http://www.w3.org/2000/svg" xmlns:xlink="http://www.w3.org/1999/xlink">
    <!-- Generator: Sketch 48.2 (47327) - http://www.bohemiancoding.com/sketch -->
    <title>Group 21</title>
    <desc>Created with Sketch.</desc>
    <defs>
        <path d="M0.113043478,0.60375 L0.269565217,59.35125 L9.95652174,59.35125 C10.786087,59.35125 11.4991304,59.9528125 11.6521739,60.7849375 C11.7052174,61.07325 12.916087,67.920125 8.74826087,73.051125 C6.75913043,75.4998125 3.93434783,77.1019375 0.319130435,77.84525 L0.365652174,95.7858125 C3.42565217,99.484 5.94782609,104.651312 5.94782609,111.667938 L5.94782609,111.680188 L57.3956522,111.537125 C56.3791304,110.194 55.7682609,108.5175 55.7682609,106.694437 L55.7682609,106.340063 C55.7682609,104.585687 56.3352174,102.9665 57.2826087,101.6505 C53.8508696,100.747063 51.3030435,97.57125 51.3030435,93.7916875 C51.3030435,91.818125 51.9986957,90.0081875 53.1513043,88.5994375 C50.2243478,87.395875 48.1517391,84.4764375 48.1517391,81.0674375 C48.1517391,76.9715625 51.14,73.584875 55.0078261,73.0305625 C54.083913,71.7045 53.536087,70.0888125 53.536087,68.3414375 C53.536087,64.5155 56.1447826,61.30775 59.6408696,60.45025 L59.4804348,0.4361875 L0.113043478,0.60375 Z" id="path-1"></path>
        <path d="M2.63295,2.61945 C0.97245,4.28715 0.06255,6.5007 0.0711,8.847 C0.0774,11.1978 0.9999,13.40325 2.66805,15.0615 C4.3281,16.7166 6.5304,17.6256 8.87175,17.6256 L8.89695,17.6256 C11.2437,17.6202 13.45095,16.6977 15.10965,15.02955 C16.77015,13.35915 17.68005,11.1483 17.67375,8.79975 C17.66655,6.453 16.74495,4.2462 15.0759,2.58525 C13.4082,0.9252 11.17845,0.03375 8.84925,0.02295 C6.50025,0.0288 4.29165,0.9486 2.63295,2.61945 Z M2.7423,8.8407 C2.73195,5.46525 5.4747,2.70495 8.85285,2.69325 L8.86455,2.69325 C12.2391,2.69325 14.98815,5.4333 14.9994,8.80695 C15.0057,10.4409 14.37075,11.98215 13.2147,13.14315 C12.05955,14.3046 10.52325,14.9481 8.8884,14.95305 C8.86545,14.95305 8.84295,14.9544 8.82045,14.9544 C5.4747,14.9544 2.75355,12.1959 2.7423,8.8407 Z" id="path-3"></path>
        <path d="M2.1285,0.164 C1.1145,0.17 0.295,0.9885 0.299,2.0005 C0.302,3.0115 1.126,3.83 2.1385,3.8315 C3.152,3.8255 3.969,3.002 3.9665,1.9895 C3.9635,0.981 3.1455,0.164 2.137,0.164 C2.134,0.164 2.1315,0.164 2.1285,0.164 Z" id="path-5"></path>
        <path d="M1.35071429,0.164 C0.808657143,0.164 0.364914286,0.699 0.364914286,1.351 L0.364914286,1.421 C0.364914286,2.0745 0.808657143,2.6095 1.35071429,2.6095 L29.6975571,2.6095 C30.2378429,2.6095 30.6820286,2.0745 30.6820286,1.421 L30.6820286,1.351 C30.6820286,0.699 30.2378429,0.164 29.6975571,0.164 L1.35071429,0.164 Z" id="path-7"></path>
        <path d="M17.4235306,10.366087 L17.4187265,15.8578261 L17.4226571,16.0978261 L17.4174163,20.2643478 L17.4200367,22.0643478 L17.4152327,27.6821739 L17.4165429,27.793913 L17.4003837,75.0321739 L16.9151714,75.0321739 C14.1790286,75.0321739 11.6743551,76.6408696 10.5327306,79.1317391 L0.915395918,100.121304 C0.355502041,101.345652 0.0593959184,102.703043 0.0593959184,104.049565 L0.0593959184,157.825217 C0.0593959184,158.800435 0.84857551,159.592174 1.82336735,159.592174 C2.79772245,159.592174 3.58690204,158.800435 3.58690204,157.825217 L3.58690204,104.049565 C3.58690204,103.208261 3.77251429,102.36087 4.12233878,101.596957 L13.7396735,80.6065217 C14.3069918,79.3673913 15.5538694,78.5673913 16.9151714,78.5673913 L17.3990735,78.5673913 L17.3990735,78.6182609 L22.1031429,78.6182609 L22.1031429,78.5673913 L26.6748816,78.5673913 L34.9671633,78.5673913 C35.0440286,80.4617391 34.8147429,83.8656522 32.6131633,86.5286957 C31.2370122,88.19 29.2511796,89.3265217 26.7054531,89.9547826 C25.3306122,90.2934783 23.8011673,90.4886957 22.097902,90.5252174 L22.097902,90.4756522 C21.8956939,90.48 21.7039673,90.496087 21.4943347,90.496087 C20.7990531,90.496087 20.1644776,90.8956522 19.8622571,91.5221739 L17.3929592,96.6326087 L17.3929592,96.7486957 L13.6287429,104.542609 C13.4103755,104.995652 13.3933429,105.521739 13.5859429,105.985652 C13.7776694,106.452174 14.1580653,106.813913 14.6314857,106.980435 C14.6716653,106.993478 15.7927633,107.403913 17.3894653,108.313478 L17.3894653,108.371739 C18.7411592,109.143043 20.4269551,110.276087 22.0917878,111.82913 L22.0917878,111.761304 C23.8120857,113.360435 25.5074898,115.411739 26.7810082,117.982174 C28.0776735,120.602174 28.9402245,123.758261 28.9402245,127.537391 C28.9402245,127.544783 28.9389143,127.551739 28.9389143,127.55913 C28.9341102,136.528696 26.4115306,143.131304 24.2204327,147.182609 C24.2095143,147.16913 24.195102,147.155652 24.1850571,147.143913 C23.1106898,149.132609 22.1310939,150.487826 21.5515469,151.21913 C21.5637755,151.231304 21.5773143,151.24087 21.5895429,151.251739 C21.2772776,151.646522 21.0711388,151.879565 21.0514857,151.89913 C20.3828449,152.606957 20.4112327,153.723043 21.1148122,154.394348 C21.8201388,155.068696 22.9373061,155.039565 23.6094408,154.335217 C23.6705837,154.27087 23.9754245,153.936957 24.4195837,153.378261 C26.478351,154.55 28.8096408,155.185217 31.2418163,155.186522 L54.0882816,155.191304 L52.5086122,156.434783 C51.7425796,157.038261 51.6098122,158.149565 52.2111959,158.914783 C52.5597102,159.358696 53.0759306,159.592174 53.5991388,159.592174 C53.9808449,159.592174 54.3651714,159.468261 54.6883551,159.214348 L59.7994612,155.193478 L83.2425061,155.198696 L83.2569184,155.198696 C86.9569347,155.198696 90.4346531,153.757391 93.0498204,151.137391 C95.6689184,148.515652 97.1132,145.026957 97.1158204,141.313478 L97.1145102,139.518696 L97.1180041,130.52087 L98.8771714,130.52087 C103.267229,130.52087 106.837971,126.943478 106.837971,122.545217 L106.837971,122.18913 C106.837971,119.656087 105.646996,117.4 103.803976,115.938696 C105.650927,114.441304 106.837971,112.156957 106.837971,109.596957 C106.837971,107.011739 105.625159,104.706957 103.743269,103.212174 C105.625159,101.716957 106.837971,99.4117391 106.837971,96.8252174 C106.837971,94.24 105.625159,91.9352174 103.743269,90.4404348 C105.625159,88.9478261 106.837971,86.6413043 106.837971,84.0547826 C106.837971,79.5604348 103.185559,75.9017391 98.6989837,75.9017391 L97.1376571,75.9017391 L97.1546898,27.823913 L97.1546898,22.1043478 L97.1546898,21.9282609 L97.1546898,21.5930435 L97.1608041,10.3926087 C97.1594939,4.75565217 92.5816408,0.166521739 86.9543143,0.16173913 L86.9521306,0.16173913 L27.6335143,0.140869565 C22.0079347,0.142173913 17.4274612,4.73 17.4235306,10.366087 Z M22.121049,27.76 L22.1188653,27.6482609 L22.1249796,22.0386957 L22.1223592,21.9113043 L22.1271633,16.0752174 L22.1236694,15.8356522 L22.1284735,10.37 C22.1310939,7.32869565 24.5999551,4.85391304 27.6313306,4.85391304 L86.9495102,4.87478261 C89.9856898,4.8773913 92.4558612,7.35304348 92.4571714,10.39 L92.4497469,21.5956522 L92.4497469,21.9186957 L92.4497469,22.086087 L92.4497469,25.3586957 L92.4340245,75.9017391 L89.2283918,75.9017391 C88.5732898,75.9017391 87.9387143,75.9886957 87.3277224,76.136087 C83.7561061,76.996087 81.0894041,80.2152174 81.0894041,84.0547826 C81.0894041,85.8082609 81.6506082,87.43 82.5948286,88.7604348 C78.6423796,89.3169565 75.5891673,92.716087 75.5891673,96.8252174 C75.5891673,100.247391 77.7055837,103.17913 80.6954694,104.385217 C79.5184694,105.8 78.8083388,107.616522 78.8083388,109.596957 C78.8083388,113.39087 81.4112776,116.577391 84.9186939,117.482174 C83.9513265,118.803478 83.3704694,120.428261 83.3704694,122.18913 L83.3704694,122.545217 C83.3704694,124.376087 83.995,126.058261 85.0344286,127.404783 C86.4896286,129.296957 88.7693837,130.52087 91.3299592,130.52087 L92.4130612,130.52087 L92.4095673,139.518696 L92.4108776,141.313478 C92.4082571,143.766522 91.457049,146.072609 89.7245224,147.803913 C87.9963633,149.533478 85.6991388,150.485652 83.2547347,150.485652 L83.2446898,150.485652 L31.2431265,150.474783 C29.7512408,150.472174 28.3156939,150.115217 27.0286367,149.443913 C29.5245755,145.043043 32.4642367,137.718696 32.4677306,127.54913 L32.4677306,127.537391 C32.4677306,120.495217 29.8905592,115.309565 26.7639755,111.597391 C25.2598612,109.81087 23.6290939,108.36 22.093098,107.218261 L22.0970286,95.123913 L22.611502,94.0617391 C24.0741265,94.0108696 25.4402327,93.8526087 26.7150612,93.5943478 C30.4102735,92.8473913 33.2975265,91.2408696 35.3296531,88.783913 C39.5882531,83.6334783 38.3501102,76.7617391 38.2950816,76.4726087 C38.1391673,75.6369565 37.4106939,75.0321739 36.5629918,75.0321739 L26.6652735,75.0321739 L22.1040163,75.0321739 L22.121049,27.76 Z M97.1363469,79.4873913 L97.1363469,79.4365217 L98.6989837,79.4365217 C101.241216,79.4365217 103.310029,81.51 103.310029,84.0547826 C103.310029,86.6017391 101.241216,88.6721739 98.6989837,88.6721739 L97.1328531,88.6721739 L97.1328531,88.6234783 L92.4292204,88.6234783 L92.4292204,88.6721739 L91.5094571,88.6721739 L90.9189918,88.6721739 L89.2283918,88.6721739 C88.5623714,88.6721739 87.9326,88.523913 87.3596041,88.27 C85.7480531,87.55 84.6173469,85.936087 84.6173469,84.0547826 C84.6173469,82.1847826 85.7384449,80.5795652 87.3373306,79.8530435 C87.9168776,79.5913043 88.5523265,79.4365217 89.2283918,79.4365217 L92.4327143,79.4365217 L92.4327143,79.4873913 L97.1363469,79.4873913 Z M97.1315429,92.2591304 L97.1315429,92.2069565 L98.6989837,92.2069565 C101.241216,92.2069565 103.310029,94.2804348 103.310029,96.8252174 C103.310029,99.3721739 101.241216,101.444783 98.6989837,101.444783 L97.128049,101.443478 L97.128049,101.392609 L92.4239796,101.390435 L92.4239796,101.44 L91.4299714,101.44 L91.2945837,101.430435 C91.2679429,101.430435 91.2395551,101.42913 91.2129143,101.42913 C91.1849633,101.42913 91.1578857,101.430435 91.1286245,101.430435 C91.1212,101.431739 90.9299102,101.443478 90.9189918,101.444783 L87.3971633,101.444783 L86.9473265,101.444783 L83.7255347,101.444783 C81.1846122,101.444783 79.1171102,99.3721739 79.1171102,96.8252174 C79.1171102,94.2804348 81.1846122,92.2069565 83.7255347,92.2069565 L87.3713959,92.2095652 L90.9884327,92.2121739 L91.1286245,92.2217391 C91.1849633,92.223913 91.2395551,92.223913 91.2945837,92.2217391 C91.3081224,92.2217391 91.4946082,92.2082609 91.5094571,92.2069565 L92.4279102,92.2069565 L92.4279102,92.2591304 L97.1315429,92.2591304 Z M97.1267388,105.029565 L97.1267388,104.978696 L98.6989837,104.978696 C101.241216,104.978696 103.310029,107.05087 103.310029,109.596957 C103.310029,112.142609 101.241216,114.215217 98.6989837,114.215217 L97.1241184,114.215217 L97.1241184,114.164348 L92.4191755,114.164348 L92.4191755,114.215217 L91.3299592,114.215217 L87.4312286,114.215217 L86.9473265,114.215217 C84.4059673,114.215217 82.3371551,112.142609 82.3371551,109.596957 C82.3371551,107.05087 84.4059673,104.978696 86.9473265,104.978696 L87.405898,104.978696 L90.9189918,104.978696 L91.5094571,104.978696 L92.4231061,104.978696 L92.4231061,105.029565 L97.1267388,105.029565 Z M97.1219347,117.8 L97.1219347,117.74913 L98.6989837,117.74913 L98.8771714,117.74913 C101.320265,117.74913 103.310029,119.74087 103.310029,122.18913 L103.310029,122.545217 C103.310029,124.994348 101.320265,126.985652 98.8771714,126.985652 L97.1193143,126.985652 L97.1193143,126.934783 L92.4143714,126.934783 L92.4143714,126.985652 L91.3299592,126.985652 C89.6550816,126.985652 88.2134204,126.04 87.4596163,124.664348 C87.112849,124.032609 86.8997224,123.316087 86.8997224,122.545217 L86.8997224,122.18913 C86.8997224,121.428696 87.1080449,120.722174 87.4482612,120.093043 C88.1972612,118.704783 89.6476571,117.74913 91.3299592,117.74913 L92.4178653,117.74913 L92.4178653,117.8 L97.1219347,117.8 Z" id="path-9"></path>
        <polygon id="path-11" points="0.106980892 0.0759023622 67.8791592 0.0759023622 67.8791592 553.602167 0.106980892 553.602167"></polygon>
        <path d="M0.316363636,2.71628571 L0.316363636,9.63171429 C0.316363636,10.9037143 1.31090909,11.9365714 2.53909091,11.9365714 C3.76636364,11.9365714 4.76090909,10.9037143 4.76090909,9.63171429 L4.76090909,2.71628571 C4.76090909,1.44171429 3.76636364,0.410142857 2.53909091,0.410142857 C1.31090909,0.410142857 0.316363636,1.44171429 0.316363636,2.71628571 Z" id="path-13"></path>
        <path d="M0.316363636,2.464 L0.316363636,17.1822222 C0.316363636,18.52 1.31090909,19.6031111 2.53909091,19.6031111 C3.76636364,19.6031111 4.76090909,18.52 4.76090909,17.1822222 L4.76090909,2.464 C4.76090909,1.12755556 3.76636364,0.0444444444 2.53909091,0.0444444444 C1.31090909,0.0444444444 0.316363636,1.12755556 0.316363636,2.464 Z" id="path-15"></path>
        <path d="M0.316363636,2.42622222 L0.316363636,17.1457778 C0.316363636,18.4813333 1.31090909,19.5666667 2.53909091,19.5666667 C3.76636364,19.5666667 4.76090909,18.4813333 4.76090909,17.1457778 L4.76090909,2.42622222 C4.76090909,1.08977778 3.76636364,0.00666666667 2.53909091,0.00666666667 C1.31090909,0.00666666667 0.316363636,1.08977778 0.316363636,2.42622222 Z" id="path-17"></path>
        <path d="M0.316363636,2.7 L0.316363636,17.4182222 C0.316363636,18.7537778 1.31090909,19.8391111 2.53909091,19.8391111 C3.76636364,19.8391111 4.76090909,18.7537778 4.76090909,17.4182222 L4.76090909,2.7 C4.76090909,1.36311111 3.76636364,0.279111111 2.53909091,0.279111111 C1.31090909,0.279111111 0.316363636,1.36311111 0.316363636,2.7 Z" id="path-19"></path>
        <path d="M0.316363636,2.70533333 L0.316363636,17.4257778 C0.316363636,18.7604444 1.31090909,19.8444444 2.53909091,19.8444444 C3.76636364,19.8444444 4.76090909,18.7604444 4.76090909,17.4257778 L4.76090909,2.70533333 C4.76090909,1.36888889 3.76636364,0.284888889 2.53909091,0.284888889 C1.31090909,0.284888889 0.316363636,1.36888889 0.316363636,2.70533333 Z" id="path-21"></path>
        <path d="M0.316363636,2.64266667 L0.316363636,17.3608889 C0.316363636,18.6973333 1.31090909,19.7817778 2.53909091,19.7817778 C3.76636364,19.7817778 4.76090909,18.6973333 4.76090909,17.3608889 L4.76090909,2.64266667 C4.76090909,1.30577778 3.76636364,0.221777778 2.53909091,0.221777778 C1.31090909,0.221777778 0.316363636,1.30577778 0.316363636,2.64266667 Z" id="path-23"></path>
        <path d="M0.316363636,2.59866667 L0.316363636,17.3173333 C0.316363636,18.6542222 1.31090909,19.7386667 2.53909091,19.7386667 C3.76636364,19.7386667 4.76090909,18.6542222 4.76090909,17.3173333 L4.76090909,2.59866667 C4.76090909,1.26177778 3.76636364,0.178666667 2.53909091,0.178666667 C1.31090909,0.178666667 0.316363636,1.26177778 0.316363636,2.59866667 Z" id="path-25"></path>
        <path d="M0.316363636,2.636 L0.316363636,17.356 C0.316363636,18.692 1.31090909,19.776 2.53909091,19.776 C3.76636364,19.776 4.76090909,18.692 4.76090909,17.356 L4.76090909,2.636 C4.76090909,1.29911111 3.76636364,0.216 2.53909091,0.216 C1.31090909,0.216 0.316363636,1.29911111 0.316363636,2.636 Z" id="path-27"></path>
        <path d="M0.316363636,2.43333333 L0.316363636,17.1524444 C0.316363636,18.488 1.31090909,19.572 2.53909091,19.572 C3.76636364,19.572 4.76090909,18.488 4.76090909,17.1524444 L4.76090909,2.43333333 C4.76090909,1.09733333 3.76636364,0.012 2.53909091,0.012 C1.31090909,0.012 0.316363636,1.09733333 0.316363636,2.43333333 Z" id="path-29"></path>
        <path d="M0.316363636,2.668 L0.316363636,17.3862222 C0.316363636,18.724 1.31090909,19.8071111 2.53909091,19.8071111 C3.76636364,19.8071111 4.76090909,18.724 4.76090909,17.3862222 L4.76090909,2.668 C4.76090909,1.33022222 3.76636364,0.247111111 2.53909091,0.247111111 C1.31090909,0.247111111 0.316363636,1.33022222 0.316363636,2.668 Z" id="path-31"></path>
        <path d="M0.316363636,2.76933333 L0.316363636,17.4888889 C0.316363636,18.8244444 1.31090909,19.9075556 2.53909091,19.9075556 C3.76636364,19.9075556 4.76090909,18.8244444 4.76090909,17.4888889 L4.76090909,2.76933333 C4.76090909,1.432 3.76636364,0.348888889 2.53909091,0.348888889 C1.31090909,0.348888889 0.316363636,1.432 0.316363636,2.76933333 Z" id="path-33"></path>
        <path d="M0.316363636,2.75866667 L0.316363636,17.4764444 C0.316363636,18.8133333 1.31090909,19.8968889 2.53909091,19.8968889 C3.76636364,19.8968889 4.76090909,18.8133333 4.76090909,17.4764444 L4.76090909,2.75866667 C4.76090909,1.42177778 3.76636364,0.336444444 2.53909091,0.336444444 C1.31090909,0.336444444 0.316363636,1.42177778 0.316363636,2.75866667 Z" id="path-35"></path>
        <path d="M0.316363636,2.764 L0.316363636,17.4822222 C0.316363636,18.8182222 1.31090909,19.9017778 2.53909091,19.9017778 C3.76636364,19.9017778 4.76090909,18.8182222 4.76090909,17.4822222 L4.76090909,2.764 C4.76090909,1.42755556 3.76636364,0.342222222 2.53909091,0.342222222 C1.31090909,0.342222222 0.316363636,1.42755556 0.316363636,2.764 Z" id="path-37"></path>
        <path d="M0.316363636,2.49733333 L0.316363636,17.2142222 C0.316363636,18.5511111 1.31090909,19.6351111 2.53909091,19.6351111 C3.76636364,19.6351111 4.76090909,18.5511111 4.76090909,17.2142222 L4.76090909,2.49733333 C4.76090909,1.16044444 3.76636364,0.0751111111 2.53909091,0.0751111111 C1.31090909,0.0751111111 0.316363636,1.16044444 0.316363636,2.49733333 Z" id="path-39"></path>
        <path d="M0.316363636,2.79955556 L0.316363636,17.52 C0.316363636,18.8564444 1.31090909,19.9395556 2.53909091,19.9395556 C3.76636364,19.9395556 4.76090909,18.8564444 4.76090909,17.52 L4.76090909,2.79955556 C4.76090909,1.464 3.76636364,0.379555556 2.53909091,0.379555556 C1.31090909,0.379555556 0.316363636,1.464 0.316363636,2.79955556 Z" id="path-41"></path>
        <path d="M0.316363636,2.52755556 L0.316363636,17.2475556 C0.316363636,18.584 1.31090909,19.6671111 2.53909091,19.6671111 C3.76636364,19.6671111 4.76090909,18.584 4.76090909,17.2475556 L4.76090909,2.52755556 C4.76090909,1.19155556 3.76636364,0.107111111 2.53909091,0.107111111 C1.31090909,0.107111111 0.316363636,1.19155556 0.316363636,2.52755556 Z" id="path-43"></path>
        <path d="M0.316363636,2.49155556 L0.316363636,17.2088889 C0.316363636,18.5471111 1.31090909,19.6297778 2.53909091,19.6297778 C3.76636364,19.6297778 4.76090909,18.5471111 4.76090909,17.2088889 L4.76090909,2.49155556 C4.76090909,1.15511111 3.76636364,0.0693333333 2.53909091,0.0693333333 C1.31090909,0.0693333333 0.316363636,1.15511111 0.316363636,2.49155556 Z" id="path-45"></path>
        <path d="M0.316363636,2.53244444 L0.316363636,17.2515556 C0.316363636,18.5897778 1.31090909,19.6728889 2.53909091,19.6728889 C3.76636364,19.6728889 4.76090909,18.5897778 4.76090909,17.2515556 L4.76090909,2.53244444 C4.76090909,1.19688889 3.76636364,0.112888889 2.53909091,0.112888889 C1.31090909,0.112888889 0.316363636,1.19688889 0.316363636,2.53244444 Z" id="path-47"></path>
        <path d="M0.316363636,2.48357143 L0.316363636,9.399 C0.316363636,10.6722857 1.31090909,11.7042857 2.53909091,11.7042857 C3.76636364,11.7042857 4.76090909,10.6722857 4.76090909,9.399 L4.76090909,2.48357143 C4.76090909,1.21028571 3.76636364,0.177428571 2.53909091,0.177428571 C1.31090909,0.177428571 0.316363636,1.21028571 0.316363636,2.48357143 Z" id="path-49"></path>
    </defs>
    <g id="Desktop-HD" stroke="none" stroke-width="1" fill="none" fill-rule="evenodd" transform="translate(-63.000000, -788.000000)">
        <g id="Group-21" transform="translate(63.000000, 788.000000)">
            <g id="Page-1">
                <path d="M4,160 L4,103.209419 L14.5026889,78.2822554 L22.3797056,76.7649497 L21.5044815,10.0035032 C21.5044815,10.0035032 22.3797056,2.20021723 35.5080668,3.067249 L91.5224077,3.93428078 C91.5224077,3.93428078 96.3361401,4.36779666 97.2113642,11.7375667 L97.2113642,77.1984656 C97.2113642,77.1984656 105.088381,75.4644021 106.838829,82.8341722 C106.838829,82.8341722 108.151665,87.6028469 103.775545,90.2039422 C103.775545,90.2039422 110.339725,95.4061329 104.213157,102.342387 L104.213157,104.509966 C104.213157,104.509966 112.090173,109.712157 104.650769,114.914348 C104.650769,114.914348 115.153458,128.35334 98.9618123,129.220372 L97.2113642,129.220372 L96.7737521,142.659365 C96.7737521,142.659365 95.8985281,152.196714 85.3958391,153.063746 L60.4519529,151.763198 L55.6382205,160 L4,160 Z" id="Fill-1" fill="#FEFEFE"></path>
                <g id="Group-5" transform="translate(29.000000, 16.000000)">
                    <mask id="mask-2" fill="white">
                        <use xlink:href="#path-1"></use>
                    </mask>
                    <g id="Clip-4"></g>
                    <polygon id="Fill-3" fill="#FF7000" mask="url(#mask-2)" points="-5.20217391 117.028625 64.9565217 117.028625 64.9565217 -4.91225 -5.20217391 -4.91225"></polygon>
                </g>
                <g id="Group-8" transform="translate(51.000000, 132.000000)">
                    <mask id="mask-4" fill="white">
                        <use xlink:href="#path-3"></use>
                    </mask>
                    <g id="Clip-7"></g>
                    <polygon id="Fill-6" fill="#424142" mask="url(#mask-4)" points="-5.43015 23.12685 23.17545 23.12685 23.17545 -5.47875 -5.43015 -5.47875"></polygon>
                </g>
                <g id="Group-11" transform="translate(42.000000, 10.000000)">
                    <mask id="mask-6" fill="white">
                        <use xlink:href="#path-5"></use>
                    </mask>
                    <g id="Clip-10"></g>
                    <polygon id="Fill-9" fill="#424142" mask="url(#mask-6)" points="-5.813 9.9435 10.079 9.9435 10.079 -5.948 -5.813 -5.948"></polygon>
                </g>
                <g id="Group-14" transform="translate(47.000000, 10.000000)">
                    <mask id="mask-8" fill="white">
                        <use xlink:href="#path-7"></use>
                    </mask>
                    <g id="Clip-13"></g>
                    <polygon id="Fill-12" fill="#424142" mask="url(#mask-8)" points="-5.04945714 8.721 36.0950714 8.721 36.0950714 -5.9485 -5.04945714 -5.9485"></polygon>
                </g>
                <g id="Group-17" transform="translate(2.000000, 0.000000)">
                    <mask id="mask-10" fill="white">
                        <use xlink:href="#path-9"></use>
                    </mask>
                    <g id="Clip-16"></g>
                    <polygon id="Fill-15" fill="#424142" mask="url(#mask-10)" points="-5.27968571 164.906957 112.176616 164.906957 112.176616 -5.17434783 -5.27968571 -5.17434783"></polygon>
                </g>
                <g id="Group-20" transform="translate(0.000000, 158.000000)">
                    <mask id="mask-12" fill="white">
                        <use xlink:href="#path-11"></use>
                    </mask>
                    <g id="Clip-19"></g>
                    <polygon id="Fill-18" fill="#FFB100" mask="url(#mask-12)" points="-5.18792357 558.934526 73.1740637 558.934526 73.1740637 -5.25776535 -5.18792357 -5.25776535"></polygon>
                </g>
                <g id="Group-23" transform="translate(11.000000, 171.000000)">
                    <mask id="mask-14" fill="white">
                        <use xlink:href="#path-13"></use>
                    </mask>
                    <g id="Clip-22"></g>
                    <polygon id="Fill-21" fill="#424142" mask="url(#mask-14)" points="-5.24045455 17.175 10.3181818 17.175 10.3181818 -4.82957143 -5.24045455 -4.82957143"></polygon>
                </g>
                <g id="Group-26" transform="translate(11.000000, 488.000000)">
                    <mask id="mask-16" fill="white">
                        <use xlink:href="#path-15"></use>
                    </mask>
                    <g id="Clip-25"></g>
                    <polygon id="Fill-24" fill="#424142" mask="url(#mask-16)" points="-5.24045455 25.0364444 10.3181818 25.0364444 10.3181818 -5.38933333 -5.24045455 -5.38933333"></polygon>
                </g>
                <g id="Group-29" transform="translate(11.000000, 549.000000)">
                    <mask id="mask-18" fill="white">
                        <use xlink:href="#path-17"></use>
                    </mask>
                    <g id="Clip-28"></g>
                    <polygon id="Fill-27" fill="#424142" mask="url(#mask-18)" points="-5.24045455 24.9991111 10.3181818 24.9991111 10.3181818 -5.42666667 -5.24045455 -5.42666667"></polygon>
                </g>
                <g id="Group-32" transform="translate(11.000000, 430.000000)">
                    <mask id="mask-20" fill="white">
                        <use xlink:href="#path-19"></use>
                    </mask>
                    <g id="Clip-31"></g>
                    <polygon id="Fill-30" fill="#424142" mask="url(#mask-20)" points="-5.24045455 25.2715556 10.3181818 25.2715556 10.3181818 -5.15422222 -5.24045455 -5.15422222"></polygon>
                </g>
                <g id="Group-35" transform="translate(11.000000, 458.000000)">
                    <mask id="mask-22" fill="white">
                        <use xlink:href="#path-21"></use>
                    </mask>
                    <g id="Clip-34"></g>
                    <polygon id="Fill-33" fill="#424142" mask="url(#mask-22)" points="-5.24045455 25.2773333 10.3181818 25.2773333 10.3181818 -5.14844444 -5.24045455 -5.14844444"></polygon>
                </g>
                <g id="Group-38" transform="translate(11.000000, 636.000000)">
                    <mask id="mask-24" fill="white">
                        <use xlink:href="#path-23"></use>
                    </mask>
                    <g id="Clip-37"></g>
                    <polygon id="Fill-36" fill="#424142" mask="url(#mask-24)" points="-5.24045455 25.2137778 10.3181818 25.2137778 10.3181818 -5.21155556 -5.24045455 -5.21155556"></polygon>
                </g>
                <g id="Group-41" transform="translate(11.000000, 666.000000)">
                    <mask id="mask-26" fill="white">
                        <use xlink:href="#path-25"></use>
                    </mask>
                    <g id="Clip-40"></g>
                    <polygon id="Fill-39" fill="#424142" mask="url(#mask-26)" points="-5.24045455 25.1711111 10.3181818 25.1711111 10.3181818 -5.25466667 -5.24045455 -5.25466667"></polygon>
                </g>
                <g id="Group-44" transform="translate(11.000000, 607.000000)">
                    <mask id="mask-28" fill="white">
                        <use xlink:href="#path-27"></use>
                    </mask>
                    <g id="Clip-43"></g>
                    <polygon id="Fill-42" fill="#424142" mask="url(#mask-28)" points="-5.24045455 25.2084444 10.3181818 25.2084444 10.3181818 -5.21733333 -5.24045455 -5.21733333"></polygon>
                </g>
                <g id="Group-47" transform="translate(11.000000, 577.000000)">
                    <mask id="mask-30" fill="white">
                        <use xlink:href="#path-29"></use>
                    </mask>
                    <g id="Clip-46"></g>
                    <polygon id="Fill-45" fill="#424142" mask="url(#mask-30)" points="-5.24045455 25.0048889 10.3181818 25.0048889 10.3181818 -5.42088889 -5.24045455 -5.42088889"></polygon>
                </g>
                <g id="Group-50" transform="translate(11.000000, 518.000000)">
                    <mask id="mask-32" fill="white">
                        <use xlink:href="#path-31"></use>
                    </mask>
                    <g id="Clip-49"></g>
                    <polygon id="Fill-48" fill="#424142" mask="url(#mask-32)" points="-5.24045455 25.24 10.3181818 25.24 10.3181818 -5.18577778 -5.24045455 -5.18577778"></polygon>
                </g>
                <g id="Group-53" transform="translate(11.000000, 281.000000)">
                    <mask id="mask-34" fill="white">
                        <use xlink:href="#path-33"></use>
                    </mask>
                    <g id="Clip-52"></g>
                    <polygon id="Fill-51" fill="#424142" mask="url(#mask-34)" points="-5.24045455 25.3408889 10.3181818 25.3408889 10.3181818 -5.08488889 -5.24045455 -5.08488889"></polygon>
                </g>
                <g id="Group-56" transform="translate(11.000000, 224.000000)">
                    <mask id="mask-36" fill="white">
                        <use xlink:href="#path-35"></use>
                    </mask>
                    <g id="Clip-55"></g>
                    <polygon id="Fill-54" fill="#424142" mask="url(#mask-36)" points="-5.24045455 25.3293333 10.3181818 25.3293333 10.3181818 -5.09644444 -5.24045455 -5.09644444"></polygon>
                </g>
                <g id="Group-59" transform="translate(11.000000, 253.000000)">
                    <mask id="mask-38" fill="white">
                        <use xlink:href="#path-37"></use>
                    </mask>
                    <g id="Clip-58"></g>
                    <polygon id="Fill-57" fill="#424142" mask="url(#mask-38)" points="-5.24045455 25.3351111 10.3181818 25.3351111 10.3181818 -5.09066667 -5.24045455 -5.09066667"></polygon>
                </g>
                <g id="Group-62" transform="translate(11.000000, 400.000000)">
                    <mask id="mask-40" fill="white">
                        <use xlink:href="#path-39"></use>
                    </mask>
                    <g id="Clip-61"></g>
                    <polygon id="Fill-60" fill="#424142" mask="url(#mask-40)" points="-5.24045455 25.068 10.3181818 25.068 10.3181818 -5.35777778 -5.24045455 -5.35777778"></polygon>
                </g>
                <g id="Group-65" transform="translate(11.000000, 193.000000)">
                    <mask id="mask-42" fill="white">
                        <use xlink:href="#path-41"></use>
                    </mask>
                    <g id="Clip-64"></g>
                    <polygon id="Fill-63" fill="#424142" mask="url(#mask-42)" points="-5.24045455 25.3724444 10.3181818 25.3724444 10.3181818 -5.05333333 -5.24045455 -5.05333333"></polygon>
                </g>
                <g id="Group-68" transform="translate(11.000000, 312.000000)">
                    <mask id="mask-44" fill="white">
                        <use xlink:href="#path-43"></use>
                    </mask>
                    <g id="Clip-67"></g>
                    <polygon id="Fill-66" fill="#424142" mask="url(#mask-44)" points="-5.24045455 25.1 10.3181818 25.1 10.3181818 -5.32577778 -5.24045455 -5.32577778"></polygon>
                </g>
                <g id="Group-71" transform="translate(11.000000, 371.000000)">
                    <mask id="mask-46" fill="white">
                        <use xlink:href="#path-45"></use>
                    </mask>
                    <g id="Clip-70"></g>
                    <polygon id="Fill-69" fill="#424142" mask="url(#mask-46)" points="-5.24045455 25.0626667 10.3181818 25.0626667 10.3181818 -5.36311111 -5.24045455 -5.36311111"></polygon>
                </g>
                <g id="Group-74" transform="translate(11.000000, 341.000000)">
                    <mask id="mask-48" fill="white">
                        <use xlink:href="#path-47"></use>
                    </mask>
                    <g id="Clip-73"></g>
                    <polygon id="Fill-72" fill="#424142" mask="url(#mask-48)" points="-5.24045455 25.1053333 10.3181818 25.1053333 10.3181818 -5.32044444 -5.24045455 -5.32044444"></polygon>
                </g>
                <g id="Group-77" transform="translate(11.000000, 695.000000)">
                    <mask id="mask-50" fill="white">
                        <use xlink:href="#path-49"></use>
                    </mask>
                    <g id="Clip-76"></g>
                    <polygon id="Fill-75" fill="#424142" mask="url(#mask-50)" points="-5.24045455 16.9427143 10.3181818 16.9427143 10.3181818 -5.06185714 -5.24045455 -5.06185714"></polygon>
                </g>
            </g>
        </g>
    </g>
</svg>