<?xml version="1.0" encoding="utf-8"?>
<!-- Generator: Adobe Illustrator 21.0.2, SVG Export Plug-In . SVG Version: 6.00 Build 0)  -->
<svg version="1.1" id="Capa_1" xmlns="http://www.w3.org/2000/svg" xmlns:xlink="http://www.w3.org/1999/xlink" x="0px" y="0px"
	 viewBox="0 0 464 150" style="enable-background:new 0 0 464 150;" xml:space="preserve">
<style type="text/css">
	.st0{fill:#424243;}
</style>
<title>NSW color Copy 2</title>
<desc>Created with Sketch.</desc>
<g>
	<g>
		<path class="st0" d="M58.5,80.6H62c0.3,0,0.6-0.3,0.6-0.6c0-0.3-0.3-0.6-0.6-0.6h-3.5c-0.3,0-0.6,0.3-0.6,0.6
			C57.9,80.3,58.2,80.6,58.5,80.6z"/>
		<path class="st0" d="M62,82.6h-3.5c-0.3,0-0.6,0.3-0.6,0.6c0,0.3,0.3,0.6,0.6,0.6H62c0.3,0,0.6-0.3,0.6-0.6S62.3,82.6,62,82.6z"/>
		<path class="st0" d="M62,85.8h-3.5c-0.3,0-0.6,0.3-0.6,0.6c0,0.3,0.3,0.6,0.6,0.6H62c0.3,0,0.6-0.3,0.6-0.6
			C62.6,86.1,62.3,85.8,62,85.8z"/>
		<path class="st0" d="M62,89.1h-3.5c-0.3,0-0.6,0.3-0.6,0.6c0,0.3,0.3,0.6,0.6,0.6H62c0.3,0,0.6-0.3,0.6-0.6S62.3,89.1,62,89.1z"/>
		<path class="st0" d="M62,92.4h-3.5c-0.3,0-0.6,0.3-0.6,0.6c0,0.3,0.3,0.6,0.6,0.6H62c0.3,0,0.6-0.3,0.6-0.6
			C62.6,92.6,62.3,92.4,62,92.4z"/>
		<path class="st0" d="M62,95.6h-3.5c-0.3,0-0.6,0.3-0.6,0.6c0,0.3,0.3,0.6,0.6,0.6H62c0.3,0,0.6-0.3,0.6-0.6S62.3,95.6,62,95.6z"/>
		<path class="st0" d="M62,98.9h-3.5c-0.3,0-0.6,0.3-0.6,0.6c0,0.3,0.3,0.6,0.6,0.6H62c0.3,0,0.6-0.3,0.6-0.6
			C62.6,99.1,62.3,98.9,62,98.9z"/>
		<path class="st0" d="M62,102.1h-3.5c-0.3,0-0.6,0.3-0.6,0.6c0,0.3,0.3,0.6,0.6,0.6H62c0.3,0,0.6-0.3,0.6-0.6S62.3,102.1,62,102.1z
			"/>
		<path class="st0" d="M62,105.4h-3.5c-0.3,0-0.6,0.3-0.6,0.6s0.3,0.6,0.6,0.6H62c0.3,0,0.6-0.3,0.6-0.6S62.3,105.4,62,105.4z"/>
		<path class="st0" d="M60.2,67.2c1.1,0,2-0.9,2-2s-0.9-2-2-2s-2,0.9-2,2C58.2,66.3,59.1,67.2,60.2,67.2z M60.2,64.4
			c0.4,0,0.8,0.4,0.8,0.8S60.6,66,60.2,66c-0.4,0-0.8-0.4-0.8-0.8C59.4,64.7,59.8,64.4,60.2,64.4z"/>
		<path class="st0" d="M60.7,21.4c1.1,0,2.1-0.9,2.1-2.1V2.9c0-1.1-0.9-2.1-2.1-2.1c-1.1,0-2.1,0.9-2.1,2.1v16.5
			C58.6,20.5,59.6,21.4,60.7,21.4z"/>
		<path class="st0" d="M32.8,29.2c0.4,0.5,1,0.9,1.7,0.9c0.4,0,0.9-0.1,1.2-0.4c0.4-0.3,0.7-0.8,0.8-1.4c0.1-0.5,0-1.1-0.4-1.5
			l-9.7-13.4c-0.3-0.5-0.8-0.7-1.4-0.8s-1.1,0-1.5,0.4c-0.9,0.7-1.1,2-0.5,2.9L32.8,29.2z"/>
		<path class="st0" d="M2,47.2l15.7,5.1c0.2,0.1,0.4,0.1,0.7,0.1c0.9,0,1.7-0.6,2-1.4c0.4-1.1-0.2-2.3-1.3-2.6L3.3,43.3
			c-0.5-0.2-1.1-0.1-1.6,0.1c-0.5,0.3-0.9,0.7-1,1.2c-0.2,0.5-0.1,1.1,0.1,1.6C1,46.7,1.4,47.1,2,47.2z"/>
		<path class="st0" d="M17.7,76L2,81.1c-0.5,0.2-1,0.5-1.2,1c-0.3,0.5-0.3,1.1-0.1,1.6c0.3,0.9,1.1,1.4,2,1.4c0.2,0,0.4,0,0.6-0.1
			L19,79.9c0.5-0.2,1-0.5,1.2-1c0.3-0.5,0.3-1.1,0.1-1.6C20,76.2,18.8,75.6,17.7,76z"/>
		<path class="st0" d="M119.7,80.9L104,75.8c-0.5-0.2-1.1-0.1-1.6,0.1c-0.5,0.3-0.9,0.7-1,1.2c-0.2,0.5-0.1,1.1,0.1,1.6
			c0.3,0.5,0.7,0.9,1.2,1l15.7,5.1c0.2,0.1,0.4,0.1,0.6,0.1c0.9,0,1.7-0.6,2-1.4C121.4,82.4,120.8,81.2,119.7,80.9z"/>
		<path class="st0" d="M103.3,52.2c0.2,0,0.4,0,0.6-0.1l15.7-5.1c0.5-0.2,1-0.5,1.2-1c0.3-0.5,0.3-1.1,0.1-1.6
			c-0.4-1.1-1.5-1.7-2.6-1.3l-15.7,5.1c-0.5,0.2-1,0.5-1.2,1c-0.3,0.5-0.3,1.1-0.1,1.6C101.6,51.6,102.4,52.2,103.3,52.2z"/>
		<path class="st0" d="M87,29.9c0.7,0,1.3-0.3,1.7-0.9l9.7-13.4c0.3-0.4,0.5-1,0.4-1.5s-0.4-1-0.8-1.4c-0.4-0.3-1-0.5-1.5-0.4
			s-1,0.4-1.4,0.8l-9.7,13.4c-0.7,0.9-0.5,2.2,0.5,2.9C86.1,29.8,86.6,29.9,87,29.9z"/>
		<path class="st0" d="M60.2,25.6c-21.5,0-39,17.5-39,39c0,12.7,6.2,24.6,16.5,31.9l3.2,14.3c0.1,0.6,0.7,1.1,1.3,1.1h1.6v17.5
			c0,0.5,0.4,0.9,0.9,0.9h1.8c0.7,1.9,3.7,7.2,13.2,7.2c9.6,0,12.5-5.3,13.2-7.2h1.8c0.5,0,0.9-0.4,0.9-0.9v-3.7h2
			c0.5,0,0.9-0.4,0.9-0.9s-0.4-0.9-0.9-0.9h-2v-3.3h2c0.5,0,0.9-0.4,0.9-0.9s-0.4-0.9-0.9-0.9h-2v-3.3h2c0.5,0,0.9-0.4,0.9-0.9
			s-0.4-0.9-0.9-0.9h-2v-2.1h2.3c0.6-0.1,1.1-0.5,1.3-1.1l3.2-14.2c8.4-5.9,14-14.7,15.9-24.9c0.2-1,0.3-1.9,0.4-2.9
			c0-0.2,0.1-0.5,0.1-0.7v-0.6c0-0.3,0-0.6,0.1-0.9v-0.5c0-0.5,0-0.9,0-1.4C99.2,43.1,81.7,25.6,60.2,25.6z M49,105.4h-1.2v-2H49
			c0.3,0,0.6-0.3,0.6-0.6c0-0.3-0.3-0.6-0.6-0.6h-1.2v-2H49c0.3,0,0.6-0.3,0.6-0.6c0-0.3-0.3-0.6-0.6-0.6h-1.2v-2H49
			c0.3,0,0.6-0.3,0.6-0.6c0-0.3-0.3-0.6-0.6-0.6h-1.2v-2H49c0.3,0,0.6-0.3,0.6-0.6c0-0.3-0.3-0.6-0.6-0.6h-1.2v-2H49
			c0.3,0,0.6-0.3,0.6-0.6c0-0.3-0.3-0.6-0.6-0.6h-1.2v-2H49c0.3,0,0.6-0.3,0.6-0.6c0-0.3-0.3-0.6-0.6-0.6h-1.2v-2H49
			c0.3,0,0.6-0.3,0.6-0.6c0-0.3-0.3-0.6-0.6-0.6h-1.2v-2H49c0.3,0,0.6-0.3,0.6-0.6c0-0.3-0.3-0.6-0.6-0.6h-1.2v-1.7h1.9v31.3h-1.9
			v-2.3H49c0.3,0,0.6-0.3,0.6-0.6S49.3,105.4,49,105.4z M53,63v5.1l0,0l0,0v8.3h-2.1V63H53z M51,61.7l0.3-9.1h1.2l0.4,9.1
			C52.9,61.7,51,61.7,51,61.7z M69.4,63v13.4h-2.1v-8.3l0,0l0,0V63H69.4z M67.3,61.7l0.4-9.1H69l0.3,9.1
			C69.3,61.7,67.3,61.7,67.3,61.7z M72.6,79.3h-1.2c-0.3,0-0.6,0.3-0.6,0.6c0,0.3,0.3,0.6,0.6,0.6h1.2v2h-1.2
			c-0.3,0-0.6,0.3-0.6,0.6c0,0.3,0.3,0.6,0.6,0.6h1.2v2h-1.2c-0.3,0-0.6,0.3-0.6,0.6c0,0.3,0.3,0.6,0.6,0.6h1.2v2h-1.2
			c-0.3,0-0.6,0.3-0.6,0.6c0,0.3,0.3,0.6,0.6,0.6h1.2v2h-1.2c-0.3,0-0.6,0.3-0.6,0.6c0,0.3,0.3,0.6,0.6,0.6h1.2v2h-1.2
			c-0.3,0-0.6,0.3-0.6,0.6c0,0.3,0.3,0.6,0.6,0.6h1.2V98c-0.4,0.1-0.8,0.3-1.2,0.4c-0.3,0.1-0.6,0.3-0.8,0.6V77.6h1.9L72.6,79.3
			L72.6,79.3z M70.6,101c0.4,0.5,1.1,0.8,1.7,0.6c0.1,0,0.2-0.1,0.3-0.1v0.6h-1.2c-0.3,0-0.6,0.3-0.6,0.6c0,0.3,0.3,0.6,0.6,0.6h1.2
			v2h-1.2c-0.3,0-0.6,0.3-0.6,0.6s0.3,0.6,0.6,0.6h1.2v2.3h-1.9L70.6,101L70.6,101z M57.2,77.5h5.9v31.4h-5.9V77.5z M57,76.3
			l-2.5-7.6h11.3l-2.5,7.6H57z M67.3,77.6h2.1v31.3h-2.1V77.6z M64.3,108.9V77l1.7-5.1V77v0.1c0,0.1,0,0.1,0,0.1v31.7
			C66,108.9,64.3,108.9,64.3,108.9z M66,67.5H54.2V63H66V67.5z M56,77v31.9h-1.7V71.8L56,77z M50.9,77.6H53v31.3h-2.1V77.6z
			 M59.9,135.7c-7.6,0-10.4-3.6-11.4-5.5h22.7C70.2,132,67.4,135.7,59.9,135.7z M74.1,128.5H45.7v-2.9h28.4V128.5z M74.1,123.9H45.7
			v-3.3h28.4V123.9z M74.1,118.9H45.7v-3.3h28.4V118.9z M74.1,113.9H45.7v-2.1h28.4V113.9z M76.8,108.9h-3V101
			c1.8-0.7,3.6-1.4,5.3-2.4L76.8,108.9z M96.2,65.9v0.5c0,0.3,0,0.6,0,0.8v0.6c0,0.2,0,0.4-0.1,0.7c-0.1,0.9-0.2,1.9-0.4,2.8
			c-1.8,9.5-7.1,17.7-15.1,23.2c-0.1,0-0.1,0.1-0.2,0.1c-2,1.4-4.2,2.5-6.5,3.4V77c0-0.3-0.3-0.6-0.6-0.6h-2.6v-14
			c0-0.1,0-0.2-0.1-0.2L70.2,52c0-0.3-0.3-0.6-0.6-0.6H69v-10c0-0.3-0.3-0.6-0.6-0.6c-0.3,0-0.6,0.3-0.6,0.6v10.1h-0.6
			c-0.3,0-0.6,0.3-0.6,0.6l-0.5,9.7H54.2L53.7,52c0-0.3-0.3-0.6-0.6-0.6h-0.6v-10c0-0.3-0.3-0.6-0.6-0.6s-0.6,0.3-0.6,0.6v10.1h-0.6
			c-0.3,0-0.6,0.3-0.6,0.6l-0.4,10.3l0,0v14.1h-2.6c-0.3,0-0.6,0.3-0.6,0.6V109h-3l-3.1-13.7c-0.1-0.4-0.3-0.7-0.6-0.9
			C30,87.6,24.1,76.5,24.1,64.6c0-19.9,16.2-36,36-36c19.9,0,36,16.2,36,36C96.2,65,96.2,65.4,96.2,65.9z"/>
		<path class="st0" d="M59.4,32.1C41.5,32.1,27,46.7,27,64.6c0,0.8,0.7,1.5,1.5,1.5s1.5-0.7,1.5-1.5C29.9,48.3,43.1,35,59.4,35
			c0.8,0,1.5-0.7,1.5-1.5S60.2,32.1,59.4,32.1z"/>
	</g>
	<g>
		<path class="st0" d="M181.9,89.3c-0.8,0-1.4-0.2-1.9-0.6c-0.5-0.5-0.8-0.8-1-1l-15.5-23.2v22.9c0,0.5-0.2,1-0.5,1.3
			c-0.3,0.3-0.8,0.5-1.3,0.5h-9c-0.5,0-1-0.2-1.3-0.5c-0.3-0.3-0.5-0.8-0.5-1.3V43.5c0-0.5,0.2-1,0.5-1.3c0.3-0.3,0.8-0.5,1.3-0.5h7
			c0.8,0,1.4,0.2,1.9,0.6c0.5,0.5,0.8,0.8,1,1l15.5,23.2V43.5c0-0.5,0.2-1,0.5-1.3c0.3-0.3,0.8-0.5,1.3-0.5h9c0.5,0,1,0.2,1.3,0.5
			s0.5,0.8,0.5,1.3v43.9c0,0.5-0.2,1-0.5,1.3c-0.3,0.3-0.8,0.5-1.3,0.5h-7V89.3z"/>
		<path class="st0" d="M197.1,79.3c0-3,1.1-5.4,3.4-7.4s6.1-3.4,11.2-4.3l8-1.3c0-1.1-0.3-1.9-1-2.7c-0.6-0.6-1.6-1.1-3-1.1
			c-1.1,0-1.9,0.2-2.4,0.5c-0.6,0.3-1,0.5-1.3,0.8c-0.5,0.3-0.8,0.6-1.1,0.6c-0.3,0.2-0.8,0.2-1.3,0.2H201c-0.5,0-0.8-0.2-1.1-0.5
			c-0.3-0.3-0.5-0.6-0.3-1.1c0.2-1.1,0.5-2.1,1.3-3.2c0.8-1.1,1.9-2.2,3.4-3.2c1.4-1,3.2-1.8,5.1-2.4c1.9-0.6,4.2-1,6.4-1
			c2.7,0,5.1,0.3,7.2,1c2.1,0.6,3.7,1.6,5.1,2.9c1.3,1.1,2.2,2.6,2.9,4.3c0.6,1.6,1,3.5,1,5.4v20.7c0,0.5-0.2,1-0.5,1.3
			c-0.3,0.3-0.8,0.5-1.3,0.5h-8.5c-0.5,0-1-0.2-1.3-0.5s-0.5-0.8-0.5-1.3v-1.9c-1.1,1.3-2.4,2.4-4,3.2c-1.6,0.8-3.7,1.1-6.4,1.1
			c-1.9,0-3.7-0.3-5.1-0.8c-1.4-0.5-2.7-1.3-3.8-2.2c-1-1-1.8-2.1-2.4-3.4C197.4,82.1,197.1,80.7,197.1,79.3z M212.6,80.7
			c1,0,1.9-0.2,2.7-0.5s1.6-0.8,2.2-1.4c0.6-0.6,1.1-1.3,1.4-2.1c0.3-0.8,0.5-1.6,0.5-2.6l-6.2,1c-1.3,0.2-2.2,0.6-2.9,1.1
			c-0.8,0.5-1.1,1.3-1.1,2.1c0,0.8,0.3,1.4,0.8,1.8C210.7,80.5,211.5,80.7,212.6,80.7z"/>
		<path class="st0" d="M259.4,78.6c0-0.5-0.2-1-0.5-1.1c-0.3-0.3-1-0.5-1.8-0.6c-0.8-0.2-1.9-0.3-3.2-0.5c-1.3-0.2-3-0.5-5-0.8
			c-3.5-0.6-6.1-1.9-8-3.8c-1.9-1.9-2.7-4.3-2.7-7.5c0-1.6,0.3-3,1.1-4.3c0.8-1.3,1.9-2.4,3.2-3.5c1.4-1,3-1.8,5-2.4
			c1.9-0.6,4.2-0.8,6.6-0.8c2.4,0,4.5,0.3,6.6,0.8c1.9,0.6,3.7,1.3,5.1,2.2c1.4,1,2.6,1.9,3.4,3c0.8,1.1,1.3,2.2,1.4,3.4
			c0,0.5-0.2,1-0.5,1.3c-0.3,0.3-0.8,0.5-1.3,0.5h-8c-0.5,0-1-0.2-1.1-0.3c-0.3-0.2-0.6-0.5-1.1-0.8c-0.5-0.3-1-0.5-1.6-0.8
			c-0.6-0.2-1.6-0.3-2.7-0.3s-1.9,0.2-2.6,0.5c-0.6,0.3-1.1,0.8-1.1,1.4c0,0.5,0.2,1,0.3,1.1c0.2,0.3,0.6,0.5,1.3,0.6
			c0.6,0.2,1.6,0.3,2.9,0.5c1.3,0.2,2.9,0.5,4.8,0.8c4.2,0.6,7,2.1,9,4.2c1.9,2.1,2.9,4.5,2.9,7.2c0,1.6-0.3,3-1.1,4.3
			c-0.8,1.3-1.9,2.6-3.4,3.5c-1.4,1-3.4,1.8-5.4,2.4c-2.1,0.6-4.5,1-7.2,1c-2.7,0-5.1-0.3-7.2-1s-3.8-1.4-5.1-2.4
			c-1.4-1-2.4-1.9-3.2-3.2c-0.8-1.1-1.1-2.2-1.3-3.4c0-0.5,0.2-1,0.5-1.3s0.8-0.5,1.3-0.5h8.5c0.5,0,0.8,0.2,1.1,0.3
			c0.2,0.3,0.5,0.5,1,0.8c0.3,0.3,1,0.6,1.6,0.8c0.6,0.3,1.8,0.3,3,0.3s2.6-0.2,3.5-0.5C258.9,79.9,259.4,79.4,259.4,78.6z"/>
		<path class="st0" d="M313.9,87.4c0,0.5-0.2,1-0.5,1.3c-0.3,0.3-0.8,0.5-1.3,0.5h-8.5c-0.5,0-1-0.2-1.3-0.5
			c-0.3-0.3-0.5-0.8-0.5-1.3V70.3c0-1.9-0.5-3.5-1.4-4.6s-2.4-1.8-4.5-1.8c-2.1,0-3.5,0.6-4.5,1.8c-1,1.1-1.4,2.7-1.4,4.6v17.1
			c0,0.5-0.2,1-0.5,1.3c-0.3,0.3-0.8,0.5-1.3,0.5h-8.5c-0.5,0-1-0.2-1.3-0.5c-0.3-0.3-0.5-0.8-0.5-1.3V42.9c0-0.5,0.2-1,0.5-1.3
			c0.3-0.3,0.8-0.5,1.3-0.5h8.5c0.5,0,1,0.2,1.3,0.5c0.3,0.3,0.5,0.8,0.5,1.3v14.4c0.8-1,1.9-1.9,3.5-2.7c1.6-1,3.5-1.3,5.6-1.3
			c2.2,0,4.2,0.3,5.9,1c1.8,0.6,3.4,1.6,4.6,2.9s2.2,2.9,3,4.8s1.1,4.3,1.1,6.9L313.9,87.4L313.9,87.4z"/>
		<path class="st0" d="M331.8,88.7c-0.3-0.3-0.5-0.8-0.8-1.1L317.2,56c0-0.2,0-0.3,0-0.5c0-0.5,0.2-0.8,0.5-1.1
			c0.3-0.3,0.6-0.5,1.1-0.5h8.6c0.6,0,1.1,0.2,1.4,0.5c0.3,0.3,0.6,0.8,0.8,1.1l7.5,17.8l7.5-17.8c0.2-0.3,0.5-0.8,0.8-1.1
			c0.3-0.3,0.8-0.5,1.4-0.5h8.6c0.5,0,0.8,0.2,1.1,0.5c0.3,0.3,0.5,0.6,0.5,1.1c0,0.2,0,0.3,0,0.5l-13.6,31.6
			c-0.2,0.5-0.5,0.8-0.8,1.1c-0.3,0.3-0.8,0.5-1.4,0.5h-8C332.6,89.3,332.1,89,331.8,88.7z"/>
		<path class="st0" d="M374.7,48.3c0,0.5-0.2,1-0.5,1.3c-0.3,0.3-0.8,0.5-1.3,0.5h-8.5c-0.5,0-1-0.2-1.3-0.5
			c-0.3-0.3-0.5-0.8-0.5-1.3v-6.9c0-0.5,0.2-1,0.5-1.3c0.3-0.3,0.8-0.5,1.3-0.5h8.5c0.5,0,1,0.2,1.3,0.5c0.3,0.3,0.5,0.8,0.5,1.3
			V48.3z M374.7,87.4c0,0.5-0.2,1-0.5,1.3c-0.3,0.3-0.8,0.5-1.3,0.5h-8.5c-0.5,0-1-0.2-1.3-0.5c-0.3-0.3-0.5-0.8-0.5-1.3V55.7
			c0-0.5,0.2-1,0.5-1.3c0.3-0.3,0.8-0.5,1.3-0.5h8.5c0.5,0,1,0.2,1.3,0.5c0.3,0.3,0.5,0.8,0.5,1.3V87.4z"/>
		<path class="st0" d="M394.9,87.4c0,0.5-0.2,1-0.5,1.3c-0.3,0.3-0.8,0.5-1.3,0.5h-8.5c-0.5,0-1-0.2-1.3-0.5
			c-0.3-0.3-0.5-0.8-0.5-1.3V42.9c0-0.5,0.2-1,0.5-1.3c0.3-0.3,0.8-0.5,1.3-0.5h8.5c0.5,0,1,0.2,1.3,0.5c0.3,0.3,0.5,0.8,0.5,1.3
			V87.4z"/>
		<path class="st0" d="M414.9,87.4c0,0.5-0.2,1-0.5,1.3c-0.3,0.3-0.8,0.5-1.3,0.5h-8.5c-0.5,0-1-0.2-1.3-0.5
			c-0.3-0.3-0.5-0.8-0.5-1.3V42.9c0-0.5,0.2-1,0.5-1.3c0.3-0.3,0.8-0.5,1.3-0.5h8.5c0.5,0,1,0.2,1.3,0.5c0.3,0.3,0.5,0.8,0.5,1.3
			V87.4z"/>
		<path class="st0" d="M433.5,75.4c0,1.1,0.2,1.9,0.6,2.6c0.3,0.6,0.8,1.3,1.4,1.6c0.6,0.5,1.3,0.6,1.9,0.8c0.8,0.2,1.4,0.2,2.1,0.2
			c1.3,0,2.4-0.2,3.2-0.5c0.8-0.3,1.4-0.6,2.1-1.1c0.5-0.5,0.8-0.6,1.1-0.8c0.2-0.2,0.6-0.2,1.1-0.2h8.8c1,0,1.4,0.5,1.4,1.4
			c0,0.5-0.3,1.4-1,2.4c-0.6,1.1-1.8,2.2-3.2,3.4c-1.4,1.1-3.2,2.2-5.6,3c-2.2,0.8-5,1.3-8,1.3c-2.9,0-5.6-0.5-7.8-1.3
			c-2.2-0.8-4.2-2.1-5.8-3.7c-1.6-1.6-2.7-3.5-3.5-5.8c-0.8-2.2-1.1-4.8-1.1-7.7c0-2.6,0.3-5.1,1.1-7.4c0.8-2.2,1.9-4.2,3.5-5.8
			c1.6-1.6,3.5-2.9,5.8-3.8c2.2-1,5-1.4,7.8-1.4c3.4,0,6.1,0.5,8.5,1.6c2.4,1.1,4.2,2.6,5.8,4.3c1.4,1.8,2.6,3.7,3.2,5.9
			c0.6,2.2,1,4.3,1,6.6V73c0,0.5-0.2,1-0.5,1.3c-0.3,0.3-0.8,0.5-1.3,0.5h-22.7V75.4z M439.6,62.4c-1.9,0-3.4,0.6-4.3,1.8
			c-1,1.1-1.6,2.4-1.8,3.8h12.2c-0.2-1.4-0.8-2.7-1.8-3.8C442.9,62.9,441.5,62.4,439.6,62.4z"/>
		<g>
			<path class="st0" d="M166.7,126.4c0.6,0,0.9,0.3,0.9,0.9v0.6c0,0.6-0.3,0.8-0.9,0.8h-15.1c-0.6,0-0.8-0.3-0.8-0.8V103
				c0-0.6,0.3-0.9,0.8-0.9h14.8c0.6,0,0.9,0.3,0.9,0.9v0.6c0,0.6-0.3,0.8-0.9,0.8h-13.2v9.7h12.4c0.6,0,0.9,0.3,0.9,0.9v0.6
				c0,0.6-0.3,0.8-0.9,0.8h-12.4v10.1H166.7z"/>
			<path class="st0" d="M188.4,127.8c0,0.6-0.3,0.8-0.8,0.8h-0.6c-0.6,0-0.8-0.3-0.8-0.8v-10.6c0-2-0.5-3.6-1.5-4.8
				c-1-1.2-2.4-1.7-4.3-1.7c-1.8,0-3.3,0.6-4.4,1.7c-1.1,1.1-1.6,2.7-1.6,4.8v10.6c0,0.6-0.3,0.8-0.8,0.8h-0.6
				c-0.6,0-0.8-0.3-0.8-0.8v-18.1c0-0.6,0.3-0.8,0.8-0.8h0.6c0.6,0,0.8,0.3,0.8,0.8v1.8c0.7-0.9,1.5-1.6,2.5-2.2
				c1-0.6,2.3-0.8,3.9-0.8c1.3,0,2.4,0.2,3.4,0.6c1,0.4,1.8,1,2.4,1.8c0.6,0.8,1.1,1.7,1.5,2.7c0.3,1,0.5,2.2,0.5,3.4V127.8z"/>
			<path class="st0" d="M197.1,122.2c0,1.4,0.2,2.4,0.7,3.2c0.4,0.7,1.2,1.1,2.4,1.1h2c0.6,0,0.8,0.3,0.8,0.8v0.5
				c0,0.6-0.3,0.8-0.8,0.8h-2.2c-1,0-1.8-0.2-2.5-0.5c-0.7-0.3-1.2-0.8-1.6-1.3c-0.4-0.6-0.7-1.2-0.8-2c-0.2-0.8-0.2-1.6-0.2-2.5
				v-11.2h-3c-0.6,0-0.8-0.3-0.8-0.8v-0.5c0-0.6,0.3-0.8,0.8-0.8h3v-6.4c0-0.6,0.3-0.8,0.8-0.8h0.6c0.6,0,0.8,0.3,0.8,0.8v6.4h4.7
				c0.6,0,0.8,0.3,0.8,0.8v0.5c0,0.6-0.3,0.8-0.8,0.8h-4.7V122.2z"/>
			<path class="st0" d="M213.6,108.9h1.4c0.6,0,0.8,0.3,0.8,0.8v0.5c0,0.6-0.3,0.8-0.8,0.8h-1.6c-1.5,0-2.7,0.4-3.6,1.3
				s-1.3,2.1-1.3,3.6v11.8c0,0.3-0.1,0.5-0.2,0.6c-0.2,0.2-0.4,0.2-0.6,0.2H207c-0.6,0-0.8-0.3-0.8-0.8v-18c0-0.3,0.1-0.5,0.2-0.6
				c0.2-0.2,0.4-0.2,0.6-0.2h0.6c0.3,0,0.5,0.1,0.6,0.2c0.2,0.2,0.2,0.4,0.2,0.6v1.7C209.4,109.8,211.1,108.9,213.6,108.9z"/>
			<path class="st0" d="M217.2,117.3c0.1-1.3,0.4-2.5,0.8-3.5s1-2,1.7-2.8c0.7-0.8,1.5-1.4,2.5-1.8c1-0.4,2.1-0.6,3.3-0.6
				c2.7,0,4.7,0.9,6.2,2.6c1.5,1.7,2.2,4.1,2.2,7.2v0.6c0,0.3-0.1,0.5-0.2,0.6c-0.2,0.2-0.4,0.2-0.6,0.2h-13.5v0.4
				c0,0.9,0.2,1.7,0.5,2.5c0.3,0.8,0.7,1.5,1.2,2.1c0.5,0.6,1.1,1.1,1.9,1.5c0.7,0.4,1.6,0.6,2.5,0.6c0.8,0,1.5-0.1,2.1-0.3
				c0.6-0.2,1.1-0.4,1.6-0.7c0.4-0.3,0.8-0.5,1-0.8c0.3-0.3,0.4-0.5,0.6-0.6c0.2-0.3,0.4-0.5,0.5-0.6c0.1-0.1,0.3-0.1,0.6-0.1h0.6
				c0.2,0,0.4,0.1,0.6,0.2s0.2,0.3,0.2,0.6c0,0.4-0.2,0.8-0.6,1.3c-0.4,0.5-0.9,1-1.6,1.5c-0.7,0.5-1.5,0.9-2.4,1.2
				c-1,0.3-2,0.5-3.2,0.5c-1.2,0-2.3-0.2-3.3-0.6s-1.8-1-2.5-1.8c-0.7-0.8-1.3-1.7-1.7-2.8s-0.7-2.3-0.8-3.5c0-0.4,0-0.9,0-1.5
				C217.1,118.2,217.2,117.7,217.2,117.3z M219.5,117.6h12.1v-0.2c0-0.9-0.1-1.8-0.4-2.6c-0.3-0.8-0.7-1.5-1.2-2.1
				c-0.5-0.6-1.2-1.1-1.9-1.4c-0.8-0.3-1.6-0.5-2.5-0.5c-1,0-1.8,0.2-2.5,0.5c-0.7,0.3-1.4,0.8-1.9,1.4c-0.5,0.6-0.9,1.3-1.2,2.1
				c-0.3,0.8-0.4,1.7-0.4,2.6V117.6z"/>
			<path class="st0" d="M246.9,129.1c-1.6,0-2.9-0.3-3.9-0.9c-1-0.6-1.8-1.3-2.5-2.1v9c0,0.6-0.3,0.8-0.8,0.8H239
				c-0.6,0-0.8-0.3-0.8-0.8v-25.3c0-0.6,0.3-0.8,0.8-0.8h0.6c0.6,0,0.8,0.3,0.8,0.8v1.8c0.6-0.9,1.5-1.6,2.5-2.1s2.3-0.9,3.9-0.9
				c1.5,0,2.7,0.3,3.7,0.8c1,0.5,1.9,1.2,2.5,2c0.6,0.8,1.1,1.8,1.4,2.9c0.3,1.1,0.5,2.2,0.5,3.3c0,0.4,0,0.8,0,1.3
				c0,0.5,0,0.9,0,1.3c-0.1,1.1-0.2,2.2-0.5,3.3c-0.3,1.1-0.8,2-1.4,2.9c-0.6,0.8-1.5,1.5-2.5,2
				C249.6,128.8,248.3,129.1,246.9,129.1z M240.5,117.4c0,0.4,0,0.9,0,1.5c0,0.6,0,1.1,0,1.5c0,0.8,0.2,1.5,0.4,2.3
				c0.2,0.8,0.6,1.5,1.1,2.1c0.5,0.6,1.1,1.1,1.9,1.5c0.8,0.4,1.7,0.6,2.7,0.6c1.1,0,2-0.2,2.8-0.6s1.4-0.9,1.8-1.5
				c0.5-0.6,0.8-1.4,1-2.2c0.2-0.8,0.3-1.7,0.4-2.6c0-0.7,0-1.4,0-2.1c-0.1-0.9-0.2-1.8-0.4-2.6c-0.2-0.8-0.6-1.6-1-2.2
				c-0.5-0.6-1.1-1.2-1.8-1.6s-1.7-0.6-2.8-0.6c-1.1,0-2,0.2-2.8,0.6c-0.8,0.4-1.4,0.9-1.9,1.6c-0.5,0.6-0.9,1.4-1.1,2.1
				C240.6,115.9,240.5,116.7,240.5,117.4z"/>
			<path class="st0" d="M266.9,108.9h1.4c0.6,0,0.8,0.3,0.8,0.8v0.5c0,0.6-0.3,0.8-0.8,0.8h-1.6c-1.5,0-2.7,0.4-3.6,1.3
				c-0.9,0.9-1.3,2.1-1.3,3.6v11.8c0,0.3-0.1,0.5-0.2,0.6c-0.2,0.2-0.4,0.2-0.6,0.2h-0.6c-0.6,0-0.8-0.3-0.8-0.8v-18
				c0-0.3,0.1-0.5,0.2-0.6c0.2-0.2,0.4-0.2,0.6-0.2h0.6c0.3,0,0.5,0.1,0.6,0.2c0.2,0.2,0.2,0.4,0.2,0.6v1.7
				C262.7,109.8,264.4,108.9,266.9,108.9z"/>
			<path class="st0" d="M270.4,117.3c0.1-1.3,0.4-2.5,0.8-3.5s1-2,1.7-2.8c0.7-0.8,1.5-1.4,2.5-1.8c1-0.4,2.1-0.6,3.3-0.6
				c2.7,0,4.7,0.9,6.2,2.6c1.5,1.7,2.2,4.1,2.2,7.2v0.6c0,0.3-0.1,0.5-0.2,0.6c-0.2,0.2-0.4,0.2-0.6,0.2h-13.5v0.4
				c0,0.9,0.2,1.7,0.5,2.5c0.3,0.8,0.7,1.5,1.2,2.1c0.5,0.6,1.1,1.1,1.9,1.5s1.6,0.6,2.5,0.6c0.8,0,1.5-0.1,2.1-0.3
				c0.6-0.2,1.1-0.4,1.6-0.7c0.4-0.3,0.8-0.5,1-0.8c0.3-0.3,0.4-0.5,0.6-0.6c0.2-0.3,0.4-0.5,0.5-0.6c0.1-0.1,0.3-0.1,0.6-0.1h0.6
				c0.2,0,0.4,0.1,0.6,0.2c0.2,0.1,0.2,0.3,0.2,0.6c0,0.4-0.2,0.8-0.6,1.3c-0.4,0.5-0.9,1-1.6,1.5c-0.7,0.5-1.5,0.9-2.4,1.2
				c-1,0.3-2,0.5-3.2,0.5c-1.2,0-2.3-0.2-3.3-0.6s-1.8-1-2.5-1.8c-0.7-0.8-1.3-1.7-1.7-2.8s-0.7-2.3-0.8-3.5c0-0.4,0-0.9,0-1.5
				C270.4,118.2,270.4,117.7,270.4,117.3z M272.7,117.6h12.1v-0.2c0-0.9-0.1-1.8-0.4-2.6c-0.3-0.8-0.7-1.5-1.2-2.1
				c-0.5-0.6-1.2-1.1-1.9-1.4c-0.8-0.3-1.6-0.5-2.5-0.5c-1,0-1.8,0.2-2.5,0.5c-0.7,0.3-1.4,0.8-1.9,1.4c-0.5,0.6-0.9,1.3-1.2,2.1
				c-0.3,0.8-0.4,1.7-0.4,2.6V117.6z"/>
			<path class="st0" d="M307.8,127.8c0,0.6-0.3,0.8-0.8,0.8h-0.6c-0.6,0-0.8-0.3-0.8-0.8v-10.6c0-2-0.5-3.6-1.5-4.8
				c-1-1.2-2.4-1.7-4.3-1.7c-1.8,0-3.3,0.6-4.4,1.7c-1.1,1.1-1.6,2.7-1.6,4.8v10.6c0,0.6-0.3,0.8-0.8,0.8h-0.6
				c-0.6,0-0.8-0.3-0.8-0.8v-18.1c0-0.6,0.3-0.8,0.8-0.8h0.6c0.6,0,0.8,0.3,0.8,0.8v1.8c0.7-0.9,1.5-1.6,2.5-2.2
				c1-0.6,2.3-0.8,3.9-0.8c1.3,0,2.4,0.2,3.4,0.6c1,0.4,1.8,1,2.4,1.8c0.6,0.8,1.1,1.7,1.5,2.7c0.3,1,0.5,2.2,0.5,3.4V127.8z"/>
			<path class="st0" d="M312,117.3c0.1-1.3,0.4-2.5,0.8-3.5c0.4-1.1,1-2,1.7-2.8c0.7-0.8,1.5-1.4,2.5-1.8c1-0.4,2.1-0.6,3.3-0.6
				c2.7,0,4.7,0.9,6.2,2.6c1.5,1.7,2.2,4.1,2.2,7.2v0.6c0,0.3-0.1,0.5-0.2,0.6c-0.2,0.2-0.4,0.2-0.6,0.2h-13.5v0.4
				c0,0.9,0.2,1.7,0.5,2.5c0.3,0.8,0.7,1.5,1.2,2.1c0.5,0.6,1.1,1.1,1.9,1.5c0.7,0.4,1.6,0.6,2.5,0.6c0.8,0,1.5-0.1,2.1-0.3
				c0.6-0.2,1.1-0.4,1.6-0.7c0.4-0.3,0.8-0.5,1-0.8c0.3-0.3,0.4-0.5,0.6-0.6c0.2-0.3,0.4-0.5,0.5-0.6c0.1-0.1,0.3-0.1,0.6-0.1h0.6
				c0.2,0,0.4,0.1,0.6,0.2c0.2,0.1,0.2,0.3,0.2,0.6c0,0.4-0.2,0.8-0.6,1.3c-0.4,0.5-0.9,1-1.6,1.5c-0.7,0.5-1.5,0.9-2.4,1.2
				c-1,0.3-2,0.5-3.2,0.5c-1.2,0-2.3-0.2-3.3-0.6s-1.8-1-2.5-1.8c-0.7-0.8-1.3-1.7-1.7-2.8c-0.4-1.1-0.7-2.3-0.8-3.5
				c0-0.4,0-0.9,0-1.5C312,118.2,312,117.7,312,117.3z M314.3,117.6h12.1v-0.2c0-0.9-0.1-1.8-0.4-2.6c-0.3-0.8-0.7-1.5-1.2-2.1
				c-0.5-0.6-1.2-1.1-1.9-1.4c-0.8-0.3-1.6-0.5-2.5-0.5c-1,0-1.8,0.2-2.5,0.5c-0.7,0.3-1.4,0.8-1.9,1.4c-0.5,0.6-0.9,1.3-1.2,2.1
				c-0.3,0.8-0.4,1.7-0.4,2.6V117.6z"/>
			<path class="st0" d="M332.8,109.8c0-0.6,0.3-0.8,0.8-0.8h0.6c0.6,0,0.8,0.3,0.8,0.8v10.6c0,4.3,1.9,6.5,5.7,6.5
				c1.8,0,3.3-0.6,4.3-1.7c1.1-1.1,1.6-2.7,1.6-4.8v-10.6c0-0.6,0.3-0.8,0.8-0.8h0.6c0.6,0,0.8,0.3,0.8,0.8v18.1
				c0,0.6-0.3,0.8-0.8,0.8h-0.6c-0.6,0-0.8-0.3-0.8-0.8v-1.8c-0.7,0.9-1.5,1.6-2.5,2.2c-1,0.6-2.3,0.8-3.9,0.8
				c-1.3,0-2.4-0.2-3.4-0.6c-0.9-0.4-1.7-1-2.4-1.8c-0.6-0.8-1.1-1.7-1.4-2.7c-0.3-1-0.5-2.2-0.5-3.4V109.8z"/>
			<path class="st0" d="M361.9,108.9h1.4c0.6,0,0.8,0.3,0.8,0.8v0.5c0,0.6-0.3,0.8-0.8,0.8h-1.6c-1.5,0-2.7,0.4-3.6,1.3
				c-0.9,0.9-1.3,2.1-1.3,3.6v11.8c0,0.3-0.1,0.5-0.2,0.6c-0.2,0.2-0.4,0.2-0.6,0.2h-0.6c-0.6,0-0.8-0.3-0.8-0.8v-18
				c0-0.3,0.1-0.5,0.2-0.6c0.2-0.2,0.4-0.2,0.6-0.2h0.6c0.3,0,0.5,0.1,0.6,0.2c0.2,0.2,0.2,0.4,0.2,0.6v1.7
				C357.7,109.8,359.4,108.9,361.9,108.9z"/>
			<path class="st0" d="M392.4,124.3l4.4-21.6c0.1-0.4,0.4-0.6,0.8-0.6h0.8c0.2,0,0.4,0.1,0.5,0.2c0.2,0.2,0.2,0.3,0.2,0.5
				c0,0.1,0,0.2-0.1,0.5l-5.2,24.4c-0.2,0.6-0.5,0.9-1.1,0.9h-0.6c-0.6,0-1-0.3-1.2-0.9l-5-16l-5,16c-0.2,0.6-0.6,0.9-1.2,0.9h-0.6
				c-0.6,0-0.9-0.3-1.1-0.9l-5.2-24.4c-0.1-0.3-0.1-0.4-0.1-0.5c0-0.2,0.1-0.4,0.2-0.5c0.2-0.2,0.3-0.2,0.5-0.2h0.8
				c0.5,0,0.8,0.2,0.8,0.6l4.4,21.6l4.7-15.4c0.1-0.2,0.2-0.4,0.4-0.6c0.2-0.2,0.4-0.3,0.8-0.3h0.8c0.4,0,0.6,0.1,0.8,0.3
				c0.2,0.2,0.3,0.4,0.4,0.6L392.4,124.3z"/>
			<path class="st0" d="M401.6,117.3c0.1-1.3,0.4-2.5,0.8-3.5s1-2,1.7-2.8c0.7-0.8,1.5-1.4,2.5-1.8c1-0.4,2.1-0.6,3.3-0.6
				c2.7,0,4.7,0.9,6.2,2.6c1.5,1.7,2.2,4.1,2.2,7.2v0.6c0,0.3-0.1,0.5-0.2,0.6c-0.2,0.2-0.4,0.2-0.6,0.2h-13.5v0.4
				c0,0.9,0.2,1.7,0.5,2.5c0.3,0.8,0.7,1.5,1.2,2.1c0.5,0.6,1.1,1.1,1.9,1.5s1.6,0.6,2.5,0.6c0.8,0,1.5-0.1,2.1-0.3
				c0.6-0.2,1.1-0.4,1.6-0.7c0.4-0.3,0.8-0.5,1-0.8c0.3-0.3,0.4-0.5,0.6-0.6c0.2-0.3,0.4-0.5,0.5-0.6c0.1-0.1,0.3-0.1,0.6-0.1h0.6
				c0.2,0,0.4,0.1,0.6,0.2c0.2,0.1,0.2,0.3,0.2,0.6c0,0.4-0.2,0.8-0.6,1.3c-0.4,0.5-0.9,1-1.6,1.5c-0.7,0.5-1.5,0.9-2.4,1.2
				c-1,0.3-2,0.5-3.2,0.5c-1.2,0-2.3-0.2-3.3-0.6s-1.8-1-2.5-1.8c-0.7-0.8-1.3-1.7-1.7-2.8s-0.7-2.3-0.8-3.5c0-0.4,0-0.9,0-1.5
				C401.5,118.2,401.5,117.7,401.6,117.3z M403.9,117.6H416v-0.2c0-0.9-0.1-1.8-0.4-2.6c-0.3-0.8-0.7-1.5-1.2-2.1
				c-0.5-0.6-1.2-1.1-1.9-1.4c-0.8-0.3-1.6-0.5-2.5-0.5c-1,0-1.8,0.2-2.5,0.5c-0.7,0.3-1.4,0.8-1.9,1.4c-0.5,0.6-0.9,1.3-1.2,2.1
				c-0.3,0.8-0.4,1.7-0.4,2.6V117.6z"/>
			<path class="st0" d="M421.5,117.3c0.1-1.3,0.4-2.5,0.8-3.5c0.4-1.1,1-2,1.7-2.8c0.7-0.8,1.5-1.4,2.5-1.8c1-0.4,2.1-0.6,3.3-0.6
				c2.7,0,4.7,0.9,6.2,2.6c1.5,1.7,2.2,4.1,2.2,7.2v0.6c0,0.3-0.1,0.5-0.2,0.6c-0.2,0.2-0.4,0.2-0.6,0.2h-13.5v0.4
				c0,0.9,0.2,1.7,0.5,2.5c0.3,0.8,0.7,1.5,1.2,2.1c0.5,0.6,1.1,1.1,1.9,1.5c0.7,0.4,1.6,0.6,2.5,0.6c0.8,0,1.5-0.1,2.1-0.3
				c0.6-0.2,1.1-0.4,1.6-0.7c0.4-0.3,0.8-0.5,1-0.8c0.3-0.3,0.4-0.5,0.6-0.6c0.2-0.3,0.4-0.5,0.5-0.6c0.1-0.1,0.3-0.1,0.6-0.1h0.6
				c0.2,0,0.4,0.1,0.6,0.2c0.2,0.1,0.2,0.3,0.2,0.6c0,0.4-0.2,0.8-0.6,1.3c-0.4,0.5-0.9,1-1.6,1.5c-0.7,0.5-1.5,0.9-2.4,1.2
				c-1,0.3-2,0.5-3.2,0.5c-1.2,0-2.3-0.2-3.3-0.6s-1.8-1-2.5-1.8c-0.7-0.8-1.3-1.7-1.7-2.8c-0.4-1.1-0.7-2.3-0.8-3.5
				c0-0.4,0-0.9,0-1.5C421.5,118.2,421.5,117.7,421.5,117.3z M423.9,117.6h12.1v-0.2c0-0.9-0.1-1.8-0.4-2.6
				c-0.3-0.8-0.7-1.5-1.2-2.1c-0.5-0.6-1.2-1.1-1.9-1.4c-0.8-0.3-1.6-0.5-2.5-0.5c-1,0-1.8,0.2-2.5,0.5c-0.7,0.3-1.4,0.8-1.9,1.4
				c-0.5,0.6-0.9,1.3-1.2,2.1c-0.3,0.8-0.4,1.7-0.4,2.6V117.6z"/>
			<path class="st0" d="M446.3,117.7l10.6,9.4c0.3,0.3,0.5,0.6,0.5,0.8c0,0.5-0.3,0.8-0.8,0.8H456c-0.4,0-0.7,0-0.8-0.1
				c-0.2-0.1-0.4-0.2-0.8-0.6l-9.5-8.5v8.3c0,0.6-0.3,0.8-0.8,0.8h-0.6c-0.6,0-0.8-0.3-0.8-0.8v-25.3c0-0.6,0.3-0.8,0.8-0.8h0.6
				c0.6,0,0.8,0.3,0.8,0.8V116l8.5-6.4c0.4-0.3,0.6-0.5,0.8-0.5c0.2-0.1,0.4-0.1,0.8-0.1h0.7c0.5,0,0.8,0.3,0.8,0.8
				c0,0.1,0,0.2-0.1,0.4c-0.1,0.1-0.2,0.3-0.4,0.4L446.3,117.7z"/>
		</g>
	</g>
</g>
</svg>
