<?xml version="1.0" encoding="utf-8"?>
<!-- Generator: Adobe Illustrator 21.0.2, SVG Export Plug-In . SVG Version: 6.00 Build 0)  -->
<svg version="1.1" id="Capa_1" xmlns="http://www.w3.org/2000/svg" xmlns:xlink="http://www.w3.org/1999/xlink" x="0px" y="0px"
	 viewBox="0 0 288.8 96" style="enable-background:new 0 0 288.8 96;" xml:space="preserve">
<style type="text/css">
	.st0{fill:#DFA337;}
	.st1{fill:#7FB7B9;}
	.st2{fill:#3A6669;}
	.st3{fill:#AFAFAF;}
	.st4{clip-path:url(#SVGID_2_);fill:#D0D1D1;}
	.st5{clip-path:url(#SVGID_4_);fill:#D0D1D1;}
	.st6{clip-path:url(#SVGID_6_);fill:#706F6F;}
	.st7{fill:#424243;}
	.st8{fill:#CD6B31;}
	.st9{fill:none;}
</style>
<title>NSW color Copy</title>
<desc>Created with Sketch.</desc>
<g>
	<g>
		<path class="st0" d="M37.5,17.1c-12.8,0-23.2,10.4-23.2,23.2c0,7.6,3.7,14.7,10,19.1l2,8.8c0,0.1,0.1,0.2,0.2,0.3h22.2
			c0.1-0.1,0.2-0.2,0.2-0.3l2-8.8c5-3.5,8.5-8.8,9.6-14.9c0,0,0,0,0-0.1c0.1-0.6,0.2-1.1,0.2-1.7c0-0.1,0-0.3,0-0.4
			c0-0.1,0-0.2,0-0.4s0-0.4,0-0.5s0-0.2,0-0.3c0-0.3,0-0.6,0-0.8C60.8,27.5,50.3,17.1,37.5,17.1z"/>
		<g>
			<path class="st1" d="M45.6,47.7H44V39c0-0.1,0-0.1,0-0.2l-0.2-6.3c0-0.2-0.2-0.4-0.4-0.4H43v-6.3c0-0.2-0.2-0.4-0.4-0.4
				s-0.4,0.2-0.4,0.4v6.3h-0.3c-0.2,0-0.4,0.2-0.4,0.4l-0.3,6.1h-7.4l-0.3-6.1c0-0.2-0.2-0.4-0.4-0.4h-0.3v-6.3
				c0-0.2-0.2-0.4-0.4-0.4S32,25.7,32,25.9v6.3h-0.4c-0.2,0-0.4,0.2-0.4,0.4L31,38.9l0,0v8.7h-1.6c-0.2,0-0.4,0.2-0.4,0.4v20.2
				c0,0.2,0.2,0.4,0.4,0.4h2l0,0h2.1h1.8h4.4h1.8h2.1l0,0l0,0h2c0.2,0,0.4-0.2,0.4-0.4V48.1C46,47.9,45.8,47.7,45.6,47.7z"/>
			<g>
				<path class="st2" d="M45.6,47.7H44V39c0-0.1,0-0.1,0-0.2l-0.2-6.3c0-0.2-0.2-0.4-0.4-0.4H43v-6.3c0-0.2-0.2-0.4-0.4-0.4
					s-0.4,0.2-0.4,0.4v6.3h-0.3c-0.2,0-0.4,0.2-0.4,0.4l-0.3,6.1h-7.4l-0.3-6.1c0-0.2-0.2-0.4-0.4-0.4h-0.3v-6.3
					c0-0.2-0.2-0.4-0.4-0.4S32,25.7,32,25.9v6.3h-0.4c-0.2,0-0.4,0.2-0.4,0.4L31,38.9l0,0v8.7h-1.6c-0.2,0-0.4,0.2-0.4,0.4v20.2
					c0,0.2,0.2,0.4,0.4,0.4h2l0,0h2.1h1.8h4.4h1.8h2.1l0,0l0,0h2c0.2,0,0.4-0.2,0.4-0.4V48.1C46,47.9,45.8,47.7,45.6,47.7z
					 M39.4,47.6h-3.9L34,42.9h7L39.4,47.6z M33.1,39.3v3.2l0,0l0,0v5.2h-1.3v-8.4C31.8,39.3,33.1,39.3,33.1,39.3z M31.8,48.5h1.3V68
					h-1.3V48.5z M33.8,39.3h7.3v2.8h-7.3V39.3z M41.9,42.5L41.9,42.5v-3.2h1.3v8.4h-1.3V42.5L41.9,42.5z M42.2,32.9H43l0.2,5.7H42
					L42.2,32.9z M32,32.9h0.8l0.3,5.7h-1.3L32,32.9z M29.8,66.5h0.7c0.2,0,0.4-0.2,0.4-0.4s-0.2-0.4-0.4-0.4h-0.7v-1.3h0.7
					c0.2,0,0.4-0.2,0.4-0.4c0-0.2-0.2-0.4-0.4-0.4h-0.7v-1.3h0.7c0.2,0,0.4-0.2,0.4-0.4s-0.2-0.4-0.4-0.4h-0.7v-1.3h0.7
					c0.2,0,0.4-0.2,0.4-0.4s-0.2-0.4-0.4-0.4h-0.7v-1.3h0.7c0.2,0,0.4-0.2,0.4-0.4s-0.2-0.4-0.4-0.4h-0.7V56h0.7
					c0.2,0,0.4-0.2,0.4-0.4s-0.2-0.4-0.4-0.4h-0.7v-1.3h0.7c0.2,0,0.4-0.2,0.4-0.4s-0.2-0.4-0.4-0.4h-0.7v-1.3h0.7
					c0.2,0,0.4-0.2,0.4-0.4S30.7,51,30.5,51h-0.7v-1.3h0.7c0.2,0,0.4-0.2,0.4-0.4s-0.2-0.4-0.4-0.4h-0.7v-1.1H31v19.5h-1.2V66.5z
					 M33.8,44.8l1.1,3.2v19.9h-1.1V44.8z M35.7,67.9V48.4h3.7V68L35.7,67.9L35.7,67.9z M40.1,67.9V48l1.1-3.2V48v0.1v0.1V68
					L40.1,67.9L40.1,67.9z M41.9,67.9V48.5h1.3V68L41.9,67.9L41.9,67.9z M44,67.9V48.5h1.2v1.1h-0.7c-0.2,0-0.4,0.2-0.4,0.4
					s0.2,0.4,0.4,0.4h0.7v1.3h-0.7c-0.2,0-0.4,0.2-0.4,0.4s0.2,0.4,0.4,0.4h0.7v1.3h-0.7c-0.2,0-0.4,0.2-0.4,0.4s0.2,0.4,0.4,0.4
					h0.7v1.3h-0.7c-0.2,0-0.4,0.2-0.4,0.4s0.2,0.4,0.4,0.4h0.7V58h-0.7c-0.2,0-0.4,0.2-0.4,0.4s0.2,0.4,0.4,0.4h0.7v1.3h-0.7
					c-0.2,0-0.4,0.2-0.4,0.4s0.2,0.4,0.4,0.4h0.7v3.3h-0.7c-0.2,0-0.4,0.2-0.4,0.4c0,0.2,0.2,0.4,0.4,0.4h0.7v1.3h-0.7
					c-0.2,0-0.4,0.2-0.4,0.4s0.2,0.4,0.4,0.4h0.7v1.5H44V67.9z"/>
				<path class="st2" d="M38.7,49.5h-2.2c-0.2,0-0.4,0.2-0.4,0.4s0.2,0.4,0.4,0.4h2.2c0.2,0,0.4-0.2,0.4-0.4
					C39,49.7,38.9,49.5,38.7,49.5z"/>
				<path class="st2" d="M38.7,51.5h-2.2c-0.2,0-0.4,0.2-0.4,0.4s0.2,0.4,0.4,0.4h2.2c0.2,0,0.4-0.2,0.4-0.4
					C39,51.7,38.9,51.5,38.7,51.5z"/>
				<path class="st2" d="M38.7,53.6h-2.2c-0.2,0-0.4,0.2-0.4,0.4s0.2,0.4,0.4,0.4h2.2c0.2,0,0.4-0.2,0.4-0.4
					C39,53.7,38.9,53.6,38.7,53.6z"/>
				<path class="st2" d="M38.7,55.6h-2.2c-0.2,0-0.4,0.2-0.4,0.4s0.2,0.4,0.4,0.4h2.2c0.2,0,0.4-0.2,0.4-0.4
					C39,55.8,38.9,55.6,38.7,55.6z"/>
				<path class="st2" d="M38.7,57.6h-2.2c-0.2,0-0.4,0.2-0.4,0.4s0.2,0.4,0.4,0.4h2.2c0.2,0,0.4-0.2,0.4-0.4S38.9,57.6,38.7,57.6z"
					/>
				<path class="st2" d="M38.7,59.6h-2.2c-0.2,0-0.4,0.2-0.4,0.4s0.2,0.4,0.4,0.4h2.2c0.2,0,0.4-0.2,0.4-0.4
					C39,59.8,38.9,59.6,38.7,59.6z"/>
				<path class="st2" d="M38.7,61.7h-2.2c-0.2,0-0.4,0.2-0.4,0.4s0.2,0.4,0.4,0.4h2.2c0.2,0,0.4-0.2,0.4-0.4S38.9,61.7,38.7,61.7z"
					/>
				<path class="st2" d="M38.7,63.7h-2.2c-0.2,0-0.4,0.2-0.4,0.4s0.2,0.4,0.4,0.4h2.2c0.2,0,0.4-0.2,0.4-0.4
					C39,63.9,38.9,63.7,38.7,63.7z"/>
				<path class="st2" d="M38.7,65.7h-2.2c-0.2,0-0.4,0.2-0.4,0.4s0.2,0.4,0.4,0.4h2.2c0.2,0,0.4-0.2,0.4-0.4S38.9,65.7,38.7,65.7z"
					/>
				<path class="st2" d="M37.5,39.5c-0.7,0-1.3,0.6-1.3,1.3s0.6,1.3,1.3,1.3s1.3-0.6,1.3-1.3C38.8,40,38.2,39.5,37.5,39.5z
					 M37.5,41.2c-0.3,0-0.5-0.2-0.5-0.5s0.2-0.5,0.5-0.5s0.5,0.2,0.5,0.5S37.8,41.2,37.5,41.2z"/>
			</g>
		</g>
		<g>
			<g>
				<g>
					<path id="XMLID_5_" class="st3" d="M48.5,75.2c0.3,0,0.5-0.2,0.5-0.5s-0.2-0.5-0.5-0.5h-1.2v-2h1.2c0.3,0,0.5-0.2,0.5-0.5
						s-0.2-0.5-0.5-0.5h-1.2v-1.8l0,0l0,0H27.4l0,0l0,0v11.4c0,0.3,0.2,0.5,0.5,0.5H29c0.5,1.2,2.3,4.5,8.2,4.5s7.8-3.3,8.2-4.5h1.1
						c0.3,0,0.5-0.2,0.5-0.5v-2.3h1.2c0.3,0,0.5-0.2,0.5-0.5s-0.2-0.5-0.5-0.5H47v-2h1.5V75.2z"/>
				</g>
				<g>
					<defs>
						<path id="SVGID_1_" d="M48.5,75.2c0.3,0,0.5-0.2,0.5-0.5s-0.2-0.5-0.5-0.5h-1.2v-2h1.2c0.3,0,0.5-0.2,0.5-0.5
							s-0.2-0.5-0.5-0.5h-1.2v-1.8l0,0l0,0H27.4l0,0l0,0v11.4c0,0.3,0.2,0.5,0.5,0.5H29c0.5,1.2,2.3,4.5,8.2,4.5s7.8-3.3,8.2-4.5
							h1.1c0.3,0,0.5-0.2,0.5-0.5v-2.3h1.2c0.3,0,0.5-0.2,0.5-0.5s-0.2-0.5-0.5-0.5H47v-2h1.5V75.2z"/>
					</defs>
					<clipPath id="SVGID_2_">
						<use xlink:href="#SVGID_1_"  style="overflow:visible;"/>
					</clipPath>
					<rect x="40.9" y="65.8" class="st4" width="13.9" height="14.7"/>
				</g>
				<g>
					<defs>
						<path id="SVGID_3_" d="M48.5,75.2c0.3,0,0.5-0.2,0.5-0.5s-0.2-0.5-0.5-0.5h-1.2v-2h1.2c0.3,0,0.5-0.2,0.5-0.5
							s-0.2-0.5-0.5-0.5h-1.2v-1.8l0,0l0,0H27.4l0,0l0,0v11.4c0,0.3,0.2,0.5,0.5,0.5H29c0.5,1.2,2.3,4.5,8.2,4.5s7.8-3.3,8.2-4.5
							h1.1c0.3,0,0.5-0.2,0.5-0.5v-2.3h1.2c0.3,0,0.5-0.2,0.5-0.5s-0.2-0.5-0.5-0.5H47v-2h1.5V75.2z"/>
					</defs>
					<clipPath id="SVGID_4_">
						<use xlink:href="#SVGID_3_"  style="overflow:visible;"/>
					</clipPath>
					<rect x="16.2" y="65.8" class="st5" width="13.9" height="14.7"/>
				</g>
				<g>
					<defs>
						<path id="SVGID_5_" d="M48.5,75.2c0.3,0,0.5-0.2,0.5-0.5s-0.2-0.5-0.5-0.5h-1.2v-2h1.2c0.3,0,0.5-0.2,0.5-0.5
							s-0.2-0.5-0.5-0.5h-1.2v-1.8l0,0l0,0H27.4l0,0l0,0v11.4c0,0.3,0.2,0.5,0.5,0.5H29c0.5,1.2,2.3,4.5,8.2,4.5s7.8-3.3,8.2-4.5
							h1.1c0.3,0,0.5-0.2,0.5-0.5v-2.3h1.2c0.3,0,0.5-0.2,0.5-0.5s-0.2-0.5-0.5-0.5H47v-2h1.5V75.2z"/>
					</defs>
					<clipPath id="SVGID_6_">
						<use xlink:href="#SVGID_5_"  style="overflow:visible;"/>
					</clipPath>
					<rect x="28.6" y="80.8" class="st6" width="17.7" height="5.9"/>
				</g>
			</g>
			<path class="st7" d="M48.5,72.1c0.3,0,0.5-0.2,0.5-0.5s-0.2-0.5-0.5-0.5h-1.2v-1.8l0,0l0,0H27.4l0,0l0,0v11.4
				c0,0.3,0.2,0.5,0.5,0.5H29c0.5,1.2,2.3,4.5,8.2,4.5s7.8-3.3,8.2-4.5h1.1c0.3,0,0.5-0.2,0.5-0.5v-2.3h1.2c0.3,0,0.5-0.2,0.5-0.5
				s-0.2-0.5-0.5-0.5H47v-2h1.2c0.3,0,0.5-0.2,0.5-0.5s-0.2-0.5-0.5-0.5H47v-2h1.5V72.1z M37.3,84.5c-4.7,0-6.5-2.3-7.1-3.4h14.1
				C43.8,82.3,42,84.5,37.3,84.5z M46.1,80.1H28.5v-1.8h17.7v1.8H46.1z M46.1,77.2H28.5v-2h17.7v2H46.1z M46.1,74.1H28.5v-2h17.7v2
				H46.1z M46.1,71H28.5v-1.8h17.7V71H46.1z"/>
		</g>
		<g>
			<path class="st8" d="M37.8,0.7c-0.7,0-1.3,0.6-1.3,1.3v10.3c0,0.7,0.6,1.3,1.3,1.3s1.3-0.6,1.3-1.3V2C39.1,1.3,38.6,0.7,37.8,0.7
				z"/>
			<path class="st8" d="M16.6,8.5C16.3,8.2,16,8.1,15.7,8c-0.3-0.1-0.7,0-1,0.2C14.2,8.7,14,9.5,14.5,10l6,8.3
				c0.2,0.3,0.6,0.5,1,0.5c0.3,0,0.5-0.1,0.8-0.2c0.3-0.2,0.5-0.5,0.5-0.8c0.1-0.3,0-0.7-0.2-1L16.6,8.5z"/>
			<path class="st8" d="M1.3,29.6l9.7,3.2c0.1,0,0.3,0.1,0.4,0.1c0.6,0,1.1-0.4,1.2-0.9c0.2-0.7-0.2-1.4-0.8-1.6L2,27.2
				c-0.3-0.1-0.7-0.1-1,0.1s-0.5,0.4-0.6,0.8c-0.1,0.3-0.1,0.7,0.1,1C0.7,29.2,1,29.5,1.3,29.6z"/>
			<path class="st8" d="M11.1,47.4l-9.8,3.2c-0.3,0.1-0.6,0.3-0.8,0.6s-0.2,0.7-0.1,1c0.2,0.5,0.7,0.9,1.2,0.9c0.1,0,0.3,0,0.4-0.1
				l9.8-3.2c0.3-0.1,0.6-0.3,0.8-0.6s0.2-0.7,0.1-1C12.5,47.6,11.8,47.2,11.1,47.4z"/>
			<path class="st8" d="M74.5,50.5l-9.8-3.2c-0.3-0.1-0.7-0.1-1,0.1c-0.3,0.2-0.5,0.4-0.6,0.8c-0.1,0.3-0.1,0.7,0.1,1
				c0.2,0.3,0.4,0.5,0.8,0.6l9.8,3.2c0.1,0,0.3,0.1,0.4,0.1c0.6,0,1.1-0.4,1.2-0.9C75.6,51.4,75.2,50.7,74.5,50.5z"/>
			<path class="st8" d="M64.3,32.6c0.1,0,0.3,0,0.4-0.1l9.8-3.2c0.3-0.1,0.6-0.3,0.8-0.6c0.2-0.3,0.2-0.7,0.1-1
				c-0.2-0.7-1-1-1.6-0.8L64,30.1c-0.3,0.1-0.6,0.3-0.8,0.6c-0.2,0.3-0.2,0.7-0.1,1C63.3,32.3,63.8,32.6,64.3,32.6z"/>
			<path class="st8" d="M61,8.1c-0.3-0.2-0.6-0.3-1-0.2c-0.3,0.1-0.6,0.2-0.8,0.5l-6,8.3c-0.4,0.6-0.3,1.4,0.3,1.8
				c0.2,0.2,0.5,0.2,0.8,0.2c0.4,0,0.8-0.2,1-0.5l6-8.3c0.2-0.3,0.3-0.6,0.2-1C61.4,8.6,61.3,8.3,61,8.1z"/>
		</g>
		<rect x="28.2" y="69.3" class="st9" width="17.7" height="1.8"/>
		<g>
			<path class="st8" d="M37.5,16.1c-13.4,0-24.2,10.9-24.2,24.2c0,7.9,3.8,15.3,10.3,19.8l2,8.9c0.1,0.4,0.4,0.7,0.8,0.7h22.3
				c0.4,0,0.7-0.3,0.8-0.7l2-8.9c5.2-3.7,8.7-9.1,9.9-15.5c0.1-0.6,0.2-1.2,0.3-1.8c0-0.2,0-0.3,0-0.5v-0.4c0-0.2,0-0.4,0-0.6V41
				c0-0.3,0-0.6,0-0.9C61.7,27,50.9,16.1,37.5,16.1z M44,62.1c-0.1,0.2-0.1,0.5-0.1,0.7c0.2,0.5,0.7,0.7,1.2,0.6
				c1.5-0.5,2.9-1.1,4.2-1.8L47.9,68H27.2l-1.9-8.5c-0.1-0.2-0.2-0.4-0.4-0.6c-6.1-4.2-9.8-11.1-9.8-18.5C15.1,28,25.2,18,37.5,18
				c12.4,0,22.4,10.1,22.4,22.4c0,0.3,0,0.5,0,0.8v0.3c0,0.2,0,0.3,0,0.5v0.4c0,0.1,0,0.3,0,0.4c-0.1,0.6-0.1,1.2-0.3,1.7
				c-1.1,5.9-4.4,11-9.4,14.4L50.1,59c-1.7,1.1-3.6,2-5.5,2.7C44.3,61.7,44.1,61.9,44,62.1z"/>
			<path class="st8" d="M37,20.1c-11.1,0-20.2,9.1-20.2,20.2c0,0.5,0.4,0.9,0.9,0.9s0.9-0.4,0.9-0.9C18.7,30.2,26.9,22,37,22
				c0.5,0,0.9-0.4,0.9-0.9S37.5,20.1,37,20.1z"/>
		</g>
	</g>
	<g>
		<path class="st7" d="M112.6,55.1c-0.5,0-0.9-0.1-1.2-0.4c-0.3-0.3-0.5-0.5-0.6-0.6l-9.7-14.5v14.3c0,0.3-0.1,0.6-0.3,0.8
			c-0.2,0.2-0.5,0.3-0.8,0.3h-5.6c-0.3,0-0.6-0.1-0.8-0.3c-0.2-0.2-0.3-0.5-0.3-0.8V26.5c0-0.3,0.1-0.6,0.3-0.8
			c0.2-0.2,0.5-0.3,0.8-0.3h4.4c0.5,0,0.9,0.1,1.2,0.4c0.3,0.3,0.5,0.5,0.6,0.6l9.7,14.5V26.5c0-0.3,0.1-0.6,0.3-0.8
			c0.2-0.2,0.5-0.3,0.8-0.3h5.6c0.3,0,0.6,0.1,0.8,0.3c0.2,0.2,0.3,0.5,0.3,0.8v27.4c0,0.3-0.1,0.6-0.3,0.8
			c-0.2,0.2-0.5,0.3-0.8,0.3L112.6,55.1L112.6,55.1z"/>
		<path class="st7" d="M122.1,48.8c0-1.9,0.7-3.4,2.1-4.6c1.4-1.2,3.8-2.1,7-2.7l5-0.8c0-0.7-0.2-1.2-0.6-1.7
			c-0.4-0.4-1-0.7-1.9-0.7c-0.7,0-1.2,0.1-1.5,0.3c-0.4,0.2-0.6,0.3-0.8,0.5c-0.3,0.2-0.5,0.4-0.7,0.4c-0.2,0.1-0.5,0.1-0.8,0.1
			h-5.4c-0.3,0-0.5-0.1-0.7-0.3s-0.3-0.4-0.2-0.7c0.1-0.7,0.3-1.3,0.8-2s1.2-1.4,2.1-2s2-1.1,3.2-1.5s2.6-0.6,4-0.6
			c1.7,0,3.2,0.2,4.5,0.6c1.3,0.4,2.3,1,3.2,1.8c0.8,0.7,1.4,1.6,1.8,2.7c0.4,1,0.6,2.2,0.6,3.4v12.9c0,0.3-0.1,0.6-0.3,0.8
			S143,55,142.7,55h-5.3c-0.3,0-0.6-0.1-0.8-0.3s-0.3-0.5-0.3-0.8v-1.2c-0.7,0.8-1.5,1.5-2.5,2s-2.3,0.7-4,0.7
			c-1.2,0-2.3-0.2-3.2-0.5c-0.9-0.3-1.7-0.8-2.4-1.4c-0.6-0.6-1.1-1.3-1.5-2.1C122.3,50.6,122.1,49.7,122.1,48.8z M131.8,49.7
			c0.6,0,1.2-0.1,1.7-0.3s1-0.5,1.4-0.9s0.7-0.8,0.9-1.3s0.3-1,0.3-1.6l-3.9,0.6c-0.8,0.1-1.4,0.4-1.8,0.7c-0.5,0.3-0.7,0.8-0.7,1.3
			s0.2,0.9,0.5,1.1C130.6,49.6,131.1,49.7,131.8,49.7z"/>
		<path class="st7" d="M161,48.4c0-0.3-0.1-0.6-0.3-0.7c-0.2-0.2-0.6-0.3-1.1-0.4c-0.5-0.1-1.2-0.2-2-0.3s-1.9-0.3-3.1-0.5
			c-2.2-0.4-3.8-1.2-5-2.4s-1.7-2.7-1.7-4.7c0-1,0.2-1.9,0.7-2.7s1.2-1.5,2-2.2c0.9-0.6,1.9-1.1,3.1-1.5c1.2-0.4,2.6-0.5,4.1-0.5
			s2.8,0.2,4.1,0.5c1.2,0.4,2.3,0.8,3.2,1.4c0.9,0.6,1.6,1.2,2.1,1.9s0.8,1.4,0.9,2.1c0,0.3-0.1,0.6-0.3,0.8s-0.5,0.3-0.8,0.3h-5
			c-0.3,0-0.6-0.1-0.7-0.2c-0.2-0.1-0.4-0.3-0.7-0.5s-0.6-0.3-1-0.5c-0.4-0.1-1-0.2-1.7-0.2s-1.2,0.1-1.6,0.3
			c-0.4,0.2-0.7,0.5-0.7,0.9c0,0.3,0.1,0.6,0.2,0.7c0.1,0.2,0.4,0.3,0.8,0.4c0.4,0.1,1,0.2,1.8,0.3s1.8,0.3,3,0.5
			c2.6,0.4,4.4,1.3,5.6,2.6c1.2,1.3,1.8,2.8,1.8,4.5c0,1-0.2,1.9-0.7,2.7s-1.2,1.6-2.1,2.2c-0.9,0.6-2.1,1.1-3.4,1.5
			c-1.3,0.4-2.8,0.6-4.5,0.6s-3.2-0.2-4.5-0.6c-1.3-0.4-2.4-0.9-3.2-1.5c-0.9-0.6-1.5-1.2-2-2c-0.5-0.7-0.7-1.4-0.8-2.1
			c0-0.3,0.1-0.6,0.3-0.8s0.5-0.3,0.8-0.3h5.3c0.3,0,0.5,0.1,0.7,0.2c0.1,0.2,0.3,0.3,0.6,0.5c0.2,0.2,0.6,0.4,1,0.5
			c0.4,0.2,1.1,0.2,1.9,0.2s1.6-0.1,2.2-0.3C160.7,49.2,161,48.9,161,48.4z"/>
		<path class="st7" d="M195,53.9c0,0.3-0.1,0.6-0.3,0.8s-0.5,0.3-0.8,0.3h-5.3c-0.3,0-0.6-0.1-0.8-0.3s-0.3-0.5-0.3-0.8V43.2
			c0-1.2-0.3-2.2-0.9-2.9c-0.6-0.7-1.5-1.1-2.8-1.1s-2.2,0.4-2.8,1.1c-0.6,0.7-0.9,1.7-0.9,2.9v10.7c0,0.3-0.1,0.6-0.3,0.8
			S179.3,55,179,55h-5.3c-0.3,0-0.6-0.1-0.8-0.3s-0.3-0.5-0.3-0.8V26.1c0-0.3,0.1-0.6,0.3-0.8c0.2-0.2,0.5-0.3,0.8-0.3h5.3
			c0.3,0,0.6,0.1,0.8,0.3c0.2,0.2,0.3,0.5,0.3,0.8v9c0.5-0.6,1.2-1.2,2.2-1.7c1-0.6,2.2-0.8,3.5-0.8c1.4,0,2.6,0.2,3.7,0.6
			c1.1,0.4,2.1,1,2.9,1.8c0.8,0.8,1.4,1.8,1.9,3s0.7,2.7,0.7,4.3L195,53.9L195,53.9z"/>
		<path class="st7" d="M206.2,54.7c-0.2-0.2-0.3-0.5-0.5-0.7l-8.6-19.7c0-0.1,0-0.2,0-0.3c0-0.3,0.1-0.5,0.3-0.7s0.4-0.3,0.7-0.3
			h5.4c0.4,0,0.7,0.1,0.9,0.3s0.4,0.5,0.5,0.7l4.7,11.1l4.7-11.1c0.1-0.2,0.3-0.5,0.5-0.7s0.5-0.3,0.9-0.3h5.4
			c0.3,0,0.5,0.1,0.7,0.3s0.3,0.4,0.3,0.7c0,0.1,0,0.2,0,0.3L213.6,54c-0.1,0.3-0.3,0.5-0.5,0.7s-0.5,0.3-0.9,0.3h-5
			C206.7,55.1,206.4,54.9,206.2,54.7z"/>
		<path class="st7" d="M233,29.5c0,0.3-0.1,0.6-0.3,0.8c-0.2,0.2-0.5,0.3-0.8,0.3h-5.3c-0.3,0-0.6-0.1-0.8-0.3
			c-0.2-0.2-0.3-0.5-0.3-0.8v-4.3c0-0.3,0.1-0.6,0.3-0.8c0.2-0.2,0.5-0.3,0.8-0.3h5.3c0.3,0,0.6,0.1,0.8,0.3
			c0.2,0.2,0.3,0.5,0.3,0.8V29.5z M233,53.9c0,0.3-0.1,0.6-0.3,0.8s-0.5,0.3-0.8,0.3h-5.3c-0.3,0-0.6-0.1-0.8-0.3s-0.3-0.5-0.3-0.8
			V34.1c0-0.3,0.1-0.6,0.3-0.8s0.5-0.3,0.8-0.3h5.3c0.3,0,0.6,0.1,0.8,0.3s0.3,0.5,0.3,0.8V53.9z"/>
		<path class="st7" d="M245.6,53.9c0,0.3-0.1,0.6-0.3,0.8s-0.5,0.3-0.8,0.3h-5.3c-0.3,0-0.6-0.1-0.8-0.3s-0.3-0.5-0.3-0.8V26.1
			c0-0.3,0.1-0.6,0.3-0.8c0.2-0.2,0.5-0.3,0.8-0.3h5.3c0.3,0,0.6,0.1,0.8,0.3c0.2,0.2,0.3,0.5,0.3,0.8V53.9z"/>
		<path class="st7" d="M258.1,53.9c0,0.3-0.1,0.6-0.3,0.8c-0.2,0.2-0.5,0.3-0.8,0.3h-5.3c-0.3,0-0.6-0.1-0.8-0.3s-0.3-0.5-0.3-0.8
			V26.1c0-0.3,0.1-0.6,0.3-0.8c0.2-0.2,0.5-0.3,0.8-0.3h5.3c0.3,0,0.6,0.1,0.8,0.3c0.2,0.2,0.3,0.5,0.3,0.8V53.9z"/>
		<path class="st7" d="M269.7,46.4c0,0.7,0.1,1.2,0.4,1.6c0.2,0.4,0.5,0.8,0.9,1c0.4,0.3,0.8,0.4,1.2,0.5c0.5,0.1,0.9,0.1,1.3,0.1
			c0.8,0,1.5-0.1,2-0.3s0.9-0.4,1.3-0.7c0.3-0.3,0.5-0.4,0.7-0.5c0.1-0.1,0.4-0.1,0.7-0.1h5.5c0.6,0,0.9,0.3,0.9,0.9
			c0,0.3-0.2,0.9-0.6,1.5c-0.4,0.7-1.1,1.4-2,2.1c-0.9,0.7-2,1.4-3.5,1.9c-1.4,0.5-3.1,0.8-5,0.8c-1.8,0-3.5-0.3-4.9-0.8
			s-2.6-1.3-3.6-2.3s-1.7-2.2-2.2-3.6c-0.5-1.4-0.7-3-0.7-4.8c0-1.6,0.2-3.2,0.7-4.6c0.5-1.4,1.2-2.6,2.2-3.6s2.2-1.8,3.6-2.4
			c1.4-0.6,3.1-0.9,4.9-0.9c2.1,0,3.8,0.3,5.3,1s2.6,1.6,3.6,2.7c0.9,1.1,1.6,2.3,2,3.7s0.6,2.7,0.6,4.1v1.2c0,0.3-0.1,0.6-0.3,0.8
			c-0.2,0.2-0.5,0.3-0.8,0.3h-14.2V46.4z M273.5,38.3c-1.2,0-2.1,0.4-2.7,1.1c-0.6,0.7-1,1.5-1.1,2.4h7.6c-0.1-0.9-0.5-1.7-1.1-2.4
			C275.6,38.6,274.7,38.3,273.5,38.3z"/>
		<g>
			<path class="st7" d="M103.1,78.2c0.4,0,0.5,0.2,0.5,0.5v0.4c0,0.3-0.2,0.5-0.5,0.5h-9.4c-0.3,0-0.5-0.2-0.5-0.5V63.6
				c0-0.4,0.2-0.5,0.5-0.5h9.2c0.4,0,0.5,0.2,0.5,0.5V64c0,0.3-0.2,0.5-0.5,0.5h-8.3v6h7.8c0.4,0,0.5,0.2,0.5,0.5v0.4
				c0,0.3-0.2,0.5-0.5,0.5h-7.8v6.3H103.1z"/>
			<path class="st7" d="M116.7,79.1c0,0.3-0.2,0.5-0.5,0.5h-0.4c-0.3,0-0.5-0.2-0.5-0.5v-6.6c0-1.3-0.3-2.3-0.9-3s-1.5-1.1-2.7-1.1
				c-1.1,0-2,0.4-2.7,1.1c-0.7,0.7-1,1.7-1,3v6.6c0,0.3-0.2,0.5-0.5,0.5h-0.4c-0.3,0-0.5-0.2-0.5-0.5V67.9c0-0.3,0.2-0.5,0.5-0.5
				h0.4c0.3,0,0.5,0.2,0.5,0.5V69c0.4-0.6,0.9-1,1.5-1.4c0.6-0.3,1.4-0.5,2.4-0.5c0.8,0,1.5,0.1,2.1,0.4s1.1,0.6,1.5,1.1
				c0.4,0.5,0.7,1,0.9,1.7c0.2,0.6,0.3,1.4,0.3,2.1V79.1z"/>
			<path class="st7" d="M122.1,75.6c0,0.9,0.1,1.5,0.4,2c0.3,0.5,0.8,0.7,1.5,0.7h1.3c0.3,0,0.5,0.2,0.5,0.5v0.3
				c0,0.3-0.2,0.5-0.5,0.5h-1.4c-0.6,0-1.1-0.1-1.6-0.3c-0.4-0.2-0.8-0.5-1-0.8c-0.2-0.4-0.4-0.8-0.5-1.3c-0.1-0.5-0.2-1-0.2-1.6v-7
				h-1.8c-0.3,0-0.5-0.2-0.5-0.5v-0.3c0-0.3,0.2-0.5,0.5-0.5h1.8v-4c0-0.3,0.2-0.5,0.5-0.5h0.4c0.3,0,0.5,0.2,0.5,0.5v4h2.9
				c0.3,0,0.5,0.2,0.5,0.5v0.3c0,0.3-0.2,0.5-0.5,0.5h-2.9V75.6z"/>
			<path class="st7" d="M132.4,67.3h0.9c0.3,0,0.5,0.2,0.5,0.5v0.3c0,0.3-0.2,0.5-0.5,0.5h-1c-0.9,0-1.7,0.3-2.3,0.8
				s-0.8,1.3-0.8,2.3v7.3c0,0.2-0.1,0.3-0.2,0.4c-0.1,0.1-0.2,0.1-0.4,0.1h-0.4c-0.3,0-0.5-0.2-0.5-0.5V67.9c0-0.2,0-0.3,0.1-0.4
				s0.2-0.2,0.4-0.2h0.4c0.2,0,0.3,0.1,0.4,0.2c0.1,0.1,0.2,0.2,0.2,0.4V69C129.8,67.9,130.8,67.3,132.4,67.3z"/>
			<path class="st7" d="M134.6,72.5c0.1-0.8,0.2-1.5,0.5-2.2s0.6-1.2,1-1.7c0.4-0.5,1-0.8,1.6-1.1s1.3-0.4,2.1-0.4
				c1.7,0,2.9,0.5,3.9,1.6c0.9,1.1,1.4,2.6,1.4,4.5v0.4c0,0.2-0.1,0.3-0.2,0.4s-0.2,0.1-0.4,0.1h-8.4v0.2c0,0.5,0.1,1.1,0.3,1.6
				c0.2,0.5,0.4,1,0.7,1.3c0.3,0.4,0.7,0.7,1.2,0.9c0.5,0.2,1,0.4,1.5,0.4c0.5,0,0.9-0.1,1.3-0.2c0.4-0.1,0.7-0.3,1-0.4
				c0.3-0.2,0.5-0.3,0.7-0.5s0.3-0.3,0.3-0.4c0.1-0.2,0.3-0.3,0.3-0.4c0.1,0,0.2-0.1,0.4-0.1h0.4c0.1,0,0.3,0,0.4,0.1
				s0.1,0.2,0.1,0.3c0,0.2-0.1,0.5-0.4,0.8c-0.2,0.3-0.6,0.6-1,0.9c-0.4,0.3-0.9,0.6-1.5,0.8c-0.6,0.2-1.3,0.3-2,0.3
				c-0.8,0-1.4-0.1-2.1-0.4s-1.1-0.6-1.6-1.1c-0.4-0.5-0.8-1.1-1.1-1.7s-0.4-1.4-0.5-2.2c0-0.2,0-0.6,0-0.9
				C134.6,73.1,134.6,72.8,134.6,72.5z M136.1,72.8h7.5v-0.1c0-0.6-0.1-1.1-0.3-1.6s-0.4-1-0.7-1.3c-0.3-0.4-0.7-0.7-1.2-0.9
				c-0.5-0.2-1-0.3-1.6-0.3c-0.6,0-1.1,0.1-1.6,0.3c-0.5,0.2-0.8,0.5-1.2,0.9c-0.3,0.4-0.6,0.8-0.7,1.3S136.1,72.1,136.1,72.8
				L136.1,72.8z"/>
			<path class="st7" d="M153.2,79.9c-1,0-1.8-0.2-2.4-0.5c-0.6-0.4-1.1-0.8-1.5-1.3v5.6c0,0.3-0.2,0.5-0.5,0.5h-0.4
				c-0.3,0-0.5-0.2-0.5-0.5V67.9c0-0.3,0.2-0.5,0.5-0.5h0.4c0.3,0,0.5,0.2,0.5,0.5V69c0.4-0.5,0.9-1,1.5-1.3s1.4-0.5,2.4-0.5
				c0.9,0,1.7,0.2,2.3,0.5c0.6,0.3,1.2,0.8,1.6,1.3c0.4,0.5,0.7,1.1,0.9,1.8s0.3,1.4,0.3,2c0,0.2,0,0.5,0,0.8s0,0.5,0,0.8
				c0,0.7-0.1,1.4-0.3,2c-0.2,0.7-0.5,1.3-0.9,1.8c-0.4,0.5-0.9,1-1.6,1.3C154.9,79.7,154.1,79.9,153.2,79.9z M149.2,72.6
				c0,0.2,0,0.5,0,0.9c0,0.4,0,0.7,0,0.9c0,0.5,0.1,1,0.2,1.4c0.2,0.5,0.4,0.9,0.7,1.3c0.3,0.4,0.7,0.7,1.2,0.9
				c0.5,0.2,1,0.4,1.7,0.4c0.7,0,1.3-0.1,1.7-0.4s0.8-0.6,1.1-1c0.3-0.4,0.5-0.9,0.6-1.4c0.1-0.5,0.2-1.1,0.2-1.6c0-0.4,0-0.9,0-1.3
				c0-0.6-0.1-1.1-0.2-1.6c-0.1-0.5-0.3-1-0.6-1.4c-0.3-0.4-0.7-0.7-1.1-1s-1-0.4-1.7-0.4c-0.7,0-1.3,0.1-1.7,0.4
				c-0.5,0.3-0.9,0.6-1.2,1c-0.3,0.4-0.5,0.8-0.7,1.3C149.3,71.7,149.2,72.1,149.2,72.6z"/>
			<path class="st7" d="M165.7,67.3h0.9c0.3,0,0.5,0.2,0.5,0.5v0.3c0,0.3-0.2,0.5-0.5,0.5h-1c-0.9,0-1.7,0.3-2.3,0.8
				c-0.6,0.6-0.8,1.3-0.8,2.3v7.3c0,0.2-0.1,0.3-0.2,0.4c-0.1,0.1-0.2,0.1-0.4,0.1h-0.4c-0.3,0-0.5-0.2-0.5-0.5V67.9
				c0-0.2,0-0.3,0.1-0.4c0.1-0.1,0.2-0.2,0.4-0.2h0.4c0.2,0,0.3,0.1,0.4,0.2c0.1,0.1,0.2,0.2,0.2,0.4V69
				C163,67.9,164.1,67.3,165.7,67.3z"/>
			<path class="st7" d="M167.9,72.5c0.1-0.8,0.2-1.5,0.5-2.2s0.6-1.2,1-1.7c0.4-0.5,1-0.8,1.6-1.1s1.3-0.4,2.1-0.4
				c1.7,0,2.9,0.5,3.9,1.6c0.9,1.1,1.4,2.6,1.4,4.5v0.4c0,0.2-0.1,0.3-0.2,0.4c-0.1,0.1-0.2,0.1-0.4,0.1h-8.4v0.2
				c0,0.5,0.1,1.1,0.3,1.6c0.2,0.5,0.4,1,0.7,1.3c0.3,0.4,0.7,0.7,1.2,0.9s1,0.4,1.5,0.4c0.5,0,0.9-0.1,1.3-0.2
				c0.4-0.1,0.7-0.3,1-0.4s0.5-0.3,0.7-0.5c0.2-0.2,0.3-0.3,0.3-0.4c0.1-0.2,0.3-0.3,0.3-0.4c0.1,0,0.2-0.1,0.4-0.1h0.4
				c0.1,0,0.3,0,0.4,0.1c0.1,0.1,0.1,0.2,0.1,0.3c0,0.2-0.1,0.5-0.4,0.8c-0.2,0.3-0.6,0.6-1,0.9c-0.4,0.3-0.9,0.6-1.5,0.8
				c-0.6,0.2-1.3,0.3-2,0.3c-0.8,0-1.4-0.1-2.1-0.4s-1.1-0.6-1.6-1.1c-0.4-0.5-0.8-1.1-1.1-1.7s-0.4-1.4-0.5-2.2c0-0.2,0-0.6,0-0.9
				C167.9,73.1,167.9,72.8,167.9,72.5z M169.3,72.8h7.5v-0.1c0-0.6-0.1-1.1-0.3-1.6s-0.4-1-0.7-1.3c-0.3-0.4-0.7-0.7-1.2-0.9
				c-0.5-0.2-1-0.3-1.6-0.3c-0.6,0-1.1,0.1-1.6,0.3c-0.5,0.2-0.8,0.5-1.2,0.9c-0.3,0.4-0.6,0.8-0.7,1.3S169.3,72.1,169.3,72.8
				L169.3,72.8z"/>
			<path class="st7" d="M191.2,79.1c0,0.3-0.2,0.5-0.5,0.5h-0.4c-0.3,0-0.5-0.2-0.5-0.5v-6.6c0-1.3-0.3-2.3-0.9-3s-1.5-1.1-2.7-1.1
				c-1.1,0-2,0.4-2.7,1.1c-0.7,0.7-1,1.7-1,3v6.6c0,0.3-0.2,0.5-0.5,0.5h-0.4c-0.3,0-0.5-0.2-0.5-0.5V67.9c0-0.3,0.2-0.5,0.5-0.5
				h0.4c0.3,0,0.5,0.2,0.5,0.5V69c0.4-0.6,0.9-1,1.5-1.4c0.6-0.3,1.4-0.5,2.4-0.5c0.8,0,1.5,0.1,2.1,0.4c0.6,0.3,1.1,0.6,1.5,1.1
				c0.4,0.5,0.7,1,0.9,1.7c0.2,0.6,0.3,1.4,0.3,2.1V79.1z"/>
			<path class="st7" d="M193.9,72.5c0.1-0.8,0.2-1.5,0.5-2.2s0.6-1.2,1-1.7c0.4-0.5,1-0.8,1.6-1.1s1.3-0.4,2.1-0.4
				c1.7,0,2.9,0.5,3.9,1.6c0.9,1.1,1.4,2.6,1.4,4.5v0.4c0,0.2-0.1,0.3-0.2,0.4c-0.1,0.1-0.2,0.1-0.4,0.1h-8.4v0.2
				c0,0.5,0.1,1.1,0.3,1.6c0.2,0.5,0.4,1,0.7,1.3c0.3,0.4,0.7,0.7,1.2,0.9s1,0.4,1.5,0.4c0.5,0,0.9-0.1,1.3-0.2
				c0.4-0.1,0.7-0.3,1-0.4s0.5-0.3,0.7-0.5c0.2-0.2,0.3-0.3,0.3-0.4c0.1-0.2,0.3-0.3,0.3-0.4c0.1,0,0.2-0.1,0.4-0.1h0.4
				c0.1,0,0.3,0,0.4,0.1c0.1,0.1,0.1,0.2,0.1,0.3c0,0.2-0.1,0.5-0.4,0.8c-0.2,0.3-0.6,0.6-1,0.9c-0.4,0.3-0.9,0.6-1.5,0.8
				c-0.6,0.2-1.3,0.3-2,0.3c-0.8,0-1.4-0.1-2.1-0.4s-1.1-0.6-1.6-1.1c-0.4-0.5-0.8-1.1-1.1-1.7s-0.4-1.4-0.5-2.2c0-0.2,0-0.6,0-0.9
				C193.8,73.1,193.8,72.8,193.9,72.5z M195.3,72.8h7.5v-0.1c0-0.6-0.1-1.1-0.3-1.6s-0.4-1-0.7-1.3c-0.3-0.4-0.7-0.7-1.2-0.9
				c-0.5-0.2-1-0.3-1.6-0.3c-0.6,0-1.1,0.1-1.6,0.3c-0.5,0.2-0.8,0.5-1.2,0.9c-0.3,0.4-0.6,0.8-0.7,1.3S195.3,72.1,195.3,72.8
				L195.3,72.8z"/>
			<path class="st7" d="M206.8,67.9c0-0.3,0.2-0.5,0.5-0.5h0.4c0.3,0,0.5,0.2,0.5,0.5v6.6c0,2.7,1.2,4.1,3.5,4.1
				c1.1,0,2-0.4,2.7-1.1c0.7-0.7,1-1.7,1-3v-6.6c0-0.3,0.2-0.5,0.5-0.5h0.4c0.3,0,0.5,0.2,0.5,0.5v11.3c0,0.3-0.2,0.5-0.5,0.5H216
				c-0.3,0-0.5-0.2-0.5-0.5V78c-0.4,0.6-0.9,1-1.5,1.4c-0.6,0.3-1.4,0.5-2.4,0.5c-0.8,0-1.5-0.1-2.1-0.4c-0.6-0.3-1.1-0.6-1.5-1.1
				c-0.4-0.5-0.7-1-0.9-1.7c-0.2-0.6-0.3-1.4-0.3-2.1V67.9z"/>
			<path class="st7" d="M225,67.3h0.9c0.3,0,0.5,0.2,0.5,0.5v0.3c0,0.3-0.2,0.5-0.5,0.5h-1c-0.9,0-1.7,0.3-2.3,0.8
				c-0.6,0.6-0.8,1.3-0.8,2.3v7.3c0,0.2-0.1,0.3-0.2,0.4c-0.1,0.1-0.2,0.1-0.4,0.1h-0.4c-0.3,0-0.5-0.2-0.5-0.5V67.9
				c0-0.2,0-0.3,0.1-0.4c0.1-0.1,0.2-0.2,0.4-0.2h0.4c0.2,0,0.3,0.1,0.4,0.2c0.1,0.1,0.2,0.2,0.2,0.4V69
				C222.3,67.9,223.4,67.3,225,67.3z"/>
			<path class="st7" d="M244.1,76.9l2.8-13.5c0-0.2,0.2-0.4,0.5-0.4h0.5c0.1,0,0.2,0,0.3,0.1s0.1,0.2,0.1,0.3c0,0,0,0.1,0,0.3
				L245,79.1c-0.1,0.4-0.3,0.6-0.7,0.6H244c-0.4,0-0.6-0.2-0.7-0.6l-3.2-10l-3.2,10c-0.1,0.4-0.4,0.6-0.7,0.6h-0.4
				c-0.3,0-0.6-0.2-0.7-0.6L232,63.8c0-0.2,0-0.3,0-0.3c0-0.1,0-0.2,0.1-0.3c0.1-0.1,0.2-0.1,0.3-0.1h0.5c0.3,0,0.5,0.1,0.5,0.4
				l2.8,13.5l2.9-9.6c0-0.1,0.1-0.3,0.2-0.4c0.1-0.1,0.3-0.2,0.5-0.2h0.5c0.2,0,0.4,0.1,0.5,0.2c0.1,0.1,0.2,0.2,0.2,0.4L244.1,76.9
				z"/>
			<path class="st7" d="M249.8,72.5c0.1-0.8,0.2-1.5,0.5-2.2s0.6-1.2,1-1.7c0.4-0.5,1-0.8,1.6-1.1s1.3-0.4,2.1-0.4
				c1.7,0,2.9,0.5,3.9,1.6c0.9,1.1,1.4,2.6,1.4,4.5v0.4c0,0.2-0.1,0.3-0.2,0.4c-0.1,0.1-0.2,0.1-0.4,0.1h-8.4v0.2
				c0,0.5,0.1,1.1,0.3,1.6c0.2,0.5,0.4,1,0.7,1.3c0.3,0.4,0.7,0.7,1.2,0.9s1,0.4,1.5,0.4c0.5,0,0.9-0.1,1.3-0.2
				c0.4-0.1,0.7-0.3,1-0.4s0.5-0.3,0.7-0.5c0.2-0.2,0.3-0.3,0.3-0.4c0.1-0.2,0.3-0.3,0.3-0.4c0.1,0,0.2-0.1,0.4-0.1h0.4
				c0.1,0,0.3,0,0.4,0.1c0.1,0.1,0.1,0.2,0.1,0.3c0,0.2-0.1,0.5-0.4,0.8c-0.2,0.3-0.6,0.6-1,0.9c-0.4,0.3-0.9,0.6-1.5,0.8
				c-0.6,0.2-1.3,0.3-2,0.3c-0.8,0-1.4-0.1-2.1-0.4s-1.1-0.6-1.6-1.1c-0.4-0.5-0.8-1.1-1.1-1.7s-0.4-1.4-0.5-2.2c0-0.2,0-0.6,0-0.9
				C249.7,73.1,249.8,72.8,249.8,72.5z M251.2,72.8h7.5v-0.1c0-0.6-0.1-1.1-0.3-1.6s-0.4-1-0.7-1.3c-0.3-0.4-0.7-0.7-1.2-0.9
				c-0.5-0.2-1-0.3-1.6-0.3c-0.6,0-1.1,0.1-1.6,0.3c-0.5,0.2-0.8,0.5-1.2,0.9c-0.3,0.4-0.6,0.8-0.7,1.3S251.2,72.1,251.2,72.8
				L251.2,72.8z"/>
			<path class="st7" d="M262.2,72.5c0.1-0.8,0.2-1.5,0.5-2.2s0.6-1.2,1-1.7c0.4-0.5,1-0.8,1.6-1.1s1.3-0.4,2.1-0.4
				c1.7,0,2.9,0.5,3.9,1.6c0.9,1.1,1.4,2.6,1.4,4.5v0.4c0,0.2-0.1,0.3-0.2,0.4c-0.1,0.1-0.2,0.1-0.4,0.1h-8.4v0.2
				c0,0.5,0.1,1.1,0.3,1.6c0.2,0.5,0.4,1,0.7,1.3c0.3,0.4,0.7,0.7,1.2,0.9s1,0.4,1.5,0.4c0.5,0,0.9-0.1,1.3-0.2
				c0.4-0.1,0.7-0.3,1-0.4s0.5-0.3,0.7-0.5c0.2-0.2,0.3-0.3,0.3-0.4c0.1-0.2,0.3-0.3,0.3-0.4c0.1,0,0.2-0.1,0.4-0.1h0.4
				c0.1,0,0.3,0,0.4,0.1c0.1,0.1,0.1,0.2,0.1,0.3c0,0.2-0.1,0.5-0.4,0.8c-0.2,0.3-0.6,0.6-1,0.9c-0.4,0.3-0.9,0.6-1.5,0.8
				c-0.6,0.2-1.3,0.3-2,0.3c-0.8,0-1.4-0.1-2.1-0.4s-1.1-0.6-1.6-1.1c-0.4-0.5-0.8-1.1-1.1-1.7s-0.4-1.4-0.5-2.2c0-0.2,0-0.6,0-0.9
				C262.2,73.1,262.2,72.8,262.2,72.5z M263.7,72.8h7.5v-0.1c0-0.6-0.1-1.1-0.3-1.6s-0.4-1-0.7-1.3c-0.3-0.4-0.7-0.7-1.2-0.9
				c-0.5-0.2-1-0.3-1.6-0.3c-0.6,0-1.1,0.1-1.6,0.3c-0.5,0.2-0.8,0.5-1.2,0.9c-0.3,0.4-0.6,0.8-0.7,1.3S263.7,72.1,263.7,72.8
				L263.7,72.8z"/>
			<path class="st7" d="M277.7,72.8l6.6,5.9c0.2,0.2,0.3,0.3,0.3,0.5c0,0.3-0.2,0.5-0.5,0.5h-0.4c-0.2,0-0.4,0-0.5-0.1
				c-0.1,0-0.3-0.2-0.5-0.3l-5.9-5.3v5.2c0,0.3-0.2,0.5-0.5,0.5h-0.4c-0.3,0-0.5-0.2-0.5-0.5V63.3c0-0.3,0.2-0.5,0.5-0.5h0.4
				c0.3,0,0.5,0.2,0.5,0.5v8.4l5.3-4c0.2-0.2,0.4-0.3,0.5-0.3c0.1,0,0.3-0.1,0.5-0.1h0.5c0.3,0,0.5,0.2,0.5,0.5c0,0.1,0,0.1-0.1,0.2
				c0,0.1-0.1,0.2-0.2,0.2L277.7,72.8z"/>
		</g>
	</g>
</g>
</svg>
