<?xml version="1.0" encoding="utf-8"?>
<!-- Generator: Adobe Illustrator 21.0.2, SVG Export Plug-In . SVG Version: 6.00 Build 0)  -->
<svg version="1.1" id="Capa_1" xmlns="http://www.w3.org/2000/svg" xmlns:xlink="http://www.w3.org/1999/xlink" x="0px" y="0px"
	 viewBox="0 0 464 150" style="enable-background:new 0 0 464 150;" xml:space="preserve">
<style type="text/css">
	.st0{fill:#424243;}
</style>
<title>NSW color Copy 2</title>
<desc>Created with Sketch.</desc>
<g>
	<g>
		<path class="st0" d="M58.5,80.6H62c0.3,0,0.6-0.3,0.6-0.6c0-0.3-0.3-0.6-0.6-0.6h-3.5c-0.3,0-0.6,0.3-0.6,0.6
			C57.9,80.3,58.2,80.6,58.5,80.6z"/>
		<path class="st0" d="M62,82.6h-3.5c-0.3,0-0.6,0.3-0.6,0.6c0,0.3,0.3,0.6,0.6,0.6H62c0.3,0,0.6-0.3,0.6-0.6
			C62.6,82.9,62.3,82.6,62,82.6z"/>
		<path class="st0" d="M62,85.8h-3.5c-0.3,0-0.6,0.3-0.6,0.6c0,0.3,0.3,0.6,0.6,0.6H62c0.3,0,0.6-0.3,0.6-0.6
			C62.6,86.1,62.3,85.8,62,85.8z"/>
		<path class="st0" d="M62,89.1h-3.5c-0.3,0-0.6,0.3-0.6,0.6c0,0.3,0.3,0.6,0.6,0.6H62c0.3,0,0.6-0.3,0.6-0.6
			C62.6,89.4,62.3,89.1,62,89.1z"/>
		<path class="st0" d="M62,92.4h-3.5c-0.3,0-0.6,0.3-0.6,0.6c0,0.3,0.3,0.6,0.6,0.6H62c0.3,0,0.6-0.3,0.6-0.6
			C62.6,92.6,62.3,92.4,62,92.4z"/>
		<path class="st0" d="M62,95.6h-3.5c-0.3,0-0.6,0.3-0.6,0.6c0,0.3,0.3,0.6,0.6,0.6H62c0.3,0,0.6-0.3,0.6-0.6
			C62.6,95.9,62.3,95.6,62,95.6z"/>
		<path class="st0" d="M62,98.9h-3.5c-0.3,0-0.6,0.3-0.6,0.6c0,0.3,0.3,0.6,0.6,0.6H62c0.3,0,0.6-0.3,0.6-0.6
			C62.6,99.1,62.3,98.9,62,98.9z"/>
		<path class="st0" d="M62,102.1h-3.5c-0.3,0-0.6,0.3-0.6,0.6c0,0.3,0.3,0.6,0.6,0.6H62c0.3,0,0.6-0.3,0.6-0.6
			C62.6,102.4,62.3,102.1,62,102.1z"/>
		<path class="st0" d="M62,105.4h-3.5c-0.3,0-0.6,0.3-0.6,0.6s0.3,0.6,0.6,0.6H62c0.3,0,0.6-0.3,0.6-0.6S62.3,105.4,62,105.4z"/>
		<path class="st0" d="M60.2,67.2c1.1,0,2-0.9,2-2c0-1.1-0.9-2-2-2c-1.1,0-2,0.9-2,2C58.2,66.3,59.1,67.2,60.2,67.2z M60.2,64.4
			c0.4,0,0.8,0.4,0.8,0.8c0,0.4-0.4,0.8-0.8,0.8c-0.4,0-0.8-0.4-0.8-0.8C59.4,64.7,59.8,64.4,60.2,64.4z"/>
		<path class="st0" d="M60.7,21.4c1.1,0,2.1-0.9,2.1-2.1V2.9c0-1.1-0.9-2.1-2.1-2.1c-1.1,0-2.1,0.9-2.1,2.1v16.5
			C58.6,20.5,59.6,21.4,60.7,21.4z"/>
		<path class="st0" d="M32.8,29.2c0.4,0.5,1,0.9,1.7,0.9c0.4,0,0.9-0.1,1.2-0.4c0.4-0.3,0.7-0.8,0.8-1.4c0.1-0.5,0-1.1-0.4-1.5
			l-9.7-13.4c-0.3-0.5-0.8-0.7-1.4-0.8c-0.6-0.1-1.1,0-1.5,0.4c-0.9,0.7-1.1,2-0.5,2.9L32.8,29.2z"/>
		<path class="st0" d="M2,47.2l15.7,5.1c0.2,0.1,0.4,0.1,0.7,0.1c0.9,0,1.7-0.6,2-1.4c0.4-1.1-0.2-2.3-1.3-2.6L3.3,43.3
			c-0.5-0.2-1.1-0.1-1.6,0.1c-0.5,0.3-0.9,0.7-1,1.2c-0.2,0.5-0.1,1.1,0.1,1.6C1,46.7,1.4,47.1,2,47.2z"/>
		<path class="st0" d="M17.7,76L2,81.1c-0.5,0.2-1,0.5-1.2,1c-0.3,0.5-0.3,1.1-0.1,1.6c0.3,0.9,1.1,1.4,2,1.4c0.2,0,0.4,0,0.6-0.1
			L19,79.9c0.5-0.2,1-0.5,1.2-1c0.3-0.5,0.3-1.1,0.1-1.6C20,76.2,18.8,75.6,17.7,76z"/>
		<path class="st0" d="M119.7,80.9L104,75.8c-0.5-0.2-1.1-0.1-1.6,0.1c-0.5,0.3-0.9,0.7-1,1.2c-0.2,0.5-0.1,1.1,0.1,1.6
			c0.3,0.5,0.7,0.9,1.2,1l15.7,5.1c0.2,0.1,0.4,0.1,0.6,0.1c0.9,0,1.7-0.6,2-1.4C121.4,82.4,120.8,81.2,119.7,80.9z"/>
		<path class="st0" d="M103.3,52.2c0.2,0,0.4,0,0.6-0.1l15.7-5.1c0.5-0.2,1-0.5,1.2-1c0.3-0.5,0.3-1.1,0.1-1.6
			c-0.4-1.1-1.5-1.7-2.6-1.3l-15.7,5.1c-0.5,0.2-1,0.5-1.2,1c-0.3,0.5-0.3,1.1-0.1,1.6C101.6,51.6,102.4,52.2,103.3,52.2z"/>
		<path class="st0" d="M87,29.9c0.7,0,1.3-0.3,1.7-0.9l9.7-13.4c0.3-0.4,0.5-1,0.4-1.5c-0.1-0.5-0.4-1-0.8-1.4
			c-0.4-0.3-1-0.5-1.5-0.4c-0.5,0.1-1,0.4-1.4,0.8l-9.7,13.4c-0.7,0.9-0.5,2.2,0.5,2.9C86.1,29.8,86.6,29.9,87,29.9z"/>
		<path class="st0" d="M60.2,25.6c-21.5,0-39,17.5-39,39c0,12.7,6.2,24.6,16.5,31.9l3.2,14.3c0.1,0.6,0.7,1.1,1.3,1.1l1.6,0v17.5
			c0,0.5,0.4,0.9,0.9,0.9h1.8c0.7,1.9,3.7,7.2,13.2,7.2c9.6,0,12.5-5.3,13.2-7.2h1.8c0.5,0,0.9-0.4,0.9-0.9v-3.7h2
			c0.5,0,0.9-0.4,0.9-0.9c0-0.5-0.4-0.9-0.9-0.9h-2v-3.3h2c0.5,0,0.9-0.4,0.9-0.9c0-0.5-0.4-0.9-0.9-0.9h-2v-3.3h2
			c0.5,0,0.9-0.4,0.9-0.9c0-0.5-0.4-0.9-0.9-0.9h-2v-2.1l2.3,0c0.6-0.1,1.1-0.5,1.3-1.1l3.2-14.2c8.4-5.9,14-14.7,15.9-24.9
			c0.2-1,0.3-1.9,0.4-2.9c0-0.2,0.1-0.5,0.1-0.7l0-0.6c0-0.3,0-0.6,0.1-0.9l0-0.5c0-0.5,0-0.9,0-1.4C99.2,43.1,81.7,25.6,60.2,25.6z
			 M49,105.4h-1.2v-2H49c0.3,0,0.6-0.3,0.6-0.6c0-0.3-0.3-0.6-0.6-0.6h-1.2v-2H49c0.3,0,0.6-0.3,0.6-0.6c0-0.3-0.3-0.6-0.6-0.6h-1.2
			v-2H49c0.3,0,0.6-0.3,0.6-0.6c0-0.3-0.3-0.6-0.6-0.6h-1.2v-2H49c0.3,0,0.6-0.3,0.6-0.6c0-0.3-0.3-0.6-0.6-0.6h-1.2v-2H49
			c0.3,0,0.6-0.3,0.6-0.6c0-0.3-0.3-0.6-0.6-0.6h-1.2v-2H49c0.3,0,0.6-0.3,0.6-0.6c0-0.3-0.3-0.6-0.6-0.6h-1.2v-2H49
			c0.3,0,0.6-0.3,0.6-0.6c0-0.3-0.3-0.6-0.6-0.6h-1.2v-2H49c0.3,0,0.6-0.3,0.6-0.6c0-0.3-0.3-0.6-0.6-0.6h-1.2v-1.7h1.9v31.3h-1.9
			v-2.3H49c0.3,0,0.6-0.3,0.6-0.6S49.3,105.4,49,105.4z M53,63v5.1c0,0,0,0,0,0c0,0,0,0,0,0v8.3h-2.1V63H53z M51,61.7l0.3-9.1h1.2
			l0.4,9.1H51z M69.4,63v13.4h-2.1v-8.3c0,0,0,0,0,0c0,0,0,0,0,0V63H69.4z M67.3,61.7l0.4-9.1H69l0.3,9.1H67.3z M72.6,79.3h-1.2
			c-0.3,0-0.6,0.3-0.6,0.6c0,0.3,0.3,0.6,0.6,0.6h1.2v2h-1.2c-0.3,0-0.6,0.3-0.6,0.6c0,0.3,0.3,0.6,0.6,0.6h1.2v2h-1.2
			c-0.3,0-0.6,0.3-0.6,0.6c0,0.3,0.3,0.6,0.6,0.6h1.2v2h-1.2c-0.3,0-0.6,0.3-0.6,0.6c0,0.3,0.3,0.6,0.6,0.6h1.2v2h-1.2
			c-0.3,0-0.6,0.3-0.6,0.6c0,0.3,0.3,0.6,0.6,0.6h1.2v2h-1.2c-0.3,0-0.6,0.3-0.6,0.6c0,0.3,0.3,0.6,0.6,0.6h1.2v1.5
			c-0.4,0.1-0.8,0.3-1.2,0.4c-0.3,0.1-0.6,0.3-0.8,0.6V77.6h1.9V79.3z M70.6,101c0.4,0.5,1.1,0.8,1.7,0.6c0.1,0,0.2-0.1,0.3-0.1v0.6
			h-1.2c-0.3,0-0.6,0.3-0.6,0.6c0,0.3,0.3,0.6,0.6,0.6h1.2v2h-1.2c-0.3,0-0.6,0.3-0.6,0.6s0.3,0.6,0.6,0.6h1.2v2.3h-1.9V101z
			 M57.2,77.5h5.9v31.4h-5.9V77.5z M57,76.3l-2.5-7.6h11.3l-2.5,7.6H57z M67.3,77.6h2.1v31.3h-2.1V77.6z M64.3,108.9V77l1.7-5.1v5.1
			c0,0,0,0.1,0,0.1c0,0.1,0,0.1,0,0.1v31.7H64.3z M66,67.5H54.2V63H66V67.5z M56,77v31.9h-1.7V71.8L56,77z M50.9,77.6H53v31.3h-2.1
			V77.6z M59.9,135.7c-7.6,0-10.4-3.6-11.4-5.5h22.7C70.2,132,67.4,135.7,59.9,135.7z M74.1,128.5H45.7v-2.9h28.4V128.5z
			 M74.1,123.9H45.7v-3.3h28.4V123.9z M74.1,118.9H45.7v-3.3h28.4V118.9z M74.1,113.9H45.7v-2.1l28.4,0V113.9z M76.8,108.9h-3V101
			c1.8-0.7,3.6-1.4,5.3-2.4L76.8,108.9z M96.2,65.9l0,0.5c0,0.3,0,0.6,0,0.8l0,0.6c0,0.2,0,0.4-0.1,0.7c-0.1,0.9-0.2,1.9-0.4,2.8
			c-1.8,9.5-7.1,17.7-15.1,23.2c-0.1,0-0.1,0.1-0.2,0.1c-2,1.4-4.2,2.5-6.5,3.4V77c0-0.3-0.3-0.6-0.6-0.6h-2.6V62.4
			c0-0.1,0-0.2-0.1-0.2L70.2,52c0-0.3-0.3-0.6-0.6-0.6H69V41.4c0-0.3-0.3-0.6-0.6-0.6c-0.3,0-0.6,0.3-0.6,0.6v10.1h-0.6
			c-0.3,0-0.6,0.3-0.6,0.6l-0.5,9.7H54.2L53.7,52c0-0.3-0.3-0.6-0.6-0.6h-0.6V41.4c0-0.3-0.3-0.6-0.6-0.6c-0.3,0-0.6,0.3-0.6,0.6
			v10.1h-0.6c-0.3,0-0.6,0.3-0.6,0.6l-0.4,10.3c0,0,0,0,0,0v14.1h-2.6c-0.3,0-0.6,0.3-0.6,0.6v31.9h-3l-3.1-13.7
			c-0.1-0.4-0.3-0.7-0.6-0.9C30,87.6,24.1,76.5,24.1,64.6c0-19.9,16.2-36,36-36c19.9,0,36,16.2,36,36C96.2,65,96.2,65.4,96.2,65.9z"
			/>
		<path class="st0" d="M59.4,32.1C41.5,32.1,27,46.7,27,64.6c0,0.8,0.7,1.5,1.5,1.5s1.5-0.7,1.5-1.5C29.9,48.3,43.1,35,59.4,35
			c0.8,0,1.5-0.7,1.5-1.5S60.2,32.1,59.4,32.1z"/>
	</g>
	<g>
		<path class="st0" d="M180.9,88.2c-0.8,0-1.4-0.2-1.9-0.6c-0.5-0.4-0.8-0.7-0.9-1l-15.6-23.3v23.1c0,0.5-0.2,0.9-0.5,1.3
			c-0.4,0.4-0.8,0.5-1.3,0.5h-8.9c-0.5,0-0.9-0.2-1.3-0.5c-0.4-0.4-0.5-0.8-0.5-1.3V42.3c0-0.5,0.2-0.9,0.5-1.3
			c0.4-0.4,0.8-0.5,1.3-0.5h7.1c0.8,0,1.4,0.2,1.9,0.6c0.5,0.4,0.8,0.7,0.9,1l15.6,23.3V42.3c0-0.5,0.2-0.9,0.5-1.3
			c0.4-0.4,0.8-0.5,1.3-0.5h8.9c0.5,0,0.9,0.2,1.3,0.5c0.4,0.4,0.5,0.8,0.5,1.3v44.1c0,0.5-0.2,0.9-0.5,1.3
			c-0.4,0.4-0.8,0.5-1.3,0.5H180.9z"/>
		<path class="st0" d="M196.2,78.1c0-3,1.1-5.5,3.4-7.4c2.3-2,6-3.4,11.2-4.3l8-1.4c0-1.1-0.3-2-0.9-2.7c-0.6-0.7-1.6-1.1-3.1-1.1
			c-1,0-1.9,0.1-2.4,0.4c-0.6,0.3-1,0.6-1.3,0.8c-0.4,0.4-0.8,0.6-1.2,0.7c-0.4,0.1-0.8,0.1-1.3,0.1h-8.7c-0.5,0-0.8-0.1-1.1-0.4
			c-0.3-0.3-0.4-0.6-0.4-1.1c0.1-1,0.5-2.1,1.4-3.3c0.8-1.1,1.9-2.2,3.4-3.1c1.4-1,3.1-1.8,5.1-2.4c2-0.6,4.1-1,6.5-1
			c2.8,0,5.2,0.3,7.2,1c2,0.7,3.7,1.6,5.1,2.8c1.3,1.2,2.3,2.6,3,4.3c0.6,1.7,1,3.5,1,5.5v20.7c0,0.5-0.2,0.9-0.5,1.3
			c-0.4,0.4-0.8,0.5-1.3,0.5h-8.6c-0.5,0-0.9-0.2-1.3-0.5c-0.4-0.4-0.5-0.8-0.5-1.3v-1.9c-1.1,1.4-2.4,2.4-4.1,3.2
			c-1.6,0.8-3.7,1.2-6.4,1.2c-2,0-3.7-0.3-5.2-0.8c-1.5-0.5-2.8-1.3-3.8-2.3c-1-1-1.8-2.1-2.4-3.4C196.5,81.1,196.2,79.7,196.2,78.1
			z M211.8,79.7c1,0,1.9-0.2,2.8-0.5c0.9-0.3,1.6-0.8,2.3-1.4c0.6-0.6,1.1-1.3,1.5-2.1c0.4-0.8,0.5-1.6,0.5-2.6l-6.3,1
			c-1.2,0.2-2.2,0.6-3,1.2c-0.7,0.5-1.1,1.3-1.1,2.1c0,0.9,0.3,1.5,0.9,1.8S210.8,79.7,211.8,79.7z"/>
		<path class="st0" d="M258.8,77.6c0-0.5-0.2-0.9-0.5-1.2c-0.3-0.3-0.9-0.5-1.7-0.7c-0.8-0.2-1.9-0.4-3.2-0.5c-1.3-0.2-3-0.5-5-0.8
			c-3.5-0.6-6.1-1.9-8-3.8c-1.9-1.9-2.8-4.4-2.8-7.5c0-1.5,0.4-3,1.2-4.3c0.8-1.3,1.9-2.5,3.2-3.5c1.4-1,3.1-1.8,5-2.4
			c2-0.6,4.1-0.9,6.6-0.9c2.4,0,4.6,0.3,6.6,0.9c2,0.6,3.7,1.3,5.2,2.2c1.5,0.9,2.6,1.9,3.4,3.1c0.8,1.2,1.3,2.3,1.4,3.4
			c0,0.5-0.1,0.9-0.5,1.3c-0.4,0.4-0.8,0.5-1.3,0.5h-8.1c-0.5,0-0.9-0.1-1.2-0.3c-0.3-0.2-0.6-0.5-1.1-0.7c-0.4-0.3-0.9-0.5-1.6-0.8
			c-0.7-0.2-1.6-0.3-2.8-0.3c-1,0-1.9,0.1-2.6,0.4c-0.7,0.3-1.1,0.8-1.1,1.5c0,0.5,0.1,0.9,0.3,1.2c0.2,0.3,0.7,0.5,1.4,0.6
			c0.7,0.2,1.6,0.3,2.9,0.5c1.2,0.2,2.8,0.4,4.8,0.8c4.1,0.7,7.2,2.1,9,4.2c1.9,2.1,2.8,4.5,2.8,7.3c0,1.5-0.4,3-1.2,4.3
			c-0.8,1.3-1.9,2.5-3.4,3.5c-1.5,1-3.3,1.8-5.5,2.4c-2.1,0.6-4.6,0.9-7.3,0.9c-2.7,0-5.1-0.3-7.2-0.9c-2.1-0.6-3.8-1.4-5.2-2.4
			c-1.4-1-2.5-2-3.2-3.1c-0.8-1.1-1.2-2.3-1.3-3.3c0-0.5,0.1-0.9,0.5-1.3s0.8-0.5,1.3-0.5h8.5c0.5,0,0.9,0.1,1.1,0.4
			c0.2,0.3,0.5,0.5,0.9,0.8c0.4,0.3,0.9,0.6,1.6,0.8c0.7,0.2,1.7,0.4,3.1,0.4c1.4,0,2.5-0.2,3.5-0.5
			C258.3,78.8,258.8,78.3,258.8,77.6z"/>
		<path class="st0" d="M313.5,86.4c0,0.5-0.2,0.9-0.5,1.3c-0.4,0.4-0.8,0.5-1.3,0.5h-8.6c-0.5,0-0.9-0.2-1.3-0.5
			c-0.4-0.4-0.5-0.8-0.5-1.3V69.1c0-2-0.5-3.5-1.4-4.7c-1-1.2-2.5-1.8-4.5-1.8c-2,0-3.5,0.6-4.5,1.8c-0.9,1.2-1.4,2.8-1.4,4.7v17.3
			c0,0.5-0.2,0.9-0.5,1.3c-0.4,0.4-0.8,0.5-1.3,0.5H279c-0.5,0-0.9-0.2-1.3-0.5c-0.4-0.4-0.5-0.8-0.5-1.3V41.6
			c0-0.5,0.2-0.9,0.5-1.3c0.4-0.4,0.8-0.5,1.3-0.5h8.6c0.5,0,0.9,0.2,1.3,0.5c0.4,0.4,0.5,0.8,0.5,1.3v14.5c0.8-1,2-1.9,3.6-2.8
			c1.6-0.9,3.5-1.3,5.7-1.3c2.2,0,4.2,0.3,6,0.9c1.8,0.6,3.4,1.6,4.7,2.8c1.3,1.3,2.3,2.9,3,4.8c0.7,2,1.1,4.3,1.1,7V86.4z"/>
		<path class="st0" d="M331.6,87.7c-0.3-0.4-0.6-0.8-0.8-1.2L317,54.9c0-0.1-0.1-0.3-0.1-0.5c0-0.5,0.2-0.8,0.5-1.2
			c0.3-0.3,0.7-0.5,1.2-0.5h8.7c0.7,0,1.2,0.2,1.5,0.5c0.3,0.4,0.6,0.7,0.7,1.1l7.5,17.8l7.5-17.8c0.2-0.4,0.4-0.7,0.8-1.1
			c0.3-0.4,0.8-0.5,1.5-0.5h8.7c0.5,0,0.8,0.2,1.2,0.5c0.3,0.3,0.5,0.7,0.5,1.2c0,0.2,0,0.3-0.1,0.5l-13.8,31.7
			c-0.2,0.4-0.5,0.8-0.8,1.2c-0.3,0.4-0.8,0.5-1.5,0.5H333C332.4,88.2,331.9,88.1,331.6,87.7z"/>
		<path class="st0" d="M374.6,47.1c0,0.5-0.2,0.9-0.5,1.3c-0.4,0.4-0.8,0.5-1.3,0.5h-8.6c-0.5,0-0.9-0.2-1.3-0.5
			c-0.4-0.4-0.5-0.8-0.5-1.3v-6.9c0-0.5,0.2-0.9,0.5-1.3c0.4-0.4,0.8-0.5,1.3-0.5h8.6c0.5,0,0.9,0.2,1.3,0.5s0.5,0.8,0.5,1.3V47.1z
			 M374.6,86.4c0,0.5-0.2,0.9-0.5,1.3c-0.4,0.4-0.8,0.5-1.3,0.5h-8.6c-0.5,0-0.9-0.2-1.3-0.5c-0.4-0.4-0.5-0.8-0.5-1.3V54.6
			c0-0.5,0.2-0.9,0.5-1.3c0.4-0.4,0.8-0.5,1.3-0.5h8.6c0.5,0,0.9,0.2,1.3,0.5s0.5,0.8,0.5,1.3V86.4z"/>
		<path class="st0" d="M394.8,86.4c0,0.5-0.2,0.9-0.5,1.3c-0.4,0.4-0.8,0.5-1.3,0.5h-8.6c-0.5,0-0.9-0.2-1.3-0.5
			c-0.4-0.4-0.5-0.8-0.5-1.3V41.6c0-0.5,0.2-0.9,0.5-1.3c0.4-0.4,0.8-0.5,1.3-0.5h8.6c0.5,0,0.9,0.2,1.3,0.5
			c0.4,0.4,0.5,0.8,0.5,1.3V86.4z"/>
		<path class="st0" d="M415,86.4c0,0.5-0.2,0.9-0.5,1.3c-0.4,0.4-0.8,0.5-1.3,0.5h-8.6c-0.5,0-0.9-0.2-1.3-0.5
			c-0.4-0.4-0.5-0.8-0.5-1.3V41.6c0-0.5,0.2-0.9,0.5-1.3c0.4-0.4,0.8-0.5,1.3-0.5h8.6c0.5,0,0.9,0.2,1.3,0.5
			c0.4,0.4,0.5,0.8,0.5,1.3V86.4z"/>
		<path class="st0" d="M433.6,74.4c0,1,0.2,1.9,0.6,2.6c0.4,0.7,0.9,1.2,1.5,1.6c0.6,0.4,1.3,0.7,2,0.9c0.7,0.2,1.4,0.2,2.1,0.2
			c1.4,0,2.4-0.1,3.2-0.4s1.5-0.7,2-1.2c0.5-0.4,0.9-0.7,1.1-0.8c0.2-0.1,0.6-0.2,1.2-0.2h8.9c1,0,1.5,0.5,1.5,1.5
			c0,0.5-0.3,1.4-1,2.5c-0.7,1.1-1.7,2.3-3.2,3.4c-1.4,1.2-3.3,2.2-5.6,3c-2.3,0.9-5,1.3-8.1,1.3c-3,0-5.6-0.4-7.9-1.3
			c-2.3-0.8-4.2-2.1-5.8-3.7c-1.6-1.6-2.8-3.5-3.5-5.8c-0.8-2.3-1.2-4.8-1.2-7.7c0-2.6,0.4-5.1,1.2-7.3s2-4.2,3.5-5.8
			c1.6-1.6,3.5-2.9,5.8-3.9c2.3-0.9,4.9-1.4,7.9-1.4c3.3,0,6.2,0.6,8.5,1.7c2.3,1.1,4.3,2.6,5.7,4.3c1.5,1.8,2.5,3.8,3.2,6
			c0.7,2.2,1,4.4,1,6.6v1.9c0,0.5-0.2,0.9-0.5,1.3c-0.4,0.4-0.8,0.5-1.3,0.5H433.6z M439.7,61.3c-1.9,0-3.4,0.6-4.4,1.7
			c-1,1.1-1.6,2.4-1.8,3.8h12.3c-0.2-1.4-0.8-2.7-1.8-3.8C443.1,61.8,441.6,61.3,439.7,61.3z"/>
		<path class="st0" d="M161.1,100.3c2.1,0,3.9,0.3,5.5,0.9c1.6,0.6,2.9,1.3,3.9,2.3c1,0.9,1.8,1.9,2.4,3c0.5,1.1,0.8,2.2,0.9,3.2
			c0,0.3-0.1,0.5-0.3,0.8c-0.2,0.2-0.5,0.3-0.9,0.3h-1.1c-0.2,0-0.4-0.1-0.7-0.2c-0.3-0.1-0.4-0.4-0.5-0.9c-0.2-1.8-1.2-3.3-2.8-4.4
			c-1.7-1.2-3.8-1.7-6.5-1.7c-1.3,0-2.5,0.1-3.6,0.4s-2.1,0.6-2.8,1.2c-0.8,0.5-1.4,1.2-1.8,2c-0.4,0.8-0.7,1.8-0.7,2.9
			c0,1.1,0.2,2,0.6,2.7c0.4,0.8,1.1,1.4,2,2c0.9,0.6,2,1.2,3.4,1.7c1.4,0.5,3,1.1,4.9,1.7c2,0.6,3.7,1.3,5.2,1.9
			c1.5,0.6,2.7,1.3,3.7,2.1c1,0.8,1.7,1.7,2.2,2.7c0.5,1,0.7,2.3,0.7,3.8c0,3.3-1.2,5.8-3.6,7.6c-2.4,1.8-5.7,2.7-9.9,2.7
			c-2.2,0-4.1-0.3-5.8-0.8c-1.7-0.6-3.1-1.3-4.3-2.2c-1.2-0.9-2.1-1.9-2.7-3.1c-0.6-1.2-1-2.4-1-3.6c0-0.3,0.1-0.5,0.3-0.7
			c0.2-0.2,0.5-0.3,0.8-0.3h1.1c0.4,0,0.6,0.1,0.8,0.3c0.2,0.2,0.3,0.5,0.4,0.7c0.1,0.8,0.4,1.5,0.8,2.3c0.4,0.8,1.1,1.5,1.9,2.1
			c0.8,0.6,1.9,1.1,3.1,1.5c1.3,0.4,2.8,0.6,4.5,0.6c3.5,0,6.1-0.6,7.7-1.9s2.4-3,2.4-5.1c0-1.1-0.2-2-0.7-2.7
			c-0.5-0.7-1.2-1.4-2.1-2c-1-0.6-2.2-1.2-3.6-1.7c-1.5-0.5-3.2-1.1-5.2-1.8c-1.9-0.6-3.6-1.2-5-1.8c-1.4-0.6-2.5-1.3-3.4-2.1
			c-0.9-0.8-1.6-1.7-2-2.8c-0.4-1.1-0.6-2.3-0.6-3.8c0-1.4,0.3-2.6,0.8-3.8c0.6-1.2,1.3-2.2,2.4-3.1c1-0.9,2.3-1.5,3.9-2
			C157.3,100.6,159.1,100.3,161.1,100.3z"/>
		<path class="st0" d="M187.2,129.2c0,1.9,0.3,3.4,0.9,4.5c0.6,1.1,1.7,1.6,3.4,1.6h2.9c0.8,0,1.2,0.4,1.2,1.2v0.8
			c0,0.8-0.4,1.2-1.2,1.2h-3.2c-1.4,0-2.6-0.2-3.5-0.7c-0.9-0.5-1.7-1.1-2.3-1.9c-0.6-0.8-0.9-1.8-1.2-2.8c-0.2-1.1-0.3-2.3-0.3-3.5
			v-15.8h-4.2c-0.8,0-1.2-0.4-1.2-1.2v-0.8c0-0.8,0.4-1.2,1.2-1.2h4.2v-9c0-0.8,0.4-1.2,1.2-1.2h0.9c0.8,0,1.2,0.4,1.2,1.2v9h6.7
			c0.8,0,1.2,0.4,1.2,1.2v0.8c0,0.8-0.4,1.2-1.2,1.2h-6.7V129.2z"/>
		<path class="st0" d="M219.3,138.4c-0.8,0-1.2-0.4-1.2-1.2v-2.5c-0.3,0.5-0.7,1-1.3,1.5c-0.5,0.5-1.2,0.9-1.9,1.3
			c-0.8,0.4-1.6,0.7-2.7,1c-1,0.3-2.3,0.4-3.6,0.4c-1.3,0-2.5-0.2-3.7-0.6c-1.2-0.4-2.2-1-3.1-1.7c-0.9-0.7-1.6-1.6-2.1-2.5
			c-0.5-1-0.8-2-0.8-3.2c0-1.2,0.3-2.3,0.8-3.3c0.5-1,1.2-1.8,2.2-2.5c0.9-0.7,2-1.3,3.4-1.8c1.3-0.5,2.7-0.8,4.3-1l8.5-1.2v-1.9
			c0-1.9-0.6-3.4-1.7-4.5c-1.2-1.1-3-1.6-5.6-1.6c-2,0-3.5,0.4-4.6,1.2c-1.1,0.8-1.8,1.6-2.1,2.5c-0.1,0.4-0.3,0.7-0.5,0.9
			c-0.2,0.2-0.5,0.2-0.8,0.2h-0.7c-0.3,0-0.6-0.1-0.8-0.3c-0.2-0.2-0.3-0.5-0.3-0.8c0-0.5,0.2-1.1,0.5-1.9c0.4-0.7,0.9-1.5,1.7-2.2
			c0.8-0.7,1.8-1.3,3.1-1.8c1.3-0.5,2.8-0.8,4.6-0.8c2.1,0,3.9,0.3,5.2,0.9c1.4,0.6,2.5,1.3,3.2,2.2c0.8,0.9,1.3,1.9,1.6,3
			c0.3,1.1,0.5,2.2,0.5,3.3v17.9c0,0.8-0.4,1.2-1.2,1.2H219.3z M209.1,135.8c1.2,0,2.4-0.2,3.5-0.6c1.1-0.4,2-1,2.9-1.8
			c0.8-0.8,1.5-1.9,1.9-3.1c0.5-1.3,0.7-2.7,0.7-4.4V124l-6.9,1c-5.9,0.8-8.9,2.7-8.9,5.7c0,0.9,0.2,1.7,0.6,2.3
			c0.4,0.6,0.9,1.2,1.6,1.6c0.6,0.4,1.4,0.7,2.2,0.9C207.5,135.7,208.3,135.8,209.1,135.8z"/>
		<path class="st0" d="M240.4,110.5h2c0.8,0,1.2,0.4,1.2,1.2v0.8c0,0.8-0.4,1.2-1.2,1.2h-2.3c-2.1,0-3.8,0.6-5.1,1.9
			c-1.3,1.3-1.9,2.9-1.9,5.1v16.6c0,0.4-0.1,0.6-0.3,0.9c-0.2,0.2-0.5,0.3-0.9,0.3H231c-0.8,0-1.2-0.4-1.2-1.2v-25.5
			c0-0.4,0.1-0.7,0.3-0.9c0.2-0.2,0.5-0.3,0.9-0.3h0.9c0.4,0,0.7,0.1,0.9,0.3c0.2,0.2,0.3,0.5,0.3,0.9v2.5
			C234.4,111.8,236.8,110.5,240.4,110.5z"/>
		<path class="st0" d="M253.9,129.2c0,1.9,0.3,3.4,0.9,4.5c0.6,1.1,1.7,1.6,3.4,1.6h2.9c0.8,0,1.2,0.4,1.2,1.2v0.8
			c0,0.8-0.4,1.2-1.2,1.2h-3.2c-1.4,0-2.6-0.2-3.5-0.7c-0.9-0.5-1.7-1.1-2.3-1.9c-0.6-0.8-0.9-1.8-1.2-2.8c-0.2-1.1-0.3-2.3-0.3-3.5
			v-15.8h-4.2c-0.8,0-1.2-0.4-1.2-1.2v-0.8c0-0.8,0.4-1.2,1.2-1.2h4.2v-9c0-0.8,0.4-1.2,1.2-1.2h0.9c0.8,0,1.2,0.4,1.2,1.2v9h6.7
			c0.8,0,1.2,0.4,1.2,1.2v0.8c0,0.8-0.4,1.2-1.2,1.2h-6.7V129.2z"/>
		<path class="st0" d="M267.5,111.7c0-0.8,0.4-1.2,1.2-1.2h0.9c0.8,0,1.2,0.4,1.2,1.2v15c0,6.1,2.7,9.2,8,9.2c2.6,0,4.6-0.8,6.1-2.4
			c1.5-1.6,2.3-3.9,2.3-6.8v-15c0-0.8,0.4-1.2,1.2-1.2h0.9c0.8,0,1.2,0.4,1.2,1.2v25.5c0,0.8-0.4,1.2-1.2,1.2h-0.9
			c-0.8,0-1.2-0.4-1.2-1.2v-2.5c-1,1.3-2.1,2.3-3.5,3.1c-1.4,0.8-3.2,1.2-5.5,1.2c-1.8,0-3.4-0.3-4.7-0.9c-1.3-0.6-2.5-1.4-3.4-2.5
			c-0.9-1.1-1.6-2.3-2-3.8c-0.4-1.5-0.6-3.1-0.6-4.8V111.7z"/>
		<path class="st0" d="M311.5,139c-2.3,0-4.1-0.4-5.5-1.2c-1.4-0.8-2.6-1.8-3.5-3v12.7c0,0.8-0.4,1.2-1.2,1.2h-0.9
			c-0.8,0-1.2-0.4-1.2-1.2v-35.7c0-0.8,0.4-1.2,1.2-1.2h0.9c0.8,0,1.2,0.4,1.2,1.2v2.5c0.9-1.2,2.1-2.2,3.5-3
			c1.4-0.8,3.3-1.2,5.5-1.2c2.1,0,3.8,0.4,5.3,1.1c1.4,0.7,2.6,1.7,3.5,2.9c0.9,1.2,1.5,2.6,2,4.1c0.4,1.5,0.7,3.1,0.7,4.6
			c0,0.5,0.1,1.1,0.1,1.8c0,0.6,0,1.2-0.1,1.8c-0.1,1.6-0.3,3.1-0.7,4.6c-0.4,1.5-1.1,2.9-2,4.1c-0.9,1.2-2.1,2.2-3.5,2.9
			C315.3,138.6,313.5,139,311.5,139z M302.5,122.5c0,0.5-0.1,1.2-0.1,2.1s0,1.6,0.1,2.1c0,1.1,0.2,2.2,0.6,3.2
			c0.3,1.1,0.9,2.1,1.6,2.9c0.7,0.9,1.6,1.6,2.7,2.1c1.1,0.6,2.4,0.8,3.9,0.8c1.6,0,2.9-0.3,3.9-0.8c1.1-0.5,1.9-1.3,2.6-2.2
			s1.1-2,1.4-3.2c0.3-1.2,0.5-2.4,0.6-3.7c0-1,0-2,0-3c-0.1-1.3-0.3-2.5-0.6-3.7c-0.3-1.2-0.8-2.2-1.4-3.1s-1.5-1.6-2.6-2.2
			c-1.1-0.6-2.4-0.8-3.9-0.8c-1.5,0-2.8,0.3-3.9,0.9c-1.1,0.6-2,1.3-2.7,2.2c-0.7,0.9-1.2,1.9-1.6,3
			C302.7,120.3,302.5,121.4,302.5,122.5z"/>
		<path class="st0" d="M368.7,132.3l6.3-30.6c0.1-0.5,0.5-0.8,1.2-0.8h1.1c0.3,0,0.5,0.1,0.8,0.3c0.2,0.2,0.3,0.5,0.3,0.8
			c0,0.1,0,0.3-0.1,0.6l-7.3,34.5c-0.2,0.9-0.7,1.3-1.5,1.3h-0.8c-0.9,0-1.4-0.4-1.7-1.3l-7.1-22.6l-7.1,22.6
			c-0.3,0.9-0.8,1.3-1.7,1.3h-0.8c-0.8,0-1.3-0.4-1.5-1.3l-7.3-34.5c-0.1-0.4-0.1-0.6-0.1-0.6c0-0.3,0.1-0.5,0.3-0.8
			c0.2-0.2,0.5-0.3,0.8-0.3h1.1c0.7,0,1.1,0.3,1.2,0.8l6.3,30.6l6.7-21.8c0.1-0.3,0.3-0.6,0.5-0.9c0.2-0.2,0.6-0.4,1.1-0.4h1.2
			c0.5,0,0.9,0.1,1.1,0.4c0.2,0.2,0.4,0.5,0.5,0.9L368.7,132.3z"/>
		<path class="st0" d="M382.7,122.3c0.1-1.8,0.5-3.5,1.1-5c0.6-1.5,1.4-2.8,2.4-3.9c1-1.1,2.2-1.9,3.6-2.5c1.4-0.6,3-0.9,4.7-0.9
			c3.8,0,6.7,1.2,8.7,3.7c2.1,2.4,3.1,5.8,3.1,10.2v0.8c0,0.4-0.1,0.6-0.3,0.9c-0.2,0.2-0.5,0.3-0.9,0.3H386v0.5
			c0,1.2,0.3,2.4,0.7,3.5c0.4,1.1,1,2.2,1.7,3c0.7,0.9,1.6,1.6,2.6,2.1c1,0.5,2.2,0.8,3.5,0.8c1.1,0,2.1-0.1,3-0.4
			c0.9-0.3,1.6-0.6,2.2-1c0.6-0.4,1.1-0.8,1.5-1.2c0.4-0.4,0.6-0.7,0.8-0.9c0.3-0.5,0.6-0.7,0.8-0.8c0.2-0.1,0.5-0.1,0.9-0.1h0.9
			c0.3,0,0.6,0.1,0.8,0.3c0.2,0.2,0.3,0.5,0.3,0.8c0,0.5-0.3,1.1-0.8,1.9c-0.5,0.8-1.3,1.5-2.2,2.1c-0.9,0.7-2.1,1.3-3.5,1.7
			c-1.4,0.5-2.9,0.7-4.6,0.7c-1.7,0-3.3-0.3-4.7-0.9c-1.4-0.6-2.6-1.4-3.6-2.5c-1-1.1-1.8-2.4-2.4-3.9c-0.6-1.5-1-3.2-1.1-5
			c0-0.5-0.1-1.3-0.1-2.1C382.7,123.6,382.7,122.9,382.7,122.3z M386,122.8h17.1v-0.2c0-1.3-0.2-2.6-0.6-3.7c-0.4-1.2-1-2.2-1.7-3
			c-0.7-0.9-1.6-1.5-2.7-2c-1.1-0.5-2.3-0.7-3.6-0.7c-1.4,0-2.6,0.2-3.6,0.7c-1,0.5-1.9,1.2-2.7,2c-0.7,0.9-1.3,1.9-1.7,3
			c-0.4,1.2-0.6,2.4-0.6,3.7V122.8z"/>
		<path class="st0" d="M412,122.3c0.1-1.8,0.5-3.5,1.1-5c0.6-1.5,1.4-2.8,2.4-3.9c1-1.1,2.2-1.9,3.6-2.5c1.4-0.6,3-0.9,4.7-0.9
			c3.8,0,6.7,1.2,8.7,3.7c2.1,2.4,3.1,5.8,3.1,10.2v0.8c0,0.4-0.1,0.6-0.3,0.9c-0.2,0.2-0.5,0.3-0.9,0.3h-19.1v0.5
			c0,1.2,0.3,2.4,0.7,3.5c0.4,1.1,1,2.2,1.7,3c0.7,0.9,1.6,1.6,2.6,2.1c1,0.5,2.2,0.8,3.5,0.8c1.1,0,2.1-0.1,3-0.4
			c0.9-0.3,1.6-0.6,2.2-1c0.6-0.4,1.1-0.8,1.5-1.2c0.4-0.4,0.6-0.7,0.8-0.9c0.3-0.5,0.6-0.7,0.8-0.8c0.2-0.1,0.5-0.1,0.9-0.1h0.9
			c0.3,0,0.6,0.1,0.8,0.3c0.2,0.2,0.3,0.5,0.3,0.8c0,0.5-0.3,1.1-0.8,1.9c-0.5,0.8-1.3,1.5-2.2,2.1c-0.9,0.7-2.1,1.3-3.5,1.7
			c-1.4,0.5-2.9,0.7-4.6,0.7c-1.7,0-3.3-0.3-4.7-0.9c-1.4-0.6-2.6-1.4-3.6-2.5c-1-1.1-1.8-2.4-2.4-3.9c-0.6-1.5-1-3.2-1.1-5
			c0-0.5-0.1-1.3-0.1-2.1C412,123.6,412,122.9,412,122.3z M415.3,122.8h17.1v-0.2c0-1.3-0.2-2.6-0.6-3.7c-0.4-1.2-1-2.2-1.7-3
			c-0.7-0.9-1.6-1.5-2.7-2c-1.1-0.5-2.3-0.7-3.6-0.7c-1.4,0-2.6,0.2-3.6,0.7c-1,0.5-1.9,1.2-2.7,2c-0.7,0.9-1.3,1.9-1.7,3
			c-0.4,1.2-0.6,2.4-0.6,3.7V122.8z"/>
		<path class="st0" d="M448.1,123l14.9,13.3c0.5,0.4,0.7,0.8,0.7,1.1c0,0.7-0.4,1.1-1.1,1.1h-0.9c-0.5,0-0.9,0-1.2-0.1
			c-0.2-0.1-0.6-0.3-1.1-0.8l-13.5-12v11.7c0,0.8-0.4,1.2-1.2,1.2h-0.9c-0.8,0-1.2-0.4-1.2-1.2v-35.7c0-0.8,0.4-1.2,1.2-1.2h0.9
			c0.8,0,1.2,0.4,1.2,1.2v19l12-9.1c0.5-0.4,0.9-0.6,1.1-0.8c0.2-0.1,0.6-0.2,1.2-0.2h1c0.7,0,1.1,0.4,1.1,1.1c0,0.1,0,0.3-0.1,0.5
			c-0.1,0.2-0.3,0.4-0.6,0.6L448.1,123z"/>
	</g>
</g>
</svg>
